<svg width="150" height="30" viewBox="0 0 150 30" fill="none" xmlns="http://www.w3.org/2000/svg">
<path d="M9.1742 12.6063L15.0003 6.78045L20.8296 12.6093L24.2196 9.21934L15.0003 0L5.78414 9.21626L9.1742 12.6063Z" fill="#F3BA2F"/>
<path d="M6.78016 14.9995L3.39016 11.6095L0 14.9996L3.39 18.3896L6.78016 14.9995Z" fill="#F3BA2F"/>
<path d="M9.1742 17.3937L15.0003 23.2195L20.8293 17.3909L24.2213 20.779L24.2196 20.7809L15.0003 30L5.77917 20.7792L9.1742 17.3937Z" fill="#F3BA2F"/>
<path d="M26.6109 18.3912L30.001 15.0011L26.611 11.6111L23.2209 15.0012L26.6109 18.3912Z" fill="#F3BA2F"/>
<path d="M18.439 14.9982H18.4404L15.0003 11.5582L11.5586 14.9999L11.5634 15.0049L15.0003 18.4418L18.4404 15.0018L18.4421 14.9999L18.439 14.9982Z" fill="#F3BA2F"/>
<path d="M35.2859 7.26927H42.6591C44.4891 7.26927 45.8729 7.7389 46.8108 8.67816C47.5365 9.40558 47.8993 10.3072 47.8993 11.3827V11.4282C47.8993 11.8826 47.8432 12.2842 47.7301 12.6326C47.6173 12.9813 47.4666 13.2953 47.2783 13.5756C47.0904 13.8561 46.8719 14.1023 46.6236 14.3142C46.375 14.5265 46.108 14.7084 45.822 14.8596C46.7418 15.2084 47.4659 15.6816 47.9939 16.2801C48.5215 16.8789 48.7857 17.7084 48.7857 18.7687V18.814C48.7857 19.5414 48.6459 20.1776 48.3661 20.7233C48.0863 21.2685 47.6853 21.7232 47.1633 22.0869C46.6413 22.4507 46.0137 22.7231 45.2801 22.9051C44.5465 23.0869 43.7335 23.1776 42.8414 23.1776H35.2859V7.26927ZM41.922 13.7007C42.6949 13.7007 43.3086 13.5685 43.7629 13.3031C44.2173 13.038 44.4446 12.6098 44.4446 12.0191V11.9736C44.4446 11.4436 44.2474 11.0384 43.8536 10.7578C43.4596 10.4775 42.8914 10.3373 42.1492 10.3373H38.6947V13.7007H41.922ZM42.8539 20.1099C43.6266 20.1099 44.2323 19.9701 44.672 19.6895C45.1113 19.4092 45.3312 18.9735 45.3312 18.3825V18.3373C45.3312 17.807 45.1265 17.3866 44.7175 17.0758C44.3083 16.7656 43.6494 16.6102 42.7402 16.6102H38.6947V20.1101L42.8539 20.1099Z" fill="#F3BA2F"/>
<path d="M53.1769 7.26927H56.6772V23.1781H53.1769V7.26927Z" fill="#F3BA2F"/>
<path d="M61.9784 7.26927H65.2052L72.66 17.0646V7.26927H76.1145V23.1781H73.1374L65.4327 13.0647V23.1781H61.9784V7.26927Z" fill="#F3BA2F"/>
<path d="M86.7109 7.15578H89.9379L96.7564 23.1781H93.0972L91.6426 19.6101H84.9153L83.4609 23.1781H79.8922L86.7109 7.15578ZM90.3927 16.5189L88.2788 11.3602L86.1657 16.5189H90.3927Z" fill="#F3BA2F"/>
<path d="M100.535 7.26927H103.762L111.216 17.0646V7.26927H114.671V23.1781H111.694L103.989 13.0647V23.1781H100.535V7.26927Z" fill="#F3BA2F"/>
<path d="M127.267 23.4506C126.1 23.4506 125.017 23.2383 124.017 22.8144C123.017 22.3905 122.153 21.8107 121.426 21.0757C120.699 20.3409 120.13 19.4734 119.722 18.4735C119.312 17.4734 119.108 16.4052 119.108 15.2688V15.2236C119.108 14.0872 119.312 13.023 119.722 12.0305C120.13 11.0381 120.699 10.1669 121.426 9.41696C122.153 8.66702 123.025 8.07584 124.039 7.64412C125.054 7.21241 126.176 6.99655 127.403 6.99655C128.145 6.99655 128.823 7.05745 129.437 7.17829C130.051 7.29984 130.607 7.46618 131.108 7.67824C131.608 7.89055 132.069 8.14811 132.494 8.45093C132.918 8.75422 133.312 9.08736 133.676 9.45108L131.449 12.0191C130.827 11.4587 130.195 11.0189 129.551 10.701C128.907 10.383 128.183 10.2238 127.38 10.2238C126.714 10.2238 126.096 10.3527 125.528 10.6102C124.96 10.8678 124.471 11.2237 124.062 11.6781C123.653 12.1326 123.335 12.6593 123.108 13.2576C122.881 13.8564 122.767 14.4964 122.767 15.1781V15.2233C122.767 15.905 122.881 16.5493 123.108 17.1549C123.335 17.7613 123.649 18.2913 124.051 18.7458C124.452 19.2002 124.937 19.5604 125.505 19.8255C126.074 20.0909 126.699 20.2231 127.38 20.2231C128.29 20.2231 129.058 20.0566 129.687 19.7232C130.316 19.3903 130.941 18.9356 131.562 18.3595L133.789 20.6096C133.38 21.0491 132.955 21.4432 132.517 21.7912C132.077 22.14 131.596 22.439 131.073 22.6893C130.551 22.939 129.978 23.1288 129.358 23.2572C128.736 23.3859 128.039 23.4506 127.267 23.4506Z" fill="#F3BA2F"/>
<path d="M137.909 7.26927H149.886V10.383H141.363V13.6102H148.863V16.7237H141.363V20.0646H150V23.1781H137.909V7.26927Z" fill="#F3BA2F"/>
</svg>
