<svg width="162" height="30" viewBox="0 0 162 30" fill="none" xmlns="http://www.w3.org/2000/svg">
<path d="M14.9498 0H6.57122L6.55517 0.0292293L5.39883 2.14269H14.9498C22.0246 2.14269 27.7635 7.89907 27.7635 15C27.7635 22.1009 22.0264 27.8573 14.9498 27.8573C7.87322 27.8573 2.13551 22.1003 2.13551 15C2.13493 13.6568 2.34458 12.3218 2.75679 11.0439H5.20323C3.46897 15.3439 4.73768 20.276 8.32937 23.1968C11.9211 26.1176 16.9928 26.3416 20.8264 23.7487C24.66 21.1559 26.3557 16.3547 25.0047 11.9184C23.6537 7.48217 19.573 4.45191 14.9498 4.4518H4.13607L2.96427 6.59389H14.9498C18.7149 6.59466 22.0168 9.11575 23.0213 12.7566C24.0257 16.3974 22.4858 20.2632 19.257 22.2065C16.0283 24.1497 11.9041 23.6928 9.17566 21.0896C6.44723 18.4864 5.78503 14.3765 7.55694 11.0433H10.3286C8.47857 13.2224 8.38908 16.3995 10.1135 18.68C11.8379 20.9604 14.9115 21.7296 17.5013 20.5288C20.0911 19.328 21.4991 16.4808 20.8857 13.6853C20.2723 10.8897 17.8027 8.89911 14.9498 8.90062H1.70151L0.529122 11.0439C0.178187 12.3331 0.000242768 13.6636 0 15C0 23.2838 6.6931 30 14.9498 30C23.2065 30 29.8996 23.2838 29.8996 15C29.8996 6.71618 23.2059 0 14.9498 0ZM14.9498 11.0439C17.1274 11.0439 18.8926 12.8151 18.8926 15C18.8926 17.1849 17.1274 18.9561 14.9498 18.9561C12.7722 18.9561 11.0069 17.1849 11.0069 15C11.0069 12.8151 12.7722 11.0439 14.9498 11.0439ZM36.4708 15.3167C36.4708 11.1495 39.2573 8.22178 43.4362 8.22178C46.0122 8.22178 48.1151 9.35516 49.2191 11.2551L46.8012 12.9695C46.0384 11.7555 44.8821 11.1757 43.5153 11.1757C41.2561 11.1757 39.7567 12.7863 39.7567 15.3167C39.7567 17.8221 41.2549 19.4572 43.5153 19.4572C44.8827 19.4572 46.0384 18.8505 46.8012 17.6372L49.2191 19.3516C48.1151 21.2771 46.0122 22.3849 43.4362 22.3849C39.2573 22.3849 36.4708 19.4572 36.4708 15.3167ZM49.6733 15.3167C49.6733 11.4131 52.4336 8.22178 56.7183 8.22178C61.0292 8.22178 63.7628 11.4131 63.7628 15.3167C63.7628 19.1941 61.028 22.3849 56.7183 22.3849C52.4366 22.3849 49.6733 19.1935 49.6733 15.3167ZM60.4769 15.3167C60.4769 12.8639 59.031 11.1495 56.7183 11.1495C54.4057 11.1495 52.9592 12.8639 52.9592 15.3167C52.9592 17.7428 54.4051 19.4572 56.7183 19.4572C59.0316 19.4572 60.4769 17.7428 60.4769 15.3167ZM84.8124 8.58984L80.7102 22.0144H77.2465L74.347 12.5459L71.422 22.0144H67.9536L63.8752 8.58984H67.057L69.8281 18.2689L72.8043 8.58984H75.8833L78.86 18.2689L81.6049 8.58984H84.8124ZM129.873 8.58984L125.768 22.0144H122.304L119.404 12.5459L116.479 22.0144H113.018L108.939 8.59282H112.12L114.891 18.2719L117.865 8.58984H120.944L123.92 18.2689L126.666 8.58984H129.873ZM94.4097 8.53853V11.545C93.923 11.4641 93.4309 11.42 92.9377 11.4131C90.5982 11.4131 89.3628 12.6002 89.3628 15.3955V22.0168H86.1578V8.58984H89.3087V10.8327C89.9662 9.27702 91.4115 8.35361 93.2516 8.35361C93.6455 8.3459 94.0376 8.40851 94.4097 8.53853ZM107.714 8.58984V20.6693C107.714 25.1796 105.217 27.6581 100.801 27.6581C98.5143 27.6581 96.4114 26.9727 95.1493 25.7856L96.5951 23.4383C97.7247 24.3331 99.1974 24.7835 100.617 24.7835C103.088 24.7835 104.56 23.3858 104.56 20.6675V19.5097C103.798 20.9866 102.168 21.8832 100.196 21.8832C97.3573 21.8832 95.5702 20.0901 95.5702 16.8194V8.58984H98.777V16.0021C98.777 18.0595 99.6183 18.9561 101.3 18.9561C103.245 18.9561 104.534 17.7696 104.534 15.8172V8.58984H107.714ZM130.717 4.34502C130.717 3.1842 131.532 2.34013 132.767 2.34013C133.976 2.34013 134.789 3.1842 134.789 4.34502C134.789 5.50585 133.974 6.34932 132.767 6.34932C131.532 6.34932 130.717 5.50525 130.717 4.34502ZM131.164 8.59103H134.371V22.0156H131.164V8.59103ZM135.984 19.8264L137.719 17.7953C138.77 18.9561 140.401 19.6415 142.109 19.6415C143.634 19.6415 144.475 19.0617 144.475 18.2176C144.475 17.5054 143.949 17.0574 142.609 16.7406L140.427 16.2396C137.64 15.5804 136.458 14.2878 136.458 12.4415C136.458 9.96242 138.508 8.22178 141.978 8.22178C144.343 8.22178 146.315 9.03901 147.471 10.3585L145.762 12.4415C144.606 11.4394 143.292 10.9646 141.898 10.9646C140.4 10.9646 139.664 11.5187 139.664 12.3366C139.664 12.9695 140.11 13.3649 141.53 13.6811L143.843 14.2353C146.655 14.8682 147.681 16.1602 147.681 18.0064C147.681 20.6705 145.631 22.3849 142.082 22.3849C139.428 22.3849 137.194 21.3827 135.984 19.8264ZM161.923 16.2658H151.959C152.301 18.4288 153.72 19.589 155.902 19.589C157.4 19.589 158.662 19.0354 159.634 17.9009L161.554 19.8002C160.292 21.4352 158.268 22.3849 155.797 22.3849C151.538 22.3849 148.699 19.589 148.699 15.3692C148.699 11.202 151.434 8.22178 155.482 8.22178C159.372 8.22178 162 10.9383 162 15.0262C162 15.4406 161.974 15.8546 161.923 16.2658ZM151.959 14.0778H158.796C158.639 12.0991 157.429 11.0183 155.511 11.0183C153.538 11.0177 152.302 12.1516 151.959 14.0778Z" fill="#0066F5"/>
</svg>
