<svg width="24" height="19" viewBox="0 0 24 19" fill="none" xmlns="http://www.w3.org/2000/svg">
<rect y="0.929993" width="24" height="17.1429" rx="2" fill="white"/>
<mask id="mask0_1134_656" style="mask-type:alpha" maskUnits="userSpaceOnUse" x="0" y="0" width="24" height="19">
<rect y="0.929993" width="24" height="17.1429" rx="2" fill="white"/>
</mask>
<g mask="url(#mask0_1134_656)">
<rect y="0.929993" width="24" height="17.1429" fill="#0A17A7"/>
<path fill-rule="evenodd" clip-rule="evenodd" d="M-1.09929 -0.712646L9.14287 6.19577V-0.212821H14.8572V6.19573L25.0992 -0.71264L26.3774 1.1823L18.2796 6.64432H24V12.3586H18.2796L26.3774 17.8206L25.0992 19.7155L14.8572 12.8072V19.2157H9.14287V12.8071L-1.09928 19.7156L-2.37744 17.8206L5.72032 12.3586H7.62939e-06V6.64432H5.72034L-2.37744 1.1823L-1.09929 -0.712646Z" fill="white"/>
<path fill-rule="evenodd" clip-rule="evenodd" d="M27.1358 -0.967506C27.237 -0.813709 27.1944 -0.607009 27.0406 -0.50583L16.1845 6.63605C16.0307 6.73723 15.824 6.69457 15.7229 6.54078C15.6217 6.38698 15.6643 6.18028 15.8181 6.0791L26.6742 -1.06278C26.828 -1.16396 27.0347 -1.1213 27.1358 -0.967506Z" fill="#DB1F35"/>
<path fill-rule="evenodd" clip-rule="evenodd" d="M27.162 19.4165C27.2648 19.2639 27.2245 19.0567 27.0718 18.9538L17.34 12.3943C17.1873 12.2914 16.9802 12.3317 16.8773 12.4844C16.7744 12.637 16.8147 12.8442 16.9674 12.9471L26.6992 19.5066C26.8519 19.6095 27.0591 19.5692 27.162 19.4165Z" fill="#DB1F35"/>
<path fill-rule="evenodd" clip-rule="evenodd" d="M-3.56561 -0.688554C-3.46273 -0.841216 -3.25556 -0.881569 -3.1029 -0.778684L7.04826 6.06255C7.20092 6.16544 7.24127 6.3726 7.13839 6.52526C7.0355 6.67792 6.82834 6.71828 6.67568 6.61539L-3.47548 -0.225846C-3.62814 -0.328731 -3.6685 -0.535892 -3.56561 -0.688554Z" fill="#DB1F35"/>
<path fill-rule="evenodd" clip-rule="evenodd" d="M-3.56699 20.2375C-3.46524 20.3909 -3.25839 20.4328 -3.10497 20.331L8.1472 12.8691C8.30062 12.7674 8.34252 12.5605 8.24077 12.4071C8.13903 12.2537 7.93217 12.2118 7.77875 12.3135L-3.47341 19.7754C-3.62684 19.8772 -3.66873 20.084 -3.56699 20.2375Z" fill="#DB1F35"/>
<path fill-rule="evenodd" clip-rule="evenodd" d="M0 11.2157H10.2857V18.0728H13.7143V11.2157H24V7.78714H13.7143V0.929993H10.2857V7.78714H0V11.2157Z" fill="#E6273E"/>
</g>
</svg>
