<svg width="335" height="217" viewBox="0 0 335 217" fill="none" xmlns="http://www.w3.org/2000/svg">
<g clip-path="url(#clip0_577_33973)">
<rect x="258.737" y="10.7314" width="40.3484" height="28.7234" rx="1.18672" fill="white" stroke="#F5F5F5" stroke-width="0.339063"/>
<mask id="mask0_577_33973" style="mask-type:alpha" maskUnits="userSpaceOnUse" x="258" y="10" width="42" height="30">
<rect x="258.737" y="10.7314" width="40.3484" height="28.7234" rx="1.18672" fill="white" stroke="white" stroke-width="0.339063"/>
</mask>
<g mask="url(#mask0_577_33973)">
<rect x="285.692" y="10.5618" width="13.5625" height="29.0625" fill="#189B62"/>
<path fill-rule="evenodd" clip-rule="evenodd" d="M258.567 39.6243H272.13V10.5618H258.567V39.6243Z" fill="#189B62"/>
</g>
</g>
<g clip-path="url(#clip1_577_33973)">
<rect x="280.267" y="31.5837" width="40.6875" height="29.0625" rx="1.35625" fill="white"/>
<mask id="mask1_577_33973" style="mask-type:alpha" maskUnits="userSpaceOnUse" x="280" y="31" width="41" height="30">
<rect x="280.267" y="31.5837" width="40.6875" height="29.0625" rx="1.35625" fill="white"/>
</mask>
<g mask="url(#mask1_577_33973)">
<path fill-rule="evenodd" clip-rule="evenodd" d="M320.955 31.5837H280.267V33.5212H320.955V31.5837ZM320.955 35.4587H280.267V37.3962H320.955V35.4587ZM280.267 39.3337H320.955V41.2712H280.267V39.3337ZM320.955 43.2087H280.267V45.1462H320.955V43.2087ZM280.267 47.0837H320.955V49.0212H280.267V47.0837ZM320.955 50.9587H280.267V52.8962H320.955V50.9587ZM280.267 54.8337H320.955V56.7712H280.267V54.8337ZM320.955 58.7087H280.267V60.6462H320.955V58.7087Z" fill="#D02F44"/>
<rect x="280.267" y="31.5837" width="17.4375" height="13.5625" fill="#46467F"/>
<g filter="url(#filter0_d_577_33973)">
<path fill-rule="evenodd" clip-rule="evenodd" d="M288.017 34.4899C288.017 35.025 287.583 35.4587 287.048 35.4587C286.513 35.4587 286.08 35.025 286.08 34.4899C286.08 33.9549 286.513 33.5212 287.048 33.5212C287.583 33.5212 288.017 33.9549 288.017 34.4899ZM284.142 34.49C284.142 35.025 283.709 35.4587 283.173 35.4587C282.638 35.4587 282.205 35.025 282.205 34.49C282.205 33.9549 282.638 33.5212 283.173 33.5212C283.709 33.5212 284.142 33.9549 284.142 34.49ZM290.923 35.4587C291.458 35.4587 291.892 35.025 291.892 34.4899C291.892 33.9549 291.458 33.5212 290.923 33.5212C290.388 33.5212 289.955 33.9549 289.955 34.4899C289.955 35.025 290.388 35.4587 290.923 35.4587ZM295.767 34.4899C295.767 35.025 295.334 35.4587 294.798 35.4587C294.263 35.4587 293.83 35.025 293.83 34.4899C293.83 33.9549 294.263 33.5212 294.798 33.5212C295.334 33.5212 295.767 33.9549 295.767 34.4899ZM285.111 37.3962C285.646 37.3962 286.079 36.9624 286.079 36.4274C286.079 35.8924 285.646 35.4587 285.111 35.4587C284.576 35.4587 284.142 35.8924 284.142 36.4274C284.142 36.9624 284.576 37.3962 285.111 37.3962ZM289.954 36.4274C289.954 36.9624 289.521 37.3962 288.986 37.3962C288.451 37.3962 288.017 36.9624 288.017 36.4274C288.017 35.8924 288.451 35.4587 288.986 35.4587C289.521 35.4587 289.954 35.8924 289.954 36.4274ZM292.861 37.3962C293.396 37.3962 293.83 36.9624 293.83 36.4274C293.83 35.8924 293.396 35.4587 292.861 35.4587C292.326 35.4587 291.892 35.8924 291.892 36.4274C291.892 36.9624 292.326 37.3962 292.861 37.3962ZM295.767 38.3649C295.767 38.9 295.334 39.3337 294.798 39.3337C294.263 39.3337 293.83 38.9 293.83 38.3649C293.83 37.8299 294.263 37.3962 294.798 37.3962C295.334 37.3962 295.767 37.8299 295.767 38.3649ZM290.923 39.3337C291.458 39.3337 291.892 38.9 291.892 38.3649C291.892 37.8299 291.458 37.3962 290.923 37.3962C290.388 37.3962 289.955 37.8299 289.955 38.3649C289.955 38.9 290.388 39.3337 290.923 39.3337ZM288.017 38.3649C288.017 38.9 287.583 39.3337 287.048 39.3337C286.513 39.3337 286.08 38.9 286.08 38.3649C286.08 37.8299 286.513 37.3962 287.048 37.3962C287.583 37.3962 288.017 37.8299 288.017 38.3649ZM283.173 39.3337C283.708 39.3337 284.142 38.9 284.142 38.3649C284.142 37.8299 283.708 37.3962 283.173 37.3962C282.638 37.3962 282.205 37.8299 282.205 38.3649C282.205 38.9 282.638 39.3337 283.173 39.3337ZM286.079 40.3024C286.079 40.8374 285.646 41.2712 285.111 41.2712C284.576 41.2712 284.142 40.8374 284.142 40.3024C284.142 39.7674 284.576 39.3337 285.111 39.3337C285.646 39.3337 286.079 39.7674 286.079 40.3024ZM288.986 41.2712C289.521 41.2712 289.954 40.8374 289.954 40.3024C289.954 39.7674 289.521 39.3337 288.986 39.3337C288.451 39.3337 288.017 39.7674 288.017 40.3024C288.017 40.8374 288.451 41.2712 288.986 41.2712ZM293.83 40.3024C293.83 40.8374 293.396 41.2712 292.861 41.2712C292.326 41.2712 291.892 40.8374 291.892 40.3024C291.892 39.7674 292.326 39.3337 292.861 39.3337C293.396 39.3337 293.83 39.7674 293.83 40.3024ZM294.798 43.2087C295.334 43.2087 295.767 42.775 295.767 42.2399C295.767 41.7049 295.334 41.2712 294.798 41.2712C294.263 41.2712 293.83 41.7049 293.83 42.2399C293.83 42.775 294.263 43.2087 294.798 43.2087ZM291.892 42.2399C291.892 42.775 291.458 43.2087 290.923 43.2087C290.388 43.2087 289.955 42.775 289.955 42.2399C289.955 41.7049 290.388 41.2712 290.923 41.2712C291.458 41.2712 291.892 41.7049 291.892 42.2399ZM287.048 43.2087C287.583 43.2087 288.017 42.775 288.017 42.2399C288.017 41.7049 287.583 41.2712 287.048 41.2712C286.513 41.2712 286.08 41.7049 286.08 42.2399C286.08 42.775 286.513 43.2087 287.048 43.2087ZM284.142 42.2399C284.142 42.775 283.708 43.2087 283.173 43.2087C282.638 43.2087 282.205 42.775 282.205 42.2399C282.205 41.7049 282.638 41.2712 283.173 41.2712C283.708 41.2712 284.142 41.7049 284.142 42.2399Z" fill="url(#paint0_linear_577_33973)"/>
</g>
</g>
</g>
<rect x="0.880274" y="0.678125" width="235.988" height="134.269" rx="12.8844" fill="#E6EFFF" stroke="#8AB7FF" stroke-width="1.35625"/>
<rect width="33.9062" height="6.78125" rx="3.39062" transform="matrix(-1 0 0 1 54.4521 58.3188)" fill="#38C28A"/>
<rect width="47.4688" height="6.78125" rx="3.39062" transform="matrix(-1 0 0 1 68.0146 70.5251)" fill="#3DD598"/>
<rect width="67.8125" height="6.78125" rx="3.39062" transform="matrix(-1 0 0 1 129.046 94.9375)" fill="#FFA960"/>
<rect x="135.827" y="94.9375" width="27.125" height="6.78125" rx="3.39062" fill="#FFA960"/>
<rect width="54.25" height="6.78125" rx="3.39062" transform="matrix(-1 0 0 1 135.827 82.7313)" fill="#FFA960"/>
<rect x="142.608" y="82.7313" width="20.3438" height="6.78125" rx="3.39062" fill="#FFA960"/>
<rect width="27.125" height="6.78125" rx="3.39062" transform="matrix(-1 0 0 1 101.921 70.5251)" fill="#FFA960"/>
<rect x="108.702" y="70.5251" width="54.25" height="6.78125" rx="3.39062" fill="#FFA960"/>
<rect width="54.25" height="6.78125" rx="3.39062" transform="matrix(-1 0 0 1 115.483 58.3188)" fill="#FFA960"/>
<rect x="122.265" y="58.3188" width="40.6875" height="6.78125" rx="3.39062" fill="#FFA960"/>
<rect width="54.25" height="6.78125" rx="3.39062" transform="matrix(-1 0 0 1 74.7959 82.7313)" fill="#7DE3BA"/>
<rect width="33.9062" height="6.78125" rx="3.39062" transform="matrix(-1 0 0 1 54.4521 94.9375)" fill="#A6ECD0"/>
<rect x="20.5459" y="20.3438" width="67.8125" height="5.425" rx="2.7125" fill="#B0CEFF"/>
<rect x="91.0703" y="20.3438" width="20.3438" height="5.425" rx="2.7125" fill="#B0CEFF"/>
<rect x="114.126" y="20.3438" width="33.9062" height="5.425" rx="2.7125" fill="#B0CEFF"/>
<rect width="54.25" height="5.425" rx="2.7125" transform="matrix(-1 0 0 1 141.251 31.1938)" fill="#B0CEFF"/>
<rect width="20.3438" height="5.425" rx="2.7125" transform="matrix(-1 0 0 1 40.8896 31.1938)" fill="#B0CEFF"/>
<rect width="40.6875" height="5.425" rx="2.7125" transform="matrix(-1 0 0 1 84.2891 31.1938)" fill="#B0CEFF"/>
<g clip-path="url(#clip2_577_33973)">
<rect x="89.0361" y="81.375" width="237.344" height="135.625" rx="13.5625" fill="#334155"/>
<path d="M91.2338 155.506L89.0361 149.866V233.953H326.38V204.116L324.182 200.83C321.985 197.545 317.589 190.974 313.194 186.052C308.799 181.129 304.404 177.855 300.008 179.815C295.613 181.774 291.218 188.966 286.823 192.842C282.427 196.718 278.032 197.278 273.637 195.998C269.242 194.718 264.846 191.598 260.451 191.274C256.056 190.95 251.661 193.42 247.265 195.23C242.87 197.04 238.475 198.188 234.08 198.573C229.684 198.957 225.289 198.577 220.894 194.789C216.499 191.002 212.103 183.808 207.708 179.013C203.313 174.219 198.918 171.825 194.522 168.732C190.127 165.64 185.732 161.849 181.336 162.961C176.941 164.072 172.546 170.086 168.151 173.321C163.755 176.555 159.36 177.01 154.965 177.262C150.57 177.515 146.174 177.565 141.779 179.256C137.384 180.947 132.989 184.278 128.593 182.725C124.198 181.172 119.803 174.735 115.408 174.084C111.012 173.434 106.617 178.57 102.222 175.498C97.8266 172.426 93.4314 161.146 91.2338 155.506Z" fill="url(#paint1_linear_577_33973)"/>
<path d="M89.0361 149.866L91.2338 155.506C93.4314 161.146 97.8266 172.426 102.222 175.498C106.617 178.57 111.012 173.434 115.408 174.084C119.803 174.735 124.198 181.172 128.593 182.725C132.989 184.278 137.384 180.947 141.779 179.256C146.174 177.565 150.57 177.515 154.965 177.262C159.36 177.01 163.755 176.555 168.151 173.321C172.546 170.086 176.941 164.072 181.336 162.961C185.732 161.849 190.127 165.64 194.522 168.732C198.918 171.825 203.313 174.219 207.708 179.013C212.103 183.808 216.499 191.002 220.894 194.789C225.289 198.577 229.684 198.957 234.08 198.573C238.475 198.188 242.87 197.04 247.265 195.23C251.661 193.42 256.056 190.95 260.451 191.274C264.846 191.598 269.242 194.718 273.637 195.998C278.032 197.278 282.427 196.718 286.823 192.842C291.218 188.966 295.613 181.774 300.008 179.815C304.404 177.855 308.799 181.129 313.194 186.052C317.589 190.974 321.985 197.545 324.182 200.83L326.38 204.116" stroke="#E6EFFF" stroke-width="1.35625"/>
<path d="M110.795 104.485V113.362H109.174L105.312 107.775H105.247V113.362H103.37V104.485H105.017L108.849 110.068H108.927V104.485H110.795ZM118.232 107.355C118.172 107.144 118.087 106.957 117.977 106.796C117.867 106.631 117.733 106.492 117.574 106.379C117.418 106.264 117.238 106.176 117.036 106.115C116.837 106.054 116.616 106.024 116.373 106.024C115.919 106.024 115.52 106.137 115.177 106.362C114.836 106.587 114.57 106.915 114.379 107.346C114.188 107.774 114.093 108.297 114.093 108.915C114.093 109.534 114.187 110.059 114.375 110.493C114.563 110.926 114.828 111.257 115.172 111.486C115.516 111.711 115.922 111.824 116.39 111.824C116.815 111.824 117.178 111.749 117.478 111.598C117.782 111.445 118.013 111.23 118.172 110.952C118.334 110.675 118.415 110.347 118.415 109.968L118.796 110.025H116.507V108.612H120.222V109.73C120.222 110.51 120.057 111.181 119.728 111.741C119.398 112.299 118.945 112.73 118.367 113.033C117.789 113.334 117.127 113.484 116.382 113.484C115.549 113.484 114.818 113.3 114.188 112.933C113.558 112.563 113.067 112.039 112.715 111.36C112.365 110.678 112.19 109.869 112.19 108.932C112.19 108.213 112.294 107.571 112.502 107.008C112.713 106.442 113.008 105.962 113.386 105.569C113.765 105.176 114.206 104.877 114.708 104.672C115.211 104.466 115.756 104.364 116.343 104.364C116.845 104.364 117.314 104.438 117.747 104.585C118.18 104.729 118.565 104.935 118.9 105.2C119.238 105.466 119.514 105.783 119.728 106.15C119.942 106.514 120.079 106.915 120.14 107.355H118.232ZM129.057 104.485V113.362H127.436L123.574 107.775H123.509V113.362H121.632V104.485H123.279L127.111 110.068H127.189V104.485H129.057ZM134.44 104.069L131.579 114.698H129.988L132.849 104.069H134.44ZM140.847 104.485H142.724V110.25C142.724 110.898 142.569 111.464 142.26 111.949C141.954 112.435 141.525 112.813 140.973 113.085C140.421 113.354 139.778 113.488 139.044 113.488C138.307 113.488 137.663 113.354 137.111 113.085C136.559 112.813 136.13 112.435 135.823 111.949C135.517 111.464 135.364 110.898 135.364 110.25V104.485H137.241V110.09C137.241 110.428 137.314 110.728 137.462 110.991C137.612 111.254 137.823 111.461 138.095 111.611C138.366 111.762 138.683 111.837 139.044 111.837C139.408 111.837 139.725 111.762 139.993 111.611C140.265 111.461 140.474 111.254 140.622 110.991C140.772 110.728 140.847 110.428 140.847 110.09V104.485ZM149.084 107.038C149.049 106.689 148.901 106.417 148.638 106.223C148.375 106.03 148.018 105.933 147.567 105.933C147.261 105.933 147.002 105.976 146.791 106.063C146.58 106.147 146.418 106.264 146.306 106.414C146.196 106.564 146.141 106.735 146.141 106.926C146.135 107.085 146.168 107.223 146.241 107.342C146.316 107.46 146.418 107.563 146.548 107.649C146.678 107.733 146.829 107.807 146.999 107.871C147.17 107.931 147.352 107.983 147.545 108.027L148.343 108.217C148.73 108.304 149.085 108.42 149.409 108.564C149.733 108.709 150.013 108.886 150.25 109.097C150.487 109.308 150.671 109.557 150.801 109.843C150.933 110.129 151.001 110.457 151.004 110.827C151.001 111.37 150.863 111.841 150.588 112.24C150.317 112.636 149.924 112.943 149.409 113.163C148.898 113.38 148.281 113.488 147.558 113.488C146.842 113.488 146.217 113.378 145.686 113.159C145.157 112.939 144.744 112.614 144.446 112.183C144.151 111.75 143.997 111.214 143.982 110.575H145.798C145.819 110.873 145.904 111.121 146.054 111.321C146.207 111.517 146.411 111.666 146.665 111.767C146.923 111.866 147.213 111.915 147.537 111.915C147.854 111.915 148.13 111.868 148.364 111.776C148.601 111.684 148.785 111.555 148.915 111.39C149.045 111.225 149.11 111.036 149.11 110.822C149.11 110.623 149.051 110.455 148.932 110.32C148.817 110.184 148.646 110.068 148.421 109.973C148.198 109.877 147.925 109.791 147.602 109.713L146.635 109.47C145.887 109.288 145.296 109.003 144.862 108.616C144.429 108.229 144.213 107.707 144.216 107.051C144.213 106.514 144.356 106.044 144.645 105.643C144.937 105.241 145.337 104.927 145.846 104.702C146.355 104.477 146.933 104.364 147.58 104.364C148.239 104.364 148.814 104.477 149.305 104.702C149.799 104.927 150.184 105.241 150.458 105.643C150.733 106.044 150.874 106.509 150.883 107.038H149.084ZM155.414 113.362H152.267V104.485H155.44C156.333 104.485 157.101 104.663 157.746 105.018C158.39 105.371 158.886 105.878 159.232 106.54C159.582 107.202 159.757 107.993 159.757 108.915C159.757 109.84 159.582 110.635 159.232 111.299C158.886 111.964 158.387 112.474 157.737 112.829C157.09 113.185 156.315 113.362 155.414 113.362ZM154.144 111.754H155.336C155.89 111.754 156.357 111.656 156.736 111.46C157.117 111.26 157.403 110.952 157.594 110.536C157.788 110.117 157.884 109.577 157.884 108.915C157.884 108.259 157.788 107.723 157.594 107.307C157.403 106.891 157.119 106.585 156.74 106.388C156.361 106.192 155.895 106.093 155.34 106.093H154.144V111.754Z" fill="#F8FAFC"/>
<path d="M103.28 132.787V125.883H107.703V126.931H104.53V128.806H107.399V129.854H104.53V132.787H103.28ZM110.477 132.889C109.972 132.889 109.533 132.777 109.162 132.555C108.792 132.332 108.504 132.021 108.299 131.621C108.097 131.221 107.996 130.753 107.996 130.218C107.996 129.684 108.097 129.215 108.299 128.813C108.504 128.41 108.792 128.098 109.162 127.875C109.533 127.653 109.972 127.542 110.477 127.542C110.983 127.542 111.421 127.653 111.792 127.875C112.163 128.098 112.45 128.41 112.652 128.813C112.856 129.215 112.959 129.684 112.959 130.218C112.959 130.753 112.856 131.221 112.652 131.621C112.45 132.021 112.163 132.332 111.792 132.555C111.421 132.777 110.983 132.889 110.477 132.889ZM110.484 131.911C110.758 131.911 110.987 131.836 111.172 131.685C111.356 131.532 111.493 131.328 111.583 131.071C111.675 130.815 111.721 130.53 111.721 130.215C111.721 129.898 111.675 129.612 111.583 129.355C111.493 129.097 111.356 128.891 111.172 128.738C110.987 128.586 110.758 128.509 110.484 128.509C110.203 128.509 109.969 128.586 109.783 128.738C109.598 128.891 109.46 129.097 109.368 129.355C109.278 129.612 109.233 129.898 109.233 130.215C109.233 130.53 109.278 130.815 109.368 131.071C109.46 131.328 109.598 131.532 109.783 131.685C109.969 131.836 110.203 131.911 110.484 131.911ZM113.805 132.787V127.609H114.988V128.472H115.042C115.136 128.173 115.298 127.943 115.527 127.781C115.759 127.617 116.023 127.535 116.32 127.535C116.387 127.535 116.462 127.538 116.545 127.545C116.631 127.549 116.702 127.557 116.758 127.569V128.691C116.706 128.673 116.624 128.658 116.512 128.644C116.402 128.628 116.295 128.62 116.191 128.62C115.969 128.62 115.769 128.669 115.591 128.765C115.416 128.86 115.278 128.991 115.177 129.16C115.076 129.328 115.025 129.523 115.025 129.743V132.787H113.805ZM119.458 132.889C118.939 132.889 118.491 132.781 118.113 132.565C117.738 132.347 117.449 132.039 117.246 131.641C117.044 131.241 116.943 130.77 116.943 130.229C116.943 129.696 117.044 129.228 117.246 128.826C117.451 128.422 117.736 128.107 118.103 127.882C118.469 127.655 118.9 127.542 119.394 127.542C119.713 127.542 120.014 127.593 120.298 127.697C120.583 127.798 120.835 127.955 121.053 128.169C121.273 128.382 121.446 128.654 121.572 128.985C121.698 129.313 121.761 129.704 121.761 130.158V130.532H117.516V129.709H120.591C120.589 129.476 120.538 129.268 120.439 129.086C120.34 128.901 120.202 128.756 120.024 128.651C119.849 128.545 119.645 128.492 119.411 128.492C119.161 128.492 118.942 128.553 118.753 128.674C118.565 128.794 118.417 128.951 118.312 129.146C118.208 129.34 118.156 129.552 118.153 129.784V130.502C118.153 130.803 118.208 131.061 118.319 131.277C118.429 131.491 118.583 131.655 118.78 131.769C118.978 131.882 119.21 131.938 119.475 131.938C119.653 131.938 119.813 131.913 119.957 131.864C120.101 131.812 120.226 131.737 120.331 131.638C120.437 131.539 120.517 131.416 120.571 131.27L121.71 131.398C121.638 131.7 121.501 131.963 121.299 132.187C121.099 132.41 120.843 132.583 120.53 132.707C120.218 132.828 119.86 132.889 119.458 132.889ZM122.603 132.787V127.609H123.824V132.787H122.603ZM123.217 126.874C123.024 126.874 122.857 126.81 122.718 126.682C122.579 126.552 122.509 126.395 122.509 126.213C122.509 126.029 122.579 125.873 122.718 125.745C122.857 125.614 123.024 125.549 123.217 125.549C123.412 125.549 123.579 125.614 123.716 125.745C123.855 125.873 123.925 126.029 123.925 126.213C123.925 126.395 123.855 126.552 123.716 126.682C123.579 126.81 123.412 126.874 123.217 126.874ZM127.141 134.837C126.703 134.837 126.326 134.778 126.012 134.659C125.697 134.542 125.444 134.384 125.253 134.187C125.062 133.989 124.929 133.77 124.855 133.529L125.954 133.263C126.004 133.364 126.076 133.464 126.17 133.563C126.264 133.664 126.391 133.747 126.551 133.812C126.713 133.88 126.916 133.913 127.161 133.913C127.507 133.913 127.794 133.829 128.021 133.661C128.248 133.494 128.361 133.22 128.361 132.838V131.857H128.301C128.238 131.983 128.146 132.112 128.024 132.245C127.905 132.377 127.747 132.489 127.549 132.578C127.353 132.668 127.107 132.713 126.811 132.713C126.413 132.713 126.052 132.62 125.728 132.433C125.407 132.245 125.151 131.964 124.96 131.591C124.771 131.215 124.676 130.746 124.676 130.181C124.676 129.613 124.771 129.133 124.96 128.742C125.151 128.348 125.408 128.051 125.732 127.848C126.055 127.644 126.416 127.542 126.814 127.542C127.117 127.542 127.367 127.593 127.562 127.697C127.76 127.798 127.917 127.92 128.034 128.064C128.151 128.206 128.24 128.339 128.301 128.465H128.368V127.609H129.572V132.872C129.572 133.315 129.466 133.681 129.255 133.971C129.044 134.261 128.755 134.478 128.388 134.621C128.022 134.765 127.606 134.837 127.141 134.837ZM127.151 131.756C127.41 131.756 127.63 131.693 127.812 131.567C127.994 131.441 128.132 131.26 128.227 131.024C128.321 130.788 128.368 130.505 128.368 130.175C128.368 129.849 128.321 129.563 128.227 129.318C128.134 129.073 127.997 128.883 127.815 128.749C127.635 128.611 127.414 128.543 127.151 128.543C126.879 128.543 126.652 128.614 126.47 128.755C126.288 128.897 126.151 129.091 126.059 129.339C125.967 129.584 125.921 129.862 125.921 130.175C125.921 130.492 125.967 130.769 126.059 131.007C126.153 131.243 126.291 131.428 126.473 131.56C126.658 131.691 126.884 131.756 127.151 131.756ZM131.853 129.753V132.787H130.633V127.609H131.799V128.489H131.86C131.979 128.199 132.169 127.969 132.43 127.798C132.693 127.627 133.017 127.542 133.404 127.542C133.761 127.542 134.073 127.618 134.338 127.771C134.605 127.924 134.812 128.145 134.958 128.435C135.106 128.725 135.179 129.077 135.177 129.49V132.787H133.957V129.679C133.957 129.333 133.867 129.062 133.687 128.867C133.51 128.671 133.263 128.573 132.949 128.573C132.735 128.573 132.545 128.62 132.379 128.715C132.215 128.807 132.086 128.941 131.991 129.116C131.899 129.291 131.853 129.504 131.853 129.753ZM138.447 132.787V125.883H142.938V126.931H139.698V128.806H142.705V129.854H139.698V131.739H142.965V132.787H138.447ZM144.968 127.609L146.013 129.521L147.075 127.609H148.366L146.805 130.198L148.393 132.787H147.109L146.013 130.923L144.927 132.787H143.633L145.211 130.198L143.673 127.609H144.968ZM151.184 132.889C150.667 132.889 150.223 132.775 149.853 132.548C149.484 132.321 149.2 132.008 149 131.607C148.802 131.205 148.703 130.742 148.703 130.218C148.703 129.693 148.804 129.228 149.006 128.826C149.209 128.422 149.494 128.107 149.863 127.882C150.234 127.655 150.672 127.542 151.178 127.542C151.598 127.542 151.97 127.619 152.294 127.774C152.619 127.927 152.879 128.144 153.072 128.425C153.266 128.704 153.376 129.03 153.403 129.403H152.236C152.189 129.153 152.077 128.945 151.899 128.779C151.724 128.61 151.489 128.526 151.194 128.526C150.945 128.526 150.726 128.593 150.537 128.728C150.348 128.861 150.201 129.052 150.095 129.301C149.992 129.551 149.94 129.85 149.94 130.198C149.94 130.551 149.992 130.855 150.095 131.109C150.199 131.36 150.344 131.555 150.53 131.692C150.719 131.827 150.94 131.894 151.194 131.894C151.374 131.894 151.535 131.86 151.677 131.793C151.82 131.723 151.941 131.623 152.037 131.493C152.134 131.362 152.2 131.204 152.236 131.017H153.403C153.373 131.384 153.266 131.709 153.079 131.992C152.892 132.273 152.639 132.493 152.317 132.653C151.996 132.81 151.618 132.889 151.184 132.889ZM155.435 129.753V132.787H154.215V125.883H155.408V128.489H155.469C155.59 128.197 155.778 127.966 156.032 127.798C156.288 127.627 156.614 127.542 157.01 127.542C157.369 127.542 157.683 127.617 157.95 127.767C158.218 127.918 158.425 128.138 158.571 128.428C158.719 128.718 158.793 129.072 158.793 129.49V132.787H157.573V129.679C157.573 129.331 157.483 129.06 157.303 128.867C157.126 128.671 156.876 128.573 156.555 128.573C156.339 128.573 156.146 128.62 155.975 128.715C155.806 128.807 155.674 128.941 155.577 129.116C155.483 129.291 155.435 129.504 155.435 129.753ZM161.338 132.892C161.009 132.892 160.714 132.834 160.451 132.717C160.19 132.598 159.983 132.422 159.831 132.191C159.68 131.959 159.605 131.674 159.605 131.334C159.605 131.042 159.659 130.801 159.766 130.61C159.874 130.419 160.022 130.266 160.208 130.151C160.395 130.036 160.605 129.95 160.839 129.891C161.075 129.831 161.318 129.787 161.57 129.76C161.874 129.728 162.12 129.7 162.308 129.676C162.497 129.649 162.634 129.608 162.72 129.554C162.807 129.498 162.851 129.412 162.851 129.295V129.274C162.851 129.021 162.776 128.824 162.625 128.684C162.475 128.545 162.258 128.475 161.975 128.475C161.676 128.475 161.439 128.541 161.263 128.671C161.09 128.801 160.973 128.955 160.913 129.133L159.773 128.971C159.863 128.656 160.011 128.393 160.218 128.182C160.425 127.969 160.678 127.809 160.977 127.703C161.276 127.596 161.606 127.542 161.968 127.542C162.217 127.542 162.466 127.571 162.713 127.629C162.96 127.688 163.186 127.784 163.391 127.919C163.595 128.052 163.759 128.233 163.883 128.462C164.009 128.691 164.072 128.978 164.072 129.322V132.787H162.898V132.076H162.858C162.784 132.22 162.679 132.355 162.544 132.481C162.412 132.604 162.244 132.704 162.042 132.781C161.842 132.855 161.607 132.892 161.338 132.892ZM161.654 131.995C161.899 131.995 162.112 131.947 162.292 131.85C162.471 131.751 162.61 131.621 162.706 131.459C162.805 131.297 162.855 131.121 162.855 130.93V130.32C162.816 130.351 162.751 130.38 162.659 130.407C162.569 130.434 162.468 130.458 162.356 130.478C162.243 130.498 162.132 130.516 162.022 130.532C161.912 130.548 161.816 130.561 161.735 130.572C161.553 130.597 161.39 130.638 161.247 130.694C161.103 130.75 160.989 130.829 160.906 130.93C160.823 131.029 160.781 131.157 160.781 131.314C160.781 131.539 160.863 131.709 161.027 131.823C161.191 131.938 161.4 131.995 161.654 131.995ZM166.329 129.753V132.787H165.109V127.609H166.276V128.489H166.336C166.455 128.199 166.645 127.969 166.906 127.798C167.169 127.627 167.494 127.542 167.88 127.542C168.238 127.542 168.549 127.618 168.814 127.771C169.082 127.924 169.288 128.145 169.434 128.435C169.583 128.725 169.656 129.077 169.654 129.49V132.787H168.433V129.679C168.433 129.333 168.343 129.062 168.163 128.867C167.986 128.671 167.74 128.573 167.425 128.573C167.212 128.573 167.022 128.62 166.855 128.715C166.691 128.807 166.562 128.941 166.468 129.116C166.376 129.291 166.329 129.504 166.329 129.753ZM172.956 134.837C172.518 134.837 172.142 134.778 171.827 134.659C171.512 134.542 171.26 134.384 171.069 134.187C170.877 133.989 170.745 133.77 170.671 133.529L171.77 133.263C171.819 133.364 171.891 133.464 171.986 133.563C172.08 133.664 172.207 133.747 172.366 133.812C172.528 133.88 172.732 133.913 172.977 133.913C173.323 133.913 173.609 133.829 173.836 133.661C174.063 133.494 174.177 133.22 174.177 132.838V131.857H174.116C174.053 131.983 173.961 132.112 173.84 132.245C173.721 132.377 173.562 132.489 173.364 132.578C173.169 132.668 172.923 132.713 172.626 132.713C172.228 132.713 171.868 132.62 171.544 132.433C171.222 132.245 170.966 131.964 170.775 131.591C170.586 131.215 170.492 130.746 170.492 130.181C170.492 129.613 170.586 129.133 170.775 128.742C170.966 128.348 171.224 128.051 171.547 127.848C171.871 127.644 172.232 127.542 172.629 127.542C172.933 127.542 173.182 127.593 173.378 127.697C173.576 127.798 173.733 127.92 173.85 128.064C173.967 128.206 174.056 128.339 174.116 128.465H174.184V127.609H175.387V132.872C175.387 133.315 175.282 133.681 175.07 133.971C174.859 134.261 174.57 134.478 174.204 134.621C173.838 134.765 173.422 134.837 172.956 134.837ZM172.967 131.756C173.225 131.756 173.445 131.693 173.627 131.567C173.809 131.441 173.948 131.26 174.042 131.024C174.136 130.788 174.184 130.505 174.184 130.175C174.184 129.849 174.136 129.563 174.042 129.318C173.95 129.073 173.813 128.883 173.631 128.749C173.451 128.611 173.23 128.543 172.967 128.543C172.695 128.543 172.468 128.614 172.286 128.755C172.104 128.897 171.966 129.091 171.874 129.339C171.782 129.584 171.736 129.862 171.736 130.175C171.736 130.492 171.782 130.769 171.874 131.007C171.969 131.243 172.107 131.428 172.289 131.56C172.473 131.691 172.699 131.756 172.967 131.756ZM178.741 132.889C178.221 132.889 177.773 132.781 177.395 132.565C177.02 132.347 176.731 132.039 176.529 131.641C176.327 131.241 176.226 130.77 176.226 130.229C176.226 129.696 176.327 129.228 176.529 128.826C176.734 128.422 177.019 128.107 177.385 127.882C177.752 127.655 178.182 127.542 178.677 127.542C178.996 127.542 179.297 127.593 179.58 127.697C179.866 127.798 180.117 127.955 180.335 128.169C180.556 128.382 180.729 128.654 180.854 128.985C180.98 129.313 181.043 129.704 181.043 130.158V130.532H176.799V129.709H179.873C179.871 129.476 179.821 129.268 179.722 129.086C179.623 128.901 179.485 128.756 179.307 128.651C179.132 128.545 178.927 128.492 178.693 128.492C178.444 128.492 178.225 128.553 178.036 128.674C177.847 128.794 177.7 128.951 177.594 129.146C177.491 129.34 177.438 129.552 177.436 129.784V130.502C177.436 130.803 177.491 131.061 177.601 131.277C177.711 131.491 177.865 131.655 178.063 131.769C178.261 131.882 178.492 131.938 178.758 131.938C178.935 131.938 179.096 131.913 179.24 131.864C179.383 131.812 179.508 131.737 179.614 131.638C179.719 131.539 179.799 131.416 179.853 131.27L180.993 131.398C180.921 131.7 180.784 131.963 180.581 132.187C180.381 132.41 180.125 132.583 179.813 132.707C179.5 132.828 179.143 132.889 178.741 132.889ZM184.105 132.787V125.883H186.694C187.224 125.883 187.67 125.975 188.029 126.159C188.391 126.344 188.664 126.602 188.848 126.935C189.035 127.265 189.128 127.651 189.128 128.091C189.128 128.534 189.034 128.918 188.845 129.244C188.658 129.568 188.383 129.818 188.019 129.996C187.655 130.171 187.208 130.259 186.677 130.259H184.833V129.221H186.509C186.819 129.221 187.073 129.178 187.271 129.092C187.468 129.005 187.614 128.878 187.709 128.711C187.805 128.543 187.854 128.336 187.854 128.091C187.854 127.846 187.805 127.637 187.709 127.464C187.612 127.289 187.465 127.156 187.267 127.066C187.069 126.974 186.814 126.928 186.502 126.928H185.356V132.787H184.105ZM187.672 129.659L189.381 132.787H187.985L186.306 129.659H187.672ZM191.526 132.892C191.198 132.892 190.902 132.834 190.639 132.717C190.378 132.598 190.172 132.422 190.019 132.191C189.868 131.959 189.793 131.674 189.793 131.334C189.793 131.042 189.847 130.801 189.955 130.61C190.063 130.419 190.21 130.266 190.396 130.151C190.583 130.036 190.793 129.95 191.027 129.891C191.263 129.831 191.507 129.787 191.758 129.76C192.062 129.728 192.308 129.7 192.497 129.676C192.686 129.649 192.823 129.608 192.908 129.554C192.996 129.498 193.04 129.412 193.04 129.295V129.274C193.04 129.021 192.964 128.824 192.814 128.684C192.663 128.545 192.446 128.475 192.163 128.475C191.864 128.475 191.627 128.541 191.452 128.671C191.279 128.801 191.162 128.955 191.101 129.133L189.962 128.971C190.051 128.656 190.2 128.393 190.407 128.182C190.613 127.969 190.866 127.809 191.165 127.703C191.464 127.596 191.794 127.542 192.156 127.542C192.406 127.542 192.654 127.571 192.901 127.629C193.149 127.688 193.374 127.784 193.579 127.919C193.784 128.052 193.948 128.233 194.071 128.462C194.197 128.691 194.26 128.978 194.26 129.322V132.787H193.087V132.076H193.046C192.972 132.22 192.868 132.355 192.733 132.481C192.6 132.604 192.433 132.704 192.23 132.781C192.03 132.855 191.796 132.892 191.526 132.892ZM191.843 131.995C192.088 131.995 192.3 131.947 192.48 131.85C192.66 131.751 192.798 131.621 192.895 131.459C192.993 131.297 193.043 131.121 193.043 130.93V130.32C193.005 130.351 192.94 130.38 192.847 130.407C192.757 130.434 192.656 130.458 192.544 130.478C192.432 130.498 192.32 130.516 192.21 130.532C192.1 130.548 192.005 130.561 191.924 130.572C191.742 130.597 191.579 130.638 191.435 130.694C191.291 130.75 191.177 130.829 191.094 130.93C191.011 131.029 190.97 131.157 190.97 131.314C190.97 131.539 191.052 131.709 191.216 131.823C191.38 131.938 191.589 131.995 191.843 131.995ZM197.883 127.609V128.553H194.906V127.609H197.883ZM195.641 126.368H196.862V131.23C196.862 131.394 196.886 131.52 196.936 131.607C196.987 131.693 197.055 131.751 197.138 131.783C197.221 131.814 197.313 131.83 197.415 131.83C197.491 131.83 197.561 131.824 197.624 131.813C197.689 131.802 197.738 131.792 197.772 131.783L197.978 132.737C197.912 132.759 197.819 132.784 197.698 132.811C197.579 132.838 197.432 132.854 197.259 132.858C196.954 132.867 196.678 132.821 196.433 132.72C196.188 132.617 195.994 132.457 195.85 132.241C195.709 132.026 195.639 131.756 195.641 131.432V126.368ZM200.951 132.889C200.432 132.889 199.983 132.781 199.606 132.565C199.23 132.347 198.942 132.039 198.739 131.641C198.537 131.241 198.436 130.77 198.436 130.229C198.436 129.696 198.537 129.228 198.739 128.826C198.944 128.422 199.229 128.107 199.596 127.882C199.962 127.655 200.392 127.542 200.887 127.542C201.206 127.542 201.507 127.593 201.79 127.697C202.076 127.798 202.327 127.955 202.545 128.169C202.766 128.382 202.939 128.654 203.065 128.985C203.191 129.313 203.253 129.704 203.253 130.158V130.532H199.009V129.709H202.084C202.081 129.476 202.031 129.268 201.932 129.086C201.833 128.901 201.695 128.756 201.517 128.651C201.342 128.545 201.137 128.492 200.904 128.492C200.654 128.492 200.435 128.553 200.246 128.674C200.057 128.794 199.91 128.951 199.805 129.146C199.701 129.34 199.648 129.552 199.646 129.784V130.502C199.646 130.803 199.701 131.061 199.811 131.277C199.921 131.491 200.075 131.655 200.273 131.769C200.471 131.882 200.702 131.938 200.968 131.938C201.145 131.938 201.306 131.913 201.45 131.864C201.594 131.812 201.718 131.737 201.824 131.638C201.93 131.539 202.009 131.416 202.063 131.27L203.203 131.398C203.131 131.7 202.994 131.963 202.792 132.187C202.592 132.41 202.335 132.583 202.023 132.707C201.711 132.828 201.353 132.889 200.951 132.889Z" fill="#CBD5E1"/>
<rect width="54.25" height="5.425" rx="2.7125" transform="matrix(-1 0 0 1 312.817 115.959)" fill="#B0CEFF"/>
<rect width="33.9062" height="5.425" rx="2.7125" transform="matrix(-1 0 0 1 251.786 115.959)" fill="#B0CEFF"/>
<rect x="292.474" y="126.809" width="20.3438" height="5.425" rx="2.7125" fill="#B0CEFF"/>
<rect x="217.88" y="126.809" width="71.8812" height="5.425" rx="2.7125" fill="#B0CEFF"/>
<path d="M286.886 103.26V104.121H284.221V103.26H286.886ZM290.043 106.731C289.626 106.731 289.257 106.66 288.933 106.517C288.611 106.375 288.357 106.176 288.17 105.922C287.983 105.667 287.884 105.374 287.872 105.04H288.959C288.969 105.2 289.022 105.34 289.118 105.459C289.214 105.577 289.342 105.668 289.502 105.734C289.662 105.799 289.841 105.832 290.04 105.832C290.252 105.832 290.439 105.796 290.603 105.722C290.767 105.647 290.895 105.543 290.988 105.41C291.08 105.277 291.125 105.124 291.123 104.951C291.125 104.772 291.079 104.614 290.985 104.477C290.89 104.34 290.753 104.233 290.574 104.156C290.397 104.079 290.183 104.041 289.933 104.041H289.41V103.214H289.933C290.139 103.214 290.319 103.178 290.473 103.107C290.629 103.036 290.752 102.936 290.84 102.807C290.929 102.676 290.972 102.524 290.97 102.353C290.972 102.185 290.935 102.04 290.857 101.917C290.782 101.791 290.675 101.694 290.537 101.625C290.4 101.555 290.239 101.521 290.054 101.521C289.873 101.521 289.705 101.553 289.551 101.619C289.397 101.684 289.273 101.778 289.179 101.899C289.084 102.019 289.034 102.161 289.028 102.327H287.997C288.004 101.996 288.1 101.705 288.283 101.454C288.468 101.202 288.714 101.005 289.023 100.865C289.331 100.722 289.677 100.651 290.06 100.651C290.455 100.651 290.798 100.725 291.089 100.873C291.382 101.02 291.608 101.217 291.768 101.466C291.928 101.714 292.008 101.989 292.008 102.289C292.01 102.623 291.911 102.902 291.713 103.127C291.516 103.353 291.258 103.5 290.938 103.57V103.616C291.355 103.674 291.673 103.828 291.895 104.078C292.118 104.327 292.229 104.636 292.227 105.006C292.227 105.337 292.133 105.634 291.944 105.896C291.757 106.156 291.499 106.36 291.17 106.508C290.842 106.657 290.466 106.731 290.043 106.731ZM293.7 106.714C293.525 106.714 293.375 106.652 293.249 106.529C293.124 106.405 293.063 106.255 293.065 106.078C293.063 105.904 293.124 105.756 293.249 105.633C293.375 105.51 293.525 105.448 293.7 105.448C293.87 105.448 294.017 105.51 294.142 105.633C294.27 105.756 294.334 105.904 294.336 106.078C294.334 106.195 294.303 106.302 294.244 106.399C294.186 106.495 294.109 106.572 294.012 106.63C293.918 106.686 293.814 106.714 293.7 106.714ZM295.298 105.552V104.699L297.809 100.732H298.52V101.946H298.086L296.396 104.624V104.671H299.901V105.552H295.298ZM298.121 106.65V105.292L298.132 104.91V100.732H299.144V106.65H298.121ZM302.992 106.731C302.708 106.729 302.432 106.68 302.162 106.584C301.892 106.485 301.65 106.326 301.434 106.107C301.218 105.885 301.047 105.591 300.92 105.225C300.792 104.857 300.73 104.402 300.732 103.859C300.732 103.352 300.786 102.9 300.894 102.503C301.001 102.106 301.157 101.771 301.359 101.498C301.561 101.222 301.805 101.012 302.09 100.868C302.377 100.723 302.698 100.651 303.052 100.651C303.424 100.651 303.753 100.724 304.04 100.871C304.329 101.017 304.563 101.217 304.74 101.472C304.917 101.724 305.027 102.009 305.069 102.327H304.014C303.961 102.1 303.85 101.919 303.682 101.784C303.516 101.647 303.306 101.579 303.052 101.579C302.642 101.579 302.326 101.757 302.104 102.113C301.885 102.47 301.774 102.959 301.772 103.581H301.812C301.907 103.412 302.029 103.266 302.179 103.145C302.33 103.023 302.499 102.93 302.688 102.864C302.879 102.797 303.08 102.763 303.292 102.763C303.639 102.763 303.95 102.846 304.225 103.012C304.503 103.177 304.722 103.406 304.884 103.697C305.046 103.986 305.126 104.317 305.124 104.691C305.126 105.08 305.037 105.43 304.858 105.74C304.679 106.048 304.43 106.291 304.11 106.468C303.79 106.645 303.417 106.733 302.992 106.731ZM302.986 105.864C303.196 105.864 303.384 105.813 303.549 105.711C303.715 105.609 303.846 105.471 303.942 105.298C304.039 105.124 304.086 104.93 304.084 104.714C304.086 104.502 304.04 104.31 303.945 104.139C303.853 103.967 303.725 103.832 303.561 103.731C303.397 103.631 303.21 103.581 303 103.581C302.844 103.581 302.699 103.611 302.564 103.671C302.429 103.73 302.311 103.813 302.211 103.919C302.111 104.023 302.032 104.145 301.974 104.283C301.918 104.42 301.89 104.566 301.888 104.723C301.89 104.929 301.938 105.118 302.032 105.292C302.127 105.465 302.257 105.604 302.422 105.708C302.588 105.812 302.776 105.864 302.986 105.864ZM309.265 105.54V105.228C309.265 104.999 309.313 104.788 309.41 104.595C309.508 104.403 309.65 104.248 309.837 104.13C310.024 104.013 310.251 103.954 310.516 103.954C310.79 103.954 311.019 104.013 311.204 104.13C311.389 104.246 311.529 104.4 311.623 104.593C311.719 104.785 311.768 104.997 311.768 105.228V105.54C311.768 105.77 311.719 105.981 311.623 106.173C311.527 106.366 311.385 106.521 311.198 106.638C311.013 106.756 310.786 106.815 310.516 106.815C310.247 106.815 310.018 106.756 309.832 106.638C309.645 106.521 309.503 106.366 309.407 106.173C309.312 105.981 309.265 105.77 309.265 105.54ZM310.019 105.228V105.54C310.019 105.693 310.056 105.832 310.129 105.959C310.202 106.086 310.331 106.15 310.516 106.15C310.703 106.15 310.831 106.087 310.901 105.962C310.972 105.835 311.008 105.694 311.008 105.54V105.228C311.008 105.074 310.974 104.933 310.906 104.806C310.839 104.677 310.709 104.613 310.516 104.613C310.335 104.613 310.207 104.677 310.132 104.806C310.057 104.933 310.019 105.074 310.019 105.228ZM306.257 102.154V101.841C306.257 101.61 306.306 101.398 306.404 101.206C306.503 101.013 306.645 100.859 306.832 100.743C307.019 100.626 307.245 100.567 307.511 100.567C307.783 100.567 308.011 100.626 308.196 100.743C308.383 100.859 308.523 101.013 308.618 101.206C308.712 101.398 308.759 101.61 308.759 101.841V102.154C308.759 102.385 308.711 102.597 308.615 102.789C308.521 102.98 308.38 103.133 308.193 103.249C308.006 103.364 307.779 103.422 307.511 103.422C307.239 103.422 307.01 103.364 306.823 103.249C306.638 103.133 306.498 102.979 306.401 102.786C306.305 102.594 306.257 102.383 306.257 102.154ZM307.017 101.841V102.154C307.017 102.308 307.053 102.448 307.124 102.575C307.197 102.701 307.326 102.763 307.511 102.763C307.696 102.763 307.823 102.701 307.892 102.575C307.964 102.448 307.999 102.308 307.999 102.154V101.841C307.999 101.687 307.966 101.547 307.898 101.42C307.831 101.29 307.702 101.226 307.511 101.226C307.328 101.226 307.2 101.29 307.127 101.42C307.054 101.549 307.017 101.689 307.017 101.841ZM306.586 106.65L310.655 100.732H311.378L307.309 106.65H306.586Z" fill="#3DD598"/>
</g>
<defs>
<filter id="filter0_d_577_33973" x="282.205" y="33.5212" width="13.5625" height="10.3656" filterUnits="userSpaceOnUse" color-interpolation-filters="sRGB">
<feFlood flood-opacity="0" result="BackgroundImageFix"/>
<feColorMatrix in="SourceAlpha" type="matrix" values="0 0 0 0 0 0 0 0 0 0 0 0 0 0 0 0 0 0 127 0" result="hardAlpha"/>
<feOffset dy="0.678125"/>
<feColorMatrix type="matrix" values="0 0 0 0 0 0 0 0 0 0 0 0 0 0 0 0 0 0 0.06 0"/>
<feBlend mode="normal" in2="BackgroundImageFix" result="effect1_dropShadow_577_33973"/>
<feBlend mode="normal" in="SourceGraphic" in2="effect1_dropShadow_577_33973" result="shape"/>
</filter>
<linearGradient id="paint0_linear_577_33973" x1="282.205" y1="33.5212" x2="282.205" y2="43.2087" gradientUnits="userSpaceOnUse">
<stop stop-color="white"/>
<stop offset="1" stop-color="#F0F0F0"/>
</linearGradient>
<linearGradient id="paint1_linear_577_33973" x1="207.708" y1="149.866" x2="207.708" y2="233.953" gradientUnits="userSpaceOnUse">
<stop stop-color="#B5D4FF"/>
<stop offset="1" stop-color="#D7E8FF" stop-opacity="0"/>
</linearGradient>
<clipPath id="clip0_577_33973">
<rect width="40.6875" height="40.6875" fill="white" transform="translate(258.567 4.74689)"/>
</clipPath>
<clipPath id="clip1_577_33973">
<rect width="40.6875" height="40.6875" fill="white" transform="translate(280.267 25.7687)"/>
</clipPath>
<clipPath id="clip2_577_33973">
<rect x="89.0361" y="81.375" width="237.344" height="135.625" rx="13.5625" fill="white"/>
</clipPath>
</defs>
</svg>
