<svg width="105" height="30" viewBox="0 0 105 30" fill="none" xmlns="http://www.w3.org/2000/svg">
<path d="M11.8888 0.949039C12.0992 0.949039 12.2044 1.0543 12.4148 1.15955C11.1523 1.68584 9.88978 3.05418 9.25852 6.00138L6.94389 6.63292C7.68036 4.52778 9.15331 0.949039 11.8888 0.949039ZM13.0461 2.00161C13.2565 2.63315 13.4669 3.36995 13.4669 4.52778C13.4669 4.63304 13.4669 4.63304 13.4669 4.73829L10.4158 5.58035C11.0471 3.36995 12.0992 2.42264 13.0461 2.00161ZM15.7816 3.89624L14.4138 4.31727C14.4138 4.21201 14.4138 4.10675 14.4138 4.00149C14.4138 3.05418 14.3086 2.31738 14.0982 1.68584C14.8347 1.89635 15.4659 2.84367 15.7816 3.89624ZM22.6202 5.58035C22.6202 5.47509 22.515 5.36984 22.4098 5.36984C22.1994 5.36984 19.99 5.15932 19.99 5.15932C19.99 5.15932 18.4118 3.58047 18.2014 3.47521C17.991 3.2647 17.6754 3.36995 17.5701 3.36995C17.5701 3.36995 17.2545 3.47521 16.7285 3.68572C16.2024 2.21212 15.2555 0.843782 13.6774 0.843782H13.5721C13.1513 0.21224 12.52 0.00172545 11.994 0.00172545C8.20641 -0.103532 6.41784 4.63304 5.78657 7.05395C4.94489 7.26447 4.10321 7.58024 3.15631 7.89601C2.31463 8.10652 2.31463 8.21178 2.20942 8.94858C2.10421 9.47486 0 26.1055 0 26.1055L16.7285 29.2632L25.7766 27.2633C25.7766 27.2633 22.6202 5.79087 22.6202 5.58035Z" fill="#8DB849"/>
<path d="M22.3052 5.36982C22.1999 5.36982 19.9905 5.1593 19.9905 5.1593C19.9905 5.1593 18.4124 3.58045 18.2019 3.47519C18.0967 3.36993 18.0967 3.36993 17.9915 3.36993L16.729 29.2632L25.7771 27.2633C25.7771 27.2633 22.6208 5.79085 22.6208 5.58033C22.6208 5.47508 22.4104 5.36982 22.3052 5.36982Z" fill="#5A863E"/>
<path d="M13.6776 10.4222L12.5203 13.7904C12.5203 13.7904 11.5734 13.2641 10.3109 13.2641C8.52232 13.2641 8.41711 14.3167 8.41711 14.6325C8.41711 16.1061 12.4151 16.7376 12.4151 20.3164C12.4151 23.1583 10.6265 24.9477 8.20669 24.9477C5.36601 24.9477 3.89307 23.1583 3.89307 23.1583L4.62954 20.6321C4.62954 20.6321 6.10248 21.8952 7.36501 21.8952C8.20669 21.8952 8.52232 21.2637 8.52232 20.7374C8.52232 18.7375 5.2608 18.6322 5.2608 15.3693C5.2608 12.6326 7.2598 10.0012 11.1526 10.0012C12.9412 9.8959 13.6776 10.4222 13.6776 10.4222Z" fill="#FFFFFE"/>
<path d="M36.4027 16.6323C35.4558 16.1061 35.035 15.685 35.035 15.1587C35.035 14.4219 35.6662 14.0009 36.7183 14.0009C37.8756 14.0009 38.9277 14.5272 38.9277 14.5272L39.7694 12.001C39.7694 12.001 39.033 11.3695 36.8235 11.3695C33.6672 11.3695 31.563 13.1589 31.563 15.685C31.563 17.1586 32.6151 18.2112 33.8776 18.948C34.9298 19.5795 35.3506 20.0006 35.3506 20.6321C35.3506 21.2637 34.8245 21.8952 33.7724 21.8952C32.2995 21.8952 30.8265 21.1584 30.8265 21.1584L29.9849 23.6846C29.9849 23.6846 31.2474 24.5266 33.4568 24.5266C36.6131 24.5266 38.9277 22.9478 38.9277 20.1058C38.9277 18.527 37.7704 17.3691 36.4027 16.6323ZM49.1332 11.2642C47.555 11.2642 46.2925 12.001 45.3456 13.1589L46.7133 6.00138H43.1362L39.6642 24.2109H43.2414L44.3987 18.0007C44.8195 15.685 46.0821 14.2114 47.2394 14.2114C48.0811 14.2114 48.3967 14.7377 48.3967 15.5798C48.3967 16.1061 48.3967 16.6323 48.2915 17.1586L46.9237 24.3161H50.5009L51.8686 16.9481C51.9738 16.2113 52.0791 15.264 52.0791 14.6325C52.0791 12.5273 51.0269 11.2642 49.1332 11.2642ZM58.2865 21.6847C57.0239 21.6847 56.6031 20.6321 56.6031 19.369C56.6031 17.3691 57.6552 14.0009 59.549 14.0009C60.8115 14.0009 61.2324 15.0535 61.2324 16.1061C61.2324 18.4217 60.1803 21.6847 58.2865 21.6847ZM60.075 11.2642C55.7614 11.2642 52.9207 15.1587 52.9207 19.4743C52.9207 22.211 54.6041 24.4214 57.8656 24.4214C62.074 24.4214 64.9147 20.6321 64.9147 16.2113C64.9147 13.6851 63.4418 11.2642 60.075 11.2642ZM70.5961 21.7899C69.6492 21.7899 69.1231 21.2637 69.1231 21.2637L69.7544 17.8954C70.1752 15.685 71.3326 14.2114 72.5951 14.2114C73.6472 14.2114 74.068 15.264 74.068 16.2113C73.9628 18.527 72.5951 21.7899 70.5961 21.7899ZM74.068 11.2642C71.6482 11.2642 70.2805 13.3694 70.2805 13.3694L70.4909 11.4747H67.3346C67.2293 12.7378 66.9137 14.7377 66.5981 16.2113L64.073 29.2632H67.6502L68.5971 24.0003H68.7023C68.7023 24.0003 69.4388 24.4214 70.8065 24.4214C75.0149 24.4214 77.7504 20.1058 77.7504 15.7903C77.7504 13.4746 76.6983 11.2642 74.068 11.2642ZM82.8005 6.21189C81.6432 6.21189 80.8015 7.15921 80.8015 8.31704C80.8015 9.36961 81.4328 10.1064 82.4849 10.1064C83.6422 10.1064 84.5891 9.36961 84.5891 8.00126C84.5891 6.94869 83.8526 6.21189 82.8005 6.21189ZM77.8556 24.2109H81.4328L83.8526 11.58H80.2754L77.8556 24.2109ZM92.9007 11.58H90.3756L90.4809 10.9485C90.6913 9.68538 91.4277 8.63281 92.5851 8.63281C93.2163 8.63281 93.7424 8.84332 93.7424 8.84332L94.4789 6.00138C94.4789 6.00138 93.8476 5.68561 92.5851 5.68561C91.3225 5.68561 90.06 6.00138 89.1131 6.84344C87.8506 7.89601 87.3245 9.36961 87.0089 10.8432L86.9037 11.4747H85.2203L84.6943 14.2114H86.3776L84.4839 24.2109H88.061L89.9548 14.2114H92.3746L92.9007 11.58ZM101.423 11.58C101.423 11.58 99.2133 17.1586 98.1612 20.2111C98.056 19.2638 97.3195 11.58 97.3195 11.58H93.532L95.6362 23.1583C95.6362 23.3688 95.6362 23.5793 95.531 23.7898C95.1101 24.6319 94.3736 25.3687 93.6372 25.895C93.0059 26.4213 92.1642 26.737 91.6382 26.9475L92.5851 30C93.3215 29.8947 94.7945 29.2632 96.057 28.1054C97.6352 26.6318 99.2133 24.2109 100.686 21.0531L105 11.6853L101.423 11.58Z" fill="#1A1919"/>
</svg>
