<svg width="20" height="16" viewBox="0 0 20 16" fill="none" xmlns="http://www.w3.org/2000/svg">
<path d="M18.3802 4.57L17.1502 6.42C17.7433 7.60307 18.0337 8.91483 17.9954 10.2377C17.957 11.5606 17.591 12.8533 16.9302 14H3.07017C2.21134 12.5101 1.85547 10.7831 2.05531 9.07507C2.25516 7.36701 3.00008 5.76882 4.17965 4.51743C5.35922 3.26603 6.91064 2.42804 8.60391 2.1277C10.2972 1.82735 12.0422 2.08063 13.5802 2.85L15.4302 1.62C13.5467 0.412215 11.3125 -0.128996 9.08506 0.0829355C6.85763 0.294867 4.76562 1.2477 3.14367 2.78901C1.52171 4.33033 0.463534 6.37107 0.13839 8.58481C-0.186755 10.7986 0.239923 13.0574 1.35017 15C1.52468 15.3023 1.77526 15.5536 2.077 15.7291C2.37875 15.9045 2.72115 15.9979 3.07017 16H16.9202C17.2726 16.0014 17.6191 15.9096 17.9247 15.734C18.2302 15.5584 18.484 15.3052 18.6602 15C19.5815 13.4039 20.0439 11.5843 19.9963 9.74195C19.9486 7.89964 19.3928 6.10632 18.3902 4.56L18.3802 4.57ZM8.59017 11.41C8.77592 11.596 8.9965 11.7435 9.23929 11.8441C9.48209 11.9448 9.74234 11.9966 10.0052 11.9966C10.268 11.9966 10.5283 11.9448 10.7711 11.8441C11.0138 11.7435 11.2344 11.596 11.4202 11.41L17.0802 2.92L8.59017 8.58C8.40422 8.76575 8.2567 8.98632 8.15605 9.22912C8.0554 9.47191 8.0036 9.73217 8.0036 9.995C8.0036 10.2578 8.0554 10.5181 8.15605 10.7609C8.2567 11.0037 8.40422 11.2243 8.59017 11.41Z" fill="#4E97FF"/>
</svg>
