<svg width="43" height="32" viewBox="0 0 43 32" fill="none" xmlns="http://www.w3.org/2000/svg">
<g clip-path="url(#clip0_32_3665)">
<path d="M0 0H42.6667V32H0V0Z" fill="#000066"/>
<path fill-rule="evenodd" clip-rule="evenodd" d="M19.9867 26.1667L17.0733 26.42L17.4733 29.3133L15.4667 27.2L13.46 29.3133L13.86 26.42L10.9467 26.1667L13.46 24.68L11.84 22.2467L14.5733 23.28L15.4667 20.5L16.3667 23.28L19.1 22.2467L17.48 24.68M32.44 28.8333L31.7333 27.78L32.92 28.2267L33.3067 27.02L33.6933 28.2267L34.88 27.78L34.18 28.8333L35.2733 29.48L34.0067 29.5933L34.18 30.8533L33.3133 29.9267L32.4333 30.8533L32.6067 29.5933L31.34 29.4867M32.4333 10.0267L31.7333 8.97332L32.92 9.41999L33.3067 8.21332L33.6933 9.41999L34.88 8.97332L34.18 10.0267L35.2733 10.68L34.0067 10.7867L34.18 12.0467L33.3133 11.1267L32.4333 12.04L32.6067 10.7867L31.34 10.68M25.3867 17.6667L24.6867 16.6133L25.8733 17.06L26.26 15.8533L26.6533 17.06L27.84 16.6133L27.1333 17.6667L28.2267 18.3133L26.96 18.4267L27.14 19.6867L26.26 18.76L25.3933 19.6867L25.56 18.4267L24.2933 18.32M38.7133 15.7867L38 14.7333L39.1867 15.18L39.5733 13.9733L39.9667 15.18L41.1533 14.7333L40.4533 15.7867L41.54 16.4333L40.2733 16.5467L40.4467 17.8L39.58 16.88L38.7 17.8L38.8733 16.5467L37.6067 16.4333M36.1333 21.3333L35.4467 21.7667L35.64 20.9733L35.02 20.4533L35.8267 20.3867L36.1333 19.64L36.4467 20.3933L37.2533 20.4533L36.6333 20.9733L36.8267 21.7667" fill="white"/>
<path d="M0 0H21.3333V16H0V0Z" fill="#000066"/>
<path d="M2.5 0L10.6333 6.03333L18.7333 0H21.3333V2.06667L13.3333 8.03333L21.3333 13.9667V16H18.6667L10.6667 10.0333L2.7 16H0V14L7.96667 8.06667L0 2.13333V0H2.5Z" fill="white"/>
<path d="M14.1333 9.36667L21.3333 14.6667V16L12.3 9.36667H14.1333ZM8 10.0333L8.2 11.2L1.8 16H0L8 10.0333ZM21.3333 0V0.1L13.0333 6.36667L13.1 4.9L19.6667 0H21.3333ZM0 0L7.96667 5.86667H5.96667L0 1.4V0Z" fill="#C8102E"/>
<path d="M8.03333 0V16H13.3667V0H8.03333ZM0 5.33333V10.6667H21.3333V5.33333H0Z" fill="white"/>
<path d="M0 6.43333V9.63333H21.3333V6.43333H0ZM9.1 0V16H12.3V0H9.1Z" fill="#C8102E"/>
</g>
<defs>
<clipPath id="clip0_32_3665">
<rect width="42.6667" height="32" fill="white"/>
</clipPath>
</defs>
</svg>
