<svg width="43" height="32" viewBox="0 0 43 32" fill="none" xmlns="http://www.w3.org/2000/svg">
<path d="M-1.31006 0H10.0087V32H-1.31006V0ZM32.6525 0H43.9711V32H32.6587L32.6525 0ZM13.4025 15.4625L12.5149 15.7625L16.6087 19.3563C16.9212 20.275 16.5025 20.5437 16.2337 21.0313L20.6712 20.4687L20.5649 24.9375L21.4899 24.9125L21.2837 20.475L25.7337 21.0063C25.4587 20.425 25.2149 20.1187 25.4649 19.1937L29.5525 15.7875L28.8399 15.525C28.2524 15.075 29.0899 13.3563 29.2149 12.2687C29.2149 12.2687 26.8337 13.0875 26.6774 12.6563L26.0649 11.4875L23.8962 13.875C23.6587 13.9313 23.5587 13.8375 23.5025 13.6375L24.5025 8.65L22.9149 9.54373C22.7837 9.60627 22.6524 9.55627 22.5649 9.4L21.0337 6.33747L19.4587 9.5188C19.3399 9.63127 19.2212 9.64373 19.1212 9.5688L17.6087 8.7188L18.5212 13.6625C18.4462 13.8625 18.2712 13.9125 18.0712 13.8063L15.9899 11.45C15.7212 11.8875 15.5399 12.5937 15.1775 12.7563C14.8212 12.9063 13.6149 12.4563 12.8087 12.2813C13.0837 13.275 13.9462 14.925 13.4025 15.4687V15.4625Z" fill="#D52B1E"/>
</svg>
