<svg width="43" height="32" viewBox="0 0 43 32" fill="none" xmlns="http://www.w3.org/2000/svg">
<g clip-path="url(#clip0_32_3953)">
<path d="M0 0H42.6667V32H0V0Z" fill="#DE2910"/>
<path d="M5.12005 11.84L8.00001 3.20001L10.88 11.84L3.20007 6.56001H12.8L5.12005 11.84Z" fill="#FFDE00"/>
<path d="M17.6114 3.36555L14.6476 4.02236L16.6246 1.71859L16.4307 4.81917L14.7859 2.07422L17.6114 3.36555Z" fill="#FFDE00"/>
<path d="M20.6027 7.15652L17.6161 6.61241L20.3318 5.25572L18.9506 8.03841L18.4992 4.87041L20.6027 7.15652Z" fill="#FFDE00"/>
<path d="M20.1667 12.475L17.6617 10.7601L20.6947 10.629L18.2986 12.6064L19.1785 9.52971L20.1667 12.475Z" fill="#FFDE00"/>
<path d="M16.3992 15.9494L14.7509 13.4001L17.5991 14.4506L14.6253 15.3491L16.6252 12.851L16.3992 15.9494Z" fill="#FFDE00"/>
</g>
<defs>
<clipPath id="clip0_32_3953">
<rect width="42.6667" height="32" fill="white"/>
</clipPath>
</defs>
</svg>
