<svg width="43" height="32" viewBox="0 0 43 32" fill="none" xmlns="http://www.w3.org/2000/svg">
<g clip-path="url(#clip0_32_3720)">
<path d="M0 0H42.6667V32H0V0Z" fill="#003399"/>
<path d="M21.3333 14.5731L20.8593 16.1534L21.6494 16.3114L21.3333 14.5731Z" fill="#FFCC00"/>
<path d="M21.3333 14.5731L21.8074 16.1534L21.0172 16.3114L21.3333 14.5731Z" fill="#FFCC00"/>
<path d="M22.8362 15.665L21.1868 15.7025L21.2807 16.5028L22.8362 15.665Z" fill="#FFCC00"/>
<path d="M22.8362 15.665L21.4798 16.6042L21.0853 15.9016L22.8362 15.665Z" fill="#FFCC00"/>
<path d="M22.2622 17.4318L21.7169 15.8747L20.9848 16.2113L22.2622 17.4318Z" fill="#FFCC00"/>
<path d="M22.2622 17.4318L20.9498 16.432L21.4962 15.8397L22.2622 17.4318Z" fill="#FFCC00"/>
<path d="M19.8306 15.665L21.48 15.7025L21.3861 16.5028L19.8306 15.665Z" fill="#FFCC00"/>
<path d="M19.8306 15.665L21.187 16.6042L21.5814 15.9016L19.8306 15.665Z" fill="#FFCC00"/>
<path d="M20.4045 17.4318L20.9498 15.8747L21.6819 16.2113L20.4045 17.4318Z" fill="#FFCC00"/>
<path d="M20.4046 17.4318L21.7169 16.432L21.1706 15.8397L20.4046 17.4318Z" fill="#FFCC00"/>
<path d="M21.3333 14.5731L20.8593 16.1534L21.6494 16.3114L21.3333 14.5731Z" fill="#FFCC00"/>
<path d="M21.3333 14.5731L21.8074 16.1534L21.0172 16.3114L21.3333 14.5731Z" fill="#FFCC00"/>
<path d="M22.8362 15.665L21.1868 15.7025L21.2807 16.5028L22.8362 15.665Z" fill="#FFCC00"/>
<path d="M22.8362 15.665L21.4798 16.6042L21.0853 15.9016L22.8362 15.665Z" fill="#FFCC00"/>
<path d="M22.2622 17.4318L21.7169 15.8747L20.9848 16.2113L22.2622 17.4318Z" fill="#FFCC00"/>
<path d="M22.2622 17.4318L20.9498 16.432L21.4962 15.8397L22.2622 17.4318Z" fill="#FFCC00"/>
<path d="M19.8306 15.665L21.48 15.7025L21.3861 16.5028L19.8306 15.665Z" fill="#FFCC00"/>
<path d="M19.8306 15.665L21.187 16.6042L21.5814 15.9016L19.8306 15.665Z" fill="#FFCC00"/>
<path d="M20.4045 17.4318L20.9498 15.8747L21.6819 16.2113L20.4045 17.4318Z" fill="#FFCC00"/>
<path d="M20.4046 17.4318L21.7169 16.432L21.1706 15.8397L20.4046 17.4318Z" fill="#FFCC00"/>
<path d="M21.3333 14.5731L20.8593 16.1534L21.6494 16.3114L21.3333 14.5731Z" fill="#FFCC00"/>
<path d="M21.3333 14.5731L21.8074 16.1534L21.0172 16.3114L21.3333 14.5731Z" fill="#FFCC00"/>
<path d="M22.8362 15.665L21.1868 15.7025L21.2807 16.5028L22.8362 15.665Z" fill="#FFCC00"/>
<path d="M22.8362 15.665L21.4798 16.6042L21.0853 15.9016L22.8362 15.665Z" fill="#FFCC00"/>
<path d="M22.2622 17.4318L21.7169 15.8747L20.9848 16.2113L22.2622 17.4318Z" fill="#FFCC00"/>
<path d="M22.2622 17.4318L20.9498 16.432L21.4962 15.8397L22.2622 17.4318Z" fill="#FFCC00"/>
<path d="M19.8306 15.665L21.48 15.7025L21.3861 16.5028L19.8306 15.665Z" fill="#FFCC00"/>
<path d="M19.8306 15.665L21.187 16.6042L21.5814 15.9016L19.8306 15.665Z" fill="#FFCC00"/>
<path d="M20.4045 17.4318L20.9498 15.8747L21.6819 16.2113L20.4045 17.4318Z" fill="#FFCC00"/>
<path d="M20.4046 17.4318L21.7169 16.432L21.1706 15.8397L20.4046 17.4318Z" fill="#FFCC00"/>
<path d="M15.7802 9.29221L17.0925 8.29242L16.5462 7.70015L15.7802 9.29221Z" fill="#FFCC00"/>
<path d="M15.7801 9.2922L16.3255 7.7351L17.0576 8.07168L15.7801 9.2922Z" fill="#FFCC00"/>
<path d="M15.2061 7.52545L16.5625 8.46464L16.9569 7.76202L15.2061 7.52545Z" fill="#FFCC00"/>
<path d="M15.206 7.52546L16.8554 7.56291L16.7616 8.36319L15.206 7.52546Z" fill="#FFCC00"/>
<path d="M16.7089 6.43353L16.2349 8.01378L17.025 8.1718L16.7089 6.43353Z" fill="#FFCC00"/>
<path d="M16.7089 6.43353L17.183 8.01378L16.3929 8.1718L16.7089 6.43353Z" fill="#FFCC00"/>
<path d="M17.6378 9.29227L16.3254 8.29248L16.8718 7.70021L17.6378 9.29227Z" fill="#FFCC00"/>
<path d="M17.6378 9.29226L17.0925 7.73516L16.3604 8.07174L17.6378 9.29226Z" fill="#FFCC00"/>
<path d="M18.2119 7.52545L16.8555 8.46464L16.461 7.76202L18.2119 7.52545Z" fill="#FFCC00"/>
<path d="M18.2119 7.52546L16.5625 7.56291L16.6564 8.36319L18.2119 7.52546Z" fill="#FFCC00"/>
<path d="M14.1226 12.8074L13.5773 11.2503L12.8451 11.5869L14.1226 12.8074Z" fill="#FFCC00"/>
<path d="M14.1225 12.8074L12.8102 11.8076L13.3565 11.2153L14.1225 12.8074Z" fill="#FFCC00"/>
<path d="M12.2648 12.8074L13.5772 11.8076L13.0308 11.2153L12.2648 12.8074Z" fill="#FFCC00"/>
<path d="M12.2648 12.8074L12.8101 11.2503L13.5422 11.5869L12.2648 12.8074Z" fill="#FFCC00"/>
<path d="M11.6907 11.0406L13.0471 11.9798L13.4415 11.2772L11.6907 11.0406Z" fill="#FFCC00"/>
<path d="M11.6907 11.0406L13.3401 11.078L13.2462 11.8783L11.6907 11.0406Z" fill="#FFCC00"/>
<path d="M14.6965 11.0406L13.3401 11.9798L12.9457 11.2772L14.6965 11.0406Z" fill="#FFCC00"/>
<path d="M14.6965 11.0406L13.0471 11.078L13.141 11.8783L14.6965 11.0406Z" fill="#FFCC00"/>
<path d="M13.1937 9.94867L13.6677 11.5289L12.8776 11.6869L13.1937 9.94867Z" fill="#FFCC00"/>
<path d="M13.1937 9.94867L12.7196 11.5289L13.5097 11.6869L13.1937 9.94867Z" fill="#FFCC00"/>
<path d="M14.6984 20.5449L13.049 20.5823L13.1428 21.3826L14.6984 20.5449Z" fill="#FFCC00"/>
<path d="M14.6984 20.5449L13.3419 21.4841L12.9475 20.7814L14.6984 20.5449Z" fill="#FFCC00"/>
<path d="M14.1244 22.3116L13.5791 20.7545L12.847 21.0911L14.1244 22.3116Z" fill="#FFCC00"/>
<path d="M14.1244 22.3116L12.812 21.3118L13.3583 20.7196L14.1244 22.3116Z" fill="#FFCC00"/>
<path d="M12.2667 22.3116L13.5791 21.3118L13.0328 20.7196L12.2667 22.3116Z" fill="#FFCC00"/>
<path d="M12.2667 22.3116L12.812 20.7545L13.5441 21.0911L12.2667 22.3116Z" fill="#FFCC00"/>
<path d="M13.1955 19.4529L13.6696 21.0332L12.8794 21.1912L13.1955 19.4529Z" fill="#FFCC00"/>
<path d="M13.1955 19.4529L12.7214 21.0332L13.5116 21.1912L13.1955 19.4529Z" fill="#FFCC00"/>
<path d="M11.6926 20.5449L13.342 20.5823L13.2481 21.3826L11.6926 20.5449Z" fill="#FFCC00"/>
<path d="M11.6926 20.5449L13.049 21.4841L13.4435 20.7814L11.6926 20.5449Z" fill="#FFCC00"/>
<path d="M18.1281 23.7255L16.4787 23.763L16.5725 24.5633L18.1281 23.7255Z" fill="#FFCC00"/>
<path d="M18.128 23.7255L16.7716 24.6647L16.3772 23.9621L18.128 23.7255Z" fill="#FFCC00"/>
<path d="M17.5541 25.4923L17.0088 23.9352L16.2767 24.2718L17.5541 25.4923Z" fill="#FFCC00"/>
<path d="M17.5541 25.4923L16.2417 24.4925L16.788 23.9002L17.5541 25.4923Z" fill="#FFCC00"/>
<path d="M15.6964 25.4923L17.0088 24.4925L16.4625 23.9002L15.6964 25.4923Z" fill="#FFCC00"/>
<path d="M15.6964 25.4923L16.2417 23.9352L16.9738 24.2718L15.6964 25.4923Z" fill="#FFCC00"/>
<path d="M16.6252 22.6336L17.0992 24.2139L16.3091 24.3719L16.6252 22.6336Z" fill="#FFCC00"/>
<path d="M16.6252 22.6336L16.1511 24.2139L16.9412 24.3719L16.6252 22.6336Z" fill="#FFCC00"/>
<path d="M15.1223 23.7255L16.7717 23.763L16.6778 24.5633L15.1223 23.7255Z" fill="#FFCC00"/>
<path d="M15.1223 23.7255L16.4787 24.6647L16.8732 23.9621L15.1223 23.7255Z" fill="#FFCC00"/>
<path d="M21.3333 14.5731L21.8074 16.1534L21.0172 16.3114L21.3333 14.5731Z" fill="#FFCC00"/>
<path d="M21.3333 14.5731L20.8593 16.1534L21.6494 16.3114L21.3333 14.5731Z" fill="#FFCC00"/>
<path d="M19.8303 15.665L21.4797 15.7025L21.3858 16.5028L19.8303 15.665Z" fill="#FFCC00"/>
<path d="M19.8303 15.665L21.1867 16.6042L21.5812 15.9016L19.8303 15.665Z" fill="#FFCC00"/>
<path d="M20.4044 17.4318L20.9497 15.8747L21.6818 16.2113L20.4044 17.4318Z" fill="#FFCC00"/>
<path d="M20.4044 17.4318L21.7168 16.432L21.1705 15.8397L20.4044 17.4318Z" fill="#FFCC00"/>
<path d="M22.8362 15.665L21.1868 15.7025L21.2807 16.5028L22.8362 15.665Z" fill="#FFCC00"/>
<path d="M22.8362 15.665L21.4798 16.6042L21.0853 15.9016L22.8362 15.665Z" fill="#FFCC00"/>
<path d="M22.2621 17.4318L21.7168 15.8747L20.9847 16.2113L22.2621 17.4318Z" fill="#FFCC00"/>
<path d="M22.2621 17.4318L20.9497 16.432L21.496 15.8397L22.2621 17.4318Z" fill="#FFCC00"/>
<path d="M26.8865 9.29221L25.5741 8.29242L26.1204 7.70015L26.8865 9.29221Z" fill="#FFCC00"/>
<path d="M26.8865 9.2922L26.3412 7.7351L25.6091 8.07168L26.8865 9.2922Z" fill="#FFCC00"/>
<path d="M27.4606 7.52545L26.1042 8.46464L25.7097 7.76202L27.4606 7.52545Z" fill="#FFCC00"/>
<path d="M27.4606 7.52546L25.8112 7.56291L25.9051 8.36319L27.4606 7.52546Z" fill="#FFCC00"/>
<path d="M25.9577 6.43353L26.4318 8.01378L25.6416 8.1718L25.9577 6.43353Z" fill="#FFCC00"/>
<path d="M25.9577 6.43353L25.4836 8.01378L26.2738 8.1718L25.9577 6.43353Z" fill="#FFCC00"/>
<path d="M25.0288 9.29227L26.3412 8.29248L25.7949 7.70021L25.0288 9.29227Z" fill="#FFCC00"/>
<path d="M25.0288 9.29226L25.5741 7.73516L26.3062 8.07174L25.0288 9.29226Z" fill="#FFCC00"/>
<path d="M24.4547 7.52545L25.8111 8.46464L26.2056 7.76202L24.4547 7.52545Z" fill="#FFCC00"/>
<path d="M24.4547 7.52546L26.1041 7.56291L26.0102 8.36319L24.4547 7.52546Z" fill="#FFCC00"/>
<path d="M28.5441 12.8074L29.0894 11.2503L29.8215 11.5869L28.5441 12.8074Z" fill="#FFCC00"/>
<path d="M28.5441 12.8074L29.8565 11.8076L29.3101 11.2153L28.5441 12.8074Z" fill="#FFCC00"/>
<path d="M30.4018 12.8074L29.0895 11.8076L29.6358 11.2153L30.4018 12.8074Z" fill="#FFCC00"/>
<path d="M30.4019 12.8074L29.8566 11.2503L29.1244 11.5869L30.4019 12.8074Z" fill="#FFCC00"/>
<path d="M30.9759 11.0406L29.6195 11.9798L29.2251 11.2772L30.9759 11.0406Z" fill="#FFCC00"/>
<path d="M30.976 11.0406L29.3266 11.078L29.4204 11.8783L30.976 11.0406Z" fill="#FFCC00"/>
<path d="M27.9701 11.0406L29.3265 11.9798L29.721 11.2772L27.9701 11.0406Z" fill="#FFCC00"/>
<path d="M27.9701 11.0406L29.6195 11.078L29.5256 11.8783L27.9701 11.0406Z" fill="#FFCC00"/>
<path d="M29.473 9.94867L28.9989 11.5289L29.789 11.6869L29.473 9.94867Z" fill="#FFCC00"/>
<path d="M29.4729 9.94867L29.947 11.5289L29.1569 11.6869L29.4729 9.94867Z" fill="#FFCC00"/>
<path d="M27.9682 20.5449L29.6177 20.5823L29.5238 21.3826L27.9682 20.5449Z" fill="#FFCC00"/>
<path d="M27.9683 20.5449L29.3247 21.4841L29.7191 20.7814L27.9683 20.5449Z" fill="#FFCC00"/>
<path d="M28.5422 22.3116L29.0875 20.7545L29.8196 21.0911L28.5422 22.3116Z" fill="#FFCC00"/>
<path d="M28.5422 22.3116L29.8546 21.3118L29.3083 20.7196L28.5422 22.3116Z" fill="#FFCC00"/>
<path d="M30.3999 22.3116L29.0875 21.3118L29.6339 20.7196L30.3999 22.3116Z" fill="#FFCC00"/>
<path d="M30.3999 22.3116L29.8546 20.7545L29.1225 21.0911L30.3999 22.3116Z" fill="#FFCC00"/>
<path d="M29.4711 19.4529L28.9971 21.0332L29.7872 21.1912L29.4711 19.4529Z" fill="#FFCC00"/>
<path d="M29.4711 19.4529L29.9452 21.0332L29.1551 21.1912L29.4711 19.4529Z" fill="#FFCC00"/>
<path d="M30.974 20.5449L29.3246 20.5823L29.4185 21.3826L30.974 20.5449Z" fill="#FFCC00"/>
<path d="M30.974 20.5449L29.6176 21.4841L29.2231 20.7814L30.974 20.5449Z" fill="#FFCC00"/>
<path d="M24.5386 23.7255L26.188 23.763L26.0941 24.5633L24.5386 23.7255Z" fill="#FFCC00"/>
<path d="M24.5386 23.7255L25.895 24.6647L26.2894 23.9621L24.5386 23.7255Z" fill="#FFCC00"/>
<path d="M25.1125 25.4923L25.6578 23.9352L26.39 24.2718L25.1125 25.4923Z" fill="#FFCC00"/>
<path d="M25.1126 25.4923L26.4249 24.4925L25.8786 23.9002L25.1126 25.4923Z" fill="#FFCC00"/>
<path d="M26.9702 25.4923L25.6578 24.4925L26.2042 23.9002L26.9702 25.4923Z" fill="#FFCC00"/>
<path d="M26.9702 25.4923L26.4249 23.9352L25.6928 24.2718L26.9702 25.4923Z" fill="#FFCC00"/>
<path d="M26.0415 22.6336L25.5674 24.2139L26.3575 24.3719L26.0415 22.6336Z" fill="#FFCC00"/>
<path d="M26.0414 22.6336L26.5155 24.2139L25.7254 24.3719L26.0414 22.6336Z" fill="#FFCC00"/>
<path d="M27.5443 23.7255L25.8949 23.763L25.9888 24.5633L27.5443 23.7255Z" fill="#FFCC00"/>
<path d="M27.5443 23.7255L26.1879 24.6647L25.7934 23.9621L27.5443 23.7255Z" fill="#FFCC00"/>
</g>
<defs>
<clipPath id="clip0_32_3720">
<rect width="42.6667" height="32" fill="white"/>
</clipPath>
</defs>
</svg>
