<svg width="43" height="32" viewBox="0 0 43 32" fill="none" xmlns="http://www.w3.org/2000/svg">
<path fill-rule="evenodd" clip-rule="evenodd" d="M-0.000342025 25.4869V6.52484L14.1181 16.0059L-0.0065918 25.4869H-0.000342025Z" fill="#030E24"/>
<path fill-rule="evenodd" clip-rule="evenodd" d="M9.63074 32.0056L25.4804 21.3433H47.9924V31.9993H9.63074V32.0056Z" fill="#0000CC"/>
<path fill-rule="evenodd" clip-rule="evenodd" d="M8.61816 -1.32756e-05H47.9923V10.6748H25.4741C25.4741 10.6748 8.82441 -0.106261 8.61816 -1.32756e-05Z" fill="#FF0000"/>
<path fill-rule="evenodd" clip-rule="evenodd" d="M-0.000342025 3.99991V6.52485L14.1181 15.9997L-0.0065918 25.4869V28.0056L17.7743 16.0059L-0.0065918 3.99991H-0.000342025Z" fill="#FFCC00"/>
<path fill-rule="evenodd" clip-rule="evenodd" d="M-0.000366211 3.99991V0H5.93701L24.7616 12.7497H47.9986V19.2621H24.7616L5.93076 31.9993H-0.000366211V28.0057L17.7743 16.0059L0.00588356 3.99991H-0.000366211Z" fill="#009933"/>
<path fill-rule="evenodd" clip-rule="evenodd" d="M5.93079 0H9.63071L25.4804 10.6685H47.9924V12.7497H24.7616L5.93079 0.00624987V0ZM5.93079 32.0056H9.63071L25.4804 21.3433H47.9924V19.2683H24.7616L5.93079 31.9993V32.0056Z" fill="white"/>
</svg>
