<svg width="43" height="32" viewBox="0 0 43 32" fill="none" xmlns="http://www.w3.org/2000/svg">
<g clip-path="url(#clip0_32_3701)">
<path fill-rule="evenodd" clip-rule="evenodd" d="M0 0H42.6667V2.46253H0V0ZM0 4.925H42.6667V7.38753H0V4.925ZM0 9.84373H42.6667V12.3125H0V9.84373ZM0 14.7687H42.6667V17.2313H0V14.7687ZM0 19.6937H42.6667V22.1563H0V19.6937ZM0 24.6125H42.6667V27.075H0V24.6125ZM0 29.5375H42.6667V32H0V29.5375Z" fill="#BD3D44"/>
<path fill-rule="evenodd" clip-rule="evenodd" d="M0 2.46252H42.6667V4.92499H0V2.46252ZM0 7.38746H42.6667V9.84372H0V7.38746ZM0 12.3063H42.6667V14.7687H0V12.3063ZM0 17.2313H42.6667V19.6937H0V17.2313ZM0 22.1563H42.6667V24.6187H0V22.1563ZM0 27.075H42.6667V29.5375H0V27.075Z" fill="white"/>
<path fill-rule="evenodd" clip-rule="evenodd" d="M0 0H17.0658V17.2313H0V0Z" fill="#192F5D"/>
<path fill-rule="evenodd" clip-rule="evenodd" d="M1.42081 0.737488L1.57871 1.41862H2.07873L1.67517 1.83742L1.82872 2.52489L1.42081 2.09989L1.0173 2.51862L1.1708 1.83742L0.762939 1.41862H1.27171L1.42081 0.737488ZM4.26731 0.737488L4.42081 1.41862H4.92519L4.51728 1.83742L4.67082 2.52489L4.26731 2.09989L3.85941 2.51862L4.0129 1.83742L3.6094 1.41862H4.10942L4.26731 0.737488ZM7.10942 0.737488L7.26731 1.41869H7.76294L7.35943 1.83749L7.51288 2.52495L7.10502 2.09995L6.70151 2.51869L6.85501 1.83749L6.4471 1.41869H6.95152L7.10942 0.737488ZM9.95592 0.737488L10.1094 1.41869H10.6138L10.2059 1.83749L10.3638 2.52495L9.95587 2.09995L9.54801 2.51869L9.70591 1.83749L9.298 1.41869H9.79803L9.95592 0.737488ZM12.798 0.737488L12.9559 1.41869H13.4559L13.0524 1.83749L13.2059 2.52495L12.798 2.09995L12.3945 2.51869L12.548 1.83749L12.1445 1.41869H12.6445L12.798 0.737488ZM15.6445 0.737488L15.798 1.41869H16.3024L15.8945 1.83749L16.0524 2.52495L15.6445 2.09995L15.2366 2.51869L15.3945 1.83749L14.9866 1.41869H15.491L15.6445 0.737488ZM2.84626 2.46235L2.99976 3.14369H3.50413L3.09623 3.56235L3.24537 4.24369L2.85061 3.82489L2.44275 4.24362L2.58745 3.56242L2.19274 3.14362H2.69276L2.84626 2.46235ZM5.68837 2.46235L5.84626 3.14369H6.34624L5.93833 3.56235L6.09627 4.24369L5.68832 3.82489L5.28046 4.24362L5.43835 3.56242L5.03045 3.14362H5.53482L5.68837 2.46235ZM8.53487 2.46235L8.68832 3.14369H9.19274L8.78483 3.56235L8.93833 4.24369L8.53482 3.82489L8.12696 4.24362L8.28046 3.56249L7.87695 3.14369H8.37697L8.53487 2.46235ZM11.377 2.46235L11.5349 3.14369H12.0348L11.6269 3.56235L11.7848 4.24369L11.3769 3.82489L10.9734 4.24362L11.127 3.56242L10.7191 3.14362H11.2278L11.377 2.46235ZM14.2234 2.46235L14.3769 3.14369H14.8813L14.4734 3.56235L14.6269 4.24369L14.2234 3.82489L13.8155 4.24362L13.9691 3.56242L13.5656 3.14362H14.0655L14.2234 2.46235ZM1.42081 4.18129L1.57871 4.87502H2.07873L1.67517 5.29375L1.82872 5.97502L1.42081 5.55002L1.0173 5.97502L1.1708 5.28749L0.762939 4.86882H1.27171L1.42081 4.18129ZM4.26731 4.18129L4.42081 4.86862H4.92519L4.51728 5.28735L4.67082 5.96869L4.26731 5.54362L3.85941 5.96862L4.0129 5.28115L3.6094 4.86242H4.10942L4.26731 4.18129ZM7.10942 4.18129L7.26731 4.86875H7.76294L7.35943 5.28749L7.51288 5.96882L7.10502 5.54375L6.70151 5.96875L6.85501 5.28129L6.4471 4.86256H6.95152L7.10942 4.18129ZM9.95592 4.18129L10.1094 4.86875H10.6138L10.2059 5.28749L10.3638 5.96882L9.95587 5.54375L9.54801 5.96875L9.70591 5.28129L9.298 4.86256H9.79803L9.95592 4.18129ZM12.798 4.18129L12.9559 4.86875H13.4559L13.0524 5.28742L13.2059 5.96875L12.798 5.54369L12.3945 5.96869L12.548 5.28122L12.1445 4.86249H12.6445L12.798 4.18129ZM15.6445 4.18129L15.798 4.86875H16.3024L15.8945 5.28749L16.0524 5.96882L15.6445 5.54375L15.2366 5.96875L15.3945 5.28129L14.9866 4.86256H15.491L15.6445 4.18129ZM2.84626 5.90622L2.99976 6.58749H3.50413L3.09623 7.00615L3.24977 7.69369L2.84626 7.26869L2.43835 7.68742L2.59185 7.00622L2.18834 6.58749H2.68841L2.84626 5.90622ZM5.68837 5.90622L5.84626 6.58749H6.34624L5.93833 7.00615L6.09627 7.69369L5.68832 7.26869L5.28046 7.68742L5.43835 7.00622L5.03045 6.58749H5.53482L5.68837 5.90622ZM8.53487 5.90622L8.68832 6.58749H9.19274L8.78483 7.00615L8.93833 7.69369L8.53482 7.26869L8.12696 7.68742L8.28046 7.00622L7.87695 6.58749H8.37697L8.53487 5.90622ZM11.377 5.90622L11.5349 6.58749H12.0348L11.6313 7.00615L11.7848 7.69369L11.3769 7.26869L10.9734 7.68742L11.127 7.00622L10.7191 6.58749H11.2278L11.377 5.90622ZM14.2234 5.90622L14.3769 6.58749H14.8813L14.4734 7.00615L14.6269 7.69369L14.2234 7.26869L13.8155 7.68742L13.9691 7.00622L13.5656 6.58749H14.0655L14.2234 5.90622ZM1.42081 7.63122L1.57871 8.31249H2.07873L1.67517 8.73115L1.82872 9.41869L1.42081 8.99369L1.0173 9.41242L1.1708 8.73122L0.762939 8.31249H1.27171L1.42081 7.63122ZM4.26731 7.63122L4.42081 8.31249H4.92519L4.51728 8.73115L4.67082 9.41249L4.26731 8.99369L3.85941 9.41242L4.0129 8.73122L3.6094 8.31249H4.10942L4.26731 7.63122ZM7.10942 7.63122L7.26731 8.31249H7.76294L7.35943 8.73115L7.51288 9.41869L7.10502 8.99369L6.70151 9.41242L6.85501 8.73122L6.4471 8.31249H6.95152L7.10942 7.63122ZM9.95592 7.63122L10.1094 8.31249H10.6138L10.2059 8.73115L10.3638 9.41869L9.95587 8.99369L9.54801 9.41242L9.70591 8.73122L9.298 8.31249H9.79803L9.95592 7.63122ZM12.798 7.63122L12.9559 8.31249H13.4559L13.0524 8.73115L13.2059 9.41869L12.798 8.99369L12.3945 9.41242L12.548 8.73122L12.1445 8.31249H12.6445L12.798 7.63122ZM15.6445 7.63122L15.798 8.31249H16.3024L15.8945 8.73115L16.0524 9.41869L15.6445 8.99369L15.2366 9.41242L15.3945 8.73122L14.9866 8.31249H15.491L15.6445 7.63122ZM2.84626 9.35622L2.99976 10.0375H3.50413L3.09623 10.4562L3.24977 11.1375L2.84626 10.7125L2.43835 11.1375L2.59185 10.45L2.18834 10.0312H2.68841L2.84626 9.35622ZM5.68837 9.35622L5.84626 10.0375H6.34624L5.93833 10.4562L6.09627 11.1375L5.68832 10.7125L5.28046 11.1375L5.43835 10.45L5.03045 10.0312H5.53482L5.68837 9.35622ZM8.53487 9.35622L8.68832 10.0375H9.19274L8.78483 10.4562L8.93833 11.1375L8.53482 10.7125L8.12696 11.1375L8.28046 10.45L7.87695 10.0312H8.37697L8.53487 9.35622ZM11.377 9.35622L11.5349 10.0375H12.0348L11.6313 10.4562L11.7848 11.1375L11.3769 10.7125L10.9734 11.1375L11.127 10.45L10.7191 10.0312H11.2278L11.377 9.35622ZM14.2234 9.35622L14.3769 10.0375H14.8813L14.4734 10.4562L14.6269 11.1375L14.2234 10.7125L13.8155 11.1375L13.9691 10.45L13.5656 10.0312H14.0655L14.2234 9.35622ZM1.42081 11.075L1.57871 11.7625H2.07873L1.67517 12.1812L1.82872 12.8562L1.42081 12.4375L1.0173 12.8562L1.1708 12.175L0.762939 11.7562H1.27171L1.42081 11.075ZM4.26731 11.075L4.42081 11.7625H4.92519L4.51728 12.1812L4.67522 12.8562L4.26727 12.4375L3.85941 12.8562L4.0173 12.175L3.6094 11.7562H4.10942L4.26731 11.075ZM7.10942 11.075L7.26731 11.7625H7.76294L7.35943 12.1812L7.51288 12.8562L7.10502 12.4375L6.70151 12.8562L6.85501 12.175L6.4471 11.7562H6.95152L7.10942 11.075ZM9.95592 11.075L10.1094 11.7625H10.6138L10.2059 12.1812L10.3638 12.8562L9.95587 12.4375L9.54801 12.8562L9.70591 12.175L9.298 11.7562H9.79803L9.95592 11.075ZM12.798 11.075L12.9559 11.7625H13.4559L13.0524 12.1812L13.2059 12.8562L12.798 12.4375L12.3945 12.8562L12.548 12.175L12.1445 11.7562H12.6445L12.798 11.075ZM15.6445 11.075L15.798 11.7625H16.3024L15.8945 12.1812L16.0524 12.8562L15.6445 12.4375L15.2366 12.8562L15.3945 12.175L14.9866 11.7562H15.491L15.6445 11.075ZM2.84626 12.8L2.99976 13.4812H3.50413L3.09623 13.9L3.24977 14.5875L2.84626 14.1625L2.43835 14.5812L2.59185 13.9L2.18834 13.4812H2.68841L2.84626 12.8ZM5.68837 12.8L5.84626 13.4812H6.34624L5.93833 13.9L6.09627 14.5875L5.68832 14.1625L5.28046 14.5812L5.43835 13.9L5.03045 13.4812H5.53482L5.68837 12.8ZM8.53487 12.8L8.68832 13.4812H9.19274L8.78483 13.9L8.93833 14.5875L8.53482 14.1625L8.12696 14.5812L8.28046 13.9L7.87695 13.4812H8.37697L8.53487 12.8ZM11.377 12.8L11.5349 13.4812H12.0348L11.6313 13.9L11.7848 14.5875L11.3769 14.1625L10.9734 14.5812L11.127 13.9L10.7191 13.4812H11.2278L11.377 12.8ZM14.2234 12.8L14.3769 13.4812H14.8813L14.4734 13.9L14.6269 14.5875L14.2234 14.1625L13.8155 14.5812L13.9691 13.9L13.5656 13.4812H14.0655L14.2234 12.8ZM1.42081 14.525L1.57871 15.2062H2.07873L1.67517 15.625L1.82872 16.3062L1.42081 15.8875L1.0173 16.3062L1.1708 15.6187L0.762939 15.2H1.27171L1.42081 14.525ZM4.26731 14.525L4.42081 15.2062H4.92519L4.51728 15.625L4.67522 16.3062L4.26727 15.8875L3.85941 16.3062L4.0173 15.6187L3.6094 15.2H4.10942L4.26731 14.525ZM7.10942 14.525L7.26731 15.2062H7.76294L7.36818 15.625L7.52168 16.3062L7.11377 15.8875L6.71026 16.3062L6.8638 15.6187L6.4559 15.2H6.96027L7.10942 14.525ZM9.95592 14.525L10.1094 15.2062H10.6138L10.2059 15.625L10.3638 16.3062L9.95587 15.8875L9.54801 16.3062L9.70591 15.6187L9.298 15.2H9.79803L9.95592 14.525ZM12.798 14.525L12.9559 15.2062H13.4559L13.0524 15.625L13.2059 16.3062L12.798 15.8875L12.3945 16.3062L12.548 15.6187L12.1445 15.2H12.6445L12.798 14.525ZM15.6445 14.525L15.798 15.2062H16.3024L15.8945 15.625L16.0524 16.3062L15.6445 15.8875L15.2366 16.3062L15.3945 15.6187L14.9866 15.2H15.491L15.6445 14.525Z" fill="white"/>
</g>
<defs>
<clipPath id="clip0_32_3701">
<rect width="42.6667" height="32" fill="white"/>
</clipPath>
</defs>
</svg>
