<svg width="84" height="60" viewBox="0 0 84 60" fill="none" xmlns="http://www.w3.org/2000/svg">
<path d="M29.5 37.2916C19.75 37.2916 0.333344 42.1666 0.333344 51.875V59.1666H58.6667V51.875C58.6667 42.1666 39.25 37.2916 29.5 37.2916ZM10.0833 50.8333C13.5833 48.4166 22.0417 45.625 29.5 45.625C36.9583 45.625 45.4167 48.4166 48.9167 50.8333H10.0833ZM29.5 30C37.5417 30 44.0833 23.4583 44.0833 15.4166C44.0833 7.37498 37.5417 0.833313 29.5 0.833313C21.4583 0.833313 14.9167 7.37498 14.9167 15.4166C14.9167 23.4583 21.4583 30 29.5 30ZM29.5 9.16665C32.9583 9.16665 35.75 11.9583 35.75 15.4166C35.75 18.875 32.9583 21.6666 29.5 21.6666C26.0417 21.6666 23.25 18.875 23.25 15.4166C23.25 11.9583 26.0417 9.16665 29.5 9.16665ZM58.8333 37.5416C63.6667 41.0416 67 45.7083 67 51.875V59.1666H83.6667V51.875C83.6667 43.4583 69.0833 38.6666 58.8333 37.5416ZM54.5 30C62.5417 30 69.0833 23.4583 69.0833 15.4166C69.0833 7.37498 62.5417 0.833313 54.5 0.833313C52.25 0.833313 50.1667 1.37498 48.25 2.29165C50.875 5.99998 52.4167 10.5416 52.4167 15.4166C52.4167 20.2916 50.875 24.8333 48.25 28.5416C50.1667 29.4583 52.25 30 54.5 30Z" fill="#0064F1"/>
</svg>
