<svg width="84" height="84" viewBox="0 0 84 84" fill="none" xmlns="http://www.w3.org/2000/svg">
<path d="M42 0.333374C19 0.333374 0.333328 19 0.333328 42C0.333328 65 19 83.6667 42 83.6667C65 83.6667 83.6667 65 83.6667 42C83.6667 19 65 0.333374 42 0.333374ZM42 75.3334C23.625 75.3334 8.66666 60.375 8.66666 42C8.66666 23.625 23.625 8.66671 42 8.66671C60.375 8.66671 75.3333 23.625 75.3333 42C75.3333 60.375 60.375 75.3334 42 75.3334ZM43.2917 38.4167C35.9167 36.5417 33.5417 34.5 33.5417 31.4584C33.5417 27.9584 36.8333 25.5 42.2917 25.5C48.0417 25.5 50.2083 28.25 50.375 32.3334H57.5C57.2917 26.75 53.875 21.625 47.125 19.9584V12.8334H37.4167V19.875C31.125 21.2084 26.0833 25.2917 26.0833 31.5834C26.0833 39.0417 32.2917 42.7917 41.3333 44.9584C49.4583 46.875 51.0833 49.75 51.0833 52.75C51.0833 54.9584 49.4583 58.5417 42.3333 58.5417C35.6667 58.5417 33.0417 55.5417 32.6667 51.7084H25.5C25.9167 58.7917 31.1667 62.7917 37.4167 64.0834V71.1667H47.1667V64.2084C53.5 63 58.5 59.375 58.5417 52.6667C58.5 43.5 50.625 40.3334 43.2917 38.4167Z" fill="#0064F1"/>
</svg>
