<svg width="100" height="50" viewBox="0 0 100 50" fill="none" xmlns="http://www.w3.org/2000/svg">
<path d="M16.6667 29.1667C21.25 29.1667 25 25.4167 25 20.8333C25 16.25 21.25 12.5 16.6667 12.5C12.0833 12.5 8.33333 16.25 8.33333 20.8333C8.33333 25.4167 12.0833 29.1667 16.6667 29.1667ZM21.375 33.75C19.8333 33.5 18.2917 33.3333 16.6667 33.3333C12.5417 33.3333 8.625 34.2083 5.08333 35.75C2 37.0833 0 40.0833 0 43.4583V50H18.75V43.2917C18.75 39.8333 19.7083 36.5833 21.375 33.75ZM83.3333 29.1667C87.9167 29.1667 91.6667 25.4167 91.6667 20.8333C91.6667 16.25 87.9167 12.5 83.3333 12.5C78.75 12.5 75 16.25 75 20.8333C75 25.4167 78.75 29.1667 83.3333 29.1667ZM100 43.4583C100 40.0833 98 37.0833 94.9167 35.75C91.375 34.2083 87.4583 33.3333 83.3333 33.3333C81.7083 33.3333 80.1667 33.5 78.625 33.75C80.2917 36.5833 81.25 39.8333 81.25 43.2917V50H100V43.4583ZM67.6667 31.875C62.7917 29.7083 56.7917 28.125 50 28.125C43.2083 28.125 37.2083 29.75 32.3333 31.875C27.8333 33.875 25 38.375 25 43.2917V50H75V43.2917C75 38.375 72.1667 33.875 67.6667 31.875ZM33.625 41.6667C34 40.7083 34.1667 40.0417 37.4167 38.7917C41.4583 37.2083 45.7083 36.4583 50 36.4583C54.2917 36.4583 58.5417 37.2083 62.5833 38.7917C65.7917 40.0417 65.9583 40.7083 66.375 41.6667H33.625ZM50 8.33333C52.2917 8.33333 54.1667 10.2083 54.1667 12.5C54.1667 14.7917 52.2917 16.6667 50 16.6667C47.7083 16.6667 45.8333 14.7917 45.8333 12.5C45.8333 10.2083 47.7083 8.33333 50 8.33333ZM50 0C43.0833 0 37.5 5.58333 37.5 12.5C37.5 19.4167 43.0833 25 50 25C56.9167 25 62.5 19.4167 62.5 12.5C62.5 5.58333 56.9167 0 50 0Z" fill="#0064F1"/>
</svg>
