<svg width="68" height="68" viewBox="0 0 68 68" fill="none" xmlns="http://www.w3.org/2000/svg">
<path d="M34 9C38.5833 9 42.3333 12.75 42.3333 17.3333C42.3333 21.9167 38.5833 25.6667 34 25.6667C29.4167 25.6667 25.6667 21.9167 25.6667 17.3333C25.6667 12.75 29.4167 9 34 9ZM34 50.6667C45.25 50.6667 58.1667 56.0417 59 59H8.99999C9.95832 56 22.7917 50.6667 34 50.6667ZM34 0.666664C24.7917 0.666664 17.3333 8.125 17.3333 17.3333C17.3333 26.5417 24.7917 34 34 34C43.2083 34 50.6667 26.5417 50.6667 17.3333C50.6667 8.125 43.2083 0.666664 34 0.666664ZM34 42.3333C22.875 42.3333 0.666656 47.9167 0.666656 59V67.3333H67.3333V59C67.3333 47.9167 45.125 42.3333 34 42.3333Z" fill="#0064F1"/>
</svg>
