<svg width="65" height="64" viewBox="0 0 65 64" fill="none" xmlns="http://www.w3.org/2000/svg">
<rect x="0.5" width="64" height="64" rx="8" fill="#F8FAFC"/>
<path d="M27.8337 41.3346H27.167C21.8337 41.3346 19.167 40.0013 19.167 33.3346V26.668C19.167 21.3346 21.8337 18.668 27.167 18.668H37.8337C43.167 18.668 45.8337 21.3346 45.8337 26.668V33.3346C45.8337 38.668 43.167 41.3346 37.8337 41.3346H37.167C36.7537 41.3346 36.3537 41.5346 36.1003 41.868L34.1003 44.5346C33.2203 45.708 31.7803 45.708 30.9003 44.5346L28.9003 41.868C28.687 41.5746 28.1937 41.3346 27.8337 41.3346Z" stroke="#0062FF" stroke-width="1.5" stroke-miterlimit="10" stroke-linecap="round" stroke-linejoin="round"/>
<path d="M37.8283 30.6667H37.8403" stroke="#0062FF" stroke-width="2" stroke-linecap="round" stroke-linejoin="round"/>
<path d="M32.4943 30.6667H32.5063" stroke="#0062FF" stroke-width="2" stroke-linecap="round" stroke-linejoin="round"/>
<path d="M27.1593 30.6667H27.1713" stroke="#0062FF" stroke-width="2" stroke-linecap="round" stroke-linejoin="round"/>
</svg>
