<svg width="94" height="62" viewBox="0 0 94 62" fill="none" xmlns="http://www.w3.org/2000/svg">
<path d="M35.9433 38.5C32.6555 38.5 29.9902 35.8347 29.9902 32.5469L29.9902 0.5V0.5C36.5658 0.5 41.8964 5.83058 41.8964 12.4062V32.5469C41.8964 35.8347 39.2311 38.5 35.9433 38.5V38.5Z" fill="#0062FF"/>
<path d="M58.0548 38.5C54.767 38.5 52.1017 35.8347 52.1017 32.5469V0.5V0.5C58.6773 0.5 64.0079 5.83058 64.0079 12.4062V32.5469C64.0079 35.8347 61.3426 38.5 58.0548 38.5V38.5Z" fill="#0062FF"/>
<path d="M8.176 51.332C8.176 52.004 8.01067 52.5907 7.68 53.092C7.34933 53.5933 6.86933 53.9827 6.24 54.26C5.62133 54.5267 4.864 54.66 3.968 54.66C3.57333 54.66 3.184 54.6333 2.8 54.58C2.42667 54.5267 2.064 54.452 1.712 54.356C1.37067 54.2493 1.04533 54.1213 0.736 53.972V51.716C1.28 51.9507 1.84 52.1693 2.416 52.372C3.00267 52.564 3.584 52.66 4.16 52.66C4.55467 52.66 4.86933 52.6067 5.104 52.5C5.34933 52.3933 5.52533 52.2493 5.632 52.068C5.74933 51.8867 5.808 51.6787 5.808 51.444C5.808 51.156 5.70667 50.9107 5.504 50.708C5.312 50.5053 5.05067 50.3187 4.72 50.148C4.38933 49.9667 4.01067 49.7747 3.584 49.572C3.31733 49.444 3.02933 49.2947 2.72 49.124C2.41067 48.9427 2.112 48.724 1.824 48.468C1.54667 48.2013 1.31733 47.8813 1.136 47.508C0.954667 47.1347 0.864 46.6867 0.864 46.164C0.864 45.4813 1.01867 44.9 1.328 44.42C1.648 43.9293 2.096 43.556 2.672 43.3C3.25867 43.044 3.94667 42.916 4.736 42.916C5.33333 42.916 5.89867 42.9853 6.432 43.124C6.976 43.2627 7.54133 43.46 8.128 43.716L7.344 45.604C6.82133 45.3907 6.352 45.2253 5.936 45.108C5.52 44.9907 5.09333 44.932 4.656 44.932C4.35733 44.932 4.10133 44.98 3.888 45.076C3.67467 45.172 3.50933 45.3053 3.392 45.476C3.28533 45.6467 3.232 45.8493 3.232 46.084C3.232 46.3507 3.312 46.58 3.472 46.772C3.632 46.9533 3.872 47.1293 4.192 47.3C4.512 47.4707 4.912 47.6733 5.392 47.908C5.97867 48.1853 6.47467 48.4733 6.88 48.772C7.296 49.0707 7.616 49.4227 7.84 49.828C8.064 50.2333 8.176 50.7347 8.176 51.332ZM13.7405 52.756C14.0072 52.756 14.2632 52.7293 14.5085 52.676C14.7538 52.6227 14.9992 52.5587 15.2445 52.484V54.26C14.9885 54.3667 14.6685 54.4573 14.2845 54.532C13.9112 54.6173 13.5005 54.66 13.0525 54.66C12.5298 54.66 12.0605 54.5747 11.6445 54.404C11.2392 54.2333 10.9138 53.94 10.6685 53.524C10.4338 53.0973 10.3165 52.5107 10.3165 51.764V47.556H9.1805V46.548L10.4925 45.748L11.1805 43.908H12.7005V45.764H15.1485V47.556H12.7005V51.764C12.7005 52.0947 12.7965 52.3453 12.9885 52.516C13.1805 52.676 13.4312 52.756 13.7405 52.756ZM21.878 45.604C21.9953 45.604 22.134 45.6093 22.294 45.62C22.454 45.6307 22.582 45.6467 22.678 45.668L22.502 47.908C22.4273 47.8867 22.3153 47.8707 22.166 47.86C22.0273 47.8387 21.9047 47.828 21.798 47.828C21.4887 47.828 21.19 47.8707 20.902 47.956C20.614 48.0307 20.3527 48.1533 20.118 48.324C19.894 48.4947 19.7127 48.724 19.574 49.012C19.446 49.2893 19.382 49.636 19.382 50.052V54.5H16.998V45.764H18.806L19.158 47.236H19.27C19.4407 46.9373 19.654 46.6653 19.91 46.42C20.166 46.1747 20.4593 45.9773 20.79 45.828C21.1313 45.6787 21.494 45.604 21.878 45.604ZM27.5511 45.604C28.3618 45.604 29.0551 45.7587 29.6311 46.068C30.2178 46.3773 30.6711 46.8253 30.9911 47.412C31.3111 47.9987 31.4711 48.7187 31.4711 49.572V50.724H25.8391C25.8605 51.396 26.0578 51.924 26.4311 52.308C26.8151 52.692 27.3431 52.884 28.0151 52.884C28.5805 52.884 29.0925 52.8307 29.5511 52.724C30.0098 52.6067 30.4845 52.4307 30.9751 52.196V54.036C30.5485 54.2493 30.0951 54.404 29.6151 54.5C29.1458 54.6067 28.5751 54.66 27.9031 54.66C27.0285 54.66 26.2551 54.5 25.5831 54.18C24.9111 53.8493 24.3831 53.3533 23.9991 52.692C23.6151 52.0307 23.4231 51.1987 23.4231 50.196C23.4231 49.172 23.5938 48.324 23.9351 47.652C24.2871 46.9693 24.7725 46.4573 25.3911 46.116C26.0098 45.7747 26.7298 45.604 27.5511 45.604ZM27.5671 47.3C27.1085 47.3 26.7245 47.4493 26.4151 47.748C26.1165 48.0467 25.9405 48.5107 25.8871 49.14H29.2311C29.2311 48.788 29.1671 48.4733 29.0391 48.196C28.9218 47.9187 28.7405 47.7 28.4951 47.54C28.2498 47.38 27.9405 47.3 27.5671 47.3ZM37.0043 45.604C37.8149 45.604 38.5083 45.7587 39.0843 46.068C39.6709 46.3773 40.1243 46.8253 40.4443 47.412C40.7643 47.9987 40.9243 48.7187 40.9243 49.572V50.724H35.2923C35.3136 51.396 35.5109 51.924 35.8843 52.308C36.2683 52.692 36.7963 52.884 37.4683 52.884C38.0336 52.884 38.5456 52.8307 39.0043 52.724C39.4629 52.6067 39.9376 52.4307 40.4283 52.196V54.036C40.0016 54.2493 39.5483 54.404 39.0683 54.5C38.5989 54.6067 38.0283 54.66 37.3563 54.66C36.4816 54.66 35.7083 54.5 35.0363 54.18C34.3643 53.8493 33.8363 53.3533 33.4523 52.692C33.0683 52.0307 32.8763 51.1987 32.8763 50.196C32.8763 49.172 33.0469 48.324 33.3883 47.652C33.7403 46.9693 34.2256 46.4573 34.8443 46.116C35.4629 45.7747 36.1829 45.604 37.0043 45.604ZM37.0203 47.3C36.5616 47.3 36.1776 47.4493 35.8683 47.748C35.5696 48.0467 35.3936 48.5107 35.3403 49.14H38.6843C38.6843 48.788 38.6203 48.4733 38.4923 48.196C38.3749 47.9187 38.1936 47.7 37.9483 47.54C37.7029 47.38 37.3936 47.3 37.0203 47.3ZM46.5374 52.756C46.804 52.756 47.06 52.7293 47.3054 52.676C47.5507 52.6227 47.796 52.5587 48.0414 52.484V54.26C47.7854 54.3667 47.4654 54.4573 47.0814 54.532C46.708 54.6173 46.2974 54.66 45.8494 54.66C45.3267 54.66 44.8574 54.5747 44.4414 54.404C44.036 54.2333 43.7107 53.94 43.4654 53.524C43.2307 53.0973 43.1134 52.5107 43.1134 51.764V47.556H41.9774V46.548L43.2894 45.748L43.9774 43.908H45.4974V45.764H47.9454V47.556H45.4974V51.764C45.4974 52.0947 45.5934 52.3453 45.7854 52.516C45.9774 52.676 46.228 52.756 46.5374 52.756Z" fill="#0062FF"/>
<path d="M53.768 43.076C54.8027 43.076 55.656 43.204 56.328 43.46C57 43.7053 57.5013 44.084 57.832 44.596C58.1627 45.0973 58.328 45.732 58.328 46.5C58.328 47.0227 58.2267 47.4813 58.024 47.876C57.832 48.26 57.5707 48.5907 57.24 48.868C56.92 49.1347 56.5733 49.3533 56.2 49.524L59.56 54.5H56.872L54.152 50.116H52.856V54.5H50.44V43.076H53.768ZM53.592 45.06H52.856V48.148H53.64C54.1733 48.148 54.6053 48.0893 54.936 47.972C55.2667 47.8547 55.5067 47.6787 55.656 47.444C55.8053 47.1987 55.88 46.9053 55.88 46.564C55.88 46.2013 55.7947 45.9133 55.624 45.7C55.464 45.476 55.2133 45.316 54.872 45.22C54.5413 45.1133 54.1147 45.06 53.592 45.06ZM64.3945 45.588C65.5678 45.588 66.4638 45.844 67.0825 46.356C67.7118 46.8573 68.0265 47.6307 68.0265 48.676V54.5H66.3625L65.8985 53.316H65.8345C65.5892 53.6253 65.3332 53.8813 65.0665 54.084C64.8105 54.2867 64.5118 54.4307 64.1705 54.516C63.8398 54.612 63.4292 54.66 62.9385 54.66C62.4265 54.66 61.9625 54.564 61.5465 54.372C61.1412 54.1693 60.8212 53.8653 60.5865 53.46C60.3518 53.044 60.2345 52.5213 60.2345 51.892C60.2345 50.964 60.5598 50.2813 61.2105 49.844C61.8612 49.396 62.8372 49.1507 64.1385 49.108L65.6585 49.06V48.676C65.6585 48.2173 65.5358 47.8813 65.2905 47.668C65.0558 47.4547 64.7252 47.348 64.2985 47.348C63.8718 47.348 63.4558 47.412 63.0505 47.54C62.6452 47.6573 62.2398 47.8067 61.8345 47.988L61.0505 46.372C61.5198 46.1267 62.0372 45.9347 62.6025 45.796C63.1785 45.6573 63.7758 45.588 64.3945 45.588ZM64.7305 50.484C63.9625 50.5053 63.4292 50.644 63.1305 50.9C62.8318 51.156 62.6825 51.492 62.6825 51.908C62.6825 52.2707 62.7892 52.532 63.0025 52.692C63.2158 52.8413 63.4932 52.916 63.8345 52.916C64.3465 52.916 64.7785 52.7667 65.1305 52.468C65.4825 52.1587 65.6585 51.7267 65.6585 51.172V50.452L64.7305 50.484ZM74.1468 52.756C74.4134 52.756 74.6694 52.7293 74.9148 52.676C75.1601 52.6227 75.4054 52.5587 75.6508 52.484V54.26C75.3948 54.3667 75.0748 54.4573 74.6908 54.532C74.3174 54.6173 73.9068 54.66 73.4588 54.66C72.9361 54.66 72.4668 54.5747 72.0508 54.404C71.6454 54.2333 71.3201 53.94 71.0748 53.524C70.8401 53.0973 70.7228 52.5107 70.7228 51.764V47.556H69.5868V46.548L70.8988 45.748L71.5868 43.908H73.1068V45.764H75.5548V47.556H73.1068V51.764C73.1068 52.0947 73.2028 52.3453 73.3948 52.516C73.5868 52.676 73.8374 52.756 74.1468 52.756ZM81.0043 45.604C81.8149 45.604 82.5083 45.7587 83.0843 46.068C83.6709 46.3773 84.1243 46.8253 84.4443 47.412C84.7643 47.9987 84.9243 48.7187 84.9243 49.572V50.724H79.2923C79.3136 51.396 79.5109 51.924 79.8843 52.308C80.2683 52.692 80.7963 52.884 81.4683 52.884C82.0336 52.884 82.5456 52.8307 83.0043 52.724C83.4629 52.6067 83.9376 52.4307 84.4283 52.196V54.036C84.0016 54.2493 83.5483 54.404 83.0683 54.5C82.5989 54.6067 82.0283 54.66 81.3563 54.66C80.4816 54.66 79.7083 54.5 79.0363 54.18C78.3643 53.8493 77.8363 53.3533 77.4523 52.692C77.0683 52.0307 76.8763 51.1987 76.8763 50.196C76.8763 49.172 77.0469 48.324 77.3883 47.652C77.7403 46.9693 78.2256 46.4573 78.8443 46.116C79.4629 45.7747 80.1829 45.604 81.0043 45.604ZM81.0203 47.3C80.5616 47.3 80.1776 47.4493 79.8683 47.748C79.5696 48.0467 79.3936 48.5107 79.3403 49.14H82.6843C82.6843 48.788 82.6203 48.4733 82.4923 48.196C82.3749 47.9187 82.1936 47.7 81.9483 47.54C81.7029 47.38 81.3936 47.3 81.0203 47.3ZM92.9534 51.908C92.9534 52.4947 92.8147 52.996 92.5374 53.412C92.26 53.8173 91.844 54.1267 91.2894 54.34C90.7347 54.5533 90.0467 54.66 89.2254 54.66C88.6174 54.66 88.0947 54.6173 87.6574 54.532C87.22 54.4573 86.7827 54.3293 86.3454 54.148V52.18C86.8147 52.3933 87.3214 52.5693 87.8654 52.708C88.4094 52.8467 88.8894 52.916 89.3054 52.916C89.7747 52.916 90.1054 52.8467 90.2974 52.708C90.5 52.5693 90.6014 52.388 90.6014 52.164C90.6014 52.0147 90.5587 51.8813 90.4734 51.764C90.3987 51.6467 90.228 51.5133 89.9614 51.364C89.6947 51.2147 89.2787 51.0227 88.7134 50.788C88.1694 50.5533 87.7214 50.324 87.3694 50.1C87.0174 49.8653 86.756 49.588 86.5854 49.268C86.4147 48.9373 86.3294 48.5267 86.3294 48.036C86.3294 47.2253 86.644 46.6173 87.2734 46.212C87.9027 45.8067 88.74 45.604 89.7854 45.604C90.3294 45.604 90.8467 45.6573 91.3374 45.764C91.828 45.8707 92.3347 46.0467 92.8574 46.292L92.1374 48.004C91.8494 47.876 91.572 47.764 91.3054 47.668C91.0387 47.572 90.7774 47.4973 90.5214 47.444C90.276 47.3907 90.02 47.364 89.7534 47.364C89.4014 47.364 89.1347 47.412 88.9534 47.508C88.7827 47.604 88.6974 47.748 88.6974 47.94C88.6974 48.0787 88.74 48.2067 88.8254 48.324C88.9214 48.4307 89.0974 48.548 89.3534 48.676C89.62 48.804 90.0094 48.9747 90.5214 49.188C91.0227 49.3907 91.4547 49.604 91.8174 49.828C92.18 50.0413 92.4574 50.3133 92.6494 50.644C92.852 50.964 92.9534 51.3853 92.9534 51.908Z" fill="#0062FF"/>
</svg>
