<svg width="48" height="36" viewBox="0 0 48 36" fill="none" xmlns="http://www.w3.org/2000/svg">
<path d="M0 4.85937C0 2.65023 1.79086 0.859375 4 0.859375H44C46.2091 0.859375 48 2.65024 48 4.85938V31.1451C48 33.3542 46.2091 35.1451 44 35.1451H4C1.79086 35.1451 0 33.3542 0 31.1451V4.85937Z" fill="white"/>
<mask id="mask0_468_6176" style="mask-type:alpha" maskUnits="userSpaceOnUse" x="0" y="0" width="48" height="36">
<path d="M0 4.85937C0 2.65023 1.79086 0.859375 4 0.859375H44C46.2091 0.859375 48 2.65024 48 4.85938V31.1451C48 33.3542 46.2091 35.1451 44 35.1451H4C1.79086 35.1451 0 33.3542 0 31.1451V4.85937Z" fill="white"/>
</mask>
<g mask="url(#mask0_468_6176)">
<path d="M0 0.859375H48V35.1451H0V0.859375Z" fill="#0A17A7"/>
<path fill-rule="evenodd" clip-rule="evenodd" d="M8 7.71652L0 0.859375H1.14286L9.14286 6.57366H11.4286L20.5714 0.859375V1.65915C20.5714 1.87445 20.4675 2.0765 20.2923 2.20164L12.5714 7.71652V10.0022L19.7957 16.1944C20.0621 16.4228 19.9006 16.8594 19.5497 16.8594C19.4709 16.8594 19.3941 16.8348 19.33 16.789L11.4286 11.1451H9.14286L0 16.8594V15.7165L8 10.0022V7.71652Z" fill="#FF2E3B"/>
<path fill-rule="evenodd" clip-rule="evenodd" d="M8.00083 7.71593V10.0016L0.000827789 15.7159V16.8588L9.14369 11.1445H11.4294L19.3308 16.7884C19.3949 16.8342 19.4717 16.8588 19.5505 16.8588C19.9014 16.8588 20.0629 16.4222 19.7965 16.1939L12.5723 10.0016V7.71593L20.2931 2.20106C20.4683 2.07591 20.5723 1.87387 20.5723 1.65857V0.858788L11.4294 6.57307H9.14369L1.14368 0.858788H0.000827789L8.00083 7.71593ZM9.57097 5.23974L1.57097 -0.474545H-3.60352L6.66749 8.32918V9.31549L-1.33251 15.0298V19.2645L9.52608 12.4778H11.0021L18.5559 17.8734C18.8461 18.0807 19.1938 18.1921 19.5505 18.1921C21.1393 18.1921 21.8705 16.2155 20.6642 15.1815L13.9056 9.3884V8.40209L21.0681 3.28603C21.5937 2.91061 21.9056 2.30447 21.9056 1.65857V-1.54688L11.047 5.23974H9.57097Z" fill="white"/>
<path fill-rule="evenodd" clip-rule="evenodd" d="M0 6.57366V11.1451H8V16.6689C8 17.4053 8.59695 18.0022 9.33333 18.0022H11.2381C11.9745 18.0022 12.5714 17.4053 12.5714 16.6689V11.1451H20.381C21.1173 11.1451 21.7143 10.5481 21.7143 9.81176V7.90699C21.7143 7.17061 21.1173 6.57366 20.381 6.57366H12.5714V0.859375H8V6.57366H0Z" fill="url(#paint0_linear_468_6176)"/>
<path fill-rule="evenodd" clip-rule="evenodd" d="M0 7.71652H9.14286V6.57366V0.859375H11.4286V6.57366V7.71652H20.5714V10.0022H11.4286V11.1451V16.8594H9.14286V11.1451V10.0022H0V7.71652Z" fill="url(#paint1_linear_468_6176)"/>
<path fill-rule="evenodd" clip-rule="evenodd" d="M10.2862 28.8597L8.27089 29.9191L8.65577 27.6751L7.02539 26.0859L9.27852 25.7585L10.2862 23.7168L11.2938 25.7585L13.5469 26.0859L11.9165 27.6751L12.3014 29.9191L10.2862 28.8597Z" fill="white"/>
<path fill-rule="evenodd" clip-rule="evenodd" d="M34.2862 30.5736L32.6699 31.0469L33.1433 29.4307L32.6699 27.8145L34.2862 28.2878L35.9024 27.8145L35.429 29.4307L35.9024 31.0469L34.2862 30.5736Z" fill="white"/>
<path fill-rule="evenodd" clip-rule="evenodd" d="M34.2862 8.85871L32.6699 9.3321L33.1433 7.71585L32.6699 6.09961L34.2862 6.573L35.9024 6.09961L35.429 7.71585L35.9024 9.3321L34.2862 8.85871Z" fill="white"/>
<path fill-rule="evenodd" clip-rule="evenodd" d="M41.1436 15.7161L39.5273 16.1895L40.0007 14.5733L39.5273 12.957L41.1436 13.4304L42.7598 12.957L42.2864 14.5733L42.7598 16.1895L41.1436 15.7161Z" fill="white"/>
<path fill-rule="evenodd" clip-rule="evenodd" d="M27.4287 18.0013L25.8125 18.4747L26.2859 16.8584L25.8125 15.2422L27.4287 15.7156L29.045 15.2422L28.5716 16.8584L29.045 18.4747L27.4287 18.0013Z" fill="white"/>
<path fill-rule="evenodd" clip-rule="evenodd" d="M37.7144 20.86L36.9062 21.0967L37.1429 20.2886L36.9062 19.4805L37.7144 19.7172L38.5225 19.4805L38.2858 20.2886L38.5225 21.0967L37.7144 20.86Z" fill="white"/>
</g>
<defs>
<linearGradient id="paint0_linear_468_6176" x1="0" y1="0.859375" x2="0" y2="18.0022" gradientUnits="userSpaceOnUse">
<stop stop-color="white"/>
<stop offset="1" stop-color="#F0F0F0"/>
</linearGradient>
<linearGradient id="paint1_linear_468_6176" x1="0" y1="0.859375" x2="0" y2="16.8594" gradientUnits="userSpaceOnUse">
<stop stop-color="#FF2E3B"/>
<stop offset="1" stop-color="#FC0D1B"/>
</linearGradient>
</defs>
</svg>
