<svg width="32" height="32" viewBox="0 0 32 32" fill="none" xmlns="http://www.w3.org/2000/svg">
<path d="M0 7.23991C0 5.76715 1.19391 4.57324 2.66667 4.57324H29.3333C30.8061 4.57324 32 5.76715 32 7.23991V24.7637C32 26.2365 30.8061 27.4304 29.3333 27.4304H2.66667C1.19391 27.4304 0 26.2365 0 24.7637V7.23991Z" fill="white"/>
<mask id="mask0_6_5857" style="mask-type:alpha" maskUnits="userSpaceOnUse" x="0" y="4" width="32" height="24">
<path d="M0 7.23991C0 5.76715 1.19391 4.57324 2.66667 4.57324H29.3333C30.8061 4.57324 32 5.76715 32 7.23991V24.7637C32 26.2365 30.8061 27.4304 29.3333 27.4304H2.66667C1.19391 27.4304 0 26.2365 0 24.7637V7.23991Z" fill="white"/>
</mask>
<g mask="url(#mask0_6_5857)">
<path d="M0 4.57324H32V27.4304H0V4.57324Z" fill="#0A17A7"/>
<path fill-rule="evenodd" clip-rule="evenodd" d="M5.33333 9.14467L0 4.57324H0.761905L6.09524 8.38277H7.61905L13.7143 4.57324V5.10643C13.7143 5.24996 13.645 5.38466 13.5282 5.46809L8.38095 9.14467V10.6685L13.1971 14.7966C13.3747 14.9489 13.2671 15.2399 13.0331 15.2399C12.9806 15.2399 12.9294 15.2235 12.8867 15.193L7.61905 11.4304H6.09524L0 15.2399V14.478L5.33333 10.6685V9.14467Z" fill="#FF2E3B"/>
<path fill-rule="evenodd" clip-rule="evenodd" d="M5.3334 9.14444V10.6683L6.36578e-05 14.4778V15.2397L6.0953 11.4302H7.61911L12.8867 15.1927C12.9295 15.2233 12.9807 15.2397 13.0332 15.2397C13.2671 15.2397 13.3748 14.9486 13.1972 14.7964L8.38102 10.6683V9.14444L13.5282 5.46786C13.645 5.38443 13.7143 5.24973 13.7143 5.1062V4.57301L7.61911 8.38254H6.0953L0.761968 4.57301H6.36578e-05L5.3334 9.14444ZM6.38016 7.49365L1.04683 3.68413H-2.40283L4.44451 9.55327V10.2108L-0.888825 14.0203V16.8435L6.35023 12.319H7.33425L12.3701 15.9161C12.5636 16.0543 12.7954 16.1286 13.0332 16.1286C14.0924 16.1286 14.5799 14.8108 13.7757 14.1215L9.26991 10.2594V9.60188L14.0449 6.19118C14.3953 5.9409 14.6032 5.5368 14.6032 5.1062V2.96924L7.36418 7.49365H6.38016Z" fill="white"/>
<path fill-rule="evenodd" clip-rule="evenodd" d="M0 8.38277V11.4304H5.33333V15.1129C5.33333 15.6038 5.7313 16.0018 6.22222 16.0018H7.49206C7.98298 16.0018 8.38095 15.6038 8.38095 15.1129V11.4304H13.5873C14.0782 11.4304 14.4762 11.0324 14.4762 10.5415V9.27165C14.4762 8.78074 14.0782 8.38277 13.5873 8.38277H8.38095V4.57324H5.33333V8.38277H0Z" fill="url(#paint0_linear_6_5857)"/>
<path fill-rule="evenodd" clip-rule="evenodd" d="M0 9.14467H6.09524V8.38277V4.57324H7.61905V8.38277V9.14467H13.7143V10.6685H7.61905V11.4304V15.2399H6.09524V11.4304V10.6685H0V9.14467Z" fill="url(#paint1_linear_6_5857)"/>
<path fill-rule="evenodd" clip-rule="evenodd" d="M6.85719 23.2401L5.51368 23.9464L5.77027 22.4504L4.68335 21.3909L6.18544 21.1726L6.85719 19.8115L7.52895 21.1726L9.03104 21.3909L7.94412 22.4504L8.2007 23.9464L6.85719 23.2401Z" fill="white"/>
<path fill-rule="evenodd" clip-rule="evenodd" d="M22.8573 24.3829L21.7798 24.6984L22.0954 23.621L21.7798 22.5435L22.8573 22.859L23.9348 22.5435L23.6192 23.621L23.9348 24.6984L22.8573 24.3829Z" fill="white"/>
<path fill-rule="evenodd" clip-rule="evenodd" d="M22.8573 9.9063L21.7798 10.2219L22.0954 9.14439L21.7798 8.06689L22.8573 8.38249L23.9348 8.06689L23.6192 9.14439L23.9348 10.2219L22.8573 9.9063Z" fill="white"/>
<path fill-rule="evenodd" clip-rule="evenodd" d="M27.4286 14.4776L26.3511 14.7932L26.6667 13.7157L26.3511 12.6382L27.4286 12.9538L28.5061 12.6382L28.1905 13.7157L28.5061 14.7932L27.4286 14.4776Z" fill="white"/>
<path fill-rule="evenodd" clip-rule="evenodd" d="M18.2857 16.002L17.2083 16.3176L17.5238 15.2401L17.2083 14.1626L18.2857 14.4782L19.3632 14.1626L19.0477 15.2401L19.3632 16.3176L18.2857 16.002Z" fill="white"/>
<path fill-rule="evenodd" clip-rule="evenodd" d="M25.1428 17.9065L24.604 18.0643L24.7618 17.5256L24.604 16.9868L25.1428 17.1446L25.6815 16.9868L25.5237 17.5256L25.6815 18.0643L25.1428 17.9065Z" fill="white"/>
</g>
<defs>
<linearGradient id="paint0_linear_6_5857" x1="0" y1="4.57324" x2="0" y2="16.0018" gradientUnits="userSpaceOnUse">
<stop stop-color="white"/>
<stop offset="1" stop-color="#F0F0F0"/>
</linearGradient>
<linearGradient id="paint1_linear_6_5857" x1="0" y1="4.57324" x2="0" y2="15.2399" gradientUnits="userSpaceOnUse">
<stop stop-color="#FF2E3B"/>
<stop offset="1" stop-color="#FC0D1B"/>
</linearGradient>
</defs>
</svg>
