<svg width="32" height="32" viewBox="0 0 32 32" fill="none" xmlns="http://www.w3.org/2000/svg">
<rect x="0.25" y="4.82324" width="31.5" height="22.3571" rx="1.75" fill="white" stroke="#F5F5F5" stroke-width="0.5"/>
<mask id="mask0_6_5846" style="mask-type:alpha" maskUnits="userSpaceOnUse" x="0" y="4" width="32" height="24">
<rect x="0.25" y="4.82324" width="31.5" height="22.3571" rx="1.75" fill="white" stroke="white" stroke-width="0.5"/>
</mask>
<g mask="url(#mask0_6_5846)">
<rect x="22.8572" y="4.57324" width="9.14286" height="22.8571" fill="#FF3131"/>
<path fill-rule="evenodd" clip-rule="evenodd" d="M0 27.4304H9.14286V4.57324H0V27.4304Z" fill="#FF3131"/>
<path fill-rule="evenodd" clip-rule="evenodd" d="M18.3024 15.2228C18.0692 15.456 17.6751 15.2452 17.7398 14.9218L18.2858 12.1918L16.762 12.9537L16.0001 10.668L15.2382 12.9537L13.7144 12.1918L14.2604 14.9218C14.325 15.2452 13.931 15.456 13.6978 15.2228L13.1882 14.7132C13.058 14.583 12.8469 14.583 12.7168 14.7132L12.1906 15.2394L10.6667 14.4775L11.4287 16.0013L10.9025 16.5275C10.7723 16.6577 10.7723 16.8687 10.9025 16.9989L12.9525 19.0489H15.2382L15.6191 21.3346H16.381L16.762 19.0489H19.0477L21.0977 16.9989C21.2279 16.8687 21.2279 16.6577 21.0977 16.5275L20.5715 16.0013L21.3334 14.4775L19.8096 15.2394L19.2834 14.7132C19.1532 14.583 18.9422 14.583 18.812 14.7132L18.3024 15.2228Z" fill="#FF3131"/>
</g>
</svg>
