<svg width="32" height="32" viewBox="0 0 32 32" fill="none" xmlns="http://www.w3.org/2000/svg">
<rect y="4.57324" width="32" height="22.8571" rx="2" fill="white"/>
<mask id="mask0_6_5826" style="mask-type:alpha" maskUnits="userSpaceOnUse" x="0" y="4" width="32" height="24">
<rect y="4.57324" width="32" height="22.8571" rx="2" fill="white"/>
</mask>
<g mask="url(#mask0_6_5826)">
<path fill-rule="evenodd" clip-rule="evenodd" d="M32 4.57324H0V6.09705H32V4.57324ZM32 7.62086H0V9.14467H32V7.62086ZM0 10.6685H32V12.1923H0V10.6685ZM32 13.7161H0V15.2399H32V13.7161ZM0 16.7637H32V18.2875H0V16.7637ZM32 19.8113H0V21.3351H32V19.8113ZM0 22.859H32V24.3828H0V22.859ZM32 25.9066H0V27.4304H32V25.9066Z" fill="#D02F44"/>
<rect y="4.57324" width="13.7143" height="10.6667" fill="#46467F"/>
<g filter="url(#filter0_d_6_5826)">
<path fill-rule="evenodd" clip-rule="evenodd" d="M3.04774 6.85858C3.04774 7.27937 2.70662 7.62049 2.28583 7.62049C1.86504 7.62049 1.52393 7.27937 1.52393 6.85858C1.52393 6.4378 1.86504 6.09668 2.28583 6.09668C2.70662 6.09668 3.04774 6.4378 3.04774 6.85858ZM6.09536 6.85858C6.09536 7.27937 5.75424 7.62049 5.33345 7.62049C4.91266 7.62049 4.57155 7.27937 4.57155 6.85858C4.57155 6.4378 4.91266 6.09668 5.33345 6.09668C5.75424 6.09668 6.09536 6.4378 6.09536 6.85858ZM8.38107 7.62049C8.80186 7.62049 9.14297 7.27937 9.14297 6.85858C9.14297 6.4378 8.80186 6.09668 8.38107 6.09668C7.96028 6.09668 7.61916 6.4378 7.61916 6.85858C7.61916 7.27937 7.96028 7.62049 8.38107 7.62049ZM12.1906 6.85858C12.1906 7.27937 11.8495 7.62049 11.4287 7.62049C11.0079 7.62049 10.6668 7.27937 10.6668 6.85858C10.6668 6.4378 11.0079 6.09668 11.4287 6.09668C11.8495 6.09668 12.1906 6.4378 12.1906 6.85858ZM3.80964 9.1443C4.23043 9.1443 4.57154 8.80318 4.57154 8.38239C4.57154 7.96161 4.23043 7.62049 3.80964 7.62049C3.38885 7.62049 3.04774 7.96161 3.04774 8.38239C3.04774 8.80318 3.38885 9.1443 3.80964 9.1443ZM7.61916 8.38239C7.61916 8.80318 7.27805 9.1443 6.85726 9.1443C6.43647 9.1443 6.09536 8.80318 6.09536 8.38239C6.09536 7.96161 6.43647 7.62049 6.85726 7.62049C7.27805 7.62049 7.61916 7.96161 7.61916 8.38239ZM9.90488 9.1443C10.3257 9.1443 10.6668 8.80318 10.6668 8.38239C10.6668 7.96161 10.3257 7.62049 9.90488 7.62049C9.48409 7.62049 9.14297 7.96161 9.14297 8.38239C9.14297 8.80318 9.48409 9.1443 9.90488 9.1443ZM12.1906 9.9062C12.1906 10.327 11.8495 10.6681 11.4287 10.6681C11.0079 10.6681 10.6668 10.327 10.6668 9.9062C10.6668 9.48542 11.0079 9.1443 11.4287 9.1443C11.8495 9.1443 12.1906 9.48542 12.1906 9.9062ZM8.38107 10.6681C8.80186 10.6681 9.14297 10.327 9.14297 9.9062C9.14297 9.48542 8.80186 9.1443 8.38107 9.1443C7.96028 9.1443 7.61916 9.48542 7.61916 9.9062C7.61916 10.327 7.96028 10.6681 8.38107 10.6681ZM6.09536 9.9062C6.09536 10.327 5.75424 10.6681 5.33345 10.6681C4.91266 10.6681 4.57155 10.327 4.57155 9.9062C4.57155 9.48542 4.91266 9.1443 5.33345 9.1443C5.75424 9.1443 6.09536 9.48542 6.09536 9.9062ZM2.28583 10.6681C2.70662 10.6681 3.04774 10.327 3.04774 9.9062C3.04774 9.48542 2.70662 9.1443 2.28583 9.1443C1.86504 9.1443 1.52393 9.48542 1.52393 9.9062C1.52393 10.327 1.86504 10.6681 2.28583 10.6681ZM4.57154 11.43C4.57154 11.8508 4.23043 12.1919 3.80964 12.1919C3.38885 12.1919 3.04774 11.8508 3.04774 11.43C3.04774 11.0092 3.38885 10.6681 3.80964 10.6681C4.23043 10.6681 4.57154 11.0092 4.57154 11.43ZM6.85726 12.1919C7.27805 12.1919 7.61916 11.8508 7.61916 11.43C7.61916 11.0092 7.27805 10.6681 6.85726 10.6681C6.43647 10.6681 6.09536 11.0092 6.09536 11.43C6.09536 11.8508 6.43647 12.1919 6.85726 12.1919ZM10.6668 11.43C10.6668 11.8508 10.3257 12.1919 9.90488 12.1919C9.48409 12.1919 9.14297 11.8508 9.14297 11.43C9.14297 11.0092 9.48409 10.6681 9.90488 10.6681C10.3257 10.6681 10.6668 11.0092 10.6668 11.43ZM11.4287 13.7157C11.8495 13.7157 12.1906 13.3746 12.1906 12.9538C12.1906 12.533 11.8495 12.1919 11.4287 12.1919C11.0079 12.1919 10.6668 12.533 10.6668 12.9538C10.6668 13.3746 11.0079 13.7157 11.4287 13.7157ZM9.14297 12.9538C9.14297 13.3746 8.80186 13.7157 8.38107 13.7157C7.96028 13.7157 7.61916 13.3746 7.61916 12.9538C7.61916 12.533 7.96028 12.1919 8.38107 12.1919C8.80186 12.1919 9.14297 12.533 9.14297 12.9538ZM5.33345 13.7157C5.75424 13.7157 6.09536 13.3746 6.09536 12.9538C6.09536 12.533 5.75424 12.1919 5.33345 12.1919C4.91266 12.1919 4.57155 12.533 4.57155 12.9538C4.57155 13.3746 4.91266 13.7157 5.33345 13.7157ZM3.04774 12.9538C3.04774 13.3746 2.70662 13.7157 2.28583 13.7157C1.86504 13.7157 1.52393 13.3746 1.52393 12.9538C1.52393 12.533 1.86504 12.1919 2.28583 12.1919C2.70662 12.1919 3.04774 12.533 3.04774 12.9538Z" fill="url(#paint0_linear_6_5826)"/>
</g>
</g>
<defs>
<filter id="filter0_d_6_5826" x="1.52393" y="6.09668" width="10.6667" height="8.61914" filterUnits="userSpaceOnUse" color-interpolation-filters="sRGB">
<feFlood flood-opacity="0" result="BackgroundImageFix"/>
<feColorMatrix in="SourceAlpha" type="matrix" values="0 0 0 0 0 0 0 0 0 0 0 0 0 0 0 0 0 0 127 0" result="hardAlpha"/>
<feOffset dy="1"/>
<feColorMatrix type="matrix" values="0 0 0 0 0 0 0 0 0 0 0 0 0 0 0 0 0 0 0.06 0"/>
<feBlend mode="normal" in2="BackgroundImageFix" result="effect1_dropShadow_6_5826"/>
<feBlend mode="normal" in="SourceGraphic" in2="effect1_dropShadow_6_5826" result="shape"/>
</filter>
<linearGradient id="paint0_linear_6_5826" x1="1.52393" y1="6.09668" x2="1.52393" y2="13.7157" gradientUnits="userSpaceOnUse">
<stop stop-color="white"/>
<stop offset="1" stop-color="#F0F0F0"/>
</linearGradient>
</defs>
</svg>
