<svg width="120" height="40" viewBox="0 0 120 40" fill="none" xmlns="http://www.w3.org/2000/svg">
<g clip-path="url(#clip0_23_15596)">
<path d="M110.128 0.00134277H9.53436C9.16738 0.00134277 8.80441 0.00134277 8.43943 0.00334264C8.13345 0.00534251 7.82947 0.0113421 7.52049 0.0163418C6.84906 0.0236736 6.17916 0.0821726 5.51662 0.19133C4.85539 0.30353 4.21488 0.514898 3.61674 0.81829C3.01849 1.12462 2.47191 1.52275 1.99685 1.99821C1.52013 2.47151 1.12274 3.01847 0.819924 3.61811C0.516021 4.21692 0.305276 4.8586 0.194964 5.52099C0.0836992 6.18265 0.0238574 6.85194 0.0159756 7.52286C0.00597624 7.82984 0.00597624 8.13782 0.000976562 8.4438V31.5593C0.00597624 31.8693 0.00697617 32.1693 0.0159756 32.4802C0.0241839 33.1512 0.08436 33.8205 0.195964 34.4821C0.305565 35.1452 0.515987 35.7876 0.819924 36.387C1.12303 36.9843 1.52081 37.5287 1.99785 37.9989C2.47057 38.4759 3.01682 38.874 3.61574 39.1778C4.21423 39.4818 4.85501 39.6942 5.51662 39.8078C6.17922 39.9167 6.84905 39.9758 7.52049 39.9848C7.83047 39.9918 8.13345 39.9958 8.43943 39.9958C8.80541 39.9978 9.16738 39.9978 9.53436 39.9978H110.128C110.488 39.9978 110.852 39.9978 111.212 39.9958C111.516 39.9958 111.829 39.9918 112.134 39.9858C112.804 39.977 113.472 39.9175 114.134 39.8078C114.797 39.6934 115.44 39.4811 116.041 39.1778C116.64 38.8738 117.186 38.4758 117.658 37.9989C118.135 37.5263 118.533 36.9816 118.84 36.385C119.142 35.7852 119.351 35.1428 119.459 34.4801C119.571 33.8183 119.632 33.1492 119.644 32.4782C119.648 32.1683 119.648 31.8683 119.648 31.5573C119.656 31.1933 119.656 30.8323 119.656 30.4634V9.53673C119.656 9.17075 119.656 8.80677 119.648 8.4448C119.648 8.13882 119.648 7.83084 119.644 7.52486C119.632 6.85356 119.571 6.18408 119.459 5.52199C119.35 4.85993 119.141 4.2183 118.839 3.61911C118.222 2.4163 117.244 1.43713 116.041 0.81929C115.44 0.516582 114.797 0.305269 114.134 0.19233C113.472 0.0823752 112.804 0.0235381 112.134 0.0163418C111.829 0.0113421 111.516 0.00534251 111.212 0.00334264C110.852 0.00134277 110.487 0.00134277 110.128 0.00134277V0.00134277Z" fill="#A6A6A6"/>
<path d="M8.44456 39.1239C8.13958 39.1239 7.8426 39.1199 7.54061 39.1139C6.91413 39.1054 6.28912 39.0506 5.67074 38.9499C5.09461 38.8505 4.53652 38.6658 4.01484 38.4019C3.49776 38.1403 3.02611 37.7973 2.61793 37.386C2.20403 36.9791 1.8595 36.5072 1.598 35.9891C1.33308 35.4678 1.14963 34.909 1.05404 34.3322C0.951336 33.7123 0.895846 33.0856 0.888046 32.4573C0.881046 32.2473 0.873047 31.5444 0.873047 31.5444V8.44585C0.873047 8.44585 0.882046 7.7539 0.888046 7.55091C0.895498 6.92367 0.950654 6.2979 1.05304 5.67903C1.14864 5.10059 1.33208 4.54016 1.597 4.01714C1.85769 3.49947 2.20043 3.0274 2.61193 2.61923C3.02286 2.20703 3.49592 1.86186 4.01384 1.5963C4.53445 1.33321 5.09163 1.14984 5.66674 1.05233C6.28706 0.9509 6.9141 0.896084 7.54261 0.888342L8.44456 0.876343H111.207L112.12 0.889342C112.742 0.896566 113.363 0.950716 113.978 1.05133C114.559 1.15004 115.122 1.33472 115.649 1.5993C116.686 2.13414 117.531 2.98028 118.063 4.01914C118.324 4.53865 118.504 5.09457 118.598 5.66803C118.702 6.29192 118.76 6.92255 118.772 7.55491C118.775 7.83789 118.775 8.14287 118.775 8.44485C118.783 8.81983 118.783 9.1768 118.783 9.53678V30.4644C118.783 30.8274 118.783 31.1824 118.775 31.5394C118.775 31.8643 118.775 32.1623 118.771 32.4693C118.76 33.0902 118.703 33.7095 118.601 34.3222C118.508 34.9032 118.326 35.4664 118.061 35.9921C117.798 36.5046 117.455 36.9723 117.046 37.378C116.637 37.7916 116.164 38.1367 115.646 38.3999C115.12 38.666 114.558 38.8514 113.978 38.9499C113.36 39.0508 112.735 39.1053 112.109 39.1129C111.816 39.1199 111.509 39.1239 111.212 39.1239L110.128 39.1259L8.44456 39.1239Z" fill="#131825"/>
<path d="M24.7673 20.3001C24.7782 19.4657 24.9999 18.6476 25.4118 17.9219C25.8237 17.1962 26.4124 16.5865 27.1231 16.1493C26.6716 15.5043 26.0759 14.9735 25.3833 14.5989C24.6907 14.2243 23.9204 14.0164 23.1334 13.9915C21.4535 13.8155 19.8256 14.9964 18.9697 14.9964C18.0977 14.9964 16.7798 14.0085 15.3619 14.0385C14.4443 14.0681 13.5499 14.3349 12.7661 14.813C11.9822 15.291 11.3356 15.964 10.8892 16.7663C8.95532 20.1141 10.3982 25.0348 12.2501 27.7416C13.177 29.0665 14.26 30.5464 15.6779 30.4944C17.0648 30.4364 17.5828 29.6095 19.2577 29.6095C20.9155 29.6095 21.4015 30.4944 22.8474 30.4614C24.3363 30.4364 25.2733 29.1295 26.1672 27.7916C26.8336 26.8475 27.3466 25.8041 27.6871 24.6998C26.8222 24.3342 26.0841 23.7219 25.5648 22.9395C25.0456 22.1571 24.7682 21.2391 24.7673 20.3001ZM22.0355 12.2106C22.847 11.2367 23.247 9.98484 23.1504 8.72083C21.9104 8.85099 20.7651 9.44367 19.9426 10.3807C19.5406 10.8382 19.2327 11.3703 19.0364 11.9468C18.8401 12.5233 18.7593 13.1328 18.7987 13.7405C19.4188 13.7469 20.0322 13.6125 20.5929 13.3475C21.1536 13.0825 21.6468 12.6938 22.0355 12.2106Z" fill="white"/>
<path d="M42.2993 27.1396H37.5676L36.4306 30.4954H34.4258L38.9095 18.0782H40.9924L45.4751 30.4954H43.4362L42.2993 27.1396ZM38.0565 25.5897H41.8083L39.9584 20.1441H39.9074L38.0565 25.5897ZM55.1564 25.9697C55.1564 28.7825 53.6505 30.5894 51.3777 30.5894C50.8023 30.6194 50.2301 30.4869 49.7264 30.2069C49.2228 29.927 48.8082 29.511 48.5299 29.0065H48.4869V33.4902H46.627V21.442H48.4269V22.9479H48.4599C48.7509 22.4456 49.1727 22.0315 49.6803 21.7498C50.1879 21.4681 50.7624 21.3292 51.3427 21.348C53.6405 21.348 55.1554 23.1639 55.1554 25.9697H55.1564ZM53.2466 25.9697C53.2466 24.1368 52.2986 22.9319 50.8537 22.9319C49.4338 22.9319 48.4789 24.1618 48.4789 25.9697C48.4789 27.7936 49.4338 29.0155 50.8537 29.0155C52.2986 29.0155 53.2466 27.8186 53.2466 25.9697ZM65.1208 25.9697C65.1208 28.7825 63.6149 30.5894 61.342 30.5894C60.7666 30.6194 60.1944 30.4869 59.6908 30.2069C59.1872 29.927 58.7725 29.511 58.4942 29.0065H58.4512V33.4902H56.5923V21.442H58.3912V22.9479H58.4252C58.7163 22.4456 59.1381 22.0315 59.6457 21.7498C60.1533 21.4681 60.7278 21.3292 61.308 21.348C63.6059 21.348 65.1208 23.1639 65.1208 25.9697ZM63.2109 25.9697C63.2109 24.1368 62.263 22.9319 60.8181 22.9319C59.3982 22.9319 58.4432 24.1618 58.4432 25.9697C58.4432 27.7936 59.3982 29.0155 60.8181 29.0155C62.263 29.0155 63.2099 27.8186 63.2099 25.9697H63.2109ZM71.7054 27.0356C71.8434 28.2675 73.0393 29.0755 74.6752 29.0755C76.2411 29.0755 77.368 28.2675 77.368 27.1566C77.368 26.1927 76.688 25.6167 75.0781 25.2207L73.4692 24.8328C71.1894 24.2828 70.1305 23.2159 70.1305 21.485C70.1305 19.3431 71.9973 17.8712 74.6492 17.8712C77.273 17.8712 79.0719 19.3431 79.1319 21.485H77.256C77.144 20.2461 76.1201 19.4981 74.6222 19.4981C73.1243 19.4981 72.1013 20.2551 72.1013 21.356C72.1013 22.2339 72.7553 22.7509 74.3562 23.1459L75.7241 23.4819C78.2719 24.0848 79.3299 25.1077 79.3299 26.9246C79.3299 29.2475 77.48 30.7024 74.5372 30.7024C71.7834 30.7024 69.9235 29.2825 69.8035 27.0356H71.7054ZM83.3406 19.3001V21.442H85.0625V22.9139H83.3406V27.9046C83.3406 28.6805 83.6856 29.0415 84.4425 29.0415C84.6468 29.0379 84.8507 29.0236 85.0535 28.9985V30.4614C84.7133 30.525 84.3676 30.5538 84.0216 30.5474C82.1887 30.5474 81.4737 29.8584 81.4737 28.1026V22.9139H80.1578V21.442H81.4737V19.3001H83.3406ZM86.0594 25.9697C86.0594 23.1209 87.7373 21.331 90.3532 21.331C92.978 21.331 94.6479 23.1209 94.6479 25.9697C94.6479 28.8255 92.987 30.6074 90.3532 30.6074C87.7203 30.6074 86.0594 28.8255 86.0594 25.9697ZM92.754 25.9697C92.754 24.0158 91.8591 22.8619 90.3532 22.8619C88.8473 22.8619 87.9533 24.0238 87.9533 25.9697C87.9533 27.9316 88.8473 29.0755 90.3532 29.0755C91.8591 29.0755 92.754 27.9316 92.754 25.9697ZM96.1798 21.442H97.9527V22.9829H97.9957C98.1158 22.5019 98.3977 22.077 98.7941 21.7793C99.1905 21.4816 99.6772 21.3293 100.173 21.348C100.387 21.3471 100.6 21.3703 100.809 21.417V23.1549C100.539 23.0724 100.257 23.0345 99.9745 23.0429C99.7046 23.0319 99.4354 23.0795 99.1855 23.1824C98.9357 23.2852 98.711 23.441 98.527 23.6388C98.343 23.8367 98.204 24.072 98.1196 24.3287C98.0351 24.5854 98.0071 24.8573 98.0377 25.1257V30.4954H96.1798V21.442ZM109.377 27.8366C109.127 29.4795 107.527 30.6074 105.479 30.6074C102.845 30.6074 101.21 28.8435 101.21 26.0127C101.21 23.1729 102.854 21.331 105.4 21.331C107.906 21.331 109.48 23.0509 109.48 25.7967V26.4337H103.086V26.5457C103.057 26.8788 103.099 27.2145 103.209 27.5303C103.319 27.8461 103.495 28.1348 103.726 28.3773C103.956 28.6198 104.235 28.8105 104.545 28.9367C104.855 29.063 105.188 29.1219 105.522 29.1095C105.961 29.1505 106.402 29.0488 106.778 28.8195C107.155 28.5902 107.447 28.2454 107.612 27.8366H109.377ZM103.095 25.1347H107.621C107.638 24.8352 107.592 24.5354 107.488 24.2543C107.383 23.9731 107.222 23.7166 107.013 23.5008C106.805 23.285 106.554 23.1147 106.277 23.0004C105.999 22.8862 105.701 22.8305 105.401 22.8369C105.099 22.835 104.799 22.8932 104.518 23.0079C104.238 23.1226 103.984 23.2917 103.769 23.5053C103.555 23.7189 103.385 23.9729 103.269 24.2526C103.154 24.5323 103.095 24.8321 103.095 25.1347Z" fill="white"/>
<path d="M37.8236 8.73172C38.2132 8.70377 38.6041 8.76263 38.9683 8.90406C39.3324 9.04549 39.6606 9.26596 39.9292 9.54958C40.1978 9.8332 40.4001 10.1729 40.5215 10.5442C40.6429 10.9154 40.6805 11.309 40.6314 11.6965C40.6314 13.6024 39.6014 14.6983 37.8236 14.6983H35.6687V8.73072L37.8236 8.73172ZM36.5956 13.8544H37.7206C37.9989 13.8709 38.2774 13.8251 38.5358 13.7205C38.7942 13.6158 39.026 13.4549 39.2144 13.2493C39.4028 13.0438 39.543 12.7988 39.6249 12.5323C39.7067 12.2658 39.7281 11.9844 39.6874 11.7085C39.7252 11.4338 39.7017 11.1541 39.6186 10.8894C39.5355 10.6248 39.395 10.3819 39.207 10.1779C39.0191 9.97401 38.7883 9.81417 38.5313 9.70988C38.2744 9.60558 37.9975 9.55941 37.7206 9.57467H36.5956V13.8544ZM41.6773 12.4445C41.6501 12.1491 41.6848 11.8514 41.7791 11.5702C41.8735 11.289 42.0255 11.0306 42.2253 10.8115C42.4252 10.5923 42.6686 10.4173 42.9399 10.2975C43.2112 10.1778 43.5046 10.1159 43.8012 10.1159C44.0978 10.1159 44.3911 10.1778 44.6624 10.2975C44.9338 10.4173 45.1771 10.5923 45.377 10.8115C45.5769 11.0306 45.7289 11.289 45.8232 11.5702C45.9176 11.8514 45.9523 12.1491 45.925 12.4445C45.9546 12.7411 45.9216 13.0406 45.8284 13.3236C45.7351 13.6067 45.5836 13.8671 45.3835 14.0881C45.1835 14.309 44.9394 14.4856 44.6669 14.6065C44.3945 14.7273 44.0997 14.7898 43.8017 14.7898C43.5036 14.7898 43.2089 14.7273 42.9364 14.6065C42.664 14.4856 42.4199 14.309 42.2198 14.0881C42.0198 13.8671 41.8682 13.6067 41.775 13.3236C41.6817 13.0406 41.6488 12.7411 41.6783 12.4445H41.6773ZM45.0111 12.4445C45.0111 11.4685 44.5721 10.8976 43.8032 10.8976C43.0302 10.8976 42.5963 11.4685 42.5963 12.4445C42.5963 13.4284 43.0302 13.9944 43.8032 13.9944C44.5731 13.9944 45.0111 13.4244 45.0111 12.4445ZM51.5697 14.6983H50.6477L49.7178 11.3816H49.6478L48.7209 14.6983H47.8079L46.566 10.1956H47.4679L48.2739 13.6314H48.3409L49.2668 10.1956H50.1188L51.0447 13.6314H51.1147L51.9176 10.1956H52.8066L51.5697 14.6983ZM53.8505 10.1956H54.7055V10.9106H54.7715C54.8842 10.6537 55.0742 10.4383 55.3151 10.2946C55.556 10.1508 55.8358 10.0858 56.1154 10.1086C56.3345 10.0922 56.5545 10.1252 56.7591 10.2053C56.9637 10.2854 57.1477 10.4105 57.2974 10.5714C57.4471 10.7322 57.5587 10.9247 57.624 11.1345C57.6892 11.3443 57.7064 11.5662 57.6743 11.7835V14.6983H56.7853V12.0065C56.7853 11.2826 56.4714 10.9226 55.8134 10.9226C55.6647 10.9157 55.5162 10.941 55.3782 10.9969C55.2402 11.0527 55.1159 11.1377 55.0138 11.2461C54.9117 11.3544 54.8343 11.4836 54.7867 11.6247C54.7392 11.7658 54.7227 11.9155 54.7385 12.0635V14.6983H53.8505V10.1956ZM59.0902 8.43774H59.9781V14.6973H59.0902V8.43774ZM61.214 12.4445C61.186 12.1488 61.2201 11.8505 61.3141 11.5687C61.4081 11.2869 61.5599 11.0278 61.7598 10.8081C61.9597 10.5884 62.2032 10.4128 62.4749 10.2927C62.7466 10.1726 63.0404 10.1105 63.3374 10.1105C63.6345 10.1105 63.9282 10.1726 64.1999 10.2927C64.4716 10.4128 64.7152 10.5884 64.9151 10.8081C65.115 11.0278 65.2668 11.2869 65.3607 11.5687C65.4547 11.8505 65.4888 12.1488 65.4608 12.4445C65.4903 12.7411 65.4574 13.0406 65.3641 13.3236C65.2708 13.6067 65.1193 13.8671 64.9193 14.0881C64.7192 14.309 64.4751 14.4856 64.2027 14.6065C63.9302 14.7273 63.6355 14.7898 63.3374 14.7898C63.0394 14.7898 62.7446 14.7273 62.4722 14.6065C62.1997 14.4856 61.9556 14.309 61.7556 14.0881C61.5555 13.8671 61.404 13.6067 61.3107 13.3236C61.2174 13.0406 61.1845 12.7411 61.214 12.4445ZM64.5468 12.4445C64.5468 11.4685 64.1079 10.8976 63.3389 10.8976C62.566 10.8976 62.132 11.4685 62.132 12.4445C62.132 13.4284 62.566 13.9944 63.3389 13.9944C64.1089 13.9944 64.5468 13.4244 64.5468 12.4445ZM66.3957 13.4244C66.3957 12.6145 66.9997 12.1465 68.0716 12.0805L69.2915 12.0105V11.6215C69.2915 11.1466 68.9765 10.8776 68.3696 10.8776C67.8726 10.8776 67.5296 11.0596 67.4306 11.3776H66.5707C66.6607 10.6046 67.3886 10.1076 68.4106 10.1076C69.5385 10.1076 70.1755 10.6706 70.1755 11.6215V14.6983H69.3205V14.0654H69.2505C69.1078 14.2924 68.9073 14.4775 68.6696 14.6017C68.4319 14.7259 68.1655 14.7848 67.8976 14.7723C67.7085 14.792 67.5175 14.7719 67.3367 14.7132C67.1559 14.6545 66.9894 14.5585 66.848 14.4315C66.7065 14.3045 66.5933 14.1493 66.5156 13.9758C66.4379 13.8023 66.3974 13.6145 66.3967 13.4244H66.3957ZM69.2905 13.0404V12.6635L68.1906 12.7335C67.5706 12.7755 67.2906 12.9864 67.2906 13.3834C67.2906 13.7884 67.6416 14.0234 68.1246 14.0234C68.2661 14.0377 68.4091 14.0233 68.5449 13.9813C68.6808 13.9393 68.8069 13.8704 68.9156 13.7787C69.0244 13.687 69.1136 13.5744 69.178 13.4476C69.2424 13.3208 69.2807 13.1823 69.2905 13.0404ZM71.3434 12.4445C71.3434 11.0216 72.0753 10.1206 73.2133 10.1206C73.4945 10.1078 73.7736 10.1753 74.018 10.3152C74.2623 10.4551 74.4618 10.6616 74.5932 10.9106H74.6602V8.43774H75.5481V14.6973H74.6972V13.9874H74.6272C74.4854 14.2349 74.2786 14.4388 74.0292 14.5772C73.7798 14.7156 73.4973 14.7831 73.2123 14.7723C72.0673 14.7723 71.3434 13.8714 71.3434 12.4445ZM72.2613 12.4445C72.2613 13.3994 72.7113 13.9744 73.4643 13.9744C74.2142 13.9744 74.6762 13.3914 74.6762 12.4485C74.6762 11.5105 74.2082 10.9186 73.4643 10.9186C72.7163 10.9186 72.2613 11.4985 72.2613 12.4445ZM79.2249 12.4445C79.1969 12.1488 79.2309 11.8505 79.3249 11.5687C79.4189 11.2869 79.5707 11.0278 79.7706 10.8081C79.9705 10.5884 80.2141 10.4128 80.4857 10.2927C80.7574 10.1726 81.0512 10.1105 81.3482 10.1105C81.6453 10.1105 81.9391 10.1726 82.2107 10.2927C82.4824 10.4128 82.726 10.5884 82.9259 10.8081C83.1258 11.0278 83.2776 11.2869 83.3716 11.5687C83.4655 11.8505 83.4996 12.1488 83.4716 12.4445C83.5011 12.7411 83.4682 13.0406 83.3749 13.3236C83.2817 13.6067 83.1301 13.8671 82.9301 14.0881C82.73 14.309 82.4859 14.4856 82.2135 14.6065C81.941 14.7273 81.6463 14.7898 81.3482 14.7898C81.0502 14.7898 80.7554 14.7273 80.483 14.6065C80.2105 14.4856 79.9664 14.309 79.7664 14.0881C79.5663 13.8671 79.4148 13.6067 79.3215 13.3236C79.2283 13.0406 79.1954 12.7411 79.2249 12.4445ZM82.5577 12.4445C82.5577 11.4685 82.1197 10.8976 81.3497 10.8976C80.5778 10.8976 80.1428 11.4685 80.1428 12.4445C80.1428 13.4284 80.5778 13.9944 81.3497 13.9944C82.1197 13.9944 82.5577 13.4244 82.5577 12.4445ZM84.6645 10.1956H85.5195V10.9106H85.5855C85.6982 10.6537 85.8882 10.4383 86.1291 10.2946C86.37 10.1508 86.6498 10.0858 86.9294 10.1086C87.1485 10.0922 87.3685 10.1252 87.5731 10.2053C87.7777 10.2854 87.9617 10.4105 88.1114 10.5714C88.2611 10.7322 88.3727 10.9247 88.438 11.1345C88.5032 11.3443 88.5204 11.5662 88.4883 11.7835V14.6983H87.5993V12.0065C87.5993 11.2826 87.2854 10.9226 86.6274 10.9226C86.4787 10.9157 86.3302 10.941 86.1922 10.9969C86.0542 11.0527 85.9299 11.1377 85.8278 11.2461C85.7257 11.3544 85.6483 11.4836 85.6007 11.6247C85.5532 11.7658 85.5367 11.9155 85.5525 12.0635V14.6983H84.6635L84.6645 10.1956ZM93.509 9.0747V10.2156H94.4849V10.9646H93.509V13.2794C93.509 13.7514 93.7029 13.9584 94.1459 13.9584C94.2592 13.9579 94.3724 13.9509 94.4849 13.9374V14.6773C94.3251 14.7061 94.1632 14.7215 94.0009 14.7233C93.013 14.7233 92.62 14.3754 92.62 13.5074V10.9646H91.9051V10.2156H92.62V9.0747H93.509ZM95.6988 8.43774H96.5788V10.9186H96.6487C96.7671 10.6593 96.9625 10.4427 97.2084 10.2985C97.4542 10.1543 97.7386 10.0894 98.0227 10.1126C98.2406 10.1008 98.4584 10.1372 98.6607 10.2193C98.8629 10.3014 99.0445 10.4271 99.1926 10.5875C99.3406 10.7478 99.4514 10.9389 99.5171 11.147C99.5828 11.3552 99.6017 11.5752 99.5726 11.7915V14.6983H98.6836V12.0105C98.6836 11.2906 98.3486 10.9266 97.7207 10.9266C97.5679 10.914 97.4142 10.935 97.2704 10.9881C97.1266 11.0411 96.9961 11.125 96.8881 11.2338C96.7801 11.3425 96.6971 11.4736 96.6451 11.6178C96.593 11.762 96.5731 11.9158 96.5868 12.0685V14.6983H95.6988V8.43774ZM104.754 13.4824C104.634 13.8938 104.372 14.2496 104.016 14.4878C103.659 14.726 103.231 14.8313 102.804 14.7853C102.508 14.7934 102.213 14.7367 101.94 14.6192C101.667 14.5017 101.423 14.3262 101.225 14.105C101.027 13.8837 100.88 13.622 100.793 13.338C100.706 13.054 100.683 12.7546 100.723 12.4605C100.684 12.1657 100.708 11.8658 100.795 11.5813C100.882 11.2967 101.028 11.0341 101.225 10.8111C101.422 10.5881 101.664 10.41 101.936 10.2888C102.207 10.1676 102.502 10.1062 102.799 10.1086C104.052 10.1086 104.808 10.9646 104.808 12.3785V12.6885H101.628V12.7385C101.614 12.9038 101.635 13.0702 101.689 13.227C101.744 13.3838 101.83 13.5275 101.943 13.649C102.056 13.7705 102.193 13.867 102.346 13.9323C102.498 13.9976 102.662 14.0304 102.828 14.0284C103.041 14.0535 103.256 14.0151 103.446 13.9179C103.637 13.8207 103.794 13.6691 103.898 13.4824H104.754ZM101.628 12.0315H103.903C103.915 11.8803 103.894 11.7284 103.843 11.5855C103.792 11.4427 103.712 11.3121 103.608 11.2021C103.503 11.0922 103.377 11.0054 103.237 10.9472C103.097 10.8891 102.946 10.8609 102.794 10.8646C102.641 10.8627 102.488 10.8916 102.346 10.9496C102.203 11.0076 102.074 11.0935 101.965 11.2022C101.857 11.311 101.771 11.4404 101.713 11.5828C101.655 11.7252 101.626 11.8778 101.628 12.0315Z" fill="white"/>
</g>
<defs>
<clipPath id="clip0_23_15596">
<rect width="119.656" height="39.9974" fill="white" transform="translate(0 0.00134277)"/>
</clipPath>
</defs>
</svg>
