<svg width="97" height="45" viewBox="0 0 97 45" fill="none" xmlns="http://www.w3.org/2000/svg">
<path d="M67.9203 44.7161C44.8459 44.2619 24.4368 30.8501 8.05796 15.6659C7.21611 14.8856 6.30695 14.1396 5.4435 13.4012C5.5946 15.7801 8.20781 34.7528 5.14003 35.2717C3.34709 35.5749 3.05251 33.1148 2.91791 32.1315C1.9478 25.0215 1.2672 18.5383 0.864679 11.3534C0.561204 5.94484 5.12606 4.76493 9.75947 3.78927C16.8334 2.29978 17.6384 2.57889 25.026 1.3C26.2437 1.08939 27.4716 0.778549 28.669 0.702427C30.0771 0.613613 31.9145 1.08559 32.0567 2.67405C32.218 4.47439 30.7273 5.20136 29.2023 5.38659C28.8836 5.42466 28.5661 5.47416 28.2499 5.53125C24.7771 6.15927 8.54048 8.18799 8.64333 9.37045C8.67762 9.76883 8.93791 10.105 9.19059 10.4146C16.4791 19.3478 26.132 26.2928 36.0845 31.9844C42.7813 35.8147 50.1091 38.5361 57.6795 40.0294C63.763 41.2297 70.0535 41.5989 76.2145 40.8034C82.8211 39.9508 88.238 37.4336 94.1209 34.4876C97.5073 32.7913 96.715 37.4082 95.096 38.8114C93.3171 40.3542 90.7725 40.8973 88.5935 41.6154C81.6986 43.8839 74.7644 44.8506 67.9203 44.7161Z" fill="#FB8E0B"/>
</svg>
