<svg width="136" height="40" viewBox="0 0 136 40" fill="none" xmlns="http://www.w3.org/2000/svg">
<g clip-path="url(#clip0_23_15608)">
<path d="M130.656 0H5.65625C2.89483 0 0.65625 2.23858 0.65625 5V35C0.65625 37.7614 2.89483 40 5.65625 40H130.656C133.418 40 135.656 37.7614 135.656 35V5C135.656 2.23858 133.418 0 130.656 0Z" fill="#131825"/>
<path d="M130.656 0.8C131.77 0.8 132.838 1.2425 133.626 2.03015C134.414 2.8178 134.856 3.88609 134.856 5V35C134.856 36.1139 134.414 37.1822 133.626 37.9698C132.838 38.7575 131.77 39.2 130.656 39.2H5.65625C4.54234 39.2 3.47405 38.7575 2.6864 37.9698C1.89875 37.1822 1.45625 36.1139 1.45625 35V5C1.45625 3.88609 1.89875 2.8178 2.6864 2.03015C3.47405 1.2425 4.54234 0.8 5.65625 0.8H130.656ZM130.656 0H5.65625C4.33017 0 3.0584 0.526784 2.12072 1.46447C1.18303 2.40215 0.65625 3.67392 0.65625 5V35C0.65625 36.3261 1.18303 37.5979 2.12072 38.5355C3.0584 39.4732 4.33017 40 5.65625 40H130.656C131.982 40 133.254 39.4732 134.192 38.5355C135.129 37.5979 135.656 36.3261 135.656 35V5C135.656 3.67392 135.129 2.40215 134.192 1.46447C133.254 0.526784 131.982 0 130.656 0Z" fill="#A6A6A6"/>
<path d="M48.0763 10.24C48.0933 10.6068 48.0356 10.9732 47.9067 11.317C47.7778 11.6608 47.5803 11.9748 47.3263 12.24C47.0427 12.5346 46.7002 12.7661 46.3212 12.9194C45.9421 13.0728 45.535 13.1445 45.1263 13.13C44.5063 13.1251 43.9015 12.9374 43.3877 12.5903C42.8739 12.2432 42.474 11.7523 42.238 11.1789C42.002 10.6055 41.9405 9.97524 42.0612 9.36706C42.1819 8.75888 42.4793 8.19983 42.9163 7.75997C43.2035 7.46675 43.5479 7.23559 43.928 7.08079C44.3081 6.92598 44.716 6.85083 45.1263 6.85997C45.5491 6.85856 45.9677 6.94364 46.3563 7.10997C46.7182 7.25593 47.0403 7.48553 47.2963 7.77997L46.7663 8.30997C46.5667 8.07256 46.3147 7.88483 46.03 7.76161C45.7454 7.63838 45.436 7.58305 45.1263 7.59997C44.814 7.59844 44.5045 7.66 44.2165 7.78096C43.9285 7.90192 43.6679 8.07979 43.4504 8.30391C43.2328 8.52803 43.0627 8.79377 42.9503 9.08522C42.8379 9.37666 42.7855 9.6878 42.7963 9.99997C42.7898 10.4661 42.9214 10.9237 43.1747 11.3151C43.4279 11.7065 43.7914 12.0142 44.2193 12.1992C44.6471 12.3843 45.1202 12.4385 45.5789 12.355C46.0375 12.2714 46.4611 12.054 46.7963 11.73C47.104 11.3965 47.2815 10.9635 47.2963 10.51H45.1263V9.78997H48.0363C48.063 9.93849 48.0764 10.0891 48.0763 10.24ZM52.6563 7.73997H49.9563V9.63997H52.4163V10.36H49.9563V12.26H52.6563V13H49.1563V6.99997H52.6563V7.73997ZM55.9363 13H55.1663V7.73997H53.4863V6.99997H57.6563V7.73997H55.9363V13ZM60.5963 13V6.99997H61.3663V13H60.5963ZM64.7863 13H64.0163V7.73997H62.3363V6.99997H66.4563V7.73997H64.7863V13ZM74.2663 12.22C73.6817 12.8013 72.8908 13.1276 72.0663 13.1276C71.2419 13.1276 70.4509 12.8013 69.8663 12.22C69.2981 11.6185 68.9815 10.8224 68.9815 9.99497C68.9815 9.16753 69.2981 8.37145 69.8663 7.76997C70.1545 7.47972 70.4972 7.24935 70.8748 7.09214C71.2524 6.93494 71.6573 6.854 72.0663 6.854C72.4753 6.854 72.8803 6.93494 73.2579 7.09214C73.6354 7.24935 73.9782 7.47972 74.2663 7.76997C74.8368 8.3703 75.1549 9.16682 75.1549 9.99497C75.1549 10.8231 74.8368 11.6196 74.2663 12.22ZM70.4363 11.72C70.8693 12.1511 71.4554 12.3931 72.0663 12.3931C72.6773 12.3931 73.2634 12.1511 73.6963 11.72C74.1236 11.249 74.3602 10.6359 74.3602 9.99997C74.3602 9.36408 74.1236 8.75095 73.6963 8.27997C73.2634 7.84885 72.6773 7.6068 72.0663 7.6068C71.4554 7.6068 70.8693 7.84885 70.4363 8.27997C70.0091 8.75095 69.7724 9.36408 69.7724 9.99997C69.7724 10.6359 70.0091 11.249 70.4363 11.72ZM76.2363 13V6.99997H77.1763L80.0963 11.67V6.99997H80.8663V13H80.0663L77.0163 8.10997V13H76.2363Z" fill="white" stroke="white" stroke-width="0.2" stroke-miterlimit="10"/>
<path d="M68.7963 21.75C67.9566 21.7539 67.1369 22.0066 66.4407 22.476C65.7444 22.9453 65.2028 23.6105 64.8841 24.3874C64.5655 25.1643 64.4842 26.0182 64.6505 26.8413C64.8167 27.6644 65.223 28.4198 65.8182 29.0122C66.4134 29.6046 67.1707 30.0074 67.9945 30.1697C68.8184 30.3321 69.6719 30.2468 70.4473 29.9245C71.2228 29.6023 71.8853 29.0575 72.3515 28.3591C72.8176 27.6606 73.0663 26.8397 73.0664 26C73.0745 25.4379 72.9695 24.88 72.7575 24.3593C72.5456 23.8387 72.231 23.366 71.8326 22.9695C71.4342 22.573 70.9601 22.2606 70.4384 22.0511C69.9168 21.8416 69.3584 21.7392 68.7963 21.75ZM68.7963 28.58C68.2799 28.6161 67.7646 28.496 67.3173 28.2354C66.87 27.9747 66.5115 27.5855 66.2884 27.1184C66.0652 26.6513 65.9877 26.1279 66.066 25.6161C66.1443 25.1044 66.3747 24.6281 66.7273 24.249C67.0799 23.87 67.5384 23.6058 68.0431 23.4908C68.5479 23.3758 69.0755 23.4152 69.5575 23.6041C70.0395 23.7929 70.4536 24.1224 70.7459 24.5497C71.0381 24.977 71.1951 25.4823 71.1964 26C71.2125 26.328 71.1627 26.6559 71.0501 26.9644C70.9374 27.2729 70.7642 27.5557 70.5405 27.7962C70.3168 28.0366 70.0472 28.2299 69.7477 28.3645C69.4481 28.4991 69.1247 28.5724 68.7963 28.58ZM59.4864 21.75C58.6462 21.752 57.8255 22.0029 57.1279 22.4711C56.4303 22.9393 55.8871 23.6037 55.567 24.3805C55.2469 25.1573 55.1641 26.0115 55.3292 26.8352C55.4943 27.659 55.8999 28.4153 56.4947 29.0087C57.0895 29.6021 57.8467 30.0059 58.6709 30.1691C59.495 30.3322 60.3491 30.2475 61.1251 29.9255C61.9011 29.6036 62.5642 29.0588 63.0308 28.3601C63.4973 27.6614 63.7463 26.8401 63.7463 26C63.7545 25.4379 63.6495 24.88 63.4375 24.3593C63.2256 23.8387 62.911 23.366 62.5126 22.9695C62.1142 22.573 61.6401 22.2606 61.1184 22.0511C60.5968 21.8416 60.0384 21.7392 59.4763 21.75H59.4864ZM59.4864 28.58C58.9697 28.6181 58.4535 28.4999 58.005 28.2406C57.5565 27.9812 57.1964 27.5929 56.9717 27.1261C56.747 26.6593 56.668 26.1356 56.745 25.6233C56.8221 25.111 57.0516 24.6338 57.4037 24.2537C57.7557 23.8736 58.2141 23.6084 58.719 23.4924C59.224 23.3765 59.7521 23.4153 60.2347 23.6037C60.7173 23.7921 61.132 24.1215 61.4248 24.5489C61.7176 24.9763 61.8749 25.4819 61.8764 26C61.8925 26.328 61.8427 26.6559 61.7301 26.9644C61.6174 27.2729 61.4442 27.5557 61.2205 27.7962C60.9968 28.0366 60.7272 28.2299 60.4277 28.3645C60.1281 28.4991 59.8047 28.5724 59.4763 28.58H59.4864ZM48.3964 23.06V24.86H52.7164C52.6486 25.7078 52.2962 26.5078 51.7164 27.13C51.2842 27.5702 50.7646 27.9151 50.1911 28.1425C49.6175 28.3698 49.0028 28.4746 48.3863 28.45C47.1133 28.45 45.8924 27.9443 44.9922 27.0441C44.0921 26.1439 43.5863 24.923 43.5863 23.65C43.5863 22.377 44.0921 21.1561 44.9922 20.2559C45.8924 19.3557 47.1133 18.85 48.3863 18.85C49.6041 18.8301 50.7801 19.294 51.6563 20.14L52.9263 18.87C52.3348 18.271 51.6291 17.7969 50.851 17.4757C50.0728 17.1544 49.2381 16.9927 48.3964 17C47.5073 16.9654 46.6205 17.1106 45.789 17.427C44.9574 17.7433 44.1983 18.2243 43.5571 18.841C42.9159 19.4577 42.4058 20.1976 42.0573 21.0162C41.7089 21.8348 41.5293 22.7153 41.5293 23.605C41.5293 24.4947 41.7089 25.3752 42.0573 26.1938C42.4058 27.0124 42.9159 27.7522 43.5571 28.369C44.1983 28.9857 44.9574 29.4667 45.789 29.783C46.6205 30.0994 47.5073 30.2446 48.3964 30.21C49.2523 30.2487 50.1066 30.1036 50.9018 29.7845C51.697 29.4654 52.4146 28.9796 53.0063 28.36C54.054 27.2089 54.6134 25.6958 54.5663 24.14C54.5696 23.761 54.5361 23.3825 54.4664 23.01L48.3964 23.06ZM93.7064 24.46C93.4456 23.6927 92.9579 23.0228 92.3079 22.5388C91.6578 22.0549 90.8762 21.7798 90.0664 21.75C89.5193 21.7489 88.9779 21.8601 88.4756 22.0765C87.9732 22.293 87.5206 22.6102 87.1457 23.0085C86.7708 23.4069 86.4816 23.8778 86.296 24.3924C86.1103 24.9069 86.0322 25.4541 86.0664 26C86.0542 26.5589 86.1548 27.1145 86.3622 27.6337C86.5696 28.1528 86.8795 28.6249 87.2734 29.0216C87.6673 29.4183 88.1371 29.7315 88.6548 29.9426C89.1725 30.1536 89.7274 30.2582 90.2863 30.25C90.9858 30.2538 91.6754 30.084 92.2932 29.7559C92.911 29.4278 93.4377 28.9516 93.8263 28.37L92.3764 27.37C92.1599 27.7308 91.8536 28.0292 91.4872 28.236C91.1208 28.4429 90.7071 28.5511 90.2863 28.55C89.8532 28.5665 89.4251 28.4523 89.0577 28.2222C88.6903 27.9922 88.4006 27.6569 88.2263 27.26L93.9164 24.91L93.7064 24.46ZM87.9063 25.88C87.8861 25.5707 87.9277 25.2604 88.0289 24.9674C88.13 24.6744 88.2886 24.4045 88.4953 24.1736C88.7021 23.9426 88.9528 23.7553 89.2329 23.6224C89.5129 23.4896 89.8167 23.414 90.1264 23.4C90.4489 23.3787 90.7706 23.4527 91.0515 23.6127C91.3324 23.7727 91.5601 24.0117 91.7064 24.3L87.9063 25.88ZM83.2863 30H85.1563V17.5H83.2863V30ZM80.2263 22.7H80.1563C79.8745 22.3849 79.5293 22.1329 79.1432 21.9606C78.7572 21.7882 78.3391 21.6994 77.9164 21.7C76.8235 21.753 75.793 22.2244 75.0383 23.0166C74.2836 23.8087 73.8627 24.8609 73.8627 25.955C73.8627 27.0491 74.2836 28.1013 75.0383 28.8934C75.793 29.6856 76.8235 30.157 77.9164 30.21C78.3401 30.2171 78.7603 30.1313 79.1473 29.9585C79.5343 29.7857 79.8787 29.5302 80.1563 29.21H80.2163V29.82C80.2163 31.45 79.3464 32.32 77.9464 32.32C77.4801 32.3091 77.0276 32.1597 76.6465 31.8908C76.2654 31.6219 75.9729 31.2456 75.8064 30.81L74.1763 31.49C74.4832 32.2364 75.006 32.874 75.6777 33.3212C76.3494 33.7685 77.1394 34.0048 77.9464 34C80.1363 34 81.9464 32.71 81.9464 29.57V22H80.2263V22.7ZM78.0863 28.58C77.4413 28.5231 76.8409 28.2267 76.4036 27.7492C75.9663 27.2716 75.7237 26.6475 75.7237 26C75.7237 25.3524 75.9663 24.7284 76.4036 24.2508C76.8409 23.7733 77.4413 23.4768 78.0863 23.42C78.4062 23.4364 78.7195 23.5167 79.0078 23.656C79.2961 23.7954 79.5537 23.9911 79.7652 24.2315C79.9767 24.4719 80.138 24.7523 80.2395 25.056C80.3411 25.3597 80.3808 25.6807 80.3563 26C80.3836 26.3207 80.3456 26.6436 80.2445 26.9491C80.1434 27.2547 79.9814 27.5366 79.7683 27.7778C79.5552 28.019 79.2954 28.2144 79.0045 28.3523C78.7137 28.4902 78.398 28.5676 78.0763 28.58H78.0863ZM102.466 17.5H97.9963V30H99.8663V25.26H102.476C103.009 25.2983 103.544 25.2264 104.048 25.0487C104.552 24.8711 105.014 24.5915 105.405 24.2275C105.796 23.8635 106.108 23.4227 106.322 22.9328C106.535 22.4429 106.645 21.9143 106.645 21.38C106.645 20.8457 106.535 20.3171 106.322 19.8272C106.108 19.3373 105.796 18.8965 105.405 18.5325C105.014 18.1685 104.552 17.8889 104.048 17.7113C103.544 17.5336 103.009 17.4617 102.476 17.5H102.466ZM102.466 23.5H99.8563V19.24H102.506C103.075 19.24 103.621 19.466 104.023 19.8683C104.425 20.2705 104.651 20.8161 104.651 21.385C104.651 21.9539 104.425 22.4995 104.023 22.9017C103.621 23.304 103.075 23.53 102.506 23.53L102.466 23.5ZM113.996 21.7C113.316 21.6593 112.638 21.8184 112.046 22.1577C111.455 22.497 110.975 23.0018 110.666 23.61L112.326 24.3C112.49 23.9983 112.738 23.7508 113.04 23.5874C113.341 23.4241 113.684 23.352 114.026 23.38C114.264 23.3523 114.504 23.3721 114.734 23.4383C114.964 23.5045 115.178 23.6158 115.364 23.7657C115.55 23.9156 115.705 24.101 115.818 24.3112C115.932 24.5214 116.003 24.7522 116.026 24.99V25.12C115.426 24.802 114.756 24.6371 114.076 24.64C112.286 24.64 110.476 25.64 110.476 27.45C110.494 27.8359 110.589 28.2144 110.755 28.563C110.922 28.9117 111.156 29.2234 111.445 29.4798C111.734 29.7362 112.072 29.932 112.438 30.0557C112.804 30.1794 113.191 30.2285 113.576 30.2C114.047 30.2338 114.519 30.1402 114.941 29.9291C115.363 29.718 115.721 29.397 115.976 29H116.036V30H117.836V25.19C117.836 23 116.176 21.73 114.046 21.73L113.996 21.7ZM113.766 28.55C113.156 28.55 112.306 28.24 112.306 27.49C112.306 26.49 113.366 26.16 114.306 26.16C114.9 26.1453 115.487 26.2904 116.006 26.58C115.944 27.1214 115.688 27.622 115.285 27.9895C114.883 28.357 114.361 28.5667 113.816 28.58L113.766 28.55ZM124.396 22L122.256 27.42H122.196L119.976 22H117.976L121.306 29.58L119.406 33.79H121.356L126.476 22H124.396ZM107.586 30H109.456V17.5H107.586V30Z" fill="white"/>
<path d="M11.0962 7.53997C10.7702 7.93108 10.6057 8.43177 10.6362 8.93997V31.06C10.6057 31.5682 10.7702 32.0689 11.0962 32.46L11.1662 32.53L23.5562 20.15V19.86L11.1662 7.46997L11.0962 7.53997Z" fill="url(#paint0_linear_23_15608)"/>
<path d="M27.6562 24.28L23.5562 20.15V19.86L27.6562 15.72L27.7462 15.77L32.6562 18.56C34.0562 19.35 34.0562 20.65 32.6562 21.45L27.7662 24.23L27.6562 24.28Z" fill="url(#paint1_linear_23_15608)"/>
<path d="M27.7762 24.22L23.5562 20L11.0962 32.46C11.3816 32.7109 11.7456 32.8541 12.1254 32.8651C12.5052 32.876 12.8768 32.754 13.1762 32.52L27.7862 24.22" fill="url(#paint2_linear_23_15608)"/>
<path d="M27.7762 15.78L13.1662 7.48005C12.8668 7.24606 12.4952 7.124 12.1154 7.13496C11.7356 7.14591 11.3715 7.2892 11.0862 7.54005L23.5562 20L27.7762 15.78Z" fill="url(#paint3_linear_23_15608)"/>
<path opacity="0.2" d="M27.6562 24.13L13.1662 32.38C12.8775 32.5959 12.5267 32.7125 12.1662 32.7125C11.8057 32.7125 11.4549 32.5959 11.1662 32.38L11.0962 32.45L11.1662 32.52C11.4542 32.7374 11.8053 32.855 12.1662 32.855C12.5271 32.855 12.8781 32.7374 13.1662 32.52L27.7762 24.22L27.6562 24.13Z" fill="#131825"/>
<path opacity="0.12" d="M11.0962 32.32C10.7702 31.9289 10.6057 31.4282 10.6362 30.92V31.07C10.6057 31.5782 10.7702 32.0789 11.0962 32.47L11.1662 32.4L11.0962 32.32ZM32.6562 21.3L27.6562 24.13L27.7462 24.22L32.6562 21.44C32.9348 21.3091 33.1739 21.1071 33.3495 20.8543C33.525 20.6014 33.6308 20.3068 33.6562 20C33.5999 20.2787 33.4805 20.5408 33.3072 20.7662C33.1338 20.9915 32.9111 21.1742 32.6562 21.3Z" fill="#131825"/>
<path opacity="0.25" d="M13.1662 7.62006L32.6562 18.7001C32.9112 18.8259 33.1339 19.0085 33.3072 19.2339C33.4806 19.4592 33.6 19.7214 33.6562 20.0001C33.6309 19.6933 33.5251 19.3986 33.3495 19.1458C33.174 18.893 32.9348 18.6909 32.6562 18.5601L13.1662 7.48006C11.7662 6.69006 10.6262 7.35006 10.6262 8.95006V9.10006C10.6562 7.49006 11.7762 6.83006 13.1662 7.62006Z" fill="white"/>
</g>
<defs>
<linearGradient id="paint0_linear_23_15608" x1="22.4562" y1="8.70997" x2="5.67615" y2="25.49" gradientUnits="userSpaceOnUse">
<stop stop-color="#00A0FF"/>
<stop offset="0.01" stop-color="#00A1FF"/>
<stop offset="0.26" stop-color="#00BEFF"/>
<stop offset="0.51" stop-color="#00D2FF"/>
<stop offset="0.76" stop-color="#00DFFF"/>
<stop offset="1" stop-color="#00E3FF"/>
</linearGradient>
<linearGradient id="paint1_linear_23_15608" x1="34.4862" y1="20" x2="10.2962" y2="20" gradientUnits="userSpaceOnUse">
<stop stop-color="#FFE000"/>
<stop offset="0.41" stop-color="#FFBD00"/>
<stop offset="0.78" stop-color="#FFA500"/>
<stop offset="1" stop-color="#FF9C00"/>
</linearGradient>
<linearGradient id="paint2_linear_23_15608" x1="25.4862" y1="22.3" x2="2.72619" y2="45.05" gradientUnits="userSpaceOnUse">
<stop stop-color="#FF3A44"/>
<stop offset="1" stop-color="#C31162"/>
</linearGradient>
<linearGradient id="paint3_linear_23_15608" x1="7.95618" y1="0.180048" x2="18.1162" y2="10.34" gradientUnits="userSpaceOnUse">
<stop stop-color="#32A071"/>
<stop offset="0.07" stop-color="#2DA771"/>
<stop offset="0.48" stop-color="#15CF74"/>
<stop offset="0.8" stop-color="#06E775"/>
<stop offset="1" stop-color="#00F076"/>
</linearGradient>
<clipPath id="clip0_23_15608">
<rect width="135" height="40" fill="white" transform="translate(0.65625)"/>
</clipPath>
</defs>
</svg>
