<svg width="100" height="100" viewBox="0 0 100 100" fill="none" xmlns="http://www.w3.org/2000/svg">
<path d="M0 0H100V100H0V0Z" fill="white"/>
<path d="M30.303 6.06055H33.3333V9.09085H30.303V6.06055ZM39.3939 6.06055H42.4242V9.09085H39.3939V6.06055ZM42.4242 6.06055H45.4545V9.09085H42.4242V6.06055ZM45.4545 6.06055H48.4848V9.09085H45.4545V6.06055ZM51.5151 6.06055H54.5454V9.09085H51.5151V6.06055ZM57.5757 6.06055H60.606V9.09085H57.5757V6.06055ZM60.606 6.06055H63.6363V9.09085H60.606V6.06055ZM48.4848 9.09085H51.5151V12.1212H48.4848V9.09085ZM54.5454 9.09085H57.5757V12.1212H54.5454V9.09085ZM63.6363 9.09085H66.6666V12.1212H63.6363V9.09085ZM66.6666 9.09085H69.6969V12.1212H66.6666V9.09085ZM33.3333 12.1212H36.3636V15.1515H33.3333V12.1212ZM42.4242 12.1212H45.4545V15.1515H42.4242V12.1212ZM51.5151 12.1212H54.5454V15.1515H51.5151V12.1212ZM57.5757 12.1212H60.606V15.1515H57.5757V12.1212ZM60.606 12.1212H63.6363V15.1515H60.606V12.1212ZM63.6363 12.1212H66.6666V15.1515H63.6363V12.1212ZM66.6666 12.1212H69.6969V15.1515H66.6666V12.1212ZM30.303 15.1515H33.3333V18.1818H30.303V15.1515ZM33.3333 15.1515H36.3636V18.1818H33.3333V15.1515ZM42.4242 15.1515H45.4545V18.1818H42.4242V15.1515ZM45.4545 15.1515H48.4848V18.1818H45.4545V15.1515ZM51.5151 15.1515H54.5454V18.1818H51.5151V15.1515ZM60.606 15.1515H63.6363V18.1818H60.606V15.1515ZM63.6363 15.1515H66.6666V18.1818H63.6363V15.1515ZM30.303 18.1818H33.3333V21.2121H30.303V18.1818ZM45.4545 18.1818H48.4848V21.2121H45.4545V18.1818ZM51.5151 18.1818H54.5454V21.2121H51.5151V18.1818ZM60.606 18.1818H63.6363V21.2121H60.606V18.1818ZM66.6666 18.1818H69.6969V21.2121H66.6666V18.1818ZM30.303 21.2121H33.3333V24.2424H30.303V21.2121ZM36.3636 21.2121H39.3939V24.2424H36.3636V21.2121ZM39.3939 21.2121H42.4242V24.2424H39.3939V21.2121ZM45.4545 21.2121H48.4848V24.2424H45.4545V21.2121ZM63.6363 21.2121H66.6666V24.2424H63.6363V21.2121ZM30.303 24.2424H33.3333V27.2727H30.303V24.2424ZM36.3636 24.2424H39.3939V27.2727H36.3636V24.2424ZM42.4242 24.2424H45.4545V27.2727H42.4242V24.2424ZM48.4848 24.2424H51.5151V27.2727H48.4848V24.2424ZM54.5454 24.2424H57.5757V27.2727H54.5454V24.2424ZM60.606 24.2424H63.6363V27.2727H60.606V24.2424ZM66.6666 24.2424H69.6969V27.2727H66.6666V24.2424ZM30.303 27.2727H33.3333V30.303H30.303V27.2727ZM39.3939 27.2727H42.4242V30.303H39.3939V27.2727ZM48.4848 27.2727H51.5151V30.303H48.4848V27.2727ZM51.5151 27.2727H54.5454V30.303H51.5151V27.2727ZM57.5757 27.2727H60.606V30.303H57.5757V27.2727ZM60.606 27.2727H63.6363V30.303H60.606V27.2727ZM63.6363 27.2727H66.6666V30.303H63.6363V27.2727ZM6.06055 30.303H9.09085V33.3333H6.06055V30.303ZM18.1818 30.303H21.2121V33.3333H18.1818V30.303ZM24.2424 30.303H27.2727V33.3333H24.2424V30.303ZM27.2727 30.303H30.303V33.3333H27.2727V30.303ZM30.303 30.303H33.3333V33.3333H30.303V30.303ZM36.3636 30.303H39.3939V33.3333H36.3636V30.303ZM39.3939 30.303H42.4242V33.3333H39.3939V30.303ZM45.4545 30.303H48.4848V33.3333H45.4545V30.303ZM48.4848 30.303H51.5151V33.3333H48.4848V30.303ZM57.5757 30.303H60.606V33.3333H57.5757V30.303ZM60.606 30.303H63.6363V33.3333H60.606V30.303ZM66.6666 30.303H69.6969V33.3333H66.6666V30.303ZM69.6969 30.303H72.7272V33.3333H69.6969V30.303ZM72.7272 30.303H75.7575V33.3333H72.7272V30.303ZM75.7575 30.303H78.7878V33.3333H75.7575V30.303ZM78.7878 30.303H81.8181V33.3333H78.7878V30.303ZM81.8181 30.303H84.8484V33.3333H81.8181V30.303ZM90.909 30.303H93.9393V33.3333H90.909V30.303ZM6.06055 33.3333H9.09085V36.3636H6.06055V33.3333ZM9.09085 33.3333H12.1212V36.3636H9.09085V33.3333ZM12.1212 33.3333H15.1515V36.3636H12.1212V33.3333ZM18.1818 33.3333H21.2121V36.3636H18.1818V33.3333ZM21.2121 33.3333H24.2424V36.3636H21.2121V33.3333ZM27.2727 33.3333H30.303V36.3636H27.2727V33.3333ZM36.3636 33.3333H39.3939V36.3636H36.3636V33.3333ZM48.4848 33.3333H51.5151V36.3636H48.4848V33.3333ZM51.5151 33.3333H54.5454V36.3636H51.5151V33.3333ZM54.5454 33.3333H57.5757V36.3636H54.5454V33.3333ZM57.5757 33.3333H60.606V36.3636H57.5757V33.3333ZM60.606 33.3333H63.6363V36.3636H60.606V33.3333ZM69.6969 33.3333H72.7272V36.3636H69.6969V33.3333ZM72.7272 33.3333H75.7575V36.3636H72.7272V33.3333ZM75.7575 33.3333H78.7878V36.3636H75.7575V33.3333ZM78.7878 33.3333H81.8181V36.3636H78.7878V33.3333ZM81.8181 33.3333H84.8484V36.3636H81.8181V33.3333ZM84.8484 33.3333H87.8787V36.3636H84.8484V33.3333ZM87.8787 33.3333H90.909V36.3636H87.8787V33.3333ZM90.909 33.3333H93.9393V36.3636H90.909V33.3333ZM6.06055 36.3636H9.09085V39.3939H6.06055V36.3636ZM18.1818 36.3636H21.2121V39.3939H18.1818V36.3636ZM24.2424 36.3636H27.2727V39.3939H24.2424V36.3636ZM30.303 36.3636H33.3333V39.3939H30.303V36.3636ZM45.4545 36.3636H48.4848V39.3939H45.4545V36.3636ZM48.4848 36.3636H51.5151V39.3939H48.4848V36.3636ZM51.5151 36.3636H54.5454V39.3939H51.5151V36.3636ZM54.5454 36.3636H57.5757V39.3939H54.5454V36.3636ZM60.606 36.3636H63.6363V39.3939H60.606V36.3636ZM69.6969 36.3636H72.7272V39.3939H69.6969V36.3636ZM72.7272 36.3636H75.7575V39.3939H72.7272V36.3636ZM75.7575 36.3636H78.7878V39.3939H75.7575V36.3636ZM90.909 36.3636H93.9393V39.3939H90.909V36.3636ZM15.1515 39.3939H18.1818V42.4242H15.1515V39.3939ZM36.3636 39.3939H39.3939V42.4242H36.3636V39.3939ZM39.3939 39.3939H42.4242V42.4242H39.3939V39.3939ZM45.4545 39.3939H48.4848V42.4242H45.4545V39.3939ZM54.5454 39.3939H57.5757V42.4242H54.5454V39.3939ZM57.5757 39.3939H60.606V42.4242H57.5757V39.3939ZM60.606 39.3939H63.6363V42.4242H60.606V39.3939ZM63.6363 39.3939H66.6666V42.4242H63.6363V39.3939ZM66.6666 39.3939H69.6969V42.4242H66.6666V39.3939ZM69.6969 39.3939H72.7272V42.4242H69.6969V39.3939ZM72.7272 39.3939H75.7575V42.4242H72.7272V39.3939ZM75.7575 39.3939H78.7878V42.4242H75.7575V39.3939ZM81.8181 39.3939H84.8484V42.4242H81.8181V39.3939ZM87.8787 39.3939H90.909V42.4242H87.8787V39.3939ZM90.909 39.3939H93.9393V42.4242H90.909V39.3939ZM9.09085 42.4242H12.1212V45.4545H9.09085V42.4242ZM12.1212 42.4242H15.1515V45.4545H12.1212V42.4242ZM15.1515 42.4242H18.1818V45.4545H15.1515V42.4242ZM18.1818 42.4242H21.2121V45.4545H18.1818V42.4242ZM21.2121 42.4242H24.2424V45.4545H21.2121V42.4242ZM24.2424 42.4242H27.2727V45.4545H24.2424V42.4242ZM27.2727 42.4242H30.303V45.4545H27.2727V42.4242ZM30.303 42.4242H33.3333V45.4545H30.303V42.4242ZM45.4545 42.4242H48.4848V45.4545H45.4545V42.4242ZM54.5454 42.4242H57.5757V45.4545H54.5454V42.4242ZM66.6666 42.4242H69.6969V45.4545H66.6666V42.4242ZM75.7575 42.4242H78.7878V45.4545H75.7575V42.4242ZM87.8787 42.4242H90.909V45.4545H87.8787V42.4242ZM15.1515 45.4545H18.1818V48.4848H15.1515V45.4545ZM27.2727 45.4545H30.303V48.4848H27.2727V45.4545ZM33.3333 45.4545H36.3636V48.4848H33.3333V45.4545ZM36.3636 45.4545H39.3939V48.4848H36.3636V45.4545ZM42.4242 45.4545H45.4545V48.4848H42.4242V45.4545ZM45.4545 45.4545H48.4848V48.4848H45.4545V45.4545ZM48.4848 45.4545H51.5151V48.4848H48.4848V45.4545ZM51.5151 45.4545H54.5454V48.4848H51.5151V45.4545ZM72.7272 45.4545H75.7575V48.4848H72.7272V45.4545ZM75.7575 45.4545H78.7878V48.4848H75.7575V45.4545ZM78.7878 45.4545H81.8181V48.4848H78.7878V45.4545ZM81.8181 45.4545H84.8484V48.4848H81.8181V45.4545ZM84.8484 45.4545H87.8787V48.4848H84.8484V45.4545ZM87.8787 45.4545H90.909V48.4848H87.8787V45.4545ZM90.909 45.4545H93.9393V48.4848H90.909V45.4545ZM9.09085 48.4848H12.1212V51.5151H9.09085V48.4848ZM12.1212 48.4848H15.1515V51.5151H12.1212V48.4848ZM15.1515 48.4848H18.1818V51.5151H15.1515V48.4848ZM18.1818 48.4848H21.2121V51.5151H18.1818V48.4848ZM21.2121 48.4848H24.2424V51.5151H21.2121V48.4848ZM24.2424 48.4848H27.2727V51.5151H24.2424V48.4848ZM33.3333 48.4848H36.3636V51.5151H33.3333V48.4848ZM39.3939 48.4848H42.4242V51.5151H39.3939V48.4848ZM42.4242 48.4848H45.4545V51.5151H42.4242V48.4848ZM51.5151 48.4848H54.5454V51.5151H51.5151V48.4848ZM57.5757 48.4848H60.606V51.5151H57.5757V48.4848ZM66.6666 48.4848H69.6969V51.5151H66.6666V48.4848ZM81.8181 48.4848H84.8484V51.5151H81.8181V48.4848ZM84.8484 48.4848H87.8787V51.5151H84.8484V48.4848ZM90.909 48.4848H93.9393V51.5151H90.909V48.4848ZM6.06055 51.5151H9.09085V54.5454H6.06055V51.5151ZM18.1818 51.5151H21.2121V54.5454H18.1818V51.5151ZM21.2121 51.5151H24.2424V54.5454H21.2121V51.5151ZM27.2727 51.5151H30.303V54.5454H27.2727V51.5151ZM30.303 51.5151H33.3333V54.5454H30.303V51.5151ZM36.3636 51.5151H39.3939V54.5454H36.3636V51.5151ZM48.4848 51.5151H51.5151V54.5454H48.4848V51.5151ZM51.5151 51.5151H54.5454V54.5454H51.5151V51.5151ZM54.5454 51.5151H57.5757V54.5454H54.5454V51.5151ZM57.5757 51.5151H60.606V54.5454H57.5757V51.5151ZM60.606 51.5151H63.6363V54.5454H60.606V51.5151ZM69.6969 51.5151H72.7272V54.5454H69.6969V51.5151ZM75.7575 51.5151H78.7878V54.5454H75.7575V51.5151ZM87.8787 51.5151H90.909V54.5454H87.8787V51.5151ZM90.909 51.5151H93.9393V54.5454H90.909V51.5151ZM6.06055 54.5454H9.09085V57.5757H6.06055V54.5454ZM15.1515 54.5454H18.1818V57.5757H15.1515V54.5454ZM18.1818 54.5454H21.2121V57.5757H18.1818V54.5454ZM21.2121 54.5454H24.2424V57.5757H21.2121V54.5454ZM24.2424 54.5454H27.2727V57.5757H24.2424V54.5454ZM27.2727 54.5454H30.303V57.5757H27.2727V54.5454ZM30.303 54.5454H33.3333V57.5757H30.303V54.5454ZM42.4242 54.5454H45.4545V57.5757H42.4242V54.5454ZM45.4545 54.5454H48.4848V57.5757H45.4545V54.5454ZM48.4848 54.5454H51.5151V57.5757H48.4848V54.5454ZM66.6666 54.5454H69.6969V57.5757H66.6666V54.5454ZM69.6969 54.5454H72.7272V57.5757H69.6969V54.5454ZM87.8787 54.5454H90.909V57.5757H87.8787V54.5454ZM6.06055 57.5757H9.09085V60.606H6.06055V57.5757ZM9.09085 57.5757H12.1212V60.606H9.09085V57.5757ZM12.1212 57.5757H15.1515V60.606H12.1212V57.5757ZM18.1818 57.5757H21.2121V60.606H18.1818V57.5757ZM27.2727 57.5757H30.303V60.606H27.2727V57.5757ZM39.3939 57.5757H42.4242V60.606H39.3939V57.5757ZM42.4242 57.5757H45.4545V60.606H42.4242V57.5757ZM51.5151 57.5757H54.5454V60.606H51.5151V57.5757ZM54.5454 57.5757H57.5757V60.606H54.5454V57.5757ZM60.606 57.5757H63.6363V60.606H60.606V57.5757ZM72.7272 57.5757H75.7575V60.606H72.7272V57.5757ZM75.7575 57.5757H78.7878V60.606H75.7575V57.5757ZM78.7878 57.5757H81.8181V60.606H78.7878V57.5757ZM81.8181 57.5757H84.8484V60.606H81.8181V57.5757ZM87.8787 57.5757H90.909V60.606H87.8787V57.5757ZM90.909 57.5757H93.9393V60.606H90.909V57.5757ZM12.1212 60.606H15.1515V63.6363H12.1212V60.606ZM21.2121 60.606H24.2424V63.6363H21.2121V60.606ZM24.2424 60.606H27.2727V63.6363H24.2424V60.606ZM27.2727 60.606H30.303V63.6363H27.2727V60.606ZM30.303 60.606H33.3333V63.6363H30.303V60.606ZM45.4545 60.606H48.4848V63.6363H45.4545V60.606ZM48.4848 60.606H51.5151V63.6363H48.4848V60.606ZM51.5151 60.606H54.5454V63.6363H51.5151V60.606ZM84.8484 60.606H87.8787V63.6363H84.8484V60.606ZM90.909 60.606H93.9393V63.6363H90.909V60.606ZM12.1212 63.6363H15.1515V66.6666H12.1212V63.6363ZM15.1515 63.6363H18.1818V66.6666H15.1515V63.6363ZM18.1818 63.6363H21.2121V66.6666H18.1818V63.6363ZM27.2727 63.6363H30.303V66.6666H27.2727V63.6363ZM39.3939 63.6363H42.4242V66.6666H39.3939V63.6363ZM42.4242 63.6363H45.4545V66.6666H42.4242V63.6363ZM45.4545 63.6363H48.4848V66.6666H45.4545V63.6363ZM54.5454 63.6363H57.5757V66.6666H54.5454V63.6363ZM57.5757 63.6363H60.606V66.6666H57.5757V63.6363ZM66.6666 63.6363H69.6969V66.6666H66.6666V63.6363ZM87.8787 63.6363H90.909V66.6666H87.8787V63.6363ZM90.909 63.6363H93.9393V66.6666H90.909V63.6363ZM6.06055 66.6666H9.09085V69.6969H6.06055V66.6666ZM9.09085 66.6666H12.1212V69.6969H9.09085V66.6666ZM12.1212 66.6666H15.1515V69.6969H12.1212V66.6666ZM15.1515 66.6666H18.1818V69.6969H15.1515V66.6666ZM18.1818 66.6666H21.2121V69.6969H18.1818V66.6666ZM24.2424 66.6666H27.2727V69.6969H24.2424V66.6666ZM30.303 66.6666H33.3333V69.6969H30.303V66.6666ZM36.3636 66.6666H39.3939V69.6969H36.3636V66.6666ZM39.3939 66.6666H42.4242V69.6969H39.3939V66.6666ZM45.4545 66.6666H48.4848V69.6969H45.4545V66.6666ZM66.6666 66.6666H69.6969V69.6969H66.6666V66.6666ZM69.6969 66.6666H72.7272V69.6969H69.6969V66.6666ZM72.7272 66.6666H75.7575V69.6969H72.7272V66.6666ZM75.7575 66.6666H78.7878V69.6969H75.7575V66.6666ZM78.7878 66.6666H81.8181V69.6969H78.7878V66.6666ZM81.8181 66.6666H84.8484V69.6969H81.8181V66.6666ZM90.909 66.6666H93.9393V69.6969H90.909V66.6666ZM30.303 69.6969H33.3333V72.7272H30.303V69.6969ZM39.3939 69.6969H42.4242V72.7272H39.3939V69.6969ZM45.4545 69.6969H48.4848V72.7272H45.4545V69.6969ZM48.4848 69.6969H51.5151V72.7272H48.4848V69.6969ZM51.5151 69.6969H54.5454V72.7272H51.5151V69.6969ZM54.5454 69.6969H57.5757V72.7272H54.5454V69.6969ZM63.6363 69.6969H66.6666V72.7272H63.6363V69.6969ZM66.6666 69.6969H69.6969V72.7272H66.6666V69.6969ZM78.7878 69.6969H81.8181V72.7272H78.7878V69.6969ZM90.909 69.6969H93.9393V72.7272H90.909V69.6969ZM30.303 72.7272H33.3333V75.7575H30.303V72.7272ZM36.3636 72.7272H39.3939V75.7575H36.3636V72.7272ZM42.4242 72.7272H45.4545V75.7575H42.4242V72.7272ZM51.5151 72.7272H54.5454V75.7575H51.5151V72.7272ZM54.5454 72.7272H57.5757V75.7575H54.5454V72.7272ZM57.5757 72.7272H60.606V75.7575H57.5757V72.7272ZM60.606 72.7272H63.6363V75.7575H60.606V72.7272ZM63.6363 72.7272H66.6666V75.7575H63.6363V72.7272ZM66.6666 72.7272H69.6969V75.7575H66.6666V72.7272ZM72.7272 72.7272H75.7575V75.7575H72.7272V72.7272ZM78.7878 72.7272H81.8181V75.7575H78.7878V72.7272ZM81.8181 72.7272H84.8484V75.7575H81.8181V72.7272ZM84.8484 72.7272H87.8787V75.7575H84.8484V72.7272ZM90.909 72.7272H93.9393V75.7575H90.909V72.7272ZM33.3333 75.7575H36.3636V78.7878H33.3333V75.7575ZM42.4242 75.7575H45.4545V78.7878H42.4242V75.7575ZM48.4848 75.7575H51.5151V78.7878H48.4848V75.7575ZM51.5151 75.7575H54.5454V78.7878H51.5151V75.7575ZM57.5757 75.7575H60.606V78.7878H57.5757V75.7575ZM63.6363 75.7575H66.6666V78.7878H63.6363V75.7575ZM66.6666 75.7575H69.6969V78.7878H66.6666V75.7575ZM78.7878 75.7575H81.8181V78.7878H78.7878V75.7575ZM87.8787 75.7575H90.909V78.7878H87.8787V75.7575ZM30.303 78.7878H33.3333V81.8181H30.303V78.7878ZM33.3333 78.7878H36.3636V81.8181H33.3333V78.7878ZM36.3636 78.7878H39.3939V81.8181H36.3636V78.7878ZM45.4545 78.7878H48.4848V81.8181H45.4545V78.7878ZM48.4848 78.7878H51.5151V81.8181H48.4848V78.7878ZM57.5757 78.7878H60.606V81.8181H57.5757V78.7878ZM63.6363 78.7878H66.6666V81.8181H63.6363V78.7878ZM66.6666 78.7878H69.6969V81.8181H66.6666V78.7878ZM69.6969 78.7878H72.7272V81.8181H69.6969V78.7878ZM72.7272 78.7878H75.7575V81.8181H72.7272V78.7878ZM75.7575 78.7878H78.7878V81.8181H75.7575V78.7878ZM78.7878 78.7878H81.8181V81.8181H78.7878V78.7878ZM81.8181 78.7878H84.8484V81.8181H81.8181V78.7878ZM87.8787 78.7878H90.909V81.8181H87.8787V78.7878ZM33.3333 81.8181H36.3636V84.8484H33.3333V81.8181ZM39.3939 81.8181H42.4242V84.8484H39.3939V81.8181ZM45.4545 81.8181H48.4848V84.8484H45.4545V81.8181ZM51.5151 81.8181H54.5454V84.8484H51.5151V81.8181ZM54.5454 81.8181H57.5757V84.8484H54.5454V81.8181ZM60.606 81.8181H63.6363V84.8484H60.606V81.8181ZM66.6666 81.8181H69.6969V84.8484H66.6666V81.8181ZM69.6969 81.8181H72.7272V84.8484H69.6969V81.8181ZM90.909 81.8181H93.9393V84.8484H90.909V81.8181ZM33.3333 84.8484H36.3636V87.8787H33.3333V84.8484ZM39.3939 84.8484H42.4242V87.8787H39.3939V84.8484ZM51.5151 84.8484H54.5454V87.8787H51.5151V84.8484ZM63.6363 84.8484H66.6666V87.8787H63.6363V84.8484ZM69.6969 84.8484H72.7272V87.8787H69.6969V84.8484ZM81.8181 84.8484H84.8484V87.8787H81.8181V84.8484ZM84.8484 84.8484H87.8787V87.8787H84.8484V84.8484ZM87.8787 84.8484H90.909V87.8787H87.8787V84.8484ZM90.909 84.8484H93.9393V87.8787H90.909V84.8484ZM36.3636 87.8787H39.3939V90.909H36.3636V87.8787ZM42.4242 87.8787H45.4545V90.909H42.4242V87.8787ZM57.5757 87.8787H60.606V90.909H57.5757V87.8787ZM66.6666 87.8787H69.6969V90.909H66.6666V87.8787ZM75.7575 87.8787H78.7878V90.909H75.7575V87.8787ZM81.8181 87.8787H84.8484V90.909H81.8181V87.8787ZM87.8787 87.8787H90.909V90.909H87.8787V87.8787ZM90.909 87.8787H93.9393V90.909H90.909V87.8787ZM30.303 90.909H33.3333V93.9393H30.303V90.909ZM36.3636 90.909H39.3939V93.9393H36.3636V90.909ZM42.4242 90.909H45.4545V93.9393H42.4242V90.909ZM45.4545 90.909H48.4848V93.9393H45.4545V90.909ZM51.5151 90.909H54.5454V93.9393H51.5151V90.909ZM57.5757 90.909H60.606V93.9393H57.5757V90.909ZM60.606 90.909H63.6363V93.9393H60.606V90.909ZM66.6666 90.909H69.6969V93.9393H66.6666V90.909ZM72.7272 90.909H75.7575V93.9393H72.7272V90.909ZM87.8787 90.909H90.909V93.9393H87.8787V90.909Z" fill="#131825"/>
<path d="M24.0909 6.06055H6.06055V27.2727H27.2727V6.06055H24.0909ZM24.0909 24.0909H9.24237V9.24237H24.0909V24.0909Z" fill="#131825"/>
<path d="M90.7576 6.06055H72.7273V27.2727H93.9394V6.06055H90.7576ZM90.7576 24.0909H75.9091V9.24237H90.7576V24.0909Z" fill="#131825"/>
<path d="M24.0909 72.7273H6.06055V93.9394H27.2727V72.7273H24.0909ZM24.0909 90.7576H9.24237V75.9091H24.0909V90.7576Z" fill="#131825"/>
<path d="M12.1211 12.1212H21.212V21.2121H12.1211V12.1212Z" fill="#131825"/>
<path d="M78.7878 12.1212H87.8788V21.2121H78.7878V12.1212Z" fill="#131825"/>
<path d="M12.1211 78.7878H21.212V87.8788H12.1211V78.7878Z" fill="#131825"/>
</svg>
