<svg width="24" height="24" viewBox="0 0 24 24" fill="none" xmlns="http://www.w3.org/2000/svg">
<path d="M16.0217 20.3003L16.0089 20.2936C15.6055 20.0834 15.2399 19.8203 14.9091 19.3877C14.5861 18.9654 14.3147 18.4054 14.0557 17.6283L14.0547 17.6256C13.5974 16.2265 12.7552 15.5766 11.8401 14.8703L11.8345 14.866L11.8344 14.866L11.8162 14.8519C11.0235 14.2399 10.1393 13.5572 9.38212 12.1816L16.0217 20.3003ZM16.0217 20.3003L16.0348 20.3062M16.0217 20.3003L16.0348 20.3062M16.0348 20.3062C16.3056 20.428 16.6465 20.5002 17 20.5002C18.205 20.5002 19.2166 19.6385 19.4495 18.5002H20.4646C20.2222 20.197 18.7641 21.5002 17 21.5002C16.5048 21.5002 16.0196 21.3969 15.5785 21.2002C14.3721 20.5667 13.6743 19.6707 13.105 17.9442C12.7342 16.8091 12.0389 16.277 11.2377 15.6637L11.2251 15.6541C11.225 15.654 11.2249 15.6539 11.2247 15.6538C10.3662 14.9926 9.36574 14.2143 8.50783 12.6587L8.50774 12.6586M16.0348 20.3062L8.50774 12.6586M8.50774 12.6586C7.85332 11.473 7.5 10.1655 7.5 9.00021C7.5 5.34636 10.3461 2.50021 14 2.50021C17.4854 2.50021 20.2359 5.08998 20.4821 8.50021M8.50774 12.6586L20.4821 8.50021M20.4821 8.50021H19.4784C19.2321 5.66547 16.9074 3.50021 14 3.50021C10.9239 3.50021 8.5 5.92407 8.5 9.00021C8.5 10.0272 8.8179 11.1594 9.38196 12.1813L20.4821 8.50021ZM6.22838 16.0647C4.53252 14.2 3.5 11.7224 3.5 9.00021C3.5 6.27802 4.53252 3.80042 6.22838 1.9357L6.94121 2.64853C5.42464 4.32468 4.5 6.55336 4.5 9.00021C4.5 11.4481 5.42535 13.6765 6.93313 15.36L6.22838 16.0647ZM14 11.0002C12.8961 11.0002 12 10.1041 12 9.00021C12 7.89636 12.8961 7.00021 14 7.00021C15.1039 7.00021 16 7.89636 16 9.00021C16 10.1041 15.1039 11.0002 14 11.0002Z" fill="#1E293B" stroke="#00296B"/>
</svg>
