<svg width="19" height="20" viewBox="0 0 19 20" fill="none" xmlns="http://www.w3.org/2000/svg">
<path d="M15.3535 8.33332L15.3537 8.33317L18.4997 5.1793V19.5001H14.9997H4.20537L15.3535 8.33332ZM16.9997 18.5001H17.4997V18.0001V8.78006V7.57295L16.6461 8.42651L14.6461 10.4265L14.4997 10.573V10.7801V18.0001V18.5001H14.9997H16.9997ZM2.22974 4.52301L1.64549 3.93875C5.24754 0.68401 10.7521 0.683498 14.3634 3.93919L13.7796 4.52301C10.4982 1.59574 5.51113 1.59574 2.22974 4.52301ZM6.81831 9.11158C7.54001 8.66289 8.45936 8.66289 9.18106 9.11158L7.99969 10.293L6.81831 9.11158ZM11.2001 7.09994C9.34293 5.58389 6.65761 5.58283 4.80708 7.10034L4.22176 6.51502C6.3962 4.6813 9.60522 4.68174 11.7792 6.51633L11.2001 7.09994Z" fill="#1E293B" stroke="#00296B"/>
</svg>
