<svg width="1098" height="48" viewBox="0 0 1098 48" fill="none" xmlns="http://www.w3.org/2000/svg">
<path d="M21 8H1077" stroke="#F6FAFF" stroke-width="8" stroke-linecap="round"/>
<rect x="13" width="16" height="16" rx="8" fill="#0064F1"/>
<rect x="798" width="16" height="16" rx="8" fill="#0064F1"/>
<rect x="1069" width="16" height="16" rx="8" fill="#0064F1"/>
<rect x="526" width="16" height="16" rx="8" fill="#0064F1"/>
<rect x="269" width="16" height="16" rx="8" fill="#0064F1"/>
<path d="M2.65767 42H0.40767L4.50426 30.3636H7.10653L11.2088 42H8.95881L5.85085 32.75H5.75994L2.65767 42ZM2.73153 37.4375H8.8679V39.1307H2.73153V37.4375ZM12.6506 45.2727V33.2727H14.6733V34.7159H14.7926C14.8987 34.5038 15.0483 34.2784 15.2415 34.0398C15.4347 33.7973 15.696 33.5909 16.0256 33.4205C16.3551 33.2462 16.7756 33.1591 17.2869 33.1591C17.9612 33.1591 18.5691 33.3314 19.1108 33.6761C19.6563 34.017 20.0881 34.5227 20.4062 35.1932C20.7282 35.8598 20.8892 36.678 20.8892 37.6477C20.8892 38.6061 20.732 39.4205 20.4176 40.0909C20.1032 40.7614 19.6752 41.2727 19.1335 41.625C18.5919 41.9773 17.9782 42.1534 17.2926 42.1534C16.7926 42.1534 16.3778 42.0701 16.0483 41.9034C15.7188 41.7367 15.4536 41.536 15.2528 41.3011C15.0559 41.0625 14.9025 40.8371 14.7926 40.625H14.7074V45.2727H12.6506ZM14.6676 37.6364C14.6676 38.2008 14.7472 38.6951 14.9062 39.1193C15.0691 39.5436 15.3021 39.875 15.6051 40.1136C15.9119 40.3485 16.2831 40.4659 16.7188 40.4659C17.1733 40.4659 17.554 40.3447 17.8608 40.1023C18.1676 39.8561 18.3987 39.5208 18.554 39.0966C18.7131 38.6686 18.7926 38.1818 18.7926 37.6364C18.7926 37.0947 18.715 36.6136 18.5597 36.1932C18.4044 35.7727 18.1733 35.4432 17.8665 35.2045C17.5597 34.9659 17.1771 34.8466 16.7188 34.8466C16.2794 34.8466 15.9062 34.9621 15.5994 35.1932C15.2926 35.4242 15.0597 35.7481 14.9006 36.1648C14.7453 36.5814 14.6676 37.072 14.6676 37.6364ZM22.6506 45.2727V33.2727H24.6733V34.7159H24.7926C24.8987 34.5038 25.0483 34.2784 25.2415 34.0398C25.4347 33.7973 25.696 33.5909 26.0256 33.4205C26.3551 33.2462 26.7756 33.1591 27.2869 33.1591C27.9612 33.1591 28.5691 33.3314 29.1108 33.6761C29.6563 34.017 30.0881 34.5227 30.4062 35.1932C30.7282 35.8598 30.8892 36.678 30.8892 37.6477C30.8892 38.6061 30.732 39.4205 30.4176 40.0909C30.1032 40.7614 29.6752 41.2727 29.1335 41.625C28.5919 41.9773 27.9782 42.1534 27.2926 42.1534C26.7926 42.1534 26.3778 42.0701 26.0483 41.9034C25.7188 41.7367 25.4536 41.536 25.2528 41.3011C25.0559 41.0625 24.9025 40.8371 24.7926 40.625H24.7074V45.2727H22.6506ZM24.6676 37.6364C24.6676 38.2008 24.7472 38.6951 24.9062 39.1193C25.0691 39.5436 25.3021 39.875 25.6051 40.1136C25.9119 40.3485 26.2831 40.4659 26.7188 40.4659C27.1733 40.4659 27.554 40.3447 27.8608 40.1023C28.1676 39.8561 28.3987 39.5208 28.554 39.0966C28.7131 38.6686 28.7926 38.1818 28.7926 37.6364C28.7926 37.0947 28.715 36.6136 28.5597 36.1932C28.4044 35.7727 28.1733 35.4432 27.8665 35.2045C27.5597 34.9659 27.1771 34.8466 26.7188 34.8466C26.2794 34.8466 25.9062 34.9621 25.5994 35.1932C25.2926 35.4242 25.0597 35.7481 24.9006 36.1648C24.7453 36.5814 24.6676 37.072 24.6676 37.6364ZM34.7074 30.3636V42H32.6506V30.3636H34.7074ZM38.1009 45.2727C37.8205 45.2727 37.5611 45.25 37.3224 45.2045C37.0876 45.1629 36.9001 45.1136 36.7599 45.0568L37.2372 43.4545C37.5365 43.5417 37.8035 43.5833 38.0384 43.5795C38.2732 43.5758 38.4796 43.5019 38.6577 43.358C38.8395 43.2178 38.9929 42.983 39.1179 42.6534L39.294 42.1818L36.1293 33.2727H38.3111L40.3224 39.8636H40.4134L42.4304 33.2727H44.6179L41.1236 43.0568C40.9607 43.5189 40.7448 43.9148 40.4759 44.2443C40.2069 44.5777 39.8774 44.8314 39.4872 45.0057C39.1009 45.1837 38.6387 45.2727 38.1009 45.2727Z" fill="#1E293B"/>
<path d="M461.546 42V30.3636H463.654V35.2898H469.046V30.3636H471.16V42H469.046V37.0568H463.654V42H461.546ZM475.873 42.1761C475.32 42.1761 474.822 42.0777 474.379 41.8807C473.939 41.6799 473.591 41.3845 473.333 40.9943C473.079 40.6042 472.952 40.1231 472.952 39.5511C472.952 39.0587 473.043 38.6515 473.225 38.3295C473.407 38.0076 473.655 37.75 473.969 37.5568C474.284 37.3636 474.638 37.2178 475.032 37.1193C475.43 37.017 475.841 36.9432 476.265 36.8977C476.776 36.8447 477.191 36.7973 477.509 36.7557C477.827 36.7102 478.058 36.642 478.202 36.5511C478.35 36.4564 478.424 36.3106 478.424 36.1136V36.0795C478.424 35.6515 478.297 35.3201 478.043 35.0852C477.79 34.8504 477.424 34.733 476.947 34.733C476.443 34.733 476.043 34.8428 475.748 35.0625C475.456 35.2822 475.259 35.5417 475.157 35.8409L473.237 35.5682C473.388 35.0379 473.638 34.5947 473.987 34.2386C474.335 33.8788 474.761 33.6098 475.265 33.4318C475.769 33.25 476.326 33.1591 476.935 33.1591C477.356 33.1591 477.774 33.2083 478.191 33.3068C478.608 33.4053 478.988 33.5682 479.333 33.7955C479.678 34.0189 479.954 34.3239 480.163 34.7102C480.375 35.0966 480.481 35.5795 480.481 36.1591V42H478.504V40.8011H478.435C478.31 41.0436 478.134 41.2708 477.907 41.483C477.683 41.6913 477.401 41.8598 477.06 41.9886C476.723 42.1136 476.327 42.1761 475.873 42.1761ZM476.407 40.6648C476.82 40.6648 477.178 40.5833 477.481 40.4205C477.784 40.2538 478.017 40.0341 478.18 39.7614C478.346 39.4886 478.43 39.1913 478.43 38.8693V37.8409C478.365 37.8939 478.255 37.9432 478.1 37.9886C477.949 38.0341 477.778 38.0739 477.589 38.108C477.399 38.142 477.212 38.1723 477.026 38.1989C476.841 38.2254 476.68 38.2481 476.543 38.267C476.237 38.3087 475.962 38.3769 475.719 38.4716C475.477 38.5663 475.286 38.6989 475.146 38.8693C475.005 39.036 474.935 39.2519 474.935 39.517C474.935 39.8958 475.074 40.1818 475.35 40.375C475.627 40.5682 475.979 40.6648 476.407 40.6648ZM484.606 36.8864V42H482.549V33.2727H484.515V34.7557H484.617C484.818 34.267 485.138 33.8788 485.577 33.5909C486.021 33.303 486.568 33.1591 487.219 33.1591C487.822 33.1591 488.346 33.2879 488.793 33.5455C489.244 33.803 489.593 34.1761 489.839 34.6648C490.089 35.1534 490.212 35.7462 490.208 36.4432V42H488.151V36.7614C488.151 36.178 488 35.7216 487.697 35.392C487.397 35.0625 486.983 34.8977 486.452 34.8977C486.093 34.8977 485.772 34.9773 485.492 35.1364C485.216 35.2917 484.998 35.517 484.839 35.8125C484.683 36.108 484.606 36.4659 484.606 36.8864ZM495.538 42.1534C494.852 42.1534 494.238 41.9773 493.697 41.625C493.155 41.2727 492.727 40.7614 492.413 40.0909C492.098 39.4205 491.941 38.6061 491.941 37.6477C491.941 36.678 492.1 35.8598 492.418 35.1932C492.74 34.5227 493.174 34.017 493.719 33.6761C494.265 33.3314 494.873 33.1591 495.543 33.1591C496.055 33.1591 496.475 33.2462 496.805 33.4205C497.134 33.5909 497.396 33.7973 497.589 34.0398C497.782 34.2784 497.932 34.5038 498.038 34.7159H498.123V30.3636H500.185V42H498.163V40.625H498.038C497.932 40.8371 497.778 41.0625 497.577 41.3011C497.377 41.536 497.112 41.7367 496.782 41.9034C496.452 42.0701 496.038 42.1534 495.538 42.1534ZM496.112 40.4659C496.547 40.4659 496.918 40.3485 497.225 40.1136C497.532 39.875 497.765 39.5436 497.924 39.1193C498.083 38.6951 498.163 38.2008 498.163 37.6364C498.163 37.072 498.083 36.5814 497.924 36.1648C497.769 35.7481 497.538 35.4242 497.231 35.1932C496.928 34.9621 496.555 34.8466 496.112 34.8466C495.653 34.8466 495.271 34.9659 494.964 35.2045C494.657 35.4432 494.426 35.7727 494.271 36.1932C494.115 36.6136 494.038 37.0947 494.038 37.6364C494.038 38.1818 494.115 38.6686 494.271 39.0966C494.43 39.5208 494.663 39.8561 494.969 40.1023C495.28 40.3447 495.661 40.4659 496.112 40.4659ZM509.275 35.5795L507.4 35.7841C507.347 35.5947 507.254 35.4167 507.121 35.25C506.993 35.0833 506.818 34.9489 506.599 34.8466C506.379 34.7443 506.11 34.6932 505.792 34.6932C505.364 34.6932 505.004 34.786 504.712 34.9716C504.424 35.1572 504.282 35.3977 504.286 35.6932C504.282 35.947 504.375 36.1534 504.565 36.3125C504.758 36.4716 505.076 36.6023 505.519 36.7045L507.008 37.0227C507.834 37.2008 508.447 37.483 508.849 37.8693C509.254 38.2557 509.459 38.7614 509.462 39.3864C509.459 39.9356 509.298 40.4205 508.979 40.8409C508.665 41.2576 508.228 41.5833 507.667 41.8182C507.106 42.053 506.462 42.1705 505.735 42.1705C504.667 42.1705 503.807 41.947 503.156 41.5C502.504 41.0492 502.116 40.4223 501.991 39.6193L503.996 39.4261C504.087 39.8201 504.281 40.1174 504.576 40.3182C504.871 40.5189 505.256 40.6193 505.729 40.6193C506.218 40.6193 506.61 40.5189 506.906 40.3182C507.205 40.1174 507.354 39.8693 507.354 39.5739C507.354 39.3239 507.258 39.1174 507.065 38.9545C506.875 38.7917 506.58 38.6667 506.178 38.5795L504.69 38.267C503.853 38.0928 503.233 37.7992 502.832 37.3864C502.43 36.9697 502.231 36.4432 502.235 35.8068C502.231 35.2689 502.377 34.803 502.673 34.4091C502.972 34.0114 503.387 33.7045 503.917 33.4886C504.451 33.2689 505.067 33.1591 505.763 33.1591C506.786 33.1591 507.591 33.3769 508.178 33.8125C508.769 34.2481 509.135 34.8371 509.275 35.5795ZM516.448 36.3068V38H511.21V36.3068H516.448ZM522.418 42.1705C521.566 42.1705 520.827 41.983 520.202 41.608C519.577 41.233 519.093 40.7083 518.748 40.0341C518.407 39.3598 518.237 38.572 518.237 37.6705C518.237 36.7689 518.407 35.9792 518.748 35.3011C519.093 34.6231 519.577 34.0966 520.202 33.7216C520.827 33.3466 521.566 33.1591 522.418 33.1591C523.271 33.1591 524.009 33.3466 524.634 33.7216C525.259 34.0966 525.742 34.6231 526.083 35.3011C526.428 35.9792 526.6 36.7689 526.6 37.6705C526.6 38.572 526.428 39.3598 526.083 40.0341C525.742 40.7083 525.259 41.233 524.634 41.608C524.009 41.983 523.271 42.1705 522.418 42.1705ZM522.43 40.5227C522.892 40.5227 523.278 40.3958 523.589 40.142C523.899 39.8845 524.13 39.5398 524.282 39.108C524.437 38.6761 524.515 38.1951 524.515 37.6648C524.515 37.1307 524.437 36.6477 524.282 36.2159C524.13 35.7803 523.899 35.4337 523.589 35.1761C523.278 34.9186 522.892 34.7898 522.43 34.7898C521.956 34.7898 521.562 34.9186 521.248 35.1761C520.937 35.4337 520.704 35.7803 520.549 36.2159C520.397 36.6477 520.322 37.1307 520.322 37.6648C520.322 38.1951 520.397 38.6761 520.549 39.108C520.704 39.5398 520.937 39.8845 521.248 40.142C521.562 40.3958 521.956 40.5227 522.43 40.5227ZM530.403 36.8864V42H528.346V33.2727H530.312V34.7557H530.414C530.615 34.267 530.935 33.8788 531.374 33.5909C531.817 33.303 532.365 33.1591 533.016 33.1591C533.619 33.1591 534.143 33.2879 534.59 33.5455C535.041 33.803 535.389 34.1761 535.636 34.6648C535.886 35.1534 536.009 35.7462 536.005 36.4432V42H533.948V36.7614C533.948 36.178 533.797 35.7216 533.494 35.392C533.194 35.0625 532.78 34.8977 532.249 34.8977C531.889 34.8977 531.569 34.9773 531.289 35.1364C531.013 35.2917 530.795 35.517 530.636 35.8125C530.48 36.108 530.403 36.4659 530.403 36.8864ZM543.386 36.3068V38H538.147V36.3068H543.386ZM549.413 42.1705C548.538 42.1705 547.782 41.9886 547.146 41.625C546.513 41.2576 546.026 40.7386 545.685 40.0682C545.344 39.3939 545.174 38.6004 545.174 37.6875C545.174 36.7898 545.344 36.0019 545.685 35.3239C546.03 34.642 546.511 34.1117 547.129 33.733C547.746 33.3504 548.471 33.1591 549.305 33.1591C549.843 33.1591 550.35 33.2462 550.827 33.4205C551.308 33.5909 551.733 33.8561 552.1 34.2159C552.471 34.5758 552.763 35.0341 552.975 35.5909C553.187 36.1439 553.293 36.803 553.293 37.5682V38.1989H546.14V36.8125H551.322C551.318 36.4186 551.233 36.0682 551.066 35.7614C550.899 35.4508 550.666 35.2064 550.367 35.0284C550.072 34.8504 549.727 34.7614 549.333 34.7614C548.913 34.7614 548.543 34.8636 548.225 35.0682C547.907 35.2689 547.659 35.5341 547.481 35.8636C547.307 36.1894 547.218 36.5473 547.214 36.9375V38.1477C547.214 38.6553 547.307 39.0909 547.492 39.4545C547.678 39.8144 547.937 40.0909 548.271 40.2841C548.604 40.4735 548.994 40.5682 549.441 40.5682C549.74 40.5682 550.011 40.5265 550.254 40.4432C550.496 40.3561 550.706 40.2292 550.884 40.0625C551.062 39.8958 551.197 39.6894 551.288 39.4432L553.208 39.6591C553.087 40.1667 552.856 40.6098 552.515 40.9886C552.178 41.3636 551.746 41.6553 551.219 41.8636C550.693 42.0682 550.091 42.1705 549.413 42.1705ZM556.528 33.2727L558.289 36.4943L560.079 33.2727H562.255L559.624 37.6364L562.3 42H560.136L558.289 38.858L556.46 42H554.278L556.937 37.6364L554.346 33.2727H556.528ZM567.381 42.1705C566.506 42.1705 565.751 41.9886 565.114 41.625C564.482 41.2576 563.995 40.7386 563.654 40.0682C563.313 39.3939 563.143 38.6004 563.143 37.6875C563.143 36.7898 563.313 36.0019 563.654 35.3239C563.999 34.642 564.48 34.1117 565.097 33.733C565.715 33.3504 566.44 33.1591 567.273 33.1591C567.811 33.1591 568.319 33.2462 568.796 33.4205C569.277 33.5909 569.701 33.8561 570.069 34.2159C570.44 34.5758 570.732 35.0341 570.944 35.5909C571.156 36.1439 571.262 36.803 571.262 37.5682V38.1989H564.109V36.8125H569.29C569.287 36.4186 569.201 36.0682 569.035 35.7614C568.868 35.4508 568.635 35.2064 568.336 35.0284C568.04 34.8504 567.696 34.7614 567.302 34.7614C566.881 34.7614 566.512 34.8636 566.194 35.0682C565.876 35.2689 565.628 35.5341 565.45 35.8636C565.275 36.1894 565.186 36.5473 565.183 36.9375V38.1477C565.183 38.6553 565.275 39.0909 565.461 39.4545C565.647 39.8144 565.906 40.0909 566.239 40.2841C566.573 40.4735 566.963 40.5682 567.41 40.5682C567.709 40.5682 567.98 40.5265 568.222 40.4432C568.465 40.3561 568.675 40.2292 568.853 40.0625C569.031 39.8958 569.165 39.6894 569.256 39.4432L571.177 39.6591C571.056 40.1667 570.825 40.6098 570.484 40.9886C570.147 41.3636 569.715 41.6553 569.188 41.8636C568.662 42.0682 568.059 42.1705 567.381 42.1705ZM573.002 42V33.2727H574.996V34.7273H575.087C575.246 34.2235 575.519 33.8352 575.906 33.5625C576.296 33.286 576.741 33.1477 577.241 33.1477C577.354 33.1477 577.481 33.1534 577.621 33.1648C577.765 33.1723 577.885 33.1856 577.979 33.2045V35.0966C577.892 35.0663 577.754 35.0398 577.565 35.017C577.379 34.9905 577.199 34.9773 577.025 34.9773C576.65 34.9773 576.313 35.0587 576.013 35.2216C575.718 35.3807 575.485 35.6023 575.315 35.8864C575.144 36.1705 575.059 36.4981 575.059 36.8693V42H573.002ZM582.793 42.1705C581.922 42.1705 581.174 41.9792 580.549 41.5966C579.928 41.214 579.449 40.6856 579.112 40.0114C578.778 39.3333 578.612 38.553 578.612 37.6705C578.612 36.7841 578.782 36.0019 579.123 35.3239C579.464 34.642 579.945 34.1117 580.566 33.733C581.191 33.3504 581.93 33.1591 582.782 33.1591C583.49 33.1591 584.117 33.2898 584.663 33.5511C585.212 33.8087 585.649 34.1742 585.975 34.6477C586.301 35.1174 586.487 35.6667 586.532 36.2955H584.566C584.487 35.875 584.297 35.5246 583.998 35.2443C583.702 34.9602 583.307 34.8182 582.81 34.8182C582.39 34.8182 582.021 34.9318 581.702 35.1591C581.384 35.3826 581.136 35.7045 580.958 36.125C580.784 36.5455 580.697 37.0492 580.697 37.6364C580.697 38.2311 580.784 38.7424 580.958 39.1705C581.132 39.5947 581.377 39.9223 581.691 40.1534C582.009 40.3807 582.382 40.4943 582.81 40.4943C583.113 40.4943 583.384 40.4375 583.623 40.3239C583.865 40.2064 584.068 40.0379 584.231 39.8182C584.394 39.5985 584.505 39.3314 584.566 39.017H586.532C586.483 39.6345 586.301 40.1818 585.987 40.6591C585.672 41.1326 585.244 41.5038 584.702 41.7727C584.161 42.0379 583.524 42.1705 582.793 42.1705ZM588.221 42V33.2727H590.278V42H588.221ZM589.255 32.0341C588.929 32.0341 588.649 31.9261 588.414 31.7102C588.179 31.4905 588.062 31.2273 588.062 30.9205C588.062 30.6098 588.179 30.3466 588.414 30.1307C588.649 29.911 588.929 29.8011 589.255 29.8011C589.585 29.8011 589.865 29.911 590.096 30.1307C590.331 30.3466 590.448 30.6098 590.448 30.9205C590.448 31.2273 590.331 31.4905 590.096 31.7102C589.865 31.9261 589.585 32.0341 589.255 32.0341ZM599.29 35.5795L597.415 35.7841C597.362 35.5947 597.27 35.4167 597.137 35.25C597.008 35.0833 596.834 34.9489 596.614 34.8466C596.395 34.7443 596.126 34.6932 595.808 34.6932C595.379 34.6932 595.02 34.786 594.728 34.9716C594.44 35.1572 594.298 35.3977 594.302 35.6932C594.298 35.947 594.391 36.1534 594.58 36.3125C594.773 36.4716 595.092 36.6023 595.535 36.7045L597.023 37.0227C597.849 37.2008 598.463 37.483 598.864 37.8693C599.27 38.2557 599.474 38.7614 599.478 39.3864C599.474 39.9356 599.313 40.4205 598.995 40.8409C598.681 41.2576 598.243 41.5833 597.683 41.8182C597.122 42.053 596.478 42.1705 595.751 42.1705C594.683 42.1705 593.823 41.947 593.171 41.5C592.52 41.0492 592.131 40.4223 592.006 39.6193L594.012 39.4261C594.103 39.8201 594.296 40.1174 594.592 40.3182C594.887 40.5189 595.272 40.6193 595.745 40.6193C596.234 40.6193 596.626 40.5189 596.921 40.3182C597.22 40.1174 597.37 39.8693 597.37 39.5739C597.37 39.3239 597.273 39.1174 597.08 38.9545C596.891 38.7917 596.595 38.6667 596.194 38.5795L594.705 38.267C593.868 38.0928 593.249 37.7992 592.847 37.3864C592.446 36.9697 592.247 36.4432 592.251 35.8068C592.247 35.2689 592.393 34.803 592.688 34.4091C592.987 34.0114 593.402 33.7045 593.933 33.4886C594.467 33.2689 595.082 33.1591 595.779 33.1591C596.802 33.1591 597.607 33.3769 598.194 33.8125C598.785 34.2481 599.15 34.8371 599.29 35.5795ZM605.038 42.1705C604.163 42.1705 603.407 41.9886 602.771 41.625C602.138 41.2576 601.651 40.7386 601.31 40.0682C600.969 39.3939 600.799 38.6004 600.799 37.6875C600.799 36.7898 600.969 36.0019 601.31 35.3239C601.655 34.642 602.136 34.1117 602.754 33.733C603.371 33.3504 604.096 33.1591 604.93 33.1591C605.468 33.1591 605.975 33.2462 606.452 33.4205C606.933 33.5909 607.358 33.8561 607.725 34.2159C608.096 34.5758 608.388 35.0341 608.6 35.5909C608.812 36.1439 608.918 36.803 608.918 37.5682V38.1989H601.765V36.8125H606.947C606.943 36.4186 606.858 36.0682 606.691 35.7614C606.524 35.4508 606.291 35.2064 605.992 35.0284C605.697 34.8504 605.352 34.7614 604.958 34.7614C604.538 34.7614 604.168 34.8636 603.85 35.0682C603.532 35.2689 603.284 35.5341 603.106 35.8636C602.932 36.1894 602.843 36.5473 602.839 36.9375V38.1477C602.839 38.6553 602.932 39.0909 603.117 39.4545C603.303 39.8144 603.562 40.0909 603.896 40.2841C604.229 40.4735 604.619 40.5682 605.066 40.5682C605.365 40.5682 605.636 40.5265 605.879 40.4432C606.121 40.3561 606.331 40.2292 606.509 40.0625C606.687 39.8958 606.822 39.6894 606.913 39.4432L608.833 39.6591C608.712 40.1667 608.481 40.6098 608.14 40.9886C607.803 41.3636 607.371 41.6553 606.844 41.8636C606.318 42.0682 605.716 42.1705 605.038 42.1705Z" fill="#1E293B"/>
<path d="M744.561 34.2898H742.436C742.375 33.9413 742.264 33.6326 742.101 33.3636C741.938 33.0909 741.735 32.8598 741.493 32.6705C741.25 32.4811 740.974 32.339 740.663 32.2443C740.357 32.1458 740.025 32.0966 739.669 32.0966C739.036 32.0966 738.476 32.2557 737.987 32.5739C737.499 32.8883 737.116 33.3504 736.839 33.9602C736.563 34.5663 736.425 35.3068 736.425 36.1818C736.425 37.072 736.563 37.822 736.839 38.4318C737.12 39.0379 737.502 39.4962 737.987 39.8068C738.476 40.1136 739.035 40.267 739.663 40.267C740.012 40.267 740.338 40.2216 740.641 40.1307C740.947 40.036 741.222 39.8977 741.464 39.7159C741.711 39.5341 741.917 39.3106 742.084 39.0455C742.254 38.7803 742.372 38.4773 742.436 38.1364L744.561 38.1477C744.482 38.7008 744.309 39.2197 744.044 39.7045C743.783 40.1894 743.44 40.6174 743.016 40.9886C742.591 41.3561 742.095 41.6439 741.527 41.8523C740.959 42.0568 740.328 42.1591 739.635 42.1591C738.612 42.1591 737.699 41.9223 736.896 41.4489C736.093 40.9754 735.461 40.2917 734.999 39.3977C734.536 38.5038 734.305 37.4318 734.305 36.1818C734.305 34.928 734.538 33.8561 735.004 32.9659C735.47 32.072 736.105 31.3883 736.908 30.9148C737.711 30.4413 738.62 30.2045 739.635 30.2045C740.283 30.2045 740.885 30.2955 741.442 30.4773C741.999 30.6591 742.495 30.9261 742.93 31.2784C743.366 31.6269 743.724 32.0549 744.004 32.5625C744.288 33.0663 744.474 33.642 744.561 34.2898ZM748.457 36.8864V42H746.401V30.3636H748.412V34.7557H748.514C748.719 34.2633 749.035 33.875 749.463 33.5909C749.895 33.303 750.444 33.1591 751.111 33.1591C751.717 33.1591 752.245 33.286 752.696 33.5398C753.147 33.7936 753.495 34.1648 753.741 34.6534C753.991 35.142 754.116 35.7386 754.116 36.4432V42H752.06V36.7614C752.06 36.1742 751.908 35.7178 751.605 35.392C751.306 35.0625 750.885 34.8977 750.344 34.8977C749.98 34.8977 749.654 34.9773 749.366 35.1364C749.082 35.2917 748.859 35.517 748.696 35.8125C748.537 36.108 748.457 36.4659 748.457 36.8864ZM758.724 42.1761C758.171 42.1761 757.673 42.0777 757.23 41.8807C756.791 41.6799 756.442 41.3845 756.185 40.9943C755.931 40.6042 755.804 40.1231 755.804 39.5511C755.804 39.0587 755.895 38.6515 756.077 38.3295C756.259 38.0076 756.507 37.75 756.821 37.5568C757.135 37.3636 757.49 37.2178 757.884 37.1193C758.281 37.017 758.692 36.9432 759.116 36.8977C759.628 36.8447 760.043 36.7973 760.361 36.7557C760.679 36.7102 760.91 36.642 761.054 36.5511C761.202 36.4564 761.276 36.3106 761.276 36.1136V36.0795C761.276 35.6515 761.149 35.3201 760.895 35.0852C760.641 34.8504 760.276 34.733 759.798 34.733C759.295 34.733 758.895 34.8428 758.599 35.0625C758.308 35.2822 758.111 35.5417 758.009 35.8409L756.088 35.5682C756.24 35.0379 756.49 34.5947 756.838 34.2386C757.187 33.8788 757.613 33.6098 758.116 33.4318C758.62 33.25 759.177 33.1591 759.787 33.1591C760.207 33.1591 760.626 33.2083 761.043 33.3068C761.459 33.4053 761.84 33.5682 762.185 33.7955C762.529 34.0189 762.806 34.3239 763.014 34.7102C763.226 35.0966 763.332 35.5795 763.332 36.1591V42H761.355V40.8011H761.287C761.162 41.0436 760.986 41.2708 760.759 41.483C760.535 41.6913 760.253 41.8598 759.912 41.9886C759.575 42.1136 759.179 42.1761 758.724 42.1761ZM759.259 40.6648C759.671 40.6648 760.029 40.5833 760.332 40.4205C760.635 40.2538 760.868 40.0341 761.031 39.7614C761.198 39.4886 761.281 39.1913 761.281 38.8693V37.8409C761.217 37.8939 761.107 37.9432 760.952 37.9886C760.8 38.0341 760.63 38.0739 760.44 38.108C760.251 38.142 760.063 38.1723 759.878 38.1989C759.692 38.2254 759.531 38.2481 759.395 38.267C759.088 38.3087 758.813 38.3769 758.571 38.4716C758.329 38.5663 758.137 38.6989 757.997 38.8693C757.857 39.036 757.787 39.2519 757.787 39.517C757.787 39.8958 757.925 40.1818 758.202 40.375C758.478 40.5682 758.83 40.6648 759.259 40.6648ZM769.759 33.2727V34.8636H764.741V33.2727H769.759ZM765.98 31.1818H768.037V39.375C768.037 39.6515 768.079 39.8636 768.162 40.0114C768.249 40.1553 768.363 40.2538 768.503 40.3068C768.643 40.3598 768.798 40.3864 768.969 40.3864C769.098 40.3864 769.215 40.3769 769.321 40.358C769.431 40.339 769.514 40.322 769.571 40.3068L769.918 41.9148C769.808 41.9527 769.651 41.9943 769.446 42.0398C769.245 42.0852 768.999 42.1117 768.707 42.1193C768.192 42.1345 767.728 42.0568 767.315 41.8864C766.902 41.7121 766.575 41.4432 766.332 41.0795C766.094 40.7159 765.976 40.2614 765.98 39.7159V31.1818ZM777.249 42L774.783 33.2727H776.879L778.413 39.4091H778.493L780.061 33.2727H782.135L783.703 39.375H783.788L785.3 33.2727H787.402L784.93 42H782.788L781.152 36.1023H781.033L779.396 42H777.249ZM788.838 42V33.2727H790.895V42H788.838ZM789.872 32.0341C789.546 32.0341 789.266 31.9261 789.031 31.7102C788.796 31.4905 788.679 31.2273 788.679 30.9205C788.679 30.6098 788.796 30.3466 789.031 30.1307C789.266 29.911 789.546 29.8011 789.872 29.8011C790.202 29.8011 790.482 29.911 790.713 30.1307C790.948 30.3466 791.065 30.6098 791.065 30.9205C791.065 31.2273 790.948 31.4905 790.713 31.7102C790.482 31.9261 790.202 32.0341 789.872 32.0341ZM797.368 33.2727V34.8636H792.351V33.2727H797.368ZM793.589 31.1818H795.646V39.375C795.646 39.6515 795.688 39.8636 795.771 40.0114C795.858 40.1553 795.972 40.2538 796.112 40.3068C796.252 40.3598 796.408 40.3864 796.578 40.3864C796.707 40.3864 796.824 40.3769 796.93 40.358C797.04 40.339 797.124 40.322 797.18 40.3068L797.527 41.9148C797.417 41.9527 797.26 41.9943 797.055 42.0398C796.855 42.0852 796.608 42.1117 796.317 42.1193C795.802 42.1345 795.338 42.0568 794.925 41.8864C794.512 41.7121 794.184 41.4432 793.942 41.0795C793.703 40.7159 793.586 40.2614 793.589 39.7159V31.1818ZM801.332 36.8864V42H799.276V30.3636H801.287V34.7557H801.389C801.594 34.2633 801.91 33.875 802.338 33.5909C802.77 33.303 803.319 33.1591 803.986 33.1591C804.592 33.1591 805.12 33.286 805.571 33.5398C806.022 33.7936 806.37 34.1648 806.616 34.6534C806.866 35.142 806.991 35.7386 806.991 36.4432V42H804.935V36.7614C804.935 36.1742 804.783 35.7178 804.48 35.392C804.181 35.0625 803.76 34.8977 803.219 34.8977C802.855 34.8977 802.529 34.9773 802.241 35.1364C801.957 35.2917 801.734 35.517 801.571 35.8125C801.412 36.108 801.332 36.4659 801.332 36.8864ZM817.415 33.2727V34.8636H812.398V33.2727H817.415ZM813.636 31.1818H815.693V39.375C815.693 39.6515 815.735 39.8636 815.818 40.0114C815.905 40.1553 816.019 40.2538 816.159 40.3068C816.299 40.3598 816.455 40.3864 816.625 40.3864C816.754 40.3864 816.871 40.3769 816.977 40.358C817.087 40.339 817.17 40.322 817.227 40.3068L817.574 41.9148C817.464 41.9527 817.307 41.9943 817.102 42.0398C816.902 42.0852 816.655 42.1117 816.364 42.1193C815.848 42.1345 815.384 42.0568 814.972 41.8864C814.559 41.7121 814.231 41.4432 813.989 41.0795C813.75 40.7159 813.633 40.2614 813.636 39.7159V31.1818ZM821.379 36.8864V42H819.322V30.3636H821.334V34.7557H821.436C821.641 34.2633 821.957 33.875 822.385 33.5909C822.817 33.303 823.366 33.1591 824.033 33.1591C824.639 33.1591 825.167 33.286 825.618 33.5398C826.069 33.7936 826.417 34.1648 826.663 34.6534C826.913 35.142 827.038 35.7386 827.038 36.4432V42H824.982V36.7614C824.982 36.1742 824.83 35.7178 824.527 35.392C824.228 35.0625 823.807 34.8977 823.266 34.8977C822.902 34.8977 822.576 34.9773 822.288 35.1364C822.004 35.2917 821.781 35.517 821.618 35.8125C821.459 36.108 821.379 36.4659 821.379 36.8864ZM832.999 42.1705C832.124 42.1705 831.368 41.9886 830.732 41.625C830.099 41.2576 829.612 40.7386 829.271 40.0682C828.93 39.3939 828.76 38.6004 828.76 37.6875C828.76 36.7898 828.93 36.0019 829.271 35.3239C829.616 34.642 830.097 34.1117 830.714 33.733C831.332 33.3504 832.057 33.1591 832.891 33.1591C833.429 33.1591 833.936 33.2462 834.413 33.4205C834.894 33.5909 835.319 33.8561 835.686 34.2159C836.057 34.5758 836.349 35.0341 836.561 35.5909C836.773 36.1439 836.879 36.803 836.879 37.5682V38.1989H829.726V36.8125H834.908C834.904 36.4186 834.819 36.0682 834.652 35.7614C834.485 35.4508 834.252 35.2064 833.953 35.0284C833.658 34.8504 833.313 34.7614 832.919 34.7614C832.499 34.7614 832.129 34.8636 831.811 35.0682C831.493 35.2689 831.245 35.5341 831.067 35.8636C830.893 36.1894 830.804 36.5473 830.8 36.9375V38.1477C830.8 38.6553 830.893 39.0909 831.078 39.4545C831.264 39.8144 831.523 40.0909 831.857 40.2841C832.19 40.4735 832.58 40.5682 833.027 40.5682C833.326 40.5682 833.597 40.5265 833.839 40.4432C834.082 40.3561 834.292 40.2292 834.47 40.0625C834.648 39.8958 834.783 39.6894 834.874 39.4432L836.794 39.6591C836.673 40.1667 836.442 40.6098 836.101 40.9886C835.764 41.3636 835.332 41.6553 834.805 41.8636C834.279 42.0682 833.677 42.1705 832.999 42.1705ZM846.946 33.2727V34.8636H841.929V33.2727H846.946ZM843.168 31.1818H845.224V39.375C845.224 39.6515 845.266 39.8636 845.349 40.0114C845.437 40.1553 845.55 40.2538 845.69 40.3068C845.83 40.3598 845.986 40.3864 846.156 40.3864C846.285 40.3864 846.402 40.3769 846.509 40.358C846.618 40.339 846.702 40.322 846.759 40.3068L847.105 41.9148C846.995 41.9527 846.838 41.9943 846.634 42.0398C846.433 42.0852 846.187 42.1117 845.895 42.1193C845.38 42.1345 844.916 42.0568 844.503 41.8864C844.09 41.7121 843.762 41.4432 843.52 41.0795C843.281 40.7159 843.164 40.2614 843.168 39.7159V31.1818ZM852.436 42.1705C851.561 42.1705 850.805 41.9886 850.169 41.625C849.536 41.2576 849.05 40.7386 848.709 40.0682C848.368 39.3939 848.197 38.6004 848.197 37.6875C848.197 36.7898 848.368 36.0019 848.709 35.3239C849.054 34.642 849.535 34.1117 850.152 33.733C850.769 33.3504 851.495 33.1591 852.328 33.1591C852.866 33.1591 853.374 33.2462 853.851 33.4205C854.332 33.5909 854.756 33.8561 855.124 34.2159C855.495 34.5758 855.786 35.0341 855.999 35.5909C856.211 36.1439 856.317 36.803 856.317 37.5682V38.1989H849.163V36.8125H854.345C854.341 36.4186 854.256 36.0682 854.089 35.7614C853.923 35.4508 853.69 35.2064 853.391 35.0284C853.095 34.8504 852.75 34.7614 852.357 34.7614C851.936 34.7614 851.567 34.8636 851.249 35.0682C850.93 35.2689 850.682 35.5341 850.504 35.8636C850.33 36.1894 850.241 36.5473 850.237 36.9375V38.1477C850.237 38.6553 850.33 39.0909 850.516 39.4545C850.701 39.8144 850.961 40.0909 851.294 40.2841C851.627 40.4735 852.018 40.5682 852.464 40.5682C852.764 40.5682 853.035 40.5265 853.277 40.4432C853.519 40.3561 853.73 40.2292 853.908 40.0625C854.086 39.8958 854.22 39.6894 854.311 39.4432L856.232 39.6591C856.11 40.1667 855.879 40.6098 855.538 40.9886C855.201 41.3636 854.769 41.6553 854.243 41.8636C853.716 42.0682 853.114 42.1705 852.436 42.1705ZM860.568 42.1761C860.015 42.1761 859.517 42.0777 859.074 41.8807C858.634 41.6799 858.286 41.3845 858.028 40.9943C857.775 40.6042 857.648 40.1231 857.648 39.5511C857.648 39.0587 857.739 38.6515 857.92 38.3295C858.102 38.0076 858.35 37.75 858.665 37.5568C858.979 37.3636 859.333 37.2178 859.727 37.1193C860.125 37.017 860.536 36.9432 860.96 36.8977C861.472 36.8447 861.886 36.7973 862.205 36.7557C862.523 36.7102 862.754 36.642 862.898 36.5511C863.045 36.4564 863.119 36.3106 863.119 36.1136V36.0795C863.119 35.6515 862.992 35.3201 862.739 35.0852C862.485 34.8504 862.119 34.733 861.642 34.733C861.138 34.733 860.739 34.8428 860.443 35.0625C860.152 35.2822 859.955 35.5417 859.852 35.8409L857.932 35.5682C858.083 35.0379 858.333 34.5947 858.682 34.2386C859.03 33.8788 859.456 33.6098 859.96 33.4318C860.464 33.25 861.021 33.1591 861.631 33.1591C862.051 33.1591 862.47 33.2083 862.886 33.3068C863.303 33.4053 863.684 33.5682 864.028 33.7955C864.373 34.0189 864.65 34.3239 864.858 34.7102C865.07 35.0966 865.176 35.5795 865.176 36.1591V42H863.199V40.8011H863.131C863.006 41.0436 862.83 41.2708 862.602 41.483C862.379 41.6913 862.097 41.8598 861.756 41.9886C861.419 42.1136 861.023 42.1761 860.568 42.1761ZM861.102 40.6648C861.515 40.6648 861.873 40.5833 862.176 40.4205C862.479 40.2538 862.712 40.0341 862.875 39.7614C863.042 39.4886 863.125 39.1913 863.125 38.8693V37.8409C863.061 37.8939 862.951 37.9432 862.795 37.9886C862.644 38.0341 862.473 38.0739 862.284 38.108C862.095 38.142 861.907 38.1723 861.722 38.1989C861.536 38.2254 861.375 38.2481 861.239 38.267C860.932 38.3087 860.657 38.3769 860.415 38.4716C860.172 38.5663 859.981 38.6989 859.841 38.8693C859.701 39.036 859.631 39.2519 859.631 39.517C859.631 39.8958 859.769 40.1818 860.045 40.375C860.322 40.5682 860.674 40.6648 861.102 40.6648ZM867.244 42V33.2727H869.21V34.7557H869.312C869.494 34.2557 869.795 33.8655 870.216 33.5852C870.636 33.3011 871.138 33.1591 871.722 33.1591C872.312 33.1591 872.811 33.303 873.216 33.5909C873.625 33.875 873.913 34.2633 874.08 34.7557H874.17C874.364 34.2708 874.689 33.8845 875.148 33.5966C875.61 33.3049 876.157 33.1591 876.79 33.1591C877.593 33.1591 878.248 33.4129 878.756 33.9205C879.263 34.428 879.517 35.1686 879.517 36.142V42H877.455V36.4602C877.455 35.9186 877.311 35.5227 877.023 35.2727C876.735 35.0189 876.383 34.892 875.966 34.892C875.47 34.892 875.081 35.0473 874.801 35.358C874.525 35.6648 874.386 36.0644 874.386 36.5568V42H872.369V36.375C872.369 35.9242 872.233 35.5644 871.96 35.2955C871.691 35.0265 871.339 34.892 870.903 34.892C870.608 34.892 870.339 34.9678 870.097 35.1193C869.854 35.267 869.661 35.4773 869.517 35.75C869.373 36.0189 869.301 36.3333 869.301 36.6932V42H867.244Z" fill="#1E293B"/>
<path d="M1069.57 36.1818C1069.57 37.4356 1069.33 38.5095 1068.86 39.4034C1068.4 40.2936 1067.76 40.9754 1066.96 41.4489C1066.15 41.9223 1065.24 42.1591 1064.22 42.1591C1063.2 42.1591 1062.29 41.9223 1061.48 41.4489C1060.68 40.9716 1060.04 40.2879 1059.57 39.3977C1059.11 38.5038 1058.88 37.4318 1058.88 36.1818C1058.88 34.928 1059.11 33.8561 1059.57 32.9659C1060.04 32.072 1060.68 31.3883 1061.48 30.9148C1062.29 30.4413 1063.2 30.2045 1064.22 30.2045C1065.24 30.2045 1066.15 30.4413 1066.96 30.9148C1067.76 31.3883 1068.4 32.072 1068.86 32.9659C1069.33 33.8561 1069.57 34.928 1069.57 36.1818ZM1067.45 36.1818C1067.45 35.2992 1067.31 34.5549 1067.03 33.9489C1066.76 33.339 1066.38 32.8788 1065.9 32.5682C1065.41 32.2538 1064.85 32.0966 1064.22 32.0966C1063.59 32.0966 1063.03 32.2538 1062.55 32.5682C1062.06 32.8788 1061.68 33.339 1061.4 33.9489C1061.13 34.5549 1061 35.2992 1061 36.1818C1061 37.0644 1061.13 37.8106 1061.4 38.4205C1061.68 39.0265 1062.06 39.4867 1062.55 39.8011C1063.03 40.1117 1063.59 40.267 1064.22 40.267C1064.85 40.267 1065.41 40.1117 1065.9 39.8011C1066.38 39.4867 1066.76 39.0265 1067.03 38.4205C1067.31 37.8106 1067.45 37.0644 1067.45 36.1818ZM1075.89 33.2727V34.8636H1070.73V33.2727H1075.89ZM1072.02 42V32.4489C1072.02 31.8617 1072.14 31.3731 1072.39 30.983C1072.63 30.5928 1072.96 30.3011 1073.37 30.108C1073.79 29.9148 1074.25 29.8182 1074.75 29.8182C1075.11 29.8182 1075.42 29.8466 1075.7 29.9034C1075.97 29.9602 1076.18 30.0114 1076.31 30.0568L1075.9 31.6477C1075.82 31.6212 1075.71 31.5947 1075.57 31.5682C1075.44 31.5379 1075.29 31.5227 1075.13 31.5227C1074.75 31.5227 1074.48 31.6155 1074.32 31.8011C1074.16 31.983 1074.08 32.2443 1074.08 32.5852V42H1072.02ZM1081.92 33.2727V34.8636H1076.76V33.2727H1081.92ZM1078.05 42V32.4489C1078.05 31.8617 1078.17 31.3731 1078.42 30.983C1078.66 30.5928 1078.99 30.3011 1079.41 30.108C1079.82 29.9148 1080.28 29.8182 1080.78 29.8182C1081.14 29.8182 1081.45 29.8466 1081.73 29.9034C1082.01 29.9602 1082.21 30.0114 1082.34 30.0568L1081.93 31.6477C1081.85 31.6212 1081.74 31.5947 1081.6 31.5682C1081.47 31.5379 1081.32 31.5227 1081.16 31.5227C1080.78 31.5227 1080.51 31.6155 1080.35 31.8011C1080.19 31.983 1080.12 32.2443 1080.12 32.5852V42H1078.05ZM1087.07 42.1705C1086.19 42.1705 1085.44 41.9886 1084.8 41.625C1084.17 41.2576 1083.68 40.7386 1083.34 40.0682C1083 39.3939 1082.83 38.6004 1082.83 37.6875C1082.83 36.7898 1083 36.0019 1083.34 35.3239C1083.69 34.642 1084.17 34.1117 1084.78 33.733C1085.4 33.3504 1086.13 33.1591 1086.96 33.1591C1087.5 33.1591 1088.01 33.2462 1088.48 33.4205C1088.96 33.5909 1089.39 33.8561 1089.76 34.2159C1090.13 34.5758 1090.42 35.0341 1090.63 35.5909C1090.84 36.1439 1090.95 36.803 1090.95 37.5682V38.1989H1083.8V36.8125H1088.98C1088.97 36.4186 1088.89 36.0682 1088.72 35.7614C1088.56 35.4508 1088.32 35.2064 1088.02 35.0284C1087.73 34.8504 1087.38 34.7614 1086.99 34.7614C1086.57 34.7614 1086.2 34.8636 1085.88 35.0682C1085.56 35.2689 1085.32 35.5341 1085.14 35.8636C1084.96 36.1894 1084.87 36.5473 1084.87 36.9375V38.1477C1084.87 38.6553 1084.96 39.0909 1085.15 39.4545C1085.33 39.8144 1085.59 40.0909 1085.93 40.2841C1086.26 40.4735 1086.65 40.5682 1087.1 40.5682C1087.4 40.5682 1087.67 40.5265 1087.91 40.4432C1088.15 40.3561 1088.36 40.2292 1088.54 40.0625C1088.72 39.8958 1088.85 39.6894 1088.94 39.4432L1090.86 39.6591C1090.74 40.1667 1090.51 40.6098 1090.17 40.9886C1089.83 41.3636 1089.4 41.6553 1088.88 41.8636C1088.35 42.0682 1087.75 42.1705 1087.07 42.1705ZM1092.69 42V33.2727H1094.68V34.7273H1094.77C1094.93 34.2235 1095.21 33.8352 1095.59 33.5625C1095.98 33.286 1096.43 33.1477 1096.93 33.1477C1097.04 33.1477 1097.17 33.1534 1097.31 33.1648C1097.45 33.1723 1097.57 33.1856 1097.67 33.2045V35.0966C1097.58 35.0663 1097.44 35.0398 1097.25 35.017C1097.07 34.9905 1096.89 34.9773 1096.71 34.9773C1096.34 34.9773 1096 35.0587 1095.7 35.2216C1095.41 35.3807 1095.17 35.6023 1095 35.8864C1094.83 36.1705 1094.75 36.4981 1094.75 36.8693V42H1092.69Z" fill="#1E293B"/>
<path d="M248.42 30.3636V42H246.312V30.3636H248.42ZM252.668 36.8864V42H250.612V33.2727H252.577V34.7557H252.68C252.88 34.267 253.201 33.8788 253.64 33.5909C254.083 33.303 254.63 33.1591 255.282 33.1591C255.884 33.1591 256.409 33.2879 256.856 33.5455C257.307 33.803 257.655 34.1761 257.901 34.6648C258.151 35.1534 258.274 35.7462 258.271 36.4432V42H256.214V36.7614C256.214 36.178 256.062 35.7216 255.759 35.392C255.46 35.0625 255.045 34.8977 254.515 34.8977C254.155 34.8977 253.835 34.9773 253.555 35.1364C253.278 35.2917 253.06 35.517 252.901 35.8125C252.746 36.108 252.668 36.4659 252.668 36.8864ZM264.719 33.2727V34.8636H259.702V33.2727H264.719ZM260.941 31.1818H262.998V39.375C262.998 39.6515 263.04 39.8636 263.123 40.0114C263.21 40.1553 263.324 40.2538 263.464 40.3068C263.604 40.3598 263.759 40.3864 263.93 40.3864C264.058 40.3864 264.176 40.3769 264.282 40.358C264.392 40.339 264.475 40.322 264.532 40.3068L264.879 41.9148C264.769 41.9527 264.612 41.9943 264.407 42.0398C264.206 42.0852 263.96 42.1117 263.668 42.1193C263.153 42.1345 262.689 42.0568 262.276 41.8864C261.863 41.7121 261.536 41.4432 261.293 41.0795C261.055 40.7159 260.937 40.2614 260.941 39.7159V31.1818ZM266.44 42V33.2727H268.434V34.7273H268.525C268.684 34.2235 268.957 33.8352 269.343 33.5625C269.733 33.286 270.178 33.1477 270.678 33.1477C270.792 33.1477 270.919 33.1534 271.059 33.1648C271.203 33.1723 271.322 33.1856 271.417 33.2045V35.0966C271.33 35.0663 271.192 35.0398 271.002 35.017C270.817 34.9905 270.637 34.9773 270.462 34.9773C270.087 34.9773 269.75 35.0587 269.451 35.2216C269.156 35.3807 268.923 35.6023 268.752 35.8864C268.582 36.1705 268.496 36.4981 268.496 36.8693V42H266.44ZM276.231 42.1705C275.379 42.1705 274.64 41.983 274.015 41.608C273.39 41.233 272.905 40.7083 272.56 40.0341C272.219 39.3598 272.049 38.572 272.049 37.6705C272.049 36.7689 272.219 35.9792 272.56 35.3011C272.905 34.6231 273.39 34.0966 274.015 33.7216C274.64 33.3466 275.379 33.1591 276.231 33.1591C277.083 33.1591 277.822 33.3466 278.447 33.7216C279.072 34.0966 279.555 34.6231 279.896 35.3011C280.24 35.9792 280.413 36.7689 280.413 37.6705C280.413 38.572 280.24 39.3598 279.896 40.0341C279.555 40.7083 279.072 41.233 278.447 41.608C277.822 41.983 277.083 42.1705 276.231 42.1705ZM276.242 40.5227C276.704 40.5227 277.091 40.3958 277.401 40.142C277.712 39.8845 277.943 39.5398 278.094 39.108C278.25 38.6761 278.327 38.1951 278.327 37.6648C278.327 37.1307 278.25 36.6477 278.094 36.2159C277.943 35.7803 277.712 35.4337 277.401 35.1761C277.091 34.9186 276.704 34.7898 276.242 34.7898C275.769 34.7898 275.375 34.9186 275.06 35.1761C274.75 35.4337 274.517 35.7803 274.362 36.2159C274.21 36.6477 274.134 37.1307 274.134 37.6648C274.134 38.1951 274.21 38.6761 274.362 39.108C274.517 39.5398 274.75 39.8845 275.06 40.142C275.375 40.3958 275.769 40.5227 276.242 40.5227ZM289.934 42.1705C289.063 42.1705 288.315 41.9792 287.69 41.5966C287.068 41.214 286.589 40.6856 286.252 40.0114C285.919 39.3333 285.752 38.553 285.752 37.6705C285.752 36.7841 285.923 36.0019 286.263 35.3239C286.604 34.642 287.085 34.1117 287.707 33.733C288.332 33.3504 289.07 33.1591 289.923 33.1591C290.631 33.1591 291.258 33.2898 291.803 33.5511C292.353 33.8087 292.79 34.1742 293.116 34.6477C293.442 35.1174 293.627 35.6667 293.673 36.2955H291.707C291.627 35.875 291.438 35.5246 291.138 35.2443C290.843 34.9602 290.447 34.8182 289.951 34.8182C289.531 34.8182 289.161 34.9318 288.843 35.1591C288.525 35.3826 288.277 35.7045 288.099 36.125C287.924 36.5455 287.837 37.0492 287.837 37.6364C287.837 38.2311 287.924 38.7424 288.099 39.1705C288.273 39.5947 288.517 39.9223 288.832 40.1534C289.15 40.3807 289.523 40.4943 289.951 40.4943C290.254 40.4943 290.525 40.4375 290.763 40.3239C291.006 40.2064 291.209 40.0379 291.371 39.8182C291.534 39.5985 291.646 39.3314 291.707 39.017H293.673C293.623 39.6345 293.442 40.1818 293.127 40.6591C292.813 41.1326 292.385 41.5038 291.843 41.7727C291.301 42.0379 290.665 42.1705 289.934 42.1705ZM297.873 42.1761C297.32 42.1761 296.822 42.0777 296.379 41.8807C295.939 41.6799 295.591 41.3845 295.333 40.9943C295.079 40.6042 294.952 40.1231 294.952 39.5511C294.952 39.0587 295.043 38.6515 295.225 38.3295C295.407 38.0076 295.655 37.75 295.969 37.5568C296.284 37.3636 296.638 37.2178 297.032 37.1193C297.43 37.017 297.841 36.9432 298.265 36.8977C298.776 36.8447 299.191 36.7973 299.509 36.7557C299.827 36.7102 300.058 36.642 300.202 36.5511C300.35 36.4564 300.424 36.3106 300.424 36.1136V36.0795C300.424 35.6515 300.297 35.3201 300.043 35.0852C299.79 34.8504 299.424 34.733 298.947 34.733C298.443 34.733 298.043 34.8428 297.748 35.0625C297.456 35.2822 297.259 35.5417 297.157 35.8409L295.237 35.5682C295.388 35.0379 295.638 34.5947 295.987 34.2386C296.335 33.8788 296.761 33.6098 297.265 33.4318C297.769 33.25 298.326 33.1591 298.935 33.1591C299.356 33.1591 299.774 33.2083 300.191 33.3068C300.608 33.4053 300.988 33.5682 301.333 33.7955C301.678 34.0189 301.954 34.3239 302.163 34.7102C302.375 35.0966 302.481 35.5795 302.481 36.1591V42H300.504V40.8011H300.435C300.31 41.0436 300.134 41.2708 299.907 41.483C299.683 41.6913 299.401 41.8598 299.06 41.9886C298.723 42.1136 298.327 42.1761 297.873 42.1761ZM298.407 40.6648C298.82 40.6648 299.178 40.5833 299.481 40.4205C299.784 40.2538 300.017 40.0341 300.18 39.7614C300.346 39.4886 300.43 39.1913 300.43 38.8693V37.8409C300.365 37.8939 300.255 37.9432 300.1 37.9886C299.949 38.0341 299.778 38.0739 299.589 38.108C299.399 38.142 299.212 38.1723 299.026 38.1989C298.841 38.2254 298.68 38.2481 298.543 38.267C298.237 38.3087 297.962 38.3769 297.719 38.4716C297.477 38.5663 297.286 38.6989 297.146 38.8693C297.005 39.036 296.935 39.2519 296.935 39.517C296.935 39.8958 297.074 40.1818 297.35 40.375C297.627 40.5682 297.979 40.6648 298.407 40.6648ZM306.606 30.3636V42H304.549V30.3636H306.606ZM310.778 30.3636V42H308.721V30.3636H310.778Z" fill="#1E293B"/>
</svg>
