<svg width="34" height="34" viewBox="0 0 34 34" fill="none" xmlns="http://www.w3.org/2000/svg">
<g clip-path="url(#clip0_28_4794)">
<path fill-rule="evenodd" clip-rule="evenodd" d="M7.72009 18.6049C7.59307 18.4802 7.46511 18.3555 7.33623 18.2317C6.02228 16.9722 4.71857 15.7113 3.49536 14.3606C3.19897 14.0335 2.6425 13.3989 2.08371 13.0723C1.68403 12.8387 1.27038 12.741 0.892113 12.7894C0.651099 12.8201 0.298898 12.9415 0.122093 13.4036C0.0923151 13.4813 0.0569619 13.6148 0.0430036 13.7851C0.0206703 14.0605 0.0425277 14.5546 0.0495068 14.623C0.147215 15.6197 0.24492 16.5726 0.424052 17.5585C0.58876 18.4658 0.701353 19.3801 0.878624 20.2859C1.14383 21.6413 1.48536 22.9459 1.9832 24.2366C2.16792 24.7158 2.70718 24.9545 3.18641 24.7698C3.66518 24.5851 3.90433 24.0463 3.71962 23.5671C3.26132 22.3783 2.94912 21.177 2.70532 19.9286C2.52944 19.0311 2.41823 18.1247 2.25492 17.2258C2.14884 16.641 2.07345 16.0682 2.00925 15.4903L2.1158 15.6099C3.36879 16.9932 4.70275 18.2852 6.04834 19.575C6.55177 20.058 7.03799 20.5549 7.54933 21.0299C7.59074 21.0904 7.78195 21.3677 7.87594 21.4626C8.03227 21.6208 8.20117 21.7092 8.3482 21.7529C8.72182 21.8646 9.10103 21.8232 9.43231 21.4045C9.6803 21.0909 9.82312 20.6046 9.81242 20.024C9.79799 19.226 9.49512 18.1741 9.43091 17.6892C9.02426 14.6217 8.36636 11.5662 8.19141 8.47209C8.16257 7.95935 7.72288 7.56664 7.21014 7.59549C6.6974 7.6248 6.30423 8.06448 6.33354 8.57722C6.51081 11.7178 7.17292 14.8199 7.58562 17.934C7.60795 18.0996 7.661 18.3355 7.72009 18.6049Z" fill="#0062FF"/>
<path fill-rule="evenodd" clip-rule="evenodd" d="M15.8514 5.88923C14.7961 6.16886 13.739 6.41266 12.8913 7.13756C12.0045 7.89643 11.5536 8.99868 11.3931 10.227C11.1884 11.7941 11.4629 13.5719 11.6332 14.8388C11.7216 15.4949 11.7593 16.4092 11.9505 17.2192C12.1152 17.9157 12.3958 18.5397 12.8234 18.9766C13.4952 19.6628 14.5263 19.7322 15.5839 19.3041C16.8057 18.8095 18.0224 17.6682 18.3532 17.0028C18.5821 16.5432 18.3946 15.9839 17.9344 15.7555C17.4747 15.5265 16.916 15.714 16.687 16.1737C16.4772 16.5957 15.6606 17.2653 14.8855 17.5793C14.7124 17.6491 14.5412 17.7012 14.3793 17.7143C14.295 17.7212 14.2108 17.7333 14.1536 17.6752C13.873 17.3881 13.7744 16.9214 13.693 16.4501C13.579 15.7931 13.5473 15.1068 13.478 14.5904C13.3254 13.4574 13.0556 11.8694 13.2384 10.468C13.3366 9.7166 13.5585 9.01637 14.1015 8.55202C14.7315 8.01323 15.5429 7.89644 16.3278 7.68846C16.8243 7.55725 17.1207 7.0473 16.989 6.55085C16.8578 6.0544 16.3478 5.75802 15.8514 5.88923Z" fill="#0062FF"/>
<path fill-rule="evenodd" clip-rule="evenodd" d="M15.7798 10.7926C14.9623 11.2378 14.0885 11.6956 13.2124 12.0102C12.729 12.1837 12.4773 12.7169 12.6504 13.2004C12.8239 13.6838 13.3571 13.9355 13.8405 13.7619C14.8055 13.4158 15.77 12.9175 16.6699 12.4275C17.1207 12.1819 17.2878 11.6161 17.0421 11.1652C16.7964 10.7139 16.2311 10.5474 15.7798 10.7926Z" fill="#0062FF"/>
<path fill-rule="evenodd" clip-rule="evenodd" d="M27.0191 11.2866C26.3397 10.465 25.6218 9.65632 24.8634 8.91746C24.8015 8.85744 24.0366 8.22745 23.5821 7.99202C23.2754 7.83336 23.0037 7.80451 22.8446 7.81987C22.3816 7.86453 22.0992 8.11532 21.9834 8.54431C21.8726 8.95561 21.8326 9.38413 21.8326 9.82149C21.1445 8.53128 20.5149 7.20431 20.1325 5.80708C20.1009 5.69169 20.0753 5.63772 20.0711 5.62794C19.9422 5.34319 19.7593 5.2464 19.6942 5.20825C19.3741 5.02027 19.0856 5.05193 18.8423 5.16127C18.8125 5.1743 18.1564 5.46556 18.3132 6.20954C18.3258 6.26956 18.4328 6.69714 18.464 6.86418C18.4915 7.00935 18.551 7.14009 18.6343 7.25082C19.2754 9.09239 20.2563 10.8321 21.1975 12.5308C21.4008 12.8979 21.5595 13.2762 21.6642 13.6824C21.6949 13.801 21.7075 14.0695 21.7344 14.2011C21.7805 14.424 21.8717 14.5734 21.9298 14.6497C22.2323 15.047 22.605 15.0875 22.9488 14.9856C23.0958 14.9423 23.3903 14.8432 23.5695 14.4166C23.9724 13.4581 23.9268 12.3996 23.81 11.3332C23.7756 11.0177 23.7328 10.7022 23.7068 10.3905C24.5345 11.2131 25.3092 12.1204 26.0373 13.0272C26.1173 13.1268 26.9279 14.0332 27.1433 14.1681C27.6821 14.5068 28.1004 14.2523 28.2795 14.1006C28.5526 13.8689 28.7676 13.4711 28.8551 12.9644C28.9677 12.3089 28.8788 11.4067 28.8699 11.0438C28.8108 8.60105 28.7224 6.04763 28.1739 3.66261C28.0589 3.16197 27.5592 2.84929 27.0586 2.96421C26.558 3.07914 26.2453 3.57932 26.3602 4.0795C26.8809 6.34447 26.953 8.76996 27.0093 11.0889C27.0107 11.1424 27.0144 11.2094 27.0191 11.2866Z" fill="#0062FF"/>
<path fill-rule="evenodd" clip-rule="evenodd" d="M30.7357 3.04369C31.073 4.67449 31.4108 6.29039 31.6313 7.96725C31.6983 8.47673 32.1659 8.83593 32.6754 8.76893C33.1844 8.70193 33.5436 8.23432 33.4766 7.72484C33.1658 5.35983 32.6279 3.11441 32.1776 0.781511C32.004 -0.120197 31.147 0.00590586 31.0944 0.0152114C30.9785 0.0356836 30.3472 0.170148 30.3262 0.909474C30.3248 0.954606 30.3551 1.27376 30.3602 1.39753C30.3713 1.68088 30.3657 1.95773 30.3513 2.24155C30.3346 2.56864 30.4886 2.86502 30.7357 3.04369Z" fill="#0062FF"/>
<path fill-rule="evenodd" clip-rule="evenodd" d="M33.1443 12.6604C33.2387 12.3728 33.1908 12.0443 32.9879 11.7898C32.6673 11.3883 32.0815 11.3227 31.68 11.6433C31.3092 11.9392 31.2399 12.2998 31.2896 12.7409C31.3473 13.2513 31.8089 13.6188 32.3193 13.5607C32.786 13.5081 33.1331 13.1173 33.1443 12.6604Z" fill="#0062FF"/>
<path fill-rule="evenodd" clip-rule="evenodd" d="M15.5778 30.6108C15.4829 30.4098 15.4066 30.2511 15.3885 30.2172C14.524 28.6003 13.586 27.0049 12.5647 25.482C12.2785 25.0554 11.7002 24.9414 11.2736 25.2275C10.8469 25.5137 10.7329 26.092 11.0191 26.5187C12.0059 27.9899 12.9118 29.5323 13.7474 31.0947C13.8112 31.2138 14.236 32.2723 14.5393 32.7139C14.8143 33.1135 15.1595 33.2564 15.3573 33.2857C15.6714 33.3322 16.1627 33.2196 16.5614 32.6873C17.0821 31.9927 17.7572 30.1367 17.8684 29.8287C18.0722 29.262 18.2448 28.6673 18.4049 28.089C18.7082 26.9919 18.8827 25.8752 19.0386 24.7502C19.1093 24.2411 18.7534 23.7712 18.2443 23.7005C17.7358 23.6302 17.2654 23.9862 17.1951 24.4947C17.0504 25.5384 16.8927 26.575 16.6112 27.5925C16.4633 28.1262 16.3051 28.6757 16.1171 29.1987C16.0603 29.3555 15.8398 30.0031 15.5778 30.6108Z" fill="#0062FF"/>
</g>
<defs>
<clipPath id="clip0_28_4794">
<rect width="33.5" height="33.5" fill="white"/>
</clipPath>
</defs>
</svg>
