<svg width="24" height="24" viewBox="0 0 24 24" fill="none" xmlns="http://www.w3.org/2000/svg">
<path d="M13.41 20.5H13.91V20V18.491C14.6866 18.2927 15.404 17.9531 15.9586 17.4393C16.6209 16.8256 17.0242 15.9865 17.03 14.9327H17.03V14.93C17.03 13.4965 16.4025 12.5073 15.4985 11.8258C14.6223 11.1651 13.4948 10.7984 12.4746 10.5358C11.4774 10.2791 10.8889 10.0305 10.5552 9.78326C10.2595 9.56415 10.18 9.36192 10.18 9.11C10.18 8.80609 10.3145 8.54332 10.6051 8.33903C10.9091 8.1253 11.3986 7.97 12.08 7.97C12.796 7.97 13.1959 8.14215 13.4221 8.3538C13.6461 8.56348 13.7791 8.88652 13.8005 9.3625L13.822 9.84H14.3H16.26H16.78L16.7596 9.32041C16.6958 7.69245 15.751 6.17353 13.91 5.57234V4V3.5H13.41H10.74H10.24V4V5.54015C8.56515 6.02109 7.13 7.23401 7.13 9.14C7.13 10.3302 7.63483 11.2369 8.47822 11.9096C9.29792 12.5634 10.4267 12.9898 11.6924 13.296L11.6944 13.2965C12.7764 13.5536 13.3439 13.8549 13.639 14.132C13.9061 14.3828 13.98 14.6413 13.98 14.95C13.98 15.1388 13.9125 15.3922 13.6795 15.603C13.4449 15.8154 12.9806 16.04 12.08 16.04C11.2336 16.04 10.7213 15.8499 10.4182 15.608C10.1244 15.3735 9.96777 15.0428 9.92775 14.6226L9.88464 14.17H9.43H7.47H6.94085L6.9708 14.6983C7.0888 16.7794 8.55592 17.988 10.24 18.4618V20V20.5H10.74H13.41ZM2.5 12C2.5 6.75614 6.75614 2.5 12 2.5C17.2439 2.5 21.5 6.75614 21.5 12C21.5 17.2439 17.2439 21.5 12 21.5C6.75614 21.5 2.5 17.2439 2.5 12Z" fill="#1E293B" stroke="#00296B"/>
</svg>
