<svg width="18" height="21" viewBox="0 0 18 21" fill="none" xmlns="http://www.w3.org/2000/svg">
<path d="M3.5 11.75V20.5H0.5V11.083L2.05321 6.53148L2.05349 6.53065C2.34022 5.68555 3.28749 5.26968 4.09342 5.63533L4.0934 5.63535L4.09826 5.63749L8.24826 7.46749L8.34559 7.51041L8.45196 7.51L10.5 7.50196V8.5H8.10484L5.51086 7.36212L5.00897 7.14196L4.83566 7.66189L3.52566 11.5919L3.5 11.6689V11.75ZM8.5 11.5H8H6.5V10.5H9C9.27386 10.5 9.5 10.7261 9.5 11V12V12.5H10H12H12.5V12V10.5H13.5V13C13.5 13.8239 12.8239 14.5 12 14.5H10C9.17614 14.5 8.5 13.8239 8.5 13V12V11.5ZM3.5 2C3.5 1.17614 4.17614 0.5 5 0.5C5.82386 0.5 6.5 1.17614 6.5 2C6.5 2.82386 5.82386 3.5 5 3.5C4.17614 3.5 3.5 2.82386 3.5 2ZM17.5 16.5V17.5H6.5V16.5H17.5ZM17.5 13.5C17.5 14.0539 17.0539 14.5 16.5 14.5C15.9461 14.5 15.5 14.0539 15.5 13.5C15.5 12.9461 15.9461 12.5 16.5 12.5C17.0539 12.5 17.5 12.9461 17.5 13.5Z" fill="#1E293B" stroke="#00296B"/>
</svg>
