<svg width="17" height="22" viewBox="0 0 17 22" fill="none" xmlns="http://www.w3.org/2000/svg">
<path d="M16.4313 12.0796L15.6698 13.4054L14.7957 13.0558L14.5515 12.9581L14.3327 13.104L14.2658 13.1485C14.2566 13.1525 14.2422 13.1588 14.2272 13.1661C14.2063 13.1761 14.176 13.1918 14.1426 13.214L13.958 13.3371L13.9254 13.5565L13.7883 14.48H12.2417L12.1046 13.5565L12.0663 13.2992L11.8336 13.1828C11.7576 13.1448 11.7345 13.1332 11.675 13.096L11.4623 12.9631L11.2285 13.0541L10.3505 13.396L9.58817 12.0686L10.3193 11.4928L10.51 11.3427V11.1V10.87V10.6273L10.3193 10.4772L9.58817 9.90138L10.3502 8.57459L11.2243 8.92424L11.4685 9.02192L11.6874 8.87602L11.7542 8.83148C11.7634 8.82752 11.7778 8.82118 11.7928 8.81394C11.8137 8.80389 11.844 8.78825 11.8774 8.76602L12.0644 8.64132L12.0953 8.41865L12.2226 7.5H13.7653L13.9054 8.44345L13.9437 8.70084L14.1764 8.81721C14.226 8.84203 14.2398 8.85067 14.3009 8.88894C14.3082 8.89351 14.3162 8.8985 14.325 8.904L14.5401 9.03846L14.7757 8.94424L15.6498 8.59459L16.4118 9.92138L15.6807 10.4972L15.49 10.6473V10.89V11.11V11.3564L15.6854 11.5065L16.4313 12.0796ZM15.7257 8.56424C15.7256 8.56426 15.7256 8.56428 15.7255 8.56431L15.7257 8.56424ZM11.7774 8.81602C11.7772 8.8161 11.7771 8.81618 11.777 8.81626L11.7774 8.81602L11.5126 8.41891L11.7774 8.81602ZM10.2744 8.54428C10.2744 8.54426 10.2743 8.54425 10.2743 8.54424L10.2744 8.54428ZM14.2426 13.164C14.2428 13.1639 14.2429 13.1638 14.243 13.1637L14.2427 13.164L14.2426 13.164ZM15.7456 13.4357C15.7456 13.4357 15.7457 13.4357 15.7457 13.4358L15.7456 13.4357ZM12.5 5.5V5V4.5H12H2H1.5V5V17V17.5H2H12H12.5V17V16.5H13.5V20C13.5 20.8239 12.8239 21.5 12 21.5H2C1.17614 21.5 0.5 20.8239 0.5 20V2C0.5 1.17614 1.17614 0.5 2 0.5H12C12.8239 0.5 13.5 1.17614 13.5 2V5.5H12.5ZM11 11C11 12.1061 11.8939 13 13 13C14.1061 13 15 12.1061 15 11C15 9.89386 14.1061 9 13 9C11.8939 9 11 9.89386 11 11Z" fill="#1E293B" stroke="#00296B"/>
</svg>
