<svg width="25" height="25" viewBox="0 0 25 25" fill="none" xmlns="http://www.w3.org/2000/svg">
<path fill-rule="evenodd" clip-rule="evenodd" d="M23.6696 7.86786C18.9775 16.5928 9.60438 20.14 0.898819 15.2281C0.609008 15.0645 0.241497 15.1668 0.0779357 15.453C-0.0856258 15.7443 0.0166111 16.1124 0.306422 16.2759C9.6376 21.5457 19.7012 17.7889 24.7307 8.44032C24.8882 8.14897 24.7783 7.78091 24.4854 7.62246C24.1925 7.46912 23.8271 7.57651 23.6696 7.86786Z" fill="#0062FF"/>
<path d="M8.22469 11.486C9.19394 11.486 9.97969 10.7003 9.97969 9.73104C9.97969 8.76179 9.19394 7.97607 8.22469 7.97607C7.25544 7.97607 6.46973 8.76179 6.46973 9.73104C6.46973 10.7003 7.25544 11.486 8.22469 11.486Z" fill="#0062FF"/>
<path d="M15.4902 9.61907C16.4405 9.61907 17.2109 8.8487 17.2109 7.8984C17.2109 6.9481 16.4405 6.17773 15.4902 6.17773C14.5399 6.17773 13.7695 6.9481 13.7695 7.8984C13.7695 8.8487 14.5399 9.61907 15.4902 9.61907Z" fill="#0062FF"/>
</svg>
