<svg width="20" height="20" viewBox="0 0 20 20" fill="none" xmlns="http://www.w3.org/2000/svg">
<path d="M0.510824 8.51132C2.62438 8.60521 4.588 9.27888 6.25409 10.3792L6.24432 10.3932C6.33912 10.4627 6.43399 10.5205 6.50944 10.5663L6.51547 10.5699C6.57265 10.6046 6.61774 10.6319 6.65749 10.6582C7.80636 11.4892 8.79881 12.5295 9.58183 13.7241L10 14.3621L10.4182 13.7241C11.194 12.5405 12.1754 11.5084 13.3109 10.6811L13.3149 10.6863C13.3572 10.6537 13.4053 10.6229 13.4707 10.5829C13.4797 10.5774 13.4893 10.5716 13.4993 10.5655C13.5555 10.5313 13.6267 10.4881 13.6946 10.4411L13.6815 10.4221C15.3613 9.29639 17.3483 8.60642 19.4892 8.51132C19.2822 13.39 16.128 17.4708 11.8045 19.0182C11.2157 19.2204 10.6189 19.3784 9.9965 19.4926C9.37582 19.3872 8.77476 19.2296 8.20147 19.0203L8.19836 19.0192C3.87343 17.4726 0.717816 13.3911 0.510824 8.51132ZM10.0015 9.55364C9.10401 8.68526 8.10722 7.9487 7.0395 7.3495C7.30442 4.96187 8.30822 2.6296 10.0596 0.722838C11.7865 2.61161 12.7467 4.9425 12.9666 7.34813C11.8981 7.95407 10.9002 8.69103 10.0015 9.55364Z" fill="#1E293B" stroke="#00296B"/>
</svg>
