<svg width="317" height="29" viewBox="0 0 317 29" fill="none" xmlns="http://www.w3.org/2000/svg">
<path d="M17.2478 7.33722C5.16015 15.8241 2.66438 17.1436 0.857152 20.1587C0.857149 21.3588 0.731068 21.5482 1.67668 22.7483C9.4617 17.4274 19.5173 9.92678 23.5519 11.8216C27.5865 13.7164 29.6039 30.0538 38.4296 28.8748C44.5446 28.0579 42.9055 22.8114 55.7659 12.8953C59.4853 23.0641 66.0416 24.0036 70.0762 19.9692C71.3395 18.706 74.4809 16.1906 77.0107 13.4637C78.4119 21.1071 84.2604 23.6957 87.6646 21.1061C90.7585 18.7526 93.5275 15.4849 97.8142 12.8953C109.036 27.1063 106.64 18.5797 122.589 11.3163C133.117 32.0328 141.06 16.8112 153.353 11.6321C165.268 32.6013 172.266 19.0218 184.37 11.6321C190.863 28.1169 196.726 17.0007 208.388 9.98994C222.762 25.2747 225.409 14.2217 238.081 9.48466C248.356 28.8748 252.958 9.92678 266.575 10.4952C271.934 20.5377 278.265 18.622 289.207 10.7479C289.207 10.7479 291.433 14.2233 294.376 14.727C298.789 15.4822 298.789 13.5901 306.543 9.92678C309.443 8.55676 311.355 7.41812 316.062 7.02142V2.60018C312.02 3.24623 308.56 2.9921 305.471 4.74765C297.746 9.13824 295.489 7.54524 293.998 5.18977C293.447 4.31983 293.601 3.45195 293.115 2.60018C289.837 -3.14729 281.39 7.08455 273.762 8.91619C269.286 -1.82103 257.056 1.40018 246.024 9.23201C246.024 9.23201 242.998 2.65827 239.341 1.40019C233.1 -0.74723 227.364 4.55816 219.988 9.23201C216.643 11.3512 211.414 1.65281 207.821 1.65281C202.399 1.65281 191.367 11.1268 191.367 11.1268C191.367 11.1268 191.195 5.61385 187.711 3.54761C180.713 -0.602321 170.753 12.0111 165.268 14.2848C159.602 16.6338 161.801 7.20355 156.19 3.67393C150.58 0.144307 135.828 13.4637 132.109 13.7164C129.9 13.8664 128.641 4.55817 124.165 3.54761C116.679 1.85725 105.064 12.0111 105.064 12.0111C105.064 12.0111 102.479 5.75821 97.8142 4.55817C92.2619 3.12988 84.2604 12.6427 84.2604 12.6427C84.2604 12.6427 85.08 4.55817 79.6584 2.97917C76.3873 2.02646 63.3938 14.0322 63.3938 14.0322C63.3938 14.0322 60.9818 7.38262 56.7745 5.12661C51.6682 2.38849 41.0773 17.0639 36.6014 21.4219C33.9607 23.9931 29.3355 -1.14961 17.2478 7.33722Z" fill="#0062FF"/>
</svg>
