<svg width="170" height="517" viewBox="0 0 170 517" fill="none" xmlns="http://www.w3.org/2000/svg">
<path d="M3.77539 508.675L3.77539 10.6681" stroke="#F6FAFF" stroke-width="4" stroke-linecap="round"/>
<rect y="512.448" width="7.99293" height="8" rx="3.99646" transform="rotate(-90 0 512.448)" fill="#0064F1"/>
<rect y="142.244" width="7.99293" height="8" rx="3.99646" transform="rotate(-90 0 142.244)" fill="#0064F1"/>
<rect y="14.4404" width="7.99293" height="8" rx="3.99646" transform="rotate(-90 0 14.4404)" fill="#0064F1"/>
<rect y="270.518" width="7.99293" height="8" rx="3.99646" transform="rotate(-90 0 270.518)" fill="#0064F1"/>
<rect y="391.719" width="7.99293" height="8" rx="3.99646" transform="rotate(-90 0 391.719)" fill="#0064F1"/>
<path d="M27.61 15H25.6412L29.2257 4.81818H31.5027L35.0922 15H33.1235L30.404 6.90625H30.3245L27.61 15ZM27.6746 11.0078H33.0439V12.4893H27.6746V11.0078ZM36.3677 17.8636V7.36364H38.1376V8.62642H38.242C38.3348 8.44081 38.4658 8.24361 38.6348 8.0348C38.8038 7.82268 39.0325 7.64205 39.3209 7.4929C39.6092 7.34044 39.9771 7.2642 40.4246 7.2642C41.0145 7.2642 41.5465 7.41501 42.0204 7.71662C42.4977 8.01491 42.8756 8.45739 43.154 9.04403C43.4357 9.62737 43.5766 10.3433 43.5766 11.1918C43.5766 12.0303 43.439 12.7429 43.1639 13.3295C42.8888 13.9162 42.5143 14.3636 42.0403 14.6719C41.5664 14.9801 41.0294 15.1342 40.4295 15.1342C39.992 15.1342 39.6291 15.0613 39.3408 14.9155C39.0524 14.7696 38.8204 14.594 38.6447 14.3885C38.4724 14.1797 38.3382 13.9825 38.242 13.7969H38.1675V17.8636H36.3677ZM38.1327 11.1818C38.1327 11.6757 38.2023 12.1082 38.3415 12.4794C38.484 12.8506 38.6878 13.1406 38.953 13.3494C39.2214 13.5549 39.5463 13.6577 39.9274 13.6577C40.3251 13.6577 40.6582 13.5516 40.9267 13.3395C41.1952 13.1241 41.3973 12.8307 41.5332 12.4595C41.6724 12.085 41.742 11.6591 41.742 11.1818C41.742 10.7079 41.6741 10.2869 41.5382 9.91903C41.4023 9.55114 41.2001 9.26278 40.9317 9.05398C40.6632 8.84517 40.3284 8.74077 39.9274 8.74077C39.5429 8.74077 39.2165 8.84186 38.948 9.04403C38.6795 9.24621 38.4757 9.52959 38.3365 9.89418C38.2006 10.2588 38.1327 10.688 38.1327 11.1818ZM45.1317 17.8636V7.36364H46.9016V8.62642H47.006C47.0988 8.44081 47.2298 8.24361 47.3988 8.0348C47.5678 7.82268 47.7965 7.64205 48.0849 7.4929C48.3732 7.34044 48.7411 7.2642 49.1886 7.2642C49.7785 7.2642 50.3105 7.41501 50.7844 7.71662C51.2617 8.01491 51.6396 8.45739 51.918 9.04403C52.1997 9.62737 52.3406 10.3433 52.3406 11.1918C52.3406 12.0303 52.203 12.7429 51.9279 13.3295C51.6528 13.9162 51.2783 14.3636 50.8043 14.6719C50.3304 14.9801 49.7934 15.1342 49.1935 15.1342C48.756 15.1342 48.3931 15.0613 48.1048 14.9155C47.8164 14.7696 47.5844 14.594 47.4087 14.3885C47.2364 14.1797 47.1022 13.9825 47.006 13.7969H46.9315V17.8636H45.1317ZM46.8967 11.1818C46.8967 11.6757 46.9663 12.1082 47.1055 12.4794C47.248 12.8506 47.4518 13.1406 47.717 13.3494C47.9854 13.5549 48.3103 13.6577 48.6914 13.6577C49.0891 13.6577 49.4222 13.5516 49.6907 13.3395C49.9592 13.1241 50.1613 12.8307 50.2972 12.4595C50.4364 12.085 50.506 11.6591 50.506 11.1818C50.506 10.7079 50.4381 10.2869 50.3022 9.91903C50.1663 9.55114 49.9641 9.26278 49.6957 9.05398C49.4272 8.84517 49.0924 8.74077 48.6914 8.74077C48.3069 8.74077 47.9805 8.84186 47.712 9.04403C47.4435 9.24621 47.2397 9.52959 47.1005 9.89418C46.9646 10.2588 46.8967 10.688 46.8967 11.1818ZM55.6955 4.81818V15H53.8957V4.81818H55.6955ZM58.6787 17.8636C58.4335 17.8636 58.2064 17.8438 57.9976 17.804C57.7921 17.7675 57.6281 17.7244 57.5055 17.6747L57.9231 16.2727C58.1849 16.349 58.4186 16.3854 58.6241 16.3821C58.8296 16.3788 59.0102 16.3142 59.166 16.1882C59.3251 16.0656 59.4593 15.8601 59.5687 15.5717L59.7228 15.1591L56.9536 7.36364H58.8627L60.6226 13.1307H60.7022L62.4671 7.36364H64.3812L61.3236 15.9247C61.1811 16.3291 60.9922 16.6754 60.7569 16.9638C60.5215 17.2554 60.2332 17.4775 59.8918 17.63C59.5537 17.7857 59.1494 17.8636 58.6787 17.8636Z" fill="#1E293B"/>
<path d="M22.4197 129.364V141H20.3118V129.364H22.4197ZM26.6683 135.886V141H24.6115V132.273H26.5774V133.756H26.6797C26.8804 133.267 27.2005 132.879 27.6399 132.591C28.0831 132.303 28.6304 132.159 29.282 132.159C29.8842 132.159 30.4089 132.288 30.8558 132.545C31.3066 132.803 31.6551 133.176 31.9013 133.665C32.1513 134.153 32.2744 134.746 32.2706 135.443V141H30.2138V135.761C30.2138 135.178 30.0623 134.722 29.7592 134.392C29.46 134.062 29.0452 133.898 28.5149 133.898C28.1551 133.898 27.835 133.977 27.5547 134.136C27.2782 134.292 27.0604 134.517 26.9013 134.812C26.746 135.108 26.6683 135.466 26.6683 135.886ZM38.7195 132.273V133.864H33.7024V132.273H38.7195ZM34.9411 130.182H36.9979V138.375C36.9979 138.652 37.0395 138.864 37.1229 139.011C37.21 139.155 37.3236 139.254 37.4638 139.307C37.6039 139.36 37.7592 139.386 37.9297 139.386C38.0585 139.386 38.1759 139.377 38.282 139.358C38.3918 139.339 38.4751 139.322 38.532 139.307L38.8786 140.915C38.7687 140.953 38.6115 140.994 38.407 141.04C38.2062 141.085 37.96 141.112 37.6683 141.119C37.1532 141.134 36.6892 141.057 36.2763 140.886C35.8634 140.712 35.5357 140.443 35.2933 140.08C35.0547 139.716 34.9373 139.261 34.9411 138.716V130.182ZM40.4396 141V132.273H42.4339V133.727H42.5249C42.6839 133.223 42.9567 132.835 43.343 132.562C43.7332 132.286 44.1783 132.148 44.6783 132.148C44.7919 132.148 44.9188 132.153 45.0589 132.165C45.2029 132.172 45.3222 132.186 45.4169 132.205V134.097C45.3298 134.066 45.1915 134.04 45.0021 134.017C44.8165 133.991 44.6366 133.977 44.4624 133.977C44.0874 133.977 43.7502 134.059 43.451 134.222C43.1555 134.381 42.9226 134.602 42.7521 134.886C42.5817 135.17 42.4964 135.498 42.4964 135.869V141H40.4396ZM50.2308 141.17C49.3786 141.17 48.6399 140.983 48.0149 140.608C47.3899 140.233 46.9051 139.708 46.5604 139.034C46.2195 138.36 46.049 137.572 46.049 136.67C46.049 135.769 46.2195 134.979 46.5604 134.301C46.9051 133.623 47.3899 133.097 48.0149 132.722C48.6399 132.347 49.3786 132.159 50.2308 132.159C51.0831 132.159 51.8217 132.347 52.4467 132.722C53.0717 133.097 53.5547 133.623 53.8956 134.301C54.2403 134.979 54.4126 135.769 54.4126 136.67C54.4126 137.572 54.2403 138.36 53.8956 139.034C53.5547 139.708 53.0717 140.233 52.4467 140.608C51.8217 140.983 51.0831 141.17 50.2308 141.17ZM50.2422 139.523C50.7043 139.523 51.0907 139.396 51.4013 139.142C51.7119 138.884 51.9429 138.54 52.0945 138.108C52.2498 137.676 52.3274 137.195 52.3274 136.665C52.3274 136.131 52.2498 135.648 52.0945 135.216C51.9429 134.78 51.7119 134.434 51.4013 134.176C51.0907 133.919 50.7043 133.79 50.2422 133.79C49.7687 133.79 49.3748 133.919 49.0604 134.176C48.7498 134.434 48.5168 134.78 48.3615 135.216C48.21 135.648 48.1342 136.131 48.1342 136.665C48.1342 137.195 48.21 137.676 48.3615 138.108C48.5168 138.54 48.7498 138.884 49.0604 139.142C49.3748 139.396 49.7687 139.523 50.2422 139.523ZM63.9339 141.17C63.0627 141.17 62.3146 140.979 61.6896 140.597C61.0684 140.214 60.5893 139.686 60.2521 139.011C59.9188 138.333 59.7521 137.553 59.7521 136.67C59.7521 135.784 59.9226 135.002 60.2635 134.324C60.6044 133.642 61.0855 133.112 61.7067 132.733C62.3317 132.35 63.0703 132.159 63.9226 132.159C64.6309 132.159 65.2578 132.29 65.8033 132.551C66.3525 132.809 66.79 133.174 67.1158 133.648C67.4415 134.117 67.6271 134.667 67.6726 135.295H65.7067C65.6271 134.875 65.4377 134.525 65.1385 134.244C64.843 133.96 64.4472 133.818 63.951 133.818C63.5305 133.818 63.1612 133.932 62.843 134.159C62.5249 134.383 62.2768 134.705 62.0987 135.125C61.9245 135.545 61.8374 136.049 61.8374 136.636C61.8374 137.231 61.9245 137.742 62.0987 138.17C62.273 138.595 62.5173 138.922 62.8317 139.153C63.1499 139.381 63.523 139.494 63.951 139.494C64.254 139.494 64.5249 139.437 64.7635 139.324C65.0059 139.206 65.2086 139.038 65.3714 138.818C65.5343 138.598 65.6461 138.331 65.7067 138.017H67.6726C67.6233 138.634 67.4415 139.182 67.1271 139.659C66.8127 140.133 66.3847 140.504 65.843 140.773C65.3014 141.038 64.665 141.17 63.9339 141.17ZM71.8729 141.176C71.3198 141.176 70.8217 141.078 70.3786 140.881C69.9392 140.68 69.5907 140.384 69.3331 139.994C69.0793 139.604 68.9524 139.123 68.9524 138.551C68.9524 138.059 69.0433 137.652 69.2251 137.33C69.407 137.008 69.6551 136.75 69.9695 136.557C70.2839 136.364 70.638 136.218 71.032 136.119C71.4297 136.017 71.8407 135.943 72.2649 135.898C72.7763 135.845 73.1911 135.797 73.5092 135.756C73.8274 135.71 74.0585 135.642 74.2024 135.551C74.3501 135.456 74.424 135.311 74.424 135.114V135.08C74.424 134.652 74.2971 134.32 74.0433 134.085C73.7895 133.85 73.424 133.733 72.9467 133.733C72.4429 133.733 72.0433 133.843 71.7479 134.062C71.4562 134.282 71.2592 134.542 71.157 134.841L69.2365 134.568C69.388 134.038 69.638 133.595 69.9865 133.239C70.335 132.879 70.7611 132.61 71.2649 132.432C71.7687 132.25 72.3255 132.159 72.9354 132.159C73.3558 132.159 73.7744 132.208 74.1911 132.307C74.6077 132.405 74.9884 132.568 75.3331 132.795C75.6778 133.019 75.9543 133.324 76.1626 133.71C76.3748 134.097 76.4808 134.58 76.4808 135.159V141H74.5036V139.801H74.4354C74.3104 140.044 74.1342 140.271 73.907 140.483C73.6835 140.691 73.4013 140.86 73.0604 140.989C72.7232 141.114 72.3274 141.176 71.8729 141.176ZM72.407 139.665C72.8198 139.665 73.1778 139.583 73.4808 139.42C73.7839 139.254 74.0168 139.034 74.1797 138.761C74.3464 138.489 74.4297 138.191 74.4297 137.869V136.841C74.3653 136.894 74.2554 136.943 74.1001 136.989C73.9486 137.034 73.7782 137.074 73.5888 137.108C73.3994 137.142 73.2119 137.172 73.0263 137.199C72.8407 137.225 72.6797 137.248 72.5433 137.267C72.2365 137.309 71.9619 137.377 71.7195 137.472C71.477 137.566 71.2857 137.699 71.1456 137.869C71.0054 138.036 70.9354 138.252 70.9354 138.517C70.9354 138.896 71.0736 139.182 71.3501 139.375C71.6267 139.568 71.9789 139.665 72.407 139.665ZM80.6058 129.364V141H78.549V129.364H80.6058ZM84.7777 129.364V141H82.7209V129.364H84.7777Z" fill="#1E293B"/>
<path d="M21.5462 269V257.364H23.6541V262.29H29.0462V257.364H31.1598V269H29.0462V264.057H23.6541V269H21.5462ZM35.8729 269.176C35.3198 269.176 34.8217 269.078 34.3786 268.881C33.9392 268.68 33.5907 268.384 33.3331 267.994C33.0793 267.604 32.9524 267.123 32.9524 266.551C32.9524 266.059 33.0433 265.652 33.2251 265.33C33.407 265.008 33.6551 264.75 33.9695 264.557C34.2839 264.364 34.638 264.218 35.032 264.119C35.4297 264.017 35.8407 263.943 36.2649 263.898C36.7763 263.845 37.1911 263.797 37.5092 263.756C37.8274 263.71 38.0585 263.642 38.2024 263.551C38.3501 263.456 38.424 263.311 38.424 263.114V263.08C38.424 262.652 38.2971 262.32 38.0433 262.085C37.7895 261.85 37.424 261.733 36.9467 261.733C36.4429 261.733 36.0433 261.843 35.7479 262.062C35.4562 262.282 35.2592 262.542 35.157 262.841L33.2365 262.568C33.388 262.038 33.638 261.595 33.9865 261.239C34.335 260.879 34.7611 260.61 35.2649 260.432C35.7687 260.25 36.3255 260.159 36.9354 260.159C37.3558 260.159 37.7744 260.208 38.1911 260.307C38.6077 260.405 38.9884 260.568 39.3331 260.795C39.6778 261.019 39.9543 261.324 40.1626 261.71C40.3748 262.097 40.4808 262.58 40.4808 263.159V269H38.5036V267.801H38.4354C38.3104 268.044 38.1342 268.271 37.907 268.483C37.6835 268.691 37.4013 268.86 37.0604 268.989C36.7232 269.114 36.3274 269.176 35.8729 269.176ZM36.407 267.665C36.8198 267.665 37.1778 267.583 37.4808 267.42C37.7839 267.254 38.0168 267.034 38.1797 266.761C38.3464 266.489 38.4297 266.191 38.4297 265.869V264.841C38.3653 264.894 38.2554 264.943 38.1001 264.989C37.9486 265.034 37.7782 265.074 37.5888 265.108C37.3994 265.142 37.2119 265.172 37.0263 265.199C36.8407 265.225 36.6797 265.248 36.5433 265.267C36.2365 265.309 35.9619 265.377 35.7195 265.472C35.477 265.566 35.2857 265.699 35.1456 265.869C35.0054 266.036 34.9354 266.252 34.9354 266.517C34.9354 266.896 35.0736 267.182 35.3501 267.375C35.6267 267.568 35.9789 267.665 36.407 267.665ZM44.6058 263.886V269H42.549V260.273H44.5149V261.756H44.6172C44.8179 261.267 45.138 260.879 45.5774 260.591C46.0206 260.303 46.5679 260.159 47.2195 260.159C47.8217 260.159 48.3464 260.288 48.7933 260.545C49.2441 260.803 49.5926 261.176 49.8388 261.665C50.0888 262.153 50.2119 262.746 50.2081 263.443V269H48.1513V263.761C48.1513 263.178 47.9998 262.722 47.6967 262.392C47.3975 262.062 46.9827 261.898 46.4524 261.898C46.0926 261.898 45.7725 261.977 45.4922 262.136C45.2157 262.292 44.9979 262.517 44.8388 262.812C44.6835 263.108 44.6058 263.466 44.6058 263.886ZM55.5376 269.153C54.852 269.153 54.2384 268.977 53.6967 268.625C53.1551 268.273 52.727 267.761 52.4126 267.091C52.0982 266.42 51.9411 265.606 51.9411 264.648C51.9411 263.678 52.1001 262.86 52.4183 262.193C52.7403 261.523 53.174 261.017 53.7195 260.676C54.2649 260.331 54.8729 260.159 55.5433 260.159C56.0547 260.159 56.4751 260.246 56.8047 260.42C57.1342 260.591 57.3956 260.797 57.5888 261.04C57.782 261.278 57.9316 261.504 58.0376 261.716H58.1229V257.364H60.1854V269H58.1626V267.625H58.0376C57.9316 267.837 57.7782 268.062 57.5774 268.301C57.3767 268.536 57.1115 268.737 56.782 268.903C56.4524 269.07 56.0376 269.153 55.5376 269.153ZM56.1115 267.466C56.5471 267.466 56.9183 267.348 57.2251 267.114C57.532 266.875 57.7649 266.544 57.924 266.119C58.0831 265.695 58.1626 265.201 58.1626 264.636C58.1626 264.072 58.0831 263.581 57.924 263.165C57.7687 262.748 57.5376 262.424 57.2308 262.193C56.9278 261.962 56.5547 261.847 56.1115 261.847C55.6532 261.847 55.2706 261.966 54.9638 262.205C54.657 262.443 54.4259 262.773 54.2706 263.193C54.1153 263.614 54.0376 264.095 54.0376 264.636C54.0376 265.182 54.1153 265.669 54.2706 266.097C54.4297 266.521 54.6626 266.856 54.9695 267.102C55.2801 267.345 55.6607 267.466 56.1115 267.466ZM69.2749 262.58L67.3999 262.784C67.3468 262.595 67.254 262.417 67.1214 262.25C66.9927 262.083 66.8184 261.949 66.5987 261.847C66.379 261.744 66.1101 261.693 65.7919 261.693C65.3639 261.693 65.004 261.786 64.7124 261.972C64.4245 262.157 64.2824 262.398 64.2862 262.693C64.2824 262.947 64.3752 263.153 64.5646 263.312C64.7578 263.472 65.076 263.602 65.5192 263.705L67.0078 264.023C67.8336 264.201 68.4472 264.483 68.8487 264.869C69.254 265.256 69.4586 265.761 69.4624 266.386C69.4586 266.936 69.2976 267.42 68.9794 267.841C68.665 268.258 68.2275 268.583 67.6669 268.818C67.1063 269.053 66.4624 269.17 65.7351 269.17C64.6669 269.17 63.8071 268.947 63.1555 268.5C62.504 268.049 62.1158 267.422 61.9908 266.619L63.9964 266.426C64.0874 266.82 64.2805 267.117 64.576 267.318C64.8714 267.519 65.2559 267.619 65.7294 267.619C66.218 267.619 66.6101 267.519 66.9055 267.318C67.2048 267.117 67.3544 266.869 67.3544 266.574C67.3544 266.324 67.2578 266.117 67.0646 265.955C66.8752 265.792 66.5798 265.667 66.1783 265.58L64.6896 265.267C63.8525 265.093 63.2332 264.799 62.8317 264.386C62.4302 263.97 62.2313 263.443 62.2351 262.807C62.2313 262.269 62.3771 261.803 62.6726 261.409C62.9718 261.011 63.3866 260.705 63.9169 260.489C64.451 260.269 65.0665 260.159 65.7635 260.159C66.7862 260.159 67.5911 260.377 68.1783 260.812C68.7692 261.248 69.1347 261.837 69.2749 262.58ZM76.4482 263.307V265H71.2095V263.307H76.4482ZM82.4183 269.17C81.5661 269.17 80.8274 268.983 80.2024 268.608C79.5774 268.233 79.0926 267.708 78.7479 267.034C78.407 266.36 78.2365 265.572 78.2365 264.67C78.2365 263.769 78.407 262.979 78.7479 262.301C79.0926 261.623 79.5774 261.097 80.2024 260.722C80.8274 260.347 81.5661 260.159 82.4183 260.159C83.2706 260.159 84.0092 260.347 84.6342 260.722C85.2592 261.097 85.7422 261.623 86.0831 262.301C86.4278 262.979 86.6001 263.769 86.6001 264.67C86.6001 265.572 86.4278 266.36 86.0831 267.034C85.7422 267.708 85.2592 268.233 84.6342 268.608C84.0092 268.983 83.2706 269.17 82.4183 269.17ZM82.4297 267.523C82.8918 267.523 83.2782 267.396 83.5888 267.142C83.8994 266.884 84.1304 266.54 84.282 266.108C84.4373 265.676 84.5149 265.195 84.5149 264.665C84.5149 264.131 84.4373 263.648 84.282 263.216C84.1304 262.78 83.8994 262.434 83.5888 262.176C83.2782 261.919 82.8918 261.79 82.4297 261.79C81.9562 261.79 81.5623 261.919 81.2479 262.176C80.9373 262.434 80.7043 262.78 80.549 263.216C80.3975 263.648 80.3217 264.131 80.3217 264.665C80.3217 265.195 80.3975 265.676 80.549 266.108C80.7043 266.54 80.9373 266.884 81.2479 267.142C81.5623 267.396 81.9562 267.523 82.4297 267.523ZM90.4027 263.886V269H88.3459V260.273H90.3118V261.756H90.4141C90.6148 261.267 90.9349 260.879 91.3743 260.591C91.8175 260.303 92.3648 260.159 93.0163 260.159C93.6186 260.159 94.1432 260.288 94.5902 260.545C95.041 260.803 95.3894 261.176 95.6357 261.665C95.8857 262.153 96.0088 262.746 96.005 263.443V269H93.9482V263.761C93.9482 263.178 93.7966 262.722 93.4936 262.392C93.1944 262.062 92.7796 261.898 92.2493 261.898C91.8894 261.898 91.5694 261.977 91.2891 262.136C91.0125 262.292 90.7947 262.517 90.6357 262.812C90.4804 263.108 90.4027 263.466 90.4027 263.886ZM103.386 263.307V265H98.147V263.307H103.386ZM109.413 269.17C108.538 269.17 107.782 268.989 107.146 268.625C106.513 268.258 106.026 267.739 105.685 267.068C105.344 266.394 105.174 265.6 105.174 264.688C105.174 263.79 105.344 263.002 105.685 262.324C106.03 261.642 106.511 261.112 107.129 260.733C107.746 260.35 108.471 260.159 109.305 260.159C109.843 260.159 110.35 260.246 110.827 260.42C111.308 260.591 111.733 260.856 112.1 261.216C112.471 261.576 112.763 262.034 112.975 262.591C113.187 263.144 113.293 263.803 113.293 264.568V265.199H106.14V263.812H111.322C111.318 263.419 111.233 263.068 111.066 262.761C110.899 262.451 110.666 262.206 110.367 262.028C110.072 261.85 109.727 261.761 109.333 261.761C108.913 261.761 108.543 261.864 108.225 262.068C107.907 262.269 107.659 262.534 107.481 262.864C107.307 263.189 107.218 263.547 107.214 263.938V265.148C107.214 265.655 107.307 266.091 107.492 266.455C107.678 266.814 107.937 267.091 108.271 267.284C108.604 267.473 108.994 267.568 109.441 267.568C109.74 267.568 110.011 267.527 110.254 267.443C110.496 267.356 110.706 267.229 110.884 267.062C111.062 266.896 111.197 266.689 111.288 266.443L113.208 266.659C113.087 267.167 112.856 267.61 112.515 267.989C112.178 268.364 111.746 268.655 111.219 268.864C110.693 269.068 110.091 269.17 109.413 269.17ZM116.528 260.273L118.289 263.494L120.079 260.273H122.255L119.624 264.636L122.3 269H120.136L118.289 265.858L116.46 269H114.278L116.937 264.636L114.346 260.273H116.528ZM127.381 269.17C126.506 269.17 125.751 268.989 125.114 268.625C124.482 268.258 123.995 267.739 123.654 267.068C123.313 266.394 123.143 265.6 123.143 264.688C123.143 263.79 123.313 263.002 123.654 262.324C123.999 261.642 124.48 261.112 125.097 260.733C125.715 260.35 126.44 260.159 127.273 260.159C127.811 260.159 128.319 260.246 128.796 260.42C129.277 260.591 129.701 260.856 130.069 261.216C130.44 261.576 130.732 262.034 130.944 262.591C131.156 263.144 131.262 263.803 131.262 264.568V265.199H124.109V263.812H129.29C129.287 263.419 129.201 263.068 129.035 262.761C128.868 262.451 128.635 262.206 128.336 262.028C128.04 261.85 127.696 261.761 127.302 261.761C126.881 261.761 126.512 261.864 126.194 262.068C125.876 262.269 125.628 262.534 125.45 262.864C125.275 263.189 125.186 263.547 125.183 263.938V265.148C125.183 265.655 125.275 266.091 125.461 266.455C125.647 266.814 125.906 267.091 126.239 267.284C126.573 267.473 126.963 267.568 127.41 267.568C127.709 267.568 127.98 267.527 128.222 267.443C128.465 267.356 128.675 267.229 128.853 267.062C129.031 266.896 129.165 266.689 129.256 266.443L131.177 266.659C131.056 267.167 130.825 267.61 130.484 267.989C130.147 268.364 129.715 268.655 129.188 268.864C128.662 269.068 128.059 269.17 127.381 269.17ZM133.002 269V260.273H134.996V261.727H135.087C135.246 261.223 135.519 260.835 135.906 260.562C136.296 260.286 136.741 260.148 137.241 260.148C137.354 260.148 137.481 260.153 137.621 260.165C137.765 260.172 137.885 260.186 137.979 260.205V262.097C137.892 262.066 137.754 262.04 137.565 262.017C137.379 261.991 137.199 261.977 137.025 261.977C136.65 261.977 136.313 262.059 136.013 262.222C135.718 262.381 135.485 262.602 135.315 262.886C135.144 263.17 135.059 263.498 135.059 263.869V269H133.002ZM142.793 269.17C141.922 269.17 141.174 268.979 140.549 268.597C139.928 268.214 139.449 267.686 139.112 267.011C138.778 266.333 138.612 265.553 138.612 264.67C138.612 263.784 138.782 263.002 139.123 262.324C139.464 261.642 139.945 261.112 140.566 260.733C141.191 260.35 141.93 260.159 142.782 260.159C143.49 260.159 144.117 260.29 144.663 260.551C145.212 260.809 145.649 261.174 145.975 261.648C146.301 262.117 146.487 262.667 146.532 263.295H144.566C144.487 262.875 144.297 262.525 143.998 262.244C143.702 261.96 143.307 261.818 142.81 261.818C142.39 261.818 142.021 261.932 141.702 262.159C141.384 262.383 141.136 262.705 140.958 263.125C140.784 263.545 140.697 264.049 140.697 264.636C140.697 265.231 140.784 265.742 140.958 266.17C141.132 266.595 141.377 266.922 141.691 267.153C142.009 267.381 142.382 267.494 142.81 267.494C143.113 267.494 143.384 267.437 143.623 267.324C143.865 267.206 144.068 267.038 144.231 266.818C144.394 266.598 144.505 266.331 144.566 266.017H146.532C146.483 266.634 146.301 267.182 145.987 267.659C145.672 268.133 145.244 268.504 144.702 268.773C144.161 269.038 143.524 269.17 142.793 269.17ZM148.221 269V260.273H150.278V269H148.221ZM149.255 259.034C148.929 259.034 148.649 258.926 148.414 258.71C148.179 258.491 148.062 258.227 148.062 257.92C148.062 257.61 148.179 257.347 148.414 257.131C148.649 256.911 148.929 256.801 149.255 256.801C149.585 256.801 149.865 256.911 150.096 257.131C150.331 257.347 150.448 257.61 150.448 257.92C150.448 258.227 150.331 258.491 150.096 258.71C149.865 258.926 149.585 259.034 149.255 259.034ZM159.29 262.58L157.415 262.784C157.362 262.595 157.27 262.417 157.137 262.25C157.008 262.083 156.834 261.949 156.614 261.847C156.395 261.744 156.126 261.693 155.808 261.693C155.379 261.693 155.02 261.786 154.728 261.972C154.44 262.157 154.298 262.398 154.302 262.693C154.298 262.947 154.391 263.153 154.58 263.312C154.773 263.472 155.092 263.602 155.535 263.705L157.023 264.023C157.849 264.201 158.463 264.483 158.864 264.869C159.27 265.256 159.474 265.761 159.478 266.386C159.474 266.936 159.313 267.42 158.995 267.841C158.681 268.258 158.243 268.583 157.683 268.818C157.122 269.053 156.478 269.17 155.751 269.17C154.683 269.17 153.823 268.947 153.171 268.5C152.52 268.049 152.131 267.422 152.006 266.619L154.012 266.426C154.103 266.82 154.296 267.117 154.592 267.318C154.887 267.519 155.272 267.619 155.745 267.619C156.234 267.619 156.626 267.519 156.921 267.318C157.22 267.117 157.37 266.869 157.37 266.574C157.37 266.324 157.273 266.117 157.08 265.955C156.891 265.792 156.595 265.667 156.194 265.58L154.705 265.267C153.868 265.093 153.249 264.799 152.847 264.386C152.446 263.97 152.247 263.443 152.251 262.807C152.247 262.269 152.393 261.803 152.688 261.409C152.987 261.011 153.402 260.705 153.933 260.489C154.467 260.269 155.082 260.159 155.779 260.159C156.802 260.159 157.607 260.377 158.194 260.812C158.785 261.248 159.15 261.837 159.29 262.58ZM165.038 269.17C164.163 269.17 163.407 268.989 162.771 268.625C162.138 268.258 161.651 267.739 161.31 267.068C160.969 266.394 160.799 265.6 160.799 264.688C160.799 263.79 160.969 263.002 161.31 262.324C161.655 261.642 162.136 261.112 162.754 260.733C163.371 260.35 164.096 260.159 164.93 260.159C165.468 260.159 165.975 260.246 166.452 260.42C166.933 260.591 167.358 260.856 167.725 261.216C168.096 261.576 168.388 262.034 168.6 262.591C168.812 263.144 168.918 263.803 168.918 264.568V265.199H161.765V263.812H166.947C166.943 263.419 166.858 263.068 166.691 262.761C166.524 262.451 166.291 262.206 165.992 262.028C165.697 261.85 165.352 261.761 164.958 261.761C164.538 261.761 164.168 261.864 163.85 262.068C163.532 262.269 163.284 262.534 163.106 262.864C162.932 263.189 162.843 263.547 162.839 263.938V265.148C162.839 265.655 162.932 266.091 163.117 266.455C163.303 266.814 163.562 267.091 163.896 267.284C164.229 267.473 164.619 267.568 165.066 267.568C165.365 267.568 165.636 267.527 165.879 267.443C166.121 267.356 166.331 267.229 166.509 267.062C166.687 266.896 166.822 266.689 166.913 266.443L168.833 266.659C168.712 267.167 168.481 267.61 168.14 267.989C167.803 268.364 167.371 268.655 166.844 268.864C166.318 269.068 165.716 269.17 165.038 269.17Z" fill="#1E293B"/>
<path d="M28.5611 386.29H26.4361C26.3755 385.941 26.2637 385.633 26.1009 385.364C25.938 385.091 25.7353 384.86 25.4929 384.67C25.2505 384.481 24.974 384.339 24.6634 384.244C24.3565 384.146 24.0251 384.097 23.669 384.097C23.0365 384.097 22.4759 384.256 21.9872 384.574C21.4986 384.888 21.116 385.35 20.8395 385.96C20.563 386.566 20.4247 387.307 20.4247 388.182C20.4247 389.072 20.563 389.822 20.8395 390.432C21.1198 391.038 21.5024 391.496 21.9872 391.807C22.4759 392.114 23.0346 392.267 23.6634 392.267C24.0118 392.267 24.3376 392.222 24.6406 392.131C24.9474 392.036 25.2221 391.898 25.4645 391.716C25.7107 391.534 25.9171 391.311 26.0838 391.045C26.2543 390.78 26.3717 390.477 26.4361 390.136L28.5611 390.148C28.4815 390.701 28.3092 391.22 28.044 391.705C27.7827 392.189 27.4399 392.617 27.0156 392.989C26.5914 393.356 26.0952 393.644 25.527 393.852C24.9588 394.057 24.3281 394.159 23.6349 394.159C22.6122 394.159 21.6993 393.922 20.8963 393.449C20.0933 392.975 19.4607 392.292 18.9986 391.398C18.5365 390.504 18.3054 389.432 18.3054 388.182C18.3054 386.928 18.5384 385.856 19.0043 384.966C19.4702 384.072 20.1046 383.388 20.9077 382.915C21.7107 382.441 22.6198 382.205 23.6349 382.205C24.2827 382.205 24.8849 382.295 25.4418 382.477C25.9986 382.659 26.4948 382.926 26.9304 383.278C27.366 383.627 27.724 384.055 28.0043 384.562C28.2884 385.066 28.474 385.642 28.5611 386.29ZM32.4574 388.886V394H30.4006V382.364H32.4119V386.756H32.5142C32.7188 386.263 33.035 385.875 33.4631 385.591C33.8949 385.303 34.4441 385.159 35.1108 385.159C35.7169 385.159 36.2453 385.286 36.696 385.54C37.1468 385.794 37.4953 386.165 37.7415 386.653C37.9915 387.142 38.1165 387.739 38.1165 388.443V394H36.0597V388.761C36.0597 388.174 35.9081 387.718 35.6051 387.392C35.3059 387.062 34.8854 386.898 34.3438 386.898C33.9801 386.898 33.6544 386.977 33.3665 387.136C33.0824 387.292 32.8589 387.517 32.696 387.812C32.5369 388.108 32.4574 388.466 32.4574 388.886ZM42.7244 394.176C42.1714 394.176 41.6733 394.078 41.2301 393.881C40.7907 393.68 40.4422 393.384 40.1847 392.994C39.9309 392.604 39.804 392.123 39.804 391.551C39.804 391.059 39.8949 390.652 40.0767 390.33C40.2585 390.008 40.5066 389.75 40.821 389.557C41.1354 389.364 41.4896 389.218 41.8835 389.119C42.2813 389.017 42.6922 388.943 43.1165 388.898C43.6278 388.845 44.0426 388.797 44.3608 388.756C44.679 388.71 44.91 388.642 45.054 388.551C45.2017 388.456 45.2756 388.311 45.2756 388.114V388.08C45.2756 387.652 45.1487 387.32 44.8949 387.085C44.6411 386.85 44.2756 386.733 43.7983 386.733C43.2945 386.733 42.8949 386.843 42.5994 387.062C42.3078 387.282 42.1108 387.542 42.0085 387.841L40.0881 387.568C40.2396 387.038 40.4896 386.595 40.8381 386.239C41.1866 385.879 41.6127 385.61 42.1165 385.432C42.6203 385.25 43.1771 385.159 43.7869 385.159C44.2074 385.159 44.6259 385.208 45.0426 385.307C45.4593 385.405 45.84 385.568 46.1847 385.795C46.5294 386.019 46.8059 386.324 47.0142 386.71C47.2263 387.097 47.3324 387.58 47.3324 388.159V394H45.3551V392.801H45.2869C45.1619 393.044 44.9858 393.271 44.7585 393.483C44.535 393.691 44.2528 393.86 43.9119 393.989C43.5748 394.114 43.179 394.176 42.7244 394.176ZM43.2585 392.665C43.6714 392.665 44.0294 392.583 44.3324 392.42C44.6354 392.254 44.8684 392.034 45.0312 391.761C45.1979 391.489 45.2812 391.191 45.2812 390.869V389.841C45.2169 389.894 45.107 389.943 44.9517 389.989C44.8002 390.034 44.6297 390.074 44.4403 390.108C44.2509 390.142 44.0634 390.172 43.8778 390.199C43.6922 390.225 43.5313 390.248 43.3949 390.267C43.0881 390.309 42.8134 390.377 42.571 390.472C42.3286 390.566 42.1373 390.699 41.9972 390.869C41.857 391.036 41.7869 391.252 41.7869 391.517C41.7869 391.896 41.9252 392.182 42.2017 392.375C42.4782 392.568 42.8305 392.665 43.2585 392.665ZM53.7585 385.273V386.864H48.7415V385.273H53.7585ZM49.9801 383.182H52.0369V391.375C52.0369 391.652 52.0786 391.864 52.1619 392.011C52.2491 392.155 52.3627 392.254 52.5028 392.307C52.643 392.36 52.7983 392.386 52.9688 392.386C53.0975 392.386 53.215 392.377 53.321 392.358C53.4309 392.339 53.5142 392.322 53.571 392.307L53.9176 393.915C53.8078 393.953 53.6506 393.994 53.446 394.04C53.2453 394.085 52.9991 394.112 52.7074 394.119C52.1922 394.134 51.7282 394.057 51.3153 393.886C50.9025 393.712 50.5748 393.443 50.3324 393.08C50.0938 392.716 49.9763 392.261 49.9801 391.716V383.182ZM61.2486 394L58.7827 385.273H60.8793L62.4134 391.409H62.4929L64.0611 385.273H66.1349L67.7031 391.375H67.7884L69.2997 385.273H71.402L68.9304 394H66.7884L65.152 388.102H65.0327L63.3963 394H61.2486ZM72.8381 394V385.273H74.8949V394H72.8381ZM73.8722 384.034C73.5464 384.034 73.2661 383.926 73.0312 383.71C72.7964 383.491 72.679 383.227 72.679 382.92C72.679 382.61 72.7964 382.347 73.0312 382.131C73.2661 381.911 73.5464 381.801 73.8722 381.801C74.2017 381.801 74.482 381.911 74.7131 382.131C74.9479 382.347 75.0653 382.61 75.0653 382.92C75.0653 383.227 74.9479 383.491 74.7131 383.71C74.482 383.926 74.2017 384.034 73.8722 384.034ZM81.3679 385.273V386.864H76.3509V385.273H81.3679ZM77.5895 383.182H79.6463V391.375C79.6463 391.652 79.688 391.864 79.7713 392.011C79.8584 392.155 79.9721 392.254 80.1122 392.307C80.2524 392.36 80.4077 392.386 80.5781 392.386C80.7069 392.386 80.8243 392.377 80.9304 392.358C81.0402 392.339 81.1236 392.322 81.1804 392.307L81.527 393.915C81.4171 393.953 81.2599 393.994 81.0554 394.04C80.8546 394.085 80.6084 394.112 80.3168 394.119C79.8016 394.134 79.3376 394.057 78.9247 393.886C78.5118 393.712 78.1842 393.443 77.9418 393.08C77.7031 392.716 77.5857 392.261 77.5895 391.716V383.182ZM85.3324 388.886V394H83.2756V382.364H85.2869V386.756H85.3892C85.5938 386.263 85.91 385.875 86.3381 385.591C86.7699 385.303 87.3191 385.159 87.9858 385.159C88.5919 385.159 89.1203 385.286 89.571 385.54C90.0218 385.794 90.3703 386.165 90.6165 386.653C90.8665 387.142 90.9915 387.739 90.9915 388.443V394H88.9347V388.761C88.9347 388.174 88.7831 387.718 88.4801 387.392C88.1809 387.062 87.7604 386.898 87.2188 386.898C86.8551 386.898 86.5294 386.977 86.2415 387.136C85.9574 387.292 85.7339 387.517 85.571 387.812C85.4119 388.108 85.3324 388.466 85.3324 388.886ZM101.415 385.273V386.864H96.3977V385.273H101.415ZM97.6364 383.182H99.6932V391.375C99.6932 391.652 99.7348 391.864 99.8182 392.011C99.9053 392.155 100.019 392.254 100.159 392.307C100.299 392.36 100.455 392.386 100.625 392.386C100.754 392.386 100.871 392.377 100.977 392.358C101.087 392.339 101.17 392.322 101.227 392.307L101.574 393.915C101.464 393.953 101.307 393.994 101.102 394.04C100.902 394.085 100.655 394.112 100.364 394.119C99.8485 394.134 99.3845 394.057 98.9716 393.886C98.5587 393.712 98.2311 393.443 97.9886 393.08C97.75 392.716 97.6326 392.261 97.6364 391.716V383.182ZM105.379 388.886V394H103.322V382.364H105.334V386.756H105.436C105.641 386.263 105.957 385.875 106.385 385.591C106.817 385.303 107.366 385.159 108.033 385.159C108.639 385.159 109.167 385.286 109.618 385.54C110.069 385.794 110.417 386.165 110.663 386.653C110.913 387.142 111.038 387.739 111.038 388.443V394H108.982V388.761C108.982 388.174 108.83 387.718 108.527 387.392C108.228 387.062 107.807 386.898 107.266 386.898C106.902 386.898 106.576 386.977 106.288 387.136C106.004 387.292 105.781 387.517 105.618 387.812C105.459 388.108 105.379 388.466 105.379 388.886ZM116.999 394.17C116.124 394.17 115.368 393.989 114.732 393.625C114.099 393.258 113.612 392.739 113.271 392.068C112.93 391.394 112.76 390.6 112.76 389.688C112.76 388.79 112.93 388.002 113.271 387.324C113.616 386.642 114.097 386.112 114.714 385.733C115.332 385.35 116.057 385.159 116.891 385.159C117.429 385.159 117.936 385.246 118.413 385.42C118.894 385.591 119.319 385.856 119.686 386.216C120.057 386.576 120.349 387.034 120.561 387.591C120.773 388.144 120.879 388.803 120.879 389.568V390.199H113.726V388.812H118.908C118.904 388.419 118.819 388.068 118.652 387.761C118.485 387.451 118.252 387.206 117.953 387.028C117.658 386.85 117.313 386.761 116.919 386.761C116.499 386.761 116.129 386.864 115.811 387.068C115.493 387.269 115.245 387.534 115.067 387.864C114.893 388.189 114.804 388.547 114.8 388.938V390.148C114.8 390.655 114.893 391.091 115.078 391.455C115.264 391.814 115.523 392.091 115.857 392.284C116.19 392.473 116.58 392.568 117.027 392.568C117.326 392.568 117.597 392.527 117.839 392.443C118.082 392.356 118.292 392.229 118.47 392.062C118.648 391.896 118.783 391.689 118.874 391.443L120.794 391.659C120.673 392.167 120.442 392.61 120.101 392.989C119.764 393.364 119.332 393.655 118.805 393.864C118.279 394.068 117.677 394.17 116.999 394.17ZM130.946 385.273V386.864H125.929V385.273H130.946ZM127.168 383.182H129.224V391.375C129.224 391.652 129.266 391.864 129.349 392.011C129.437 392.155 129.55 392.254 129.69 392.307C129.83 392.36 129.986 392.386 130.156 392.386C130.285 392.386 130.402 392.377 130.509 392.358C130.618 392.339 130.702 392.322 130.759 392.307L131.105 393.915C130.995 393.953 130.838 393.994 130.634 394.04C130.433 394.085 130.187 394.112 129.895 394.119C129.38 394.134 128.916 394.057 128.503 393.886C128.09 393.712 127.762 393.443 127.52 393.08C127.281 392.716 127.164 392.261 127.168 391.716V383.182ZM136.436 394.17C135.561 394.17 134.805 393.989 134.169 393.625C133.536 393.258 133.05 392.739 132.709 392.068C132.368 391.394 132.197 390.6 132.197 389.688C132.197 388.79 132.368 388.002 132.709 387.324C133.054 386.642 133.535 386.112 134.152 385.733C134.769 385.35 135.495 385.159 136.328 385.159C136.866 385.159 137.374 385.246 137.851 385.42C138.332 385.591 138.756 385.856 139.124 386.216C139.495 386.576 139.786 387.034 139.999 387.591C140.211 388.144 140.317 388.803 140.317 389.568V390.199H133.163V388.812H138.345C138.341 388.419 138.256 388.068 138.089 387.761C137.923 387.451 137.69 387.206 137.391 387.028C137.095 386.85 136.75 386.761 136.357 386.761C135.936 386.761 135.567 386.864 135.249 387.068C134.93 387.269 134.682 387.534 134.504 387.864C134.33 388.189 134.241 388.547 134.237 388.938V390.148C134.237 390.655 134.33 391.091 134.516 391.455C134.701 391.814 134.961 392.091 135.294 392.284C135.627 392.473 136.018 392.568 136.464 392.568C136.764 392.568 137.035 392.527 137.277 392.443C137.519 392.356 137.73 392.229 137.908 392.062C138.086 391.896 138.22 391.689 138.311 391.443L140.232 391.659C140.11 392.167 139.879 392.61 139.538 392.989C139.201 393.364 138.769 393.655 138.243 393.864C137.716 394.068 137.114 394.17 136.436 394.17ZM144.568 394.176C144.015 394.176 143.517 394.078 143.074 393.881C142.634 393.68 142.286 393.384 142.028 392.994C141.775 392.604 141.648 392.123 141.648 391.551C141.648 391.059 141.739 390.652 141.92 390.33C142.102 390.008 142.35 389.75 142.665 389.557C142.979 389.364 143.333 389.218 143.727 389.119C144.125 389.017 144.536 388.943 144.96 388.898C145.472 388.845 145.886 388.797 146.205 388.756C146.523 388.71 146.754 388.642 146.898 388.551C147.045 388.456 147.119 388.311 147.119 388.114V388.08C147.119 387.652 146.992 387.32 146.739 387.085C146.485 386.85 146.119 386.733 145.642 386.733C145.138 386.733 144.739 386.843 144.443 387.062C144.152 387.282 143.955 387.542 143.852 387.841L141.932 387.568C142.083 387.038 142.333 386.595 142.682 386.239C143.03 385.879 143.456 385.61 143.96 385.432C144.464 385.25 145.021 385.159 145.631 385.159C146.051 385.159 146.47 385.208 146.886 385.307C147.303 385.405 147.684 385.568 148.028 385.795C148.373 386.019 148.65 386.324 148.858 386.71C149.07 387.097 149.176 387.58 149.176 388.159V394H147.199V392.801H147.131C147.006 393.044 146.83 393.271 146.602 393.483C146.379 393.691 146.097 393.86 145.756 393.989C145.419 394.114 145.023 394.176 144.568 394.176ZM145.102 392.665C145.515 392.665 145.873 392.583 146.176 392.42C146.479 392.254 146.712 392.034 146.875 391.761C147.042 391.489 147.125 391.191 147.125 390.869V389.841C147.061 389.894 146.951 389.943 146.795 389.989C146.644 390.034 146.473 390.074 146.284 390.108C146.095 390.142 145.907 390.172 145.722 390.199C145.536 390.225 145.375 390.248 145.239 390.267C144.932 390.309 144.657 390.377 144.415 390.472C144.172 390.566 143.981 390.699 143.841 390.869C143.701 391.036 143.631 391.252 143.631 391.517C143.631 391.896 143.769 392.182 144.045 392.375C144.322 392.568 144.674 392.665 145.102 392.665ZM151.244 394V385.273H153.21V386.756H153.312C153.494 386.256 153.795 385.866 154.216 385.585C154.636 385.301 155.138 385.159 155.722 385.159C156.312 385.159 156.811 385.303 157.216 385.591C157.625 385.875 157.913 386.263 158.08 386.756H158.17C158.364 386.271 158.689 385.884 159.148 385.597C159.61 385.305 160.157 385.159 160.79 385.159C161.593 385.159 162.248 385.413 162.756 385.92C163.263 386.428 163.517 387.169 163.517 388.142V394H161.455V388.46C161.455 387.919 161.311 387.523 161.023 387.273C160.735 387.019 160.383 386.892 159.966 386.892C159.47 386.892 159.081 387.047 158.801 387.358C158.525 387.665 158.386 388.064 158.386 388.557V394H156.369V388.375C156.369 387.924 156.233 387.564 155.96 387.295C155.691 387.027 155.339 386.892 154.903 386.892C154.608 386.892 154.339 386.968 154.097 387.119C153.854 387.267 153.661 387.477 153.517 387.75C153.373 388.019 153.301 388.333 153.301 388.693V394H151.244Z" fill="#1E293B"/>
<path d="M35.5689 505.182C35.5689 506.436 35.334 507.509 34.8643 508.403C34.3984 509.294 33.7621 509.975 32.9553 510.449C32.1522 510.922 31.2412 511.159 30.2223 511.159C29.2034 511.159 28.2905 510.922 27.4837 510.449C26.6806 509.972 26.0443 509.288 25.5746 508.398C25.1087 507.504 24.8757 506.432 24.8757 505.182C24.8757 503.928 25.1087 502.856 25.5746 501.966C26.0443 501.072 26.6806 500.388 27.4837 499.915C28.2905 499.441 29.2034 499.205 30.2223 499.205C31.2412 499.205 32.1522 499.441 32.9553 499.915C33.7621 500.388 34.3984 501.072 34.8643 501.966C35.334 502.856 35.5689 503.928 35.5689 505.182ZM33.4496 505.182C33.4496 504.299 33.3113 503.555 33.0348 502.949C32.7621 502.339 32.3833 501.879 31.8984 501.568C31.4136 501.254 30.8549 501.097 30.2223 501.097C29.5897 501.097 29.031 501.254 28.5462 501.568C28.0613 501.879 27.6806 502.339 27.4041 502.949C27.1314 503.555 26.995 504.299 26.995 505.182C26.995 506.064 27.1314 506.811 27.4041 507.42C27.6806 508.027 28.0613 508.487 28.5462 508.801C29.031 509.112 29.5897 509.267 30.2223 509.267C30.8549 509.267 31.4136 509.112 31.8984 508.801C32.3833 508.487 32.7621 508.027 33.0348 507.42C33.3113 506.811 33.4496 506.064 33.4496 505.182ZM41.8913 502.273V503.864H36.7322V502.273H41.8913ZM38.022 511V501.449C38.022 500.862 38.1432 500.373 38.3857 499.983C38.6319 499.593 38.9614 499.301 39.3743 499.108C39.7872 498.915 40.2455 498.818 40.7493 498.818C41.1054 498.818 41.4216 498.847 41.6982 498.903C41.9747 498.96 42.1792 499.011 42.3118 499.057L41.9027 500.648C41.8156 500.621 41.7057 500.595 41.5732 500.568C41.4406 500.538 41.2929 500.523 41.13 500.523C40.7474 500.523 40.4766 500.616 40.3175 500.801C40.1622 500.983 40.0845 501.244 40.0845 501.585V511H38.022ZM47.9226 502.273V503.864H42.7635V502.273H47.9226ZM44.0533 511V501.449C44.0533 500.862 44.1745 500.373 44.4169 499.983C44.6631 499.593 44.9927 499.301 45.4055 499.108C45.8184 498.915 46.2768 498.818 46.7805 498.818C47.1366 498.818 47.4529 498.847 47.7294 498.903C48.0059 498.96 48.2105 499.011 48.343 499.057L47.9339 500.648C47.8468 500.621 47.737 500.595 47.6044 500.568C47.4718 500.538 47.3241 500.523 47.1612 500.523C46.7786 500.523 46.5078 500.616 46.3487 500.801C46.1934 500.983 46.1158 501.244 46.1158 501.585V511H44.0533ZM53.0689 511.17C52.1939 511.17 51.4382 510.989 50.8018 510.625C50.1693 510.258 49.6825 509.739 49.3416 509.068C49.0007 508.394 48.8303 507.6 48.8303 506.688C48.8303 505.79 49.0007 505.002 49.3416 504.324C49.6863 503.642 50.1674 503.112 50.7848 502.733C51.4022 502.35 52.1276 502.159 52.9609 502.159C53.4988 502.159 54.0064 502.246 54.4837 502.42C54.9647 502.591 55.389 502.856 55.7564 503.216C56.1276 503.576 56.4193 504.034 56.6314 504.591C56.8435 505.144 56.9496 505.803 56.9496 506.568V507.199H49.7962V505.812H54.978C54.9742 505.419 54.889 505.068 54.7223 504.761C54.5556 504.451 54.3227 504.206 54.0234 504.028C53.728 503.85 53.3833 503.761 52.9893 503.761C52.5689 503.761 52.1996 503.864 51.8814 504.068C51.5632 504.269 51.3151 504.534 51.1371 504.864C50.9628 505.189 50.8738 505.547 50.87 505.938V507.148C50.87 507.655 50.9628 508.091 51.1484 508.455C51.334 508.814 51.5935 509.091 51.9268 509.284C52.2602 509.473 52.6503 509.568 53.0973 509.568C53.3965 509.568 53.6674 509.527 53.9098 509.443C54.1522 509.356 54.3625 509.229 54.5405 509.062C54.7185 508.896 54.853 508.689 54.9439 508.443L56.8643 508.659C56.7431 509.167 56.5121 509.61 56.1712 509.989C55.834 510.364 55.4022 510.655 54.8757 510.864C54.3492 511.068 53.7469 511.17 53.0689 511.17ZM58.6896 511V502.273H60.6839V503.727H60.7749C60.9339 503.223 61.2067 502.835 61.593 502.562C61.9832 502.286 62.4283 502.148 62.9283 502.148C63.0419 502.148 63.1688 502.153 63.3089 502.165C63.4529 502.172 63.5722 502.186 63.6669 502.205V504.097C63.5798 504.066 63.4415 504.04 63.2521 504.017C63.0665 503.991 62.8866 503.977 62.7124 503.977C62.3374 503.977 62.0002 504.059 61.701 504.222C61.4055 504.381 61.1726 504.602 61.0021 504.886C60.8317 505.17 60.7464 505.498 60.7464 505.869V511H58.6896Z" fill="#1E293B"/>
</svg>
