<svg width="24" height="24" viewBox="0 0 24 24" fill="none" xmlns="http://www.w3.org/2000/svg">
<path d="M12.5003 5.19V5.58266L12.8818 5.67575C14.5253 6.07681 15.4254 7.20058 15.6548 8.5H14.4476C14.3546 7.97591 14.1394 7.49186 13.7365 7.11576C13.2161 6.62995 12.4635 6.4 11.5003 6.4C10.5875 6.4 9.80168 6.60434 9.22887 7.00731C8.64183 7.42029 8.30031 8.03061 8.30031 8.75C8.30031 9.05426 8.3595 9.35199 8.50615 9.63426C8.65201 9.91502 8.87059 10.154 9.15165 10.3619C9.69895 10.7669 10.5277 11.0858 11.6745 11.3839C12.8006 11.6766 13.8931 12.0474 14.7008 12.6556C15.4802 13.2427 16.0003 14.0533 16.0003 15.3C16.0003 16.1841 15.6721 16.8467 15.1417 17.3383C14.5992 17.841 13.8207 18.1854 12.9071 18.3588L12.5003 18.436V18.85V20.5H10.5003V18.83V18.4255L10.1047 18.341C8.4894 17.9961 7.19729 17.0644 6.8854 15.5H8.0977C8.22586 16.025 8.49852 16.5099 8.96747 16.8835C9.55947 17.3553 10.4021 17.6 11.5003 17.6C12.6841 17.6 13.4952 17.305 14.0148 16.8343C14.5363 16.3618 14.7003 15.7696 14.7003 15.31C14.7003 14.7373 14.5384 14.1416 13.9803 13.6169C13.4497 13.1182 12.6004 12.7218 11.317 12.4138C9.94817 12.0851 8.85737 11.6514 8.11612 11.0593C7.39852 10.4861 7.00031 9.76047 7.00031 8.77C7.00031 7.1744 8.28298 6.04338 10.1061 5.64868L10.5003 5.56334V5.16V3.5H12.5003V5.19Z" fill="#1E293B" stroke="#00296B"/>
</svg>
