<svg width="20" height="18" viewBox="0 0 20 18" fill="none" xmlns="http://www.w3.org/2000/svg">
<path d="M0 16H20L18 18H2L0 16ZM3 3H4V4H3V3ZM3 1H4V2H3V1ZM7 1V2H5V1H7ZM7 4H5V3H7V4ZM4 12.23C3.64 12.34 3.31 12.51 3 12.7V5H4V12.23ZM2 13.52C1.62 13.96 1.32 14.45 1.16 15H17.98C17.99 14.84 18.01 14.67 18.01 14.5C18.01 11.46 15.55 9 12.51 9C10.22 9 8.26 10.4 7.43 12.4C6.84 12.15 6.19 12 5.5 12C5.33 12 5.17 12.02 5 12.04V5H7C8.03 5.06 8.9 4.04 9 3H19V2H9C8.9 0.95 8.03 0.03 7 0H1V1H2V2H1V3H2V4H1V5H2V13.52Z" fill="#1E293B"/>
</svg>
