<svg width="26" height="27" viewBox="0 0 26 27" fill="none" xmlns="http://www.w3.org/2000/svg">
<path fill-rule="evenodd" clip-rule="evenodd" d="M3.37446 11.7209C4.55677 11.2996 5.80093 10.7397 6.76037 9.9291C7.89987 8.96626 8.36329 7.72622 8.67449 6.42093C9.07403 4.74395 9.23368 2.95756 9.71815 1.27787C9.89753 0.654099 10.2427 0.418313 10.3909 0.313672C10.7653 0.0493511 11.1437 -0.0213016 11.4998 0.00519836C11.9217 0.0357753 12.5014 0.195444 12.8826 0.90279C12.9369 1.00403 13.0076 1.15829 13.0551 1.36961C13.0898 1.52453 13.1122 2.00899 13.1489 2.20876C13.2406 2.70071 13.3174 3.19268 13.3894 3.68734C13.6293 5.33374 13.7672 6.73211 14.5249 8.24464C15.5529 10.2981 16.583 11.5544 17.9801 12.1109C19.3309 12.6491 20.946 12.5479 23.0096 12.1259C23.206 12.0783 23.4003 12.0376 23.5926 12.0043C24.5024 11.8453 25.3722 12.4425 25.5509 13.349C25.7296 14.2547 25.1514 15.1374 24.2497 15.3365C24.0615 15.3779 23.876 15.4173 23.6925 15.4533C20.9039 16.1437 17.6756 18.6075 15.7996 20.7649C15.2213 21.4301 14.3747 23.2899 13.5111 24.4762C12.8737 25.3514 12.1575 25.9283 11.5562 26.1322C11.1532 26.2694 10.8135 26.2484 10.5329 26.1791C10.1252 26.0785 9.78682 25.8576 9.52725 25.5063C9.38592 25.314 9.25475 25.0565 9.19224 24.7276C9.16234 24.5693 9.15896 24.1671 9.15964 23.985C8.98365 23.3796 8.76825 22.7884 8.61129 22.1775C8.23689 20.72 7.50235 19.7973 6.62989 18.5783C5.81383 17.4374 4.93732 16.7206 3.65241 16.1485C3.48525 16.1077 2.13647 15.7774 1.66015 15.5879C0.964352 15.31 0.632745 14.8445 0.512476 14.5938C0.30795 14.1684 0.286905 13.7968 0.327674 13.4869C0.388148 13.0296 0.593355 12.6382 0.95756 12.3223C1.18315 12.1259 1.52018 11.9349 1.97136 11.8419C2.31993 11.7691 3.24468 11.727 3.37446 11.7209ZM11.2871 9.34541C11.3496 9.4847 11.4162 9.62469 11.4869 9.76603C12.9926 12.7734 14.6764 14.4525 16.723 15.2672L16.7916 15.2937C15.4225 16.3102 14.1831 17.4463 13.2359 18.5355C12.8458 18.984 12.3294 19.9155 11.7716 20.8709C11.2647 19.2231 10.4357 18.0585 9.39338 16.601C8.59702 15.4887 7.76261 14.6516 6.73727 13.9694C7.53294 13.561 8.29192 13.0826 8.95306 12.5241C10.0538 11.5939 10.7816 10.5162 11.2871 9.34541Z" fill="#0062FF"/>
</svg>
