<svg width="24" height="24" viewBox="0 0 24 24" fill="none" xmlns="http://www.w3.org/2000/svg">
<path d="M15 11.5002C15 12.3054 14.4939 13.0506 13.8537 13.8828C13.8107 13.9387 13.767 13.9952 13.7229 14.0521C13.4579 14.3946 13.1805 14.753 12.9642 15.1063C12.7964 15.3804 12.6466 15.68 12.565 16.0002H11.435C11.3534 15.68 11.2036 15.3804 11.0358 15.1063C10.8195 14.753 10.5421 14.3946 10.2771 14.0521C10.233 13.9952 10.1893 13.9387 10.1463 13.8828C9.50612 13.0506 9 12.3054 9 11.5002C9 9.84632 10.3461 8.50018 12 8.50018C13.6539 8.50018 15 9.84632 15 11.5002ZM11.5 18.5002V18.0002H12.5V18.5002H11.5ZM18.7073 5.99997L19.0608 5.64652C20.5774 7.33054 21.5 9.55796 21.5 12.0002C21.5 14.4424 20.5774 16.6698 19.0608 18.3538L18.7073 18.0004C20.1339 16.4062 21 14.2987 21 12.0002C21 9.70166 20.134 7.59417 18.7073 5.99997ZM5.29269 5.99997C3.86605 7.59417 3 9.70166 3 12.0002C3 14.2987 3.86605 16.4062 5.29269 18.0004L4.93924 18.3538C3.42261 16.6698 2.5 14.4424 2.5 12.0002C2.5 9.55796 3.42261 7.33054 4.93924 5.64652L5.29269 5.99997ZM16.9365 16.2296L16.5811 15.8742C17.4614 14.8281 18 13.4797 18 12.0002C18 10.5206 17.4614 9.17227 16.5811 8.12617L16.9365 7.77079C17.9138 8.91012 18.5 10.387 18.5 12.0002C18.5 13.6133 17.9138 15.0902 16.9365 16.2296ZM6 12.0002C6 13.4781 6.52966 14.8276 7.41748 15.8756L7.06351 16.2296C6.08621 15.0902 5.5 13.6133 5.5 12.0002C5.5 10.387 6.08621 8.91012 7.06351 7.77079L7.41889 8.12617C6.53863 9.17227 6 10.5206 6 12.0002Z" fill="#1E293B" stroke="#00296B"/>
</svg>
