<svg width="14" height="14" viewBox="0 0 14 14" fill="none" xmlns="http://www.w3.org/2000/svg">
<path d="M1.54571 7.56342H6.14113V12.1588C6.14113 12.6259 6.52534 13.0177 6.99995 13.0177C7.47456 13.0177 7.85876 12.6259 7.85876 12.1588V7.56342H12.4542C12.9213 7.56342 13.313 7.17921 13.313 6.7046C13.313 6.22999 12.9213 5.84578 12.4542 5.84578H7.85876V1.25036C7.85876 0.783282 7.47456 0.391541 6.99995 0.391541C6.52534 0.391541 6.14113 0.783282 6.14113 1.25036V5.84578H1.54571C1.07863 5.84578 0.68689 6.22999 0.68689 6.7046C0.68689 7.17921 1.07863 7.56342 1.54571 7.56342Z" fill="#0F172A"/>
</svg>
