<svg width="64" height="64" viewBox="0 0 64 64" fill="none" xmlns="http://www.w3.org/2000/svg">
<rect width="64" height="64" rx="8" fill="#F8FAFC"/>
<path d="M32 36C34.2091 36 36 34.2091 36 32C36 29.7909 34.2091 28 32 28C29.7909 28 28 29.7909 28 32C28 34.2091 29.7909 36 32 36Z" stroke="#0062FF" stroke-width="1.5" stroke-miterlimit="10" stroke-linecap="round" stroke-linejoin="round"/>
<path d="M18.6665 33.1726V30.8259C18.6665 29.4393 19.7998 28.2926 21.1998 28.2926C23.6132 28.2926 24.5998 26.5859 23.3865 24.4926C22.6932 23.2926 23.1065 21.7326 24.3198 21.0393L26.6265 19.7193C27.6798 19.0926 29.0398 19.4659 29.6665 20.5193L29.8132 20.7726C31.0132 22.8659 32.9865 22.8659 34.1998 20.7726L34.3465 20.5193C34.9732 19.4659 36.3332 19.0926 37.3865 19.7193L39.6932 21.0393C40.9065 21.7326 41.3198 23.2926 40.6265 24.4926C39.4132 26.5859 40.3998 28.2926 42.8132 28.2926C44.1998 28.2926 45.3465 29.4259 45.3465 30.8259V33.1726C45.3465 34.5593 44.2132 35.7059 42.8132 35.7059C40.3998 35.7059 39.4132 37.4126 40.6265 39.5059C41.3198 40.7193 40.9065 42.2659 39.6932 42.9593L37.3865 44.2793C36.3332 44.9059 34.9732 44.5326 34.3465 43.4793L34.1998 43.2259C32.9998 41.1326 31.0265 41.1326 29.8132 43.2259L29.6665 43.4793C29.0398 44.5326 27.6798 44.9059 26.6265 44.2793L24.3198 42.9593C23.1065 42.2659 22.6932 40.7059 23.3865 39.5059C24.5998 37.4126 23.6132 35.7059 21.1998 35.7059C19.7998 35.7059 18.6665 34.5593 18.6665 33.1726Z" stroke="#0062FF" stroke-width="1.5" stroke-miterlimit="10" stroke-linecap="round" stroke-linejoin="round"/>
</svg>
