<svg width="64" height="64" viewBox="0 0 64 64" fill="none" xmlns="http://www.w3.org/2000/svg">
<rect width="64" height="64" rx="8" fill="#F8FAFC"/>
<path d="M39.6687 25.4013C39.3487 25.3479 39.0154 25.3346 38.6687 25.3346H25.3354C24.962 25.3346 24.602 25.3613 24.2554 25.4146C24.442 25.0413 24.7087 24.6946 25.0287 24.3746L29.362 20.028C31.1887 18.2146 34.1487 18.2146 35.9754 20.028L38.3087 22.3879C39.162 23.2279 39.6154 24.2946 39.6687 25.4013Z" stroke="#0062FF" stroke-width="1.5" stroke-linecap="round" stroke-linejoin="round"/>
<path d="M28.0002 41.3333C28.0002 42.3333 27.7202 43.28 27.2268 44.08C26.3068 45.6267 24.6135 46.6667 22.6668 46.6667C20.7202 46.6667 19.0268 45.6267 18.1068 44.08C17.6135 43.28 17.3335 42.3333 17.3335 41.3333C17.3335 38.3867 19.7202 36 22.6668 36C25.6135 36 28.0002 38.3867 28.0002 41.3333Z" stroke="#0062FF" stroke-width="1.5" stroke-miterlimit="10" stroke-linecap="round" stroke-linejoin="round"/>
<path d="M24.6559 41.3047H20.6826" stroke="#0062FF" stroke-width="1.5" stroke-miterlimit="10" stroke-linecap="round" stroke-linejoin="round"/>
<path d="M22.667 39.3594V43.346" stroke="#0062FF" stroke-width="1.5" stroke-miterlimit="10" stroke-linecap="round" stroke-linejoin="round"/>
<path d="M45.3332 31.9987V38.6654C45.3332 42.6654 42.6665 45.332 38.6665 45.332H26.1732C26.5865 44.9854 26.9465 44.5587 27.2265 44.0787C27.7198 43.2787 27.9998 42.332 27.9998 41.332C27.9998 38.3854 25.6132 35.9987 22.6665 35.9987C21.0665 35.9987 19.6398 36.7053 18.6665 37.812V31.9987C18.6665 28.372 20.8532 25.8387 24.2532 25.412C24.5998 25.3587 24.9598 25.332 25.3332 25.332H38.6665C39.0132 25.332 39.3465 25.3453 39.6665 25.3987C43.1065 25.7987 45.3332 28.3454 45.3332 31.9987Z" stroke="#0062FF" stroke-width="1.5" stroke-linecap="round" stroke-linejoin="round"/>
<path d="M45.3332 32.668H41.3332C39.8665 32.668 38.6665 33.868 38.6665 35.3346C38.6665 36.8013 39.8665 38.0013 41.3332 38.0013H45.3332" stroke="#0062FF" stroke-width="1.5" stroke-linecap="round" stroke-linejoin="round"/>
</svg>
