<svg width="64" height="64" viewBox="0 0 64 64" fill="none" xmlns="http://www.w3.org/2000/svg">
<rect width="64" height="64" rx="8" fill="#F8FAFC"/>
<path d="M38.6801 32.9744C39.468 32.9744 40.1067 32.3356 40.1067 31.5477C40.1067 30.7598 39.468 30.1211 38.6801 30.1211C37.8922 30.1211 37.2534 30.7598 37.2534 31.5477C37.2534 32.3356 37.8922 32.9744 38.6801 32.9744Z" stroke="#0062FF" stroke-width="1.5" stroke-linecap="round" stroke-linejoin="round"/>
<path d="M42.6665 24.0013V26.3879C42.3332 26.3479 41.9465 26.3213 41.5332 26.3213H35.8265C32.9732 26.3213 32.0265 27.268 32.0265 30.1213V36.9347H23.9998C19.7332 36.9347 18.6665 35.868 18.6665 31.6013V24.0013C18.6665 19.7346 19.7332 18.668 23.9998 18.668H37.3332C41.5998 18.668 42.6665 19.7346 42.6665 24.0013Z" stroke="#0062FF" stroke-width="1.5" stroke-linecap="round" stroke-linejoin="round"/>
<path d="M28 36.9336V42.6669" stroke="#0062FF" stroke-width="1.5" stroke-linecap="round" stroke-linejoin="round"/>
<path d="M18.6665 31.8672H31.9998" stroke="#0062FF" stroke-width="1.5" stroke-linecap="round" stroke-linejoin="round"/>
<path d="M23.9336 42.668H32.0002" stroke="#0062FF" stroke-width="1.5" stroke-linecap="round" stroke-linejoin="round"/>
<path d="M38.6801 32.9744C39.468 32.9744 40.1067 32.3356 40.1067 31.5477C40.1067 30.7598 39.468 30.1211 38.6801 30.1211C37.8922 30.1211 37.2534 30.7598 37.2534 31.5477C37.2534 32.3356 37.8922 32.9744 38.6801 32.9744Z" stroke="#0062FF" stroke-width="1.5" stroke-miterlimit="10" stroke-linecap="round" stroke-linejoin="round"/>
<path d="M42.6669 26.387C42.3335 26.347 41.9469 26.3203 41.5335 26.3203H35.8269C32.9735 26.3203 32.0269 27.267 32.0269 30.1204V41.5337C32.0269 44.387 32.9735 45.3337 35.8269 45.3337H41.5335C44.3869 45.3337 45.3335 44.387 45.3335 41.5337V30.1204C45.3335 27.6804 44.6402 26.6403 42.6669 26.387ZM38.6802 30.1204C39.4669 30.1204 40.1069 30.7603 40.1069 31.547C40.1069 32.3336 39.4669 32.9736 38.6802 32.9736C37.8936 32.9736 37.2535 32.3336 37.2535 31.547C37.2535 30.7603 37.8936 30.1204 38.6802 30.1204ZM38.6802 41.5337C37.1069 41.5337 35.8269 40.2537 35.8269 38.6803C35.8269 38.027 36.0535 37.4137 36.4269 36.9337C36.9469 36.267 37.7602 35.827 38.6802 35.827C39.4002 35.827 40.0535 36.0937 40.5469 36.5203C41.1469 37.0537 41.5335 37.827 41.5335 38.6803C41.5335 40.2537 40.2536 41.5337 38.6802 41.5337Z" stroke="#0062FF" stroke-width="1.5" stroke-miterlimit="10" stroke-linecap="round" stroke-linejoin="round"/>
<path d="M41.5333 38.6815C41.5333 40.2548 40.2533 41.5348 38.68 41.5348C37.1067 41.5348 35.8267 40.2548 35.8267 38.6815C35.8267 38.0281 36.0533 37.4148 36.4267 36.9348C36.9467 36.2681 37.76 35.8281 38.68 35.8281C39.4 35.8281 40.0533 36.0948 40.5467 36.5215C41.1467 37.0548 41.5333 37.8281 41.5333 38.6815Z" stroke="#0062FF" stroke-width="1.5" stroke-miterlimit="10" stroke-linecap="round" stroke-linejoin="round"/>
<path d="M38.6801 32.9744C39.468 32.9744 40.1067 32.3356 40.1067 31.5477C40.1067 30.7598 39.468 30.1211 38.6801 30.1211C37.8922 30.1211 37.2534 30.7598 37.2534 31.5477C37.2534 32.3356 37.8922 32.9744 38.6801 32.9744Z" stroke="#0062FF" stroke-width="1.5" stroke-miterlimit="10" stroke-linecap="round" stroke-linejoin="round"/>
</svg>
