<svg width="582" height="430" viewBox="0 0 582 430" fill="none" xmlns="http://www.w3.org/2000/svg">
<path d="M523.684 400.487H485.132V400.778H523.684V400.487Z" fill="#EBEBEB"/>
<path d="M385.54 403.652H375.425V403.943H385.54V403.652Z" fill="#EBEBEB"/>
<path d="M483.968 389.689H461.631V389.98H483.968V389.689Z" fill="#EBEBEB"/>
<path d="M111.337 391.644H61.0634V391.935H111.337V391.644Z" fill="#EBEBEB"/>
<path d="M129.076 391.644H121.708V391.935H129.076V391.644Z" fill="#EBEBEB"/>
<path d="M262.075 396.554H153.031V396.845H262.075V396.554Z" fill="#EBEBEB"/>
<path d="M277.498 329.873H52.7292C50.9665 329.873 49.2759 329.173 48.0295 327.927C46.783 326.681 46.0828 324.991 46.0828 323.229V7.41631C46.0981 5.6644 46.8051 3.98946 48.0499 2.75609C49.2947 1.52271 50.9765 0.830743 52.7292 0.830811H277.498C278.37 0.830811 279.235 1.00265 280.041 1.33653C280.847 1.6704 281.58 2.15978 282.197 2.7767C282.815 3.39362 283.304 4.12602 283.638 4.93206C283.972 5.73811 284.144 6.60203 284.144 7.47449V323.229C284.144 324.102 283.972 324.966 283.638 325.772C283.304 326.578 282.815 327.31 282.197 327.927C281.58 328.544 280.847 329.034 280.041 329.367C279.235 329.701 278.37 329.873 277.498 329.873ZM52.7292 1.06351C51.0446 1.06659 49.4298 1.73689 48.2386 2.9276C47.0474 4.11832 46.3768 5.73239 46.3738 7.41631V323.229C46.3768 324.913 47.0474 326.527 48.2386 327.718C49.4298 328.909 51.0446 329.579 52.7292 329.582H277.498C279.182 329.579 280.797 328.909 281.988 327.718C283.179 326.527 283.85 324.913 283.853 323.229V7.41631C283.85 5.73239 283.179 4.11832 281.988 2.9276C280.797 1.73689 279.182 1.06659 277.498 1.06351H52.7292Z" fill="#EBEBEB"/>
<path d="M529.271 329.873H304.502C302.74 329.873 301.049 329.173 299.803 327.927C298.556 326.681 297.856 324.991 297.856 323.229V7.41631C297.871 5.6644 298.578 3.98946 299.823 2.75609C301.068 1.52271 302.75 0.830743 304.502 0.830811H529.271C531.034 0.830811 532.724 1.53077 533.971 2.7767C535.217 4.02263 535.917 5.71247 535.917 7.47449V323.229C535.917 324.991 535.217 326.681 533.971 327.927C532.724 329.173 531.034 329.873 529.271 329.873ZM304.502 1.06351C302.818 1.06659 301.203 1.73689 300.012 2.9276C298.821 4.11832 298.15 5.73239 298.147 7.41631V323.229C298.15 324.913 298.821 326.527 300.012 327.718C301.203 328.909 302.818 329.579 304.502 329.582H529.271C530.955 329.579 532.57 328.909 533.761 327.718C534.953 326.527 535.623 324.913 535.626 323.229V7.41631C535.623 5.73239 534.953 4.11832 533.761 2.9276C532.57 1.73689 530.955 1.06659 529.271 1.06351H304.502Z" fill="#EBEBEB"/>
<path d="M582 381.766H0V382.057H582V381.766Z" fill="#EBEBEB"/>
<path d="M470.733 43.1013H439.433C429.508 43.1013 421.461 51.1444 421.461 61.066V92.353C421.461 102.275 429.508 110.318 439.433 110.318H470.733C480.659 110.318 488.705 102.275 488.705 92.353V61.066C488.705 51.1444 480.659 43.1013 470.733 43.1013Z" fill="#F0F0F0"/>
<path d="M463.447 67.2093C463.447 72.9338 460.537 77.5646 454.81 77.5646C449.083 77.5646 446.173 72.9106 446.173 67.2093C446.173 61.5081 449.083 56.8424 454.81 56.8424C460.537 56.8424 463.447 61.4848 463.447 67.2093Z" fill="#FAFAFA"/>
<path d="M454.81 96.5649H470.791V87.0706C470.791 81.8232 463.633 77.5647 454.81 77.5647C445.987 77.5647 438.828 81.8232 438.828 87.0706V96.5649H454.81Z" fill="#FAFAFA"/>
<path d="M176.334 65.6385H154.474C147.544 65.6385 141.927 71.2541 141.927 78.1813V100.032C141.927 106.959 147.544 112.575 154.474 112.575H176.334C183.264 112.575 188.882 106.959 188.882 100.032V78.1813C188.882 71.2541 183.264 65.6385 176.334 65.6385Z" fill="#E6E6E6"/>
<path d="M164.45 91.6432C165.155 90.6641 165.971 89.77 166.883 88.9788C167.505 88.4292 168.081 87.83 168.605 87.187C168.964 86.7113 169.157 86.1306 169.152 85.5348C169.165 85.1279 169.076 84.7242 168.893 84.3605C168.71 83.9968 168.439 83.6845 168.105 83.4521C167.281 82.9121 166.307 82.6473 165.323 82.6958C164.292 82.6715 163.271 82.9076 162.355 83.3823C161.487 83.8497 160.738 84.5106 160.166 85.3137L155.871 82.8005C156.871 81.2922 158.263 80.0853 159.899 79.31C161.785 78.4352 163.849 78.009 165.928 78.065C168.239 77.956 170.527 78.5613 172.482 79.7986C173.265 80.3264 173.902 81.0438 174.334 81.884C174.765 82.7242 174.977 83.6599 174.949 84.604C174.968 85.4821 174.802 86.3544 174.46 87.1637C174.178 87.8442 173.784 88.4732 173.296 89.0253C172.831 89.5373 172.237 90.119 171.504 90.7822C170.802 91.3788 170.159 92.0411 169.583 92.7602C169.17 93.3176 168.956 93.9981 168.978 94.6916H163.612C163.569 93.6133 163.862 92.5482 164.45 91.6432ZM163.88 102.662C163.56 102.366 163.307 102.006 163.138 101.604C162.97 101.203 162.889 100.77 162.902 100.335C162.893 99.9131 162.974 99.4944 163.141 99.1069C163.307 98.7195 163.555 98.3724 163.868 98.0891C164.55 97.5034 165.419 97.1814 166.318 97.1814C167.217 97.1814 168.086 97.5034 168.768 98.0891C169.079 98.3734 169.325 98.721 169.489 99.1084C169.654 99.4958 169.734 99.914 169.723 100.335C169.736 100.77 169.655 101.203 169.486 101.604C169.318 102.006 169.065 102.366 168.745 102.662C168.08 103.268 167.213 103.605 166.312 103.605C165.412 103.605 164.544 103.268 163.88 102.662Z" fill="#FAFAFA"/>
<path d="M467.509 226.309H484.422C487 226.309 489.472 227.332 491.294 229.154C493.117 230.976 494.141 233.447 494.141 236.024V252.93C494.141 255.503 493.118 257.972 491.298 259.791C489.477 261.611 487.008 262.634 484.433 262.634H467.509C464.934 262.634 462.465 261.611 460.645 259.791C458.824 257.972 457.801 255.503 457.801 252.93V236.024C457.801 233.45 458.824 230.982 460.645 229.162C462.465 227.343 464.934 226.32 467.509 226.32V226.309Z" fill="#EBEBEB"/>
<path d="M475.215 246.437C475.762 245.68 476.394 244.989 477.1 244.378C477.585 243.951 478.032 243.484 478.439 242.982C478.716 242.618 478.864 242.171 478.858 241.713C478.87 241.399 478.802 241.086 478.659 240.805C478.517 240.524 478.305 240.284 478.043 240.108C477.408 239.684 476.653 239.475 475.89 239.514C475.11 239.491 474.336 239.665 473.641 240.018C472.945 240.372 472.35 240.895 471.909 241.539L468.58 239.596C469.349 238.418 470.428 237.476 471.699 236.873C473.157 236.199 474.75 235.868 476.355 235.907C478.146 235.821 479.92 236.292 481.43 237.257C482.039 237.667 482.534 238.225 482.868 238.878C483.202 239.531 483.364 240.259 483.339 240.992C483.353 241.67 483.226 242.343 482.967 242.97C482.748 243.499 482.441 243.986 482.059 244.413C481.623 244.892 481.161 245.347 480.674 245.774C480.134 246.239 479.636 246.749 479.184 247.298C478.871 247.736 478.708 248.262 478.718 248.799H474.574C474.538 247.965 474.762 247.139 475.215 246.437ZM474.772 254.966C474.529 254.741 474.337 254.467 474.209 254.162C474.081 253.857 474.019 253.528 474.027 253.197C474.02 252.871 474.082 252.547 474.208 252.247C474.335 251.946 474.523 251.675 474.761 251.452C475.29 251.001 475.962 250.752 476.658 250.752C477.354 250.752 478.026 251.001 478.555 251.452C478.795 251.674 478.985 251.945 479.114 252.245C479.242 252.546 479.306 252.87 479.3 253.197C479.308 253.529 479.244 253.858 479.113 254.163C478.983 254.468 478.789 254.742 478.544 254.966C478.295 255.209 478 255.399 477.676 255.525C477.352 255.65 477.005 255.71 476.658 255.699C476.311 255.707 475.965 255.647 475.642 255.521C475.318 255.395 475.023 255.206 474.772 254.966Z" fill="#FAFAFA"/>
<path d="M136.316 136.031H114.456C107.526 136.031 101.908 141.647 101.908 148.574V170.425C101.908 177.352 107.526 182.968 114.456 182.968H136.316C143.246 182.968 148.864 177.352 148.864 170.425V148.574C148.864 141.647 143.246 136.031 136.316 136.031Z" fill="#EBEBEB"/>
<path d="M125.386 146.27C123.991 146.27 122.61 146.545 121.321 147.079C120.032 147.613 118.861 148.396 117.876 149.382C116.89 150.369 116.108 151.54 115.575 152.829C115.042 154.118 114.769 155.499 114.77 156.893C114.77 162.711 119.52 176.813 125.386 176.813C131.253 176.813 136.002 162.746 136.002 156.893C136.003 155.499 135.73 154.118 135.197 152.829C134.664 151.54 133.883 150.369 132.897 149.382C131.911 148.396 130.74 147.613 129.451 147.079C128.163 146.545 126.781 146.27 125.386 146.27ZM125.386 160.093C124.753 160.093 124.134 159.905 123.608 159.554C123.081 159.202 122.671 158.702 122.429 158.118C122.186 157.533 122.123 156.89 122.247 156.269C122.37 155.648 122.675 155.078 123.123 154.631C123.57 154.183 124.141 153.878 124.762 153.755C125.383 153.632 126.026 153.695 126.611 153.937C127.196 154.179 127.696 154.589 128.048 155.116C128.399 155.642 128.587 156.26 128.587 156.893C128.575 157.734 128.232 158.536 127.633 159.126C127.034 159.716 126.227 160.046 125.386 160.046V160.093Z" fill="#FAFAFA"/>
<path d="M130.077 223.574C130.419 221.42 130.419 219.225 130.077 217.07L126.806 216.64C126.542 215.438 126.152 214.268 125.642 213.149L128.04 210.88C127.043 208.94 125.751 207.166 124.21 205.621L121.3 207.204C120.401 206.389 119.418 205.671 118.367 205.063L118.972 201.817C117.039 200.822 114.961 200.139 112.815 199.792L111.406 202.759C110.813 202.701 110.242 202.666 109.591 202.666C108.939 202.666 108.357 202.666 107.763 202.759L106.355 199.792C104.197 200.132 102.107 200.811 100.162 201.805L100.767 205.051C99.717 205.659 98.7338 206.377 97.8342 207.192L94.9242 205.61C93.3835 207.154 92.0916 208.928 91.0947 210.869L93.4925 213.138C92.9825 214.257 92.5924 215.427 92.3285 216.628L89.0693 217.059C88.7124 219.212 88.7124 221.409 89.0693 223.563L92.3285 223.993C92.5924 225.194 92.9825 226.364 93.4925 227.484L91.0947 229.753C92.0894 231.694 93.3815 233.469 94.9242 235.012L97.8342 233.429C98.7338 234.244 99.717 234.962 100.767 235.57L100.162 238.816C102.107 239.81 104.197 240.489 106.355 240.829L107.763 237.862C108.357 237.92 108.927 237.955 109.591 237.955C110.254 237.955 110.755 237.955 111.406 237.862L112.815 240.829C114.972 240.489 117.063 239.81 119.007 238.816L118.402 235.57C119.453 234.962 120.436 234.244 121.335 233.429L124.245 235.012C125.786 233.467 127.078 231.693 128.075 229.753L125.712 227.46C126.221 226.341 126.611 225.171 126.876 223.97L130.077 223.574ZM109.591 227.565C108.155 227.567 106.752 227.144 105.557 226.348C104.363 225.553 103.432 224.421 102.881 223.096C102.331 221.771 102.187 220.312 102.466 218.905C102.745 217.498 103.436 216.205 104.451 215.191C105.466 214.176 106.759 213.486 108.167 213.206C109.575 212.927 111.034 213.072 112.359 213.622C113.685 214.172 114.817 215.103 115.613 216.297C116.409 217.49 116.833 218.893 116.831 220.328C116.828 222.246 116.064 224.085 114.707 225.442C113.35 226.799 111.51 227.562 109.591 227.565Z" fill="#EBEBEB"/>
<path d="M140.576 246.984C140.66 246.445 140.703 245.901 140.704 245.355C140.704 244.81 140.661 244.265 140.576 243.726L138.935 243.517C138.811 242.921 138.623 242.34 138.376 241.783L139.54 240.62C139.042 239.644 138.394 238.753 137.62 237.979L136.165 238.77C135.713 238.365 135.221 238.007 134.698 237.699L135.001 236.082C134.029 235.582 132.984 235.241 131.904 235.07L131.206 236.559C130.903 236.559 130.601 236.559 130.298 236.559C129.996 236.559 129.681 236.559 129.379 236.559L128.68 235.07C127.601 235.241 126.556 235.582 125.584 236.082L125.887 237.699C125.363 238.007 124.872 238.365 124.42 238.77L122.965 237.979C122.191 238.753 121.542 239.644 121.044 240.62L122.208 241.783C121.961 242.34 121.774 242.921 121.65 243.517L120.02 243.726C119.93 244.265 119.887 244.81 119.892 245.355C119.888 245.901 119.931 246.446 120.02 246.984L121.65 247.194C121.774 247.786 121.961 248.363 122.208 248.916L121.044 250.079C121.543 251.05 122.192 251.938 122.965 252.709L124.42 251.918C124.866 252.329 125.358 252.689 125.887 252.988L125.584 254.605C126.556 255.105 127.601 255.447 128.68 255.618L129.379 254.128C129.986 254.19 130.599 254.19 131.206 254.128L131.904 255.618C132.984 255.447 134.029 255.105 135.001 254.605L134.698 252.988C135.226 252.689 135.719 252.329 136.165 251.918L137.62 252.709C138.393 251.938 139.041 251.05 139.54 250.079L138.376 248.916C138.623 248.363 138.811 247.786 138.935 247.194L140.576 246.984ZM130.333 248.974C129.617 248.974 128.917 248.762 128.322 248.364C127.727 247.966 127.263 247.401 126.989 246.74C126.715 246.079 126.643 245.351 126.783 244.649C126.922 243.947 127.267 243.303 127.773 242.797C128.28 242.291 128.925 241.946 129.627 241.806C130.329 241.667 131.057 241.738 131.718 242.012C132.38 242.286 132.945 242.75 133.343 243.345C133.741 243.94 133.953 244.64 133.953 245.355C133.95 246.308 133.573 247.221 132.902 247.898C132.231 248.575 131.321 248.962 130.368 248.974H130.333Z" fill="#E0E0E0"/>
<path d="M500.217 223.504C500.657 223.181 501.073 222.827 501.463 222.446C501.848 222.059 502.202 221.642 502.522 221.201L501.521 219.898C501.852 219.39 502.125 218.848 502.336 218.28H503.989C504.328 217.243 504.5 216.16 504.501 215.069L502.906 214.604C502.882 213.998 502.789 213.396 502.627 212.812L503.989 211.881C503.659 210.84 503.16 209.861 502.51 208.984L500.962 209.531C500.773 209.295 500.571 209.07 500.357 208.856C500.136 208.635 499.915 208.437 499.682 208.239L500.229 206.692C499.344 206.054 498.367 205.555 497.331 205.214L496.399 206.575C495.808 206.425 495.204 206.331 494.595 206.296L494.13 204.714C493.038 204.71 491.953 204.883 490.917 205.226V206.866C490.351 207.085 489.808 207.362 489.299 207.692L487.984 206.692C487.092 207.343 486.307 208.128 485.656 209.019L486.657 210.322C486.328 210.836 486.052 211.382 485.83 211.951H484.189C483.852 212.988 483.679 214.071 483.677 215.162L485.26 215.627C485.294 216.232 485.388 216.833 485.539 217.419L484.177 218.362C484.519 219.397 485.018 220.374 485.656 221.259L487.204 220.7C487.402 220.933 487.6 221.166 487.821 221.387C488.042 221.608 488.263 221.806 488.496 221.992L487.949 223.539C488.827 224.188 489.806 224.688 490.847 225.017L491.778 223.656C492.363 223.818 492.965 223.911 493.571 223.935L494.036 225.529C495.131 225.528 496.219 225.355 497.261 225.017V223.365C497.827 223.15 498.369 222.877 498.879 222.55L500.217 223.504ZM491.569 217.687C491.063 217.181 490.718 216.536 490.579 215.834C490.439 215.132 490.511 214.405 490.785 213.744C491.059 213.083 491.523 212.518 492.119 212.12C492.714 211.723 493.414 211.511 494.13 211.511C494.845 211.511 495.545 211.723 496.14 212.12C496.736 212.518 497.2 213.083 497.474 213.744C497.748 214.405 497.82 215.132 497.68 215.834C497.541 216.536 497.196 217.181 496.69 217.687C496.354 218.024 495.955 218.291 495.515 218.473C495.075 218.655 494.603 218.748 494.127 218.747C493.651 218.746 493.18 218.65 492.741 218.467C492.302 218.283 491.903 218.014 491.569 217.675V217.687Z" fill="#F0F0F0"/>
<path d="M291 429.831C415.644 429.831 516.688 423.934 516.688 416.66C516.688 409.386 415.644 403.489 291 403.489C166.356 403.489 65.312 409.386 65.312 416.66C65.312 423.934 166.356 429.831 291 429.831Z" fill="#F5F5F5"/>
<path d="M332.392 69.199V51.0714L341.308 49.8148V67.9424L332.392 69.199Z" fill="#263238"/>
<path d="M302.745 79.2984L296.063 68.6639L301.755 64.5916L308.425 75.2145L302.745 79.2984Z" fill="#263238"/>
<path d="M365.263 67.221L371.945 54.7249L377.625 57.2031L370.955 69.7109L365.263 67.221Z" fill="#263238"/>
<g opacity="0.5">
<path d="M332.392 69.199V51.0714L341.308 49.8148V67.9424L332.392 69.199Z" fill="white"/>
<path d="M302.745 79.2984L296.063 68.6639L301.755 64.5916L308.425 75.2145L302.745 79.2984Z" fill="white"/>
<path d="M365.263 67.221L371.945 54.7249L377.625 57.2031L370.955 69.7109L365.263 67.221Z" fill="white"/>
</g>
<path d="M342.577 52.7353L331.123 54.3526C330.707 54.4293 330.279 54.4119 329.871 54.3016C329.463 54.1913 329.085 53.9909 328.764 53.7152C328.444 53.4395 328.189 53.0954 328.019 52.7084C327.849 52.3213 327.768 51.9011 327.782 51.4787C327.809 50.5548 328.157 49.6692 328.767 48.9746C329.377 48.28 330.21 47.82 331.123 47.674L342.577 46.0683C342.992 45.9918 343.418 46.009 343.826 46.1186C344.233 46.2283 344.611 46.4276 344.931 46.702C345.251 46.9764 345.506 47.319 345.677 47.7046C345.847 48.0902 345.93 48.5091 345.918 48.9306C345.889 49.8537 345.54 50.7382 344.93 51.4324C344.321 52.1266 343.489 52.5872 342.577 52.7353Z" fill="#263238"/>
<path d="M303.606 64.3006L295.121 70.3974C294.944 70.5449 294.739 70.6545 294.519 70.7194C294.298 70.7843 294.067 70.8032 293.838 70.7748C293.61 70.7464 293.39 70.6714 293.192 70.5545C292.994 70.4375 292.823 70.2811 292.688 70.0949C292.464 69.6682 292.407 69.1735 292.527 68.707C292.648 68.2404 292.937 67.8352 293.34 67.5701L301.837 61.4849C302.012 61.3361 302.215 61.2252 302.435 61.1594C302.655 61.0937 302.886 61.0744 303.114 61.1028C303.342 61.1313 303.561 61.2069 303.758 61.3247C303.955 61.4426 304.125 61.6002 304.258 61.7874C304.481 62.2124 304.538 62.7052 304.418 63.1698C304.297 63.6344 304.008 64.0376 303.606 64.3006Z" fill="#263238"/>
<path d="M378.579 58.6691L370.082 54.9691C369.88 54.8662 369.7 54.7224 369.556 54.5468C369.412 54.3711 369.306 54.1675 369.245 53.9487C369.184 53.7299 369.168 53.5009 369.2 53.2759C369.232 53.051 369.311 52.8352 369.43 52.6421C369.643 52.2066 370.008 51.8649 370.457 51.6824C370.906 51.4998 371.407 51.4894 371.863 51.6531L380.349 55.3647C380.554 55.4648 380.736 55.6072 380.882 55.7826C381.028 55.9579 381.135 56.1622 381.197 56.382C381.258 56.6018 381.273 56.8322 381.239 57.0579C381.205 57.2836 381.124 57.4996 381 57.6917C380.788 58.1242 380.424 58.4631 379.977 58.6435C379.53 58.8239 379.032 58.833 378.579 58.6691Z" fill="#263238"/>
<path opacity="0.7" d="M342.577 52.7353L331.123 54.3526C330.707 54.4293 330.279 54.4119 329.871 54.3016C329.463 54.1913 329.085 53.9909 328.764 53.7152C328.444 53.4395 328.189 53.0954 328.019 52.7084C327.849 52.3213 327.768 51.9011 327.782 51.4787C327.809 50.5548 328.157 49.6692 328.767 48.9746C329.377 48.28 330.21 47.82 331.123 47.674L342.577 46.0683C342.992 45.9918 343.418 46.009 343.826 46.1186C344.233 46.2283 344.611 46.4276 344.931 46.702C345.251 46.9764 345.506 47.319 345.677 47.7046C345.847 48.0902 345.93 48.5091 345.918 48.9306C345.889 49.8537 345.54 50.7382 344.93 51.4324C344.321 52.1266 343.489 52.5872 342.577 52.7353Z" fill="white"/>
<path opacity="0.7" d="M303.606 64.3006L295.121 70.3974C294.944 70.5449 294.739 70.6545 294.519 70.7194C294.298 70.7843 294.067 70.8032 293.838 70.7748C293.61 70.7464 293.39 70.6714 293.192 70.5545C292.994 70.4375 292.823 70.2811 292.688 70.0949C292.464 69.6682 292.407 69.1735 292.527 68.707C292.648 68.2404 292.937 67.8352 293.34 67.5701L301.837 61.4849C302.012 61.3361 302.215 61.2252 302.435 61.1594C302.655 61.0937 302.886 61.0744 303.114 61.1028C303.342 61.1313 303.561 61.2069 303.758 61.3247C303.955 61.4426 304.125 61.6002 304.258 61.7874C304.481 62.2124 304.538 62.7052 304.418 63.1698C304.297 63.6344 304.008 64.0376 303.606 64.3006Z" fill="white"/>
<path opacity="0.7" d="M378.579 58.6691L370.082 54.9691C369.88 54.8662 369.7 54.7224 369.556 54.5468C369.412 54.3711 369.306 54.1675 369.245 53.9487C369.184 53.7299 369.168 53.5009 369.2 53.2759C369.232 53.051 369.311 52.8352 369.43 52.6421C369.643 52.2066 370.008 51.8649 370.457 51.6824C370.906 51.4998 371.407 51.4894 371.863 51.6531L380.349 55.3647C380.554 55.4648 380.736 55.6072 380.882 55.7826C381.028 55.9579 381.135 56.1622 381.197 56.382C381.258 56.6018 381.273 56.8322 381.239 57.0579C381.205 57.2836 381.124 57.4996 381 57.6917C380.788 58.1242 380.424 58.4631 379.977 58.6435C379.53 58.8239 379.032 58.833 378.579 58.6691Z" fill="white"/>
<path d="M336.85 182.688C305.853 187.04 280.722 165.457 280.722 134.472C280.722 103.488 305.853 74.8304 336.85 70.4788C367.847 66.1273 392.978 87.7105 392.978 118.695L400.637 117.625C400.637 82.4049 372.073 57.878 336.85 62.8229C301.627 67.7679 273.063 100.335 273.063 135.543C273.063 170.751 301.616 195.289 336.85 190.344V182.688Z" fill="#407BFF"/>
<path d="M314.548 166.325L310.359 174.167L312.002 175.043L316.191 167.202L314.548 166.325Z" fill="#263238"/>
<path d="M361.675 78.1136L357.487 85.9551L359.129 86.8319L363.318 78.9905L361.675 78.1136Z" fill="#263238"/>
<path d="M292.765 106.305L292.02 108.012L299.274 111.178L300.02 109.472L292.765 106.305Z" fill="#263238"/>
<path d="M312.701 86.3955L311.118 87.3822L315.294 94.0777L316.877 93.091L312.701 86.3955Z" fill="#263238"/>
<path d="M299.124 152.536L291.861 157.745L292.946 159.258L300.21 154.048L299.124 152.536Z" fill="#263238"/>
<path d="M380.749 93.9424L373.486 99.1517L374.572 100.664L381.835 95.4549L380.749 93.9424Z" fill="#263238"/>
<path d="M296.448 130.38L285.279 131.949L285.797 135.636L296.967 134.067L296.448 130.38Z" fill="#263238"/>
<path d="M338.712 75.2958H334.988V86.4655H338.712V75.2958Z" fill="#263238"/>
<path d="M338.712 166.702H334.988V177.871H338.712V166.702Z" fill="#263238"/>
<path d="M322.428 114.483C321.994 114.919 321.751 115.509 321.751 116.124C321.751 116.738 321.994 117.328 322.428 117.764L334.929 128.492L338.2 124.757L325.71 114.018C325.465 113.831 325.185 113.694 324.887 113.616C324.588 113.539 324.277 113.521 323.972 113.564C323.666 113.607 323.373 113.711 323.108 113.869C322.843 114.026 322.612 114.235 322.428 114.483Z" fill="#407BFF"/>
<path opacity="0.4" d="M322.428 114.483C321.994 114.919 321.751 115.509 321.751 116.124C321.751 116.738 321.994 117.328 322.428 117.764L334.929 128.492L338.2 124.757L325.71 114.018C325.465 113.831 325.185 113.694 324.887 113.616C324.588 113.539 324.277 113.521 323.972 113.564C323.666 113.607 323.373 113.711 323.108 113.869C322.843 114.026 322.612 114.235 322.428 114.483Z" fill="white"/>
<path d="M406.096 115.926L396.773 128.41L387.461 118.544L406.096 115.926Z" fill="#407BFF"/>
<path d="M358.116 101.987C357.871 101.8 357.591 101.664 357.292 101.586C356.994 101.508 356.683 101.49 356.378 101.533C356.072 101.577 355.778 101.68 355.513 101.838C355.248 101.996 355.017 102.205 354.834 102.452L337.909 121.743C337.003 121.629 336.082 121.743 335.23 122.074C334.379 122.405 333.623 122.943 333.032 123.64C331.123 125.827 331.123 128.934 333.032 130.621C334.941 132.308 338.06 131.785 340.016 129.644C340.619 128.972 341.042 128.159 341.246 127.28C341.449 126.401 341.427 125.485 341.18 124.617L358.105 105.315C358.327 105.099 358.504 104.84 358.625 104.555C358.747 104.27 358.81 103.963 358.811 103.653C358.812 103.343 358.751 103.036 358.632 102.75C358.512 102.464 358.337 102.204 358.116 101.987Z" fill="#407BFF"/>
<path d="M361.178 172.17L375.728 170.122L374.436 176.836L348.211 180.524L349.258 175.184L365.042 160.605C366.526 159.263 367.861 157.765 369.023 156.137C369.746 155.113 370.151 153.899 370.187 152.646C370.218 152.139 370.113 151.633 369.884 151.179C369.655 150.725 369.31 150.34 368.883 150.063C367.723 149.45 366.381 149.273 365.1 149.563C363.669 149.766 362.298 150.279 361.084 151.064C359.775 151.89 358.634 152.956 357.72 154.205L352.331 151.052C353.838 148.824 355.827 146.963 358.151 145.607C360.645 144.115 363.418 143.149 366.299 142.768C368.414 142.414 370.581 142.513 372.655 143.059C374.322 143.491 375.809 144.44 376.903 145.77C377.925 147.08 378.46 148.705 378.416 150.366C378.395 152.582 377.78 154.751 376.635 156.649C374.927 159.299 372.845 161.689 370.455 163.746L361.178 172.17Z" fill="#263238"/>
<path d="M410.403 164.514L404.723 165.317L403.279 172.787L395.469 173.881L396.924 166.399L378.3 169.029L379.336 163.49L399.718 138.661L408.483 137.439L389.474 160.931L398.588 159.651L399.869 152.984L407.342 151.937L406.05 158.592L411.742 157.801L410.403 164.514Z" fill="#263238"/>
<path d="M433.264 126.933L440.493 125.909L415.059 176.08L407.889 177.08L433.264 126.933Z" fill="#263238"/>
<path d="M466.263 129.318L465.228 134.658L446.72 166.678L437.815 167.935L455.578 137.346L444.345 138.929L443.181 144.746L436.058 145.747L438.479 133.239L466.263 129.318Z" fill="#263238"/>
<path d="M352.191 214.918C351.088 214.795 350.02 214.455 349.049 213.917L350.748 210.427C351.61 210.93 352.557 211.269 353.542 211.427C354.594 211.596 355.667 211.596 356.719 211.427C357.694 211.329 358.631 211.002 359.455 210.473C359.75 210.298 359.996 210.052 360.171 209.757C360.345 209.462 360.444 209.129 360.456 208.786C360.468 208.531 360.396 208.279 360.251 208.068C360.106 207.858 359.896 207.701 359.653 207.623C358.826 207.345 357.971 207.158 357.104 207.064C356.138 206.922 355.182 206.724 354.24 206.471C353.506 206.257 352.84 205.856 352.308 205.307C351.732 204.638 351.443 203.768 351.505 202.887C351.499 201.69 351.852 200.519 352.517 199.524C353.257 198.448 354.253 197.572 355.416 196.976C356.77 196.267 358.241 195.806 359.757 195.615C360.913 195.441 362.087 195.414 363.249 195.534C364.219 195.613 365.166 195.87 366.043 196.29L364.472 199.711C363.767 199.329 362.997 199.08 362.202 198.978C361.325 198.862 360.437 198.862 359.56 198.978C358.554 199.082 357.591 199.434 356.754 200.001C356.451 200.181 356.197 200.434 356.016 200.737C355.835 201.04 355.733 201.383 355.718 201.735C355.709 201.915 355.744 202.094 355.822 202.257C355.899 202.419 356.015 202.56 356.161 202.666C356.487 202.914 356.865 203.086 357.267 203.166C357.709 203.259 358.337 203.364 359.152 203.48C360.111 203.587 361.06 203.766 361.992 204.016C362.715 204.234 363.368 204.634 363.89 205.179C364.169 205.495 364.381 205.864 364.515 206.264C364.649 206.663 364.702 207.086 364.67 207.506C364.681 208.713 364.324 209.894 363.645 210.892C362.891 211.964 361.888 212.838 360.724 213.44C359.35 214.194 357.852 214.695 356.3 214.918C354.938 215.116 353.554 215.116 352.191 214.918Z" fill="#263238"/>
<path d="M373.574 197.465L372.794 201.502L381.187 200.339L380.546 203.69L372.131 204.853L371.304 209.158L381.163 207.774L380.465 211.264L366.497 213.231L370.105 194.614L383.771 192.695L383.072 196.185L373.574 197.465Z" fill="#263238"/>
<path d="M400.474 200.316C399.525 201.68 398.209 202.749 396.68 203.399L399.822 208.53L395.411 209.158L392.571 204.504L389.009 205.005L387.996 210.206L383.794 210.799L387.402 192.183L394.771 191.147C396.538 190.755 398.387 191.02 399.974 191.892C400.598 192.313 401.1 192.893 401.427 193.572C401.754 194.25 401.895 195.004 401.836 195.755C401.867 197.379 401.391 198.973 400.474 200.316ZM396.458 199.664C396.842 199.288 397.144 198.836 397.344 198.337C397.545 197.839 397.639 197.304 397.622 196.767C397.657 196.415 397.594 196.061 397.44 195.742C397.286 195.424 397.047 195.155 396.749 194.963C395.973 194.584 395.091 194.477 394.247 194.661L390.941 195.126L389.672 201.584L393.234 201.084C394.432 200.965 395.562 200.468 396.458 199.664Z" fill="#263238"/>
<path d="M423.754 187.11L412.324 206.773L408.215 207.343L404.001 189.89L408.32 189.285L411.23 201.747L419.378 187.715L423.754 187.11Z" fill="#263238"/>
<path d="M425.244 186.9L429.458 186.307L425.849 204.923L421.636 205.517L425.244 186.9Z" fill="#263238"/>
<path d="M434.87 202.945C433.601 202.537 432.504 201.718 431.751 200.618C431.002 199.437 430.625 198.059 430.668 196.662C430.659 194.667 431.143 192.701 432.077 190.938C433.019 189.156 434.381 187.63 436.046 186.493C437.782 185.296 439.776 184.526 441.866 184.247C443.294 184.011 444.756 184.09 446.15 184.48C447.293 184.785 448.292 185.486 448.966 186.458L445.94 189.355C445.435 188.713 444.757 188.23 443.984 187.964C443.212 187.698 442.38 187.66 441.587 187.854C440.321 188.024 439.119 188.512 438.095 189.274C437.105 190.032 436.307 191.012 435.767 192.136C435.208 193.281 434.921 194.539 434.929 195.813C434.885 196.402 434.983 196.994 435.214 197.538C435.445 198.082 435.802 198.564 436.256 198.943C436.797 199.31 437.408 199.561 438.051 199.682C438.694 199.802 439.355 199.788 439.992 199.641C441.888 199.379 443.608 198.39 444.788 196.883L447.267 199.059C446.342 200.236 445.189 201.215 443.877 201.937C442.565 202.658 441.121 203.108 439.631 203.259C438.042 203.536 436.409 203.428 434.87 202.945Z" fill="#263238"/>
<path d="M456.125 185.923L455.345 189.949L463.738 188.785L463.097 192.124L454.682 193.288L453.855 197.581L463.714 196.197L463.016 199.687L449.048 201.654L452.668 183.037L466.298 181.176L465.6 184.666L456.125 185.923Z" fill="#263238"/>
<path d="M228.691 104.931C216.248 104.931 206.168 112.272 206.168 121.324C206.168 127.898 211.51 133.565 219.204 136.171C218.38 139.946 216.962 143.567 215.002 146.899C217.795 146.483 220.456 145.439 222.785 143.845C225.114 142.25 227.05 140.147 228.447 137.695H228.691C241.134 137.695 251.214 130.365 251.214 121.313C251.214 112.261 241.134 104.931 228.691 104.931Z" fill="#407BFF"/>
<path opacity="0.7" d="M228.691 104.931C216.248 104.931 206.168 112.272 206.168 121.324C206.168 127.898 211.51 133.565 219.204 136.171C218.38 139.946 216.962 143.567 215.002 146.899C217.795 146.483 220.456 145.439 222.785 143.845C225.114 142.25 227.05 140.147 228.447 137.695H228.691C241.134 137.695 251.214 130.365 251.214 121.313C251.214 112.261 241.134 104.931 228.691 104.931Z" fill="white"/>
<path d="M218.762 124.478C220.029 124.478 221.055 123.451 221.055 122.185C221.055 120.92 220.029 119.893 218.762 119.893C217.496 119.893 216.469 120.92 216.469 122.185C216.469 123.451 217.496 124.478 218.762 124.478Z" fill="#263238"/>
<path d="M230.833 122.185C230.833 122.646 230.696 123.096 230.441 123.478C230.185 123.861 229.821 124.159 229.396 124.335C228.97 124.511 228.502 124.558 228.051 124.468C227.599 124.378 227.184 124.156 226.859 123.831C226.533 123.505 226.311 123.091 226.222 122.639C226.132 122.188 226.178 121.72 226.354 121.295C226.53 120.87 226.829 120.506 227.211 120.251C227.594 119.995 228.044 119.858 228.505 119.858C229.122 119.858 229.714 120.104 230.151 120.54C230.588 120.976 230.833 121.568 230.833 122.185Z" fill="#263238"/>
<path d="M238.317 124.478C239.584 124.478 240.61 123.451 240.61 122.185C240.61 120.92 239.584 119.893 238.317 119.893C237.051 119.893 236.024 120.92 236.024 122.185C236.024 123.451 237.051 124.478 238.317 124.478Z" fill="#263238"/>
<path d="M433.008 355.761C433.008 355.761 433.159 340.228 427.502 342.276C421.845 344.324 433.008 355.761 433.008 355.761Z" fill="#407BFF"/>
<path d="M439.084 341.38C439.084 341.38 446.58 328.954 439.806 327.174C433.031 325.394 439.084 341.38 439.084 341.38Z" fill="#407BFF"/>
<path d="M468.708 332.607C468.708 332.607 484.271 331.805 480.755 325.975C477.24 320.146 468.708 332.607 468.708 332.607Z" fill="#407BFF"/>
<path d="M444.089 336.738C444.089 336.738 460.385 333.061 457.336 342.206C454.286 351.352 444.089 336.738 444.089 336.738Z" fill="#407BFF"/>
<path d="M432.251 369.805C432.251 369.805 426.024 355.703 422.532 360.718C419.04 365.733 432.251 369.805 432.251 369.805Z" fill="#407BFF"/>
<path d="M450.014 333.806C450.014 333.806 466.613 329.454 461.445 323.334C456.276 317.214 450.014 333.806 450.014 333.806Z" fill="#407BFF"/>
<path d="M462.562 332.095C462.562 332.095 475.692 338.541 469.639 342.753C463.586 346.965 462.562 332.095 462.562 332.095Z" fill="#407BFF"/>
<path d="M434.649 349.513C434.649 349.513 443.74 338.576 446.545 346.523C449.351 354.47 434.649 349.513 434.649 349.513Z" fill="#407BFF"/>
<g opacity="0.4">
<path d="M432.251 369.805C432.251 369.805 426.024 355.703 422.532 360.718C419.04 365.733 432.251 369.805 432.251 369.805Z" fill="white"/>
<path d="M450.014 333.806C450.014 333.806 466.613 329.454 461.445 323.334C456.276 317.214 450.014 333.806 450.014 333.806Z" fill="white"/>
<path d="M462.562 332.095C462.562 332.095 475.692 338.541 469.639 342.753C463.586 346.965 462.562 332.095 462.562 332.095Z" fill="white"/>
<path d="M434.649 349.513C434.649 349.513 443.74 338.576 446.545 346.523C449.351 354.47 434.649 349.513 434.649 349.513Z" fill="white"/>
</g>
<path d="M432.158 363.708C432.158 363.708 438.677 349.746 443.926 356.785C449.176 363.824 432.158 363.708 432.158 363.708Z" fill="#407BFF"/>
<path d="M432.263 378.392C430.288 369.293 430.571 359.85 433.089 350.886C438.421 333.433 454.775 329.326 471.304 331.967C472.619 332.177 472.037 334.155 470.733 333.945C461.957 332.549 452.109 332.41 444.462 337.715C438.991 341.543 435.895 347.628 434.405 354.004C432.657 361.866 432.614 370.011 434.277 377.891C434.544 379.195 432.542 379.706 432.263 378.403V378.392Z" fill="#407BFF"/>
<g opacity="0.3">
<path d="M432.263 378.392C430.288 369.293 430.571 359.85 433.089 350.886C438.421 333.433 454.775 329.326 471.304 331.967C472.619 332.177 472.037 334.155 470.733 333.945C461.957 332.549 452.109 332.41 444.462 337.715C438.991 341.543 435.895 347.628 434.405 354.004C432.657 361.866 432.614 370.011 434.277 377.891C434.544 379.195 432.542 379.706 432.263 378.403V378.392Z" fill="black"/>
</g>
<path d="M419.308 351.049C419.308 351.049 411.16 332.06 405.875 337.017C400.591 341.974 419.308 351.049 419.308 351.049Z" fill="#407BFF"/>
<path d="M418.609 330.85C418.609 330.85 420.542 312.455 411.881 313.246C403.221 314.038 418.609 330.85 418.609 330.85Z" fill="#407BFF"/>
<path d="M447.698 307.254C447.698 307.254 464.983 299.494 457.883 293.932C450.782 288.37 447.698 307.254 447.698 307.254Z" fill="#407BFF"/>
<path d="M421.845 323.02C421.845 323.02 438.479 311.385 439.841 323.904C441.203 336.424 421.845 323.02 421.845 323.02Z" fill="#407BFF"/>
<path d="M425.943 368.432C425.943 368.432 411.288 354.028 409.972 361.637C408.657 369.246 425.943 368.432 425.943 368.432Z" fill="#407BFF"/>
<path d="M427.025 316.865C427.025 316.865 443.624 304.322 434.475 299.121C425.326 293.92 427.025 316.865 427.025 316.865Z" fill="#407BFF"/>
<path d="M440.423 309.314C440.423 309.314 458.802 311.443 454.135 319.204C449.467 326.964 440.423 309.314 440.423 309.314Z" fill="#407BFF"/>
<path d="M417.876 342.683C417.876 342.683 422.416 325.405 429.842 333.864C437.268 342.323 417.876 342.683 417.876 342.683Z" fill="#407BFF"/>
<g opacity="0.4">
<path d="M425.943 368.432C425.943 368.432 411.288 354.028 409.972 361.637C408.657 369.247 425.943 368.432 425.943 368.432Z" fill="white"/>
<path d="M427.025 316.865C427.025 316.865 443.624 304.322 434.475 299.121C425.326 293.92 427.025 316.865 427.025 316.865Z" fill="white"/>
<path d="M440.423 309.314C440.423 309.314 458.802 311.443 454.135 319.204C449.467 326.964 440.423 309.314 440.423 309.314Z" fill="white"/>
<path d="M417.876 342.683C417.876 342.683 422.416 325.405 429.842 333.864C437.268 342.323 417.876 342.683 417.876 342.683Z" fill="white"/>
</g>
<path d="M422.602 361.055C422.602 361.055 422.602 341.194 432.31 347.489C442.017 353.783 422.602 361.055 422.602 361.055Z" fill="#407BFF"/>
<path d="M430.505 378.88C423.684 368.909 418.423 356.774 416.84 345.045C413.651 321.496 430.063 309.337 450.305 305.335C451.911 305.02 452.295 307.662 450.712 308.011C439.969 310.128 428.596 314.282 422.776 324.056C418.574 331.095 418.272 339.856 419.96 348.257C422.205 358.678 426.468 368.559 432.507 377.345C432.605 377.478 432.676 377.628 432.715 377.789C432.755 377.949 432.763 378.115 432.738 378.279C432.713 378.442 432.656 378.598 432.571 378.74C432.485 378.881 432.373 379.004 432.24 379.102C432.107 379.199 431.956 379.27 431.796 379.309C431.635 379.349 431.469 379.356 431.305 379.332C431.142 379.307 430.986 379.25 430.844 379.165C430.703 379.079 430.58 378.967 430.482 378.834L430.505 378.88Z" fill="#407BFF"/>
<g opacity="0.3">
<path d="M430.505 378.88C423.684 368.909 418.423 356.774 416.84 345.045C413.651 321.496 430.063 309.337 450.305 305.335C451.911 305.02 452.295 307.662 450.712 308.011C439.969 310.128 428.596 314.282 422.776 324.056C418.574 331.095 418.272 339.856 419.96 348.257C422.205 358.678 426.468 368.559 432.507 377.345C432.605 377.478 432.676 377.628 432.715 377.789C432.755 377.949 432.763 378.115 432.738 378.279C432.713 378.442 432.656 378.598 432.571 378.74C432.485 378.881 432.373 379.004 432.24 379.102C432.107 379.199 431.956 379.27 431.796 379.309C431.635 379.349 431.469 379.356 431.305 379.332C431.142 379.307 430.986 379.25 430.844 379.165C430.703 379.079 430.58 378.967 430.482 378.834L430.505 378.88Z" fill="black"/>
</g>
<path d="M417.375 356.041C417.375 356.041 421.24 343.16 425.384 346.302C429.528 349.443 417.375 356.041 417.375 356.041Z" fill="#407BFF"/>
<path d="M416.025 342.59C416.025 342.59 413.034 330.385 419.087 330.664C425.139 330.944 416.025 342.59 416.025 342.59Z" fill="#407BFF"/>
<path d="M393.804 327.779C393.804 327.779 381.152 323.125 385.563 319.204C389.975 315.283 393.804 327.779 393.804 327.779Z" fill="#407BFF"/>
<path d="M413.092 337.459C413.092 337.459 400.544 330.234 400.742 338.623C400.94 347.012 413.092 337.459 413.092 337.459Z" fill="#407BFF"/>
<path d="M414.384 367.827C414.384 367.827 423.207 357.809 424.802 362.835C426.396 367.862 414.384 367.827 414.384 367.827Z" fill="#407BFF"/>
<path d="M408.948 333.515C408.948 333.515 396.354 325.649 402.197 321.88C408.04 318.11 408.948 333.515 408.948 333.515Z" fill="#407BFF"/>
<path d="M399.008 328.942C399.008 328.942 386.506 330.897 390.429 335.923C394.352 340.95 399.008 328.942 399.008 328.942Z" fill="#407BFF"/>
<path d="M417.608 350.444C417.608 350.444 412.952 339.065 408.541 344.917C404.129 350.77 417.608 350.444 417.608 350.444Z" fill="#407BFF"/>
<g opacity="0.4">
<path d="M414.384 367.827C414.384 367.827 423.207 357.809 424.802 362.835C426.396 367.862 414.384 367.827 414.384 367.827Z" fill="white"/>
<path d="M408.948 333.515C408.948 333.515 396.354 325.649 402.197 321.88C408.04 318.11 408.948 333.515 408.948 333.515Z" fill="white"/>
<path d="M399.008 328.942C399.008 328.942 386.506 330.897 390.429 335.923C394.352 340.95 399.008 328.942 399.008 328.942Z" fill="white"/>
<path d="M417.608 350.444C417.608 350.444 412.952 339.065 408.541 344.917C404.129 350.77 417.608 350.444 417.608 350.444Z" fill="white"/>
</g>
<path d="M416.002 362.812C416.002 362.812 414.221 349.583 408.063 354.063C401.906 358.542 416.002 362.812 416.002 362.812Z" fill="#407BFF"/>
<path d="M412.149 374.913C416.123 367.906 418.313 360.031 418.528 351.98C418.609 336.203 406.166 328.593 391.826 326.522C390.662 326.359 390.662 328.151 391.826 328.314C399.438 329.408 407.644 331.805 412.557 338.181C416.049 342.742 417.096 348.571 416.689 354.214C416.11 361.162 414.05 367.907 410.648 373.994C410.089 374.994 411.614 375.937 412.184 374.924L412.149 374.913Z" fill="#407BFF"/>
<g opacity="0.3">
<path d="M412.149 374.913C416.123 367.906 418.313 360.031 418.528 351.98C418.609 336.203 406.166 328.593 391.826 326.522C390.662 326.359 390.662 328.151 391.826 328.314C399.438 329.408 407.644 331.805 412.557 338.181C416.049 342.742 417.096 348.571 416.689 354.214C416.11 361.162 414.05 367.907 410.648 373.994C410.089 374.994 411.614 375.937 412.184 374.924L412.149 374.913Z" fill="black"/>
</g>
<path d="M448.373 371.643L443.868 405.606C443.586 407.718 442.547 409.656 440.943 411.06C439.34 412.464 437.281 413.238 435.15 413.239H407.132C405.001 413.238 402.942 412.464 401.339 411.06C399.735 409.656 398.696 407.718 398.414 405.606L393.909 371.643H448.373Z" fill="#407BFF"/>
<path opacity="0.3" d="M448.373 371.643L443.868 405.606C443.586 407.718 442.547 409.656 440.943 411.06C439.34 412.464 437.281 413.238 435.15 413.239H407.132C405.001 413.238 402.942 412.464 401.339 411.06C399.735 409.656 398.696 407.718 398.414 405.606L393.909 371.643H448.373Z" fill="white"/>
<path d="M195.401 306.405H187.753V356.646H195.401V306.405Z" fill="#263238"/>
<path opacity="0.5" d="M195.401 306.405H187.753V356.646H195.401V306.405Z" fill="white"/>
<path d="M214.816 394.274L196.902 391.039V355.087C196.904 354.822 196.853 354.559 196.752 354.314C196.651 354.07 196.503 353.847 196.316 353.66C196.129 353.473 195.906 353.324 195.661 353.224C195.416 353.123 195.153 353.072 194.889 353.074H188.265C188 353.072 187.737 353.123 187.491 353.224C187.246 353.324 187.022 353.472 186.834 353.659C186.646 353.846 186.496 354.069 186.394 354.314C186.292 354.559 186.24 354.821 186.24 355.087V391.039L168.338 394.274C167.081 394.498 165.943 395.157 165.124 396.136C164.304 397.114 163.856 398.35 163.856 399.626L191.571 397.124L219.298 399.626C219.296 398.35 218.847 397.116 218.028 396.138C217.209 395.16 216.072 394.5 214.816 394.274Z" fill="#263238"/>
<path d="M169.676 405.06C169.676 406.21 169.335 407.335 168.695 408.292C168.056 409.248 167.147 409.994 166.084 410.434C165.02 410.875 163.85 410.99 162.721 410.765C161.592 410.541 160.555 409.987 159.741 409.173C158.927 408.36 158.373 407.323 158.148 406.194C157.924 405.066 158.039 403.896 158.479 402.833C158.92 401.77 159.666 400.862 160.623 400.222C161.58 399.583 162.705 399.242 163.856 399.242C165.4 399.242 166.88 399.855 167.972 400.946C169.063 402.037 169.676 403.517 169.676 405.06Z" fill="#407BFF"/>
<path d="M225.118 405.06C225.118 406.21 224.776 407.335 224.137 408.292C223.497 409.248 222.588 409.994 221.525 410.434C220.461 410.875 219.291 410.99 218.162 410.765C217.033 410.541 215.996 409.987 215.182 409.173C214.368 408.36 213.814 407.323 213.589 406.194C213.365 405.066 213.48 403.896 213.921 402.833C214.361 401.77 215.107 400.862 216.064 400.222C217.021 399.583 218.147 399.242 219.298 399.242C220.062 399.242 220.819 399.392 221.525 399.685C222.231 399.977 222.873 400.406 223.413 400.946C223.953 401.486 224.382 402.127 224.675 402.833C224.967 403.539 225.118 404.296 225.118 405.06Z" fill="#407BFF"/>
<path d="M196.122 405.06C196.122 408.271 194.795 410.877 191.571 410.877C188.347 410.877 187.032 408.271 187.032 405.06C187.032 401.848 188.358 399.242 191.571 399.242C194.784 399.242 196.122 401.848 196.122 405.06Z" fill="#407BFF"/>
<g opacity="0.5">
<path d="M197.077 391.062V397.625L199.242 397.822V391.458L197.077 391.062Z" fill="black"/>
<path d="M183.959 391.446V397.811L186.124 397.625V391.062L183.959 391.446Z" fill="black"/>
</g>
<path d="M141.647 260.644C141.165 260.645 140.688 260.751 140.251 260.956C139.815 261.161 139.428 261.459 139.12 261.83C138.811 262.201 138.587 262.635 138.465 263.101C138.343 263.568 138.324 264.056 138.411 264.53L145.512 302.775C145.833 304.513 146.752 306.083 148.111 307.214C149.47 308.345 151.182 308.964 152.95 308.965H264.845C265.505 308.965 266.158 308.835 266.767 308.582C267.377 308.329 267.93 307.959 268.396 307.492C268.862 307.025 269.232 306.471 269.483 305.861C269.735 305.251 269.863 304.598 269.862 303.938C269.862 302.047 269.11 300.233 267.772 298.895C266.434 297.557 264.619 296.806 262.726 296.806H198.881C197.189 296.807 195.545 296.241 194.212 295.199C192.879 294.158 191.933 292.7 191.525 291.058L185.809 267.997C185.29 265.899 184.082 264.036 182.38 262.703C180.678 261.37 178.578 260.645 176.416 260.644H141.647Z" fill="#263238"/>
<path d="M156.756 291.058L151.041 267.997C150.521 265.899 149.314 264.036 147.611 262.703C145.909 261.37 143.809 260.645 141.647 260.644C141.165 260.645 140.688 260.751 140.251 260.956C139.815 261.161 139.428 261.459 139.12 261.83C138.811 262.201 138.587 262.635 138.465 263.101C138.343 263.568 138.324 264.056 138.411 264.53L145.512 302.775C145.833 304.513 146.752 306.083 148.111 307.214C149.47 308.345 151.182 308.964 152.95 308.965H230.065C230.725 308.966 231.38 308.837 231.991 308.585C232.602 308.333 233.156 307.963 233.624 307.496C234.091 307.029 234.461 306.474 234.713 305.864C234.966 305.253 235.095 304.599 235.093 303.938C235.09 302.048 234.337 300.235 233 298.898C231.662 297.562 229.849 296.809 227.958 296.806H164.124C162.429 296.811 160.782 296.248 159.446 295.205C158.11 294.163 157.163 292.703 156.756 291.058Z" fill="#263238"/>
<path opacity="0.2" d="M156.756 291.058L151.041 267.997C150.521 265.899 149.314 264.036 147.611 262.703C145.909 261.37 143.809 260.645 141.647 260.644C141.165 260.645 140.688 260.751 140.251 260.956C139.815 261.161 139.428 261.459 139.12 261.83C138.811 262.201 138.587 262.635 138.465 263.101C138.343 263.568 138.324 264.056 138.411 264.53L145.512 302.775C145.833 304.513 146.752 306.083 148.111 307.214C149.47 308.345 151.182 308.964 152.95 308.965H230.065C230.725 308.966 231.38 308.837 231.991 308.585C232.602 308.333 233.156 307.963 233.624 307.496C234.091 307.029 234.461 306.474 234.713 305.864C234.966 305.253 235.095 304.599 235.093 303.938C235.09 302.048 234.337 300.235 233 298.898C231.662 297.562 229.849 296.809 227.958 296.806H164.124C162.429 296.811 160.782 296.248 159.446 295.205C158.11 294.163 157.163 292.703 156.756 291.058Z" fill="white"/>
<path d="M204.026 151.215C204.026 151.215 216.76 155.008 210.812 164.421L205.283 156.37L204.026 151.215Z" fill="#263238"/>
<path d="M249.899 199.734L255.451 191.589L260.946 193.335L261.947 195.545L255.102 205.33L249.899 199.734Z" fill="#DBB178"/>
<path d="M258.129 201.863C252.565 210.59 243.788 223.318 240.436 222.562C230.588 220.363 217.051 211.043 210.102 200.804C209.053 199.26 208.623 197.377 208.897 195.531C209.17 193.684 210.128 192.007 211.58 190.833V190.763C212.338 190.145 213.21 189.682 214.147 189.401C215.084 189.12 216.067 189.027 217.04 189.126C218.014 189.226 218.957 189.516 219.818 189.981C220.679 190.445 221.439 191.075 222.056 191.834C222.184 191.985 222.301 192.148 222.417 192.311C228.575 201.142 236.385 209.519 237.666 210.229C239.167 211.09 243.067 207.402 251.319 196.976L258.129 201.863Z" fill="#407BFF"/>
<path opacity="0.6" d="M258.129 201.863C252.565 210.59 243.788 223.318 240.436 222.562C230.588 220.363 217.051 211.043 210.102 200.804C209.053 199.26 208.623 197.377 208.897 195.531C209.17 193.684 210.128 192.007 211.58 190.833V190.763C212.338 190.145 213.21 189.682 214.147 189.401C215.084 189.12 216.067 189.027 217.04 189.126C218.014 189.226 218.957 189.516 219.818 189.981C220.679 190.445 221.439 191.075 222.056 191.834C222.184 191.985 222.301 192.148 222.417 192.311C228.575 201.142 236.385 209.519 237.666 210.229C239.167 211.09 243.067 207.402 251.319 196.976L258.129 201.863Z" fill="white"/>
<path d="M258.257 194.824L269.257 196.976L264.135 187.761C264.135 187.761 257.477 187.761 255.451 191.589L258.257 194.824Z" fill="#DBB178"/>
<path opacity="0.2" d="M226.398 216.198C218.425 210.752 217.365 197.977 217.365 197.977L212.849 195.917L210.684 201.665C215.01 207.41 220.333 212.332 226.398 216.198Z" fill="black"/>
<path d="M277.032 193.032L272.329 185.539L264.147 187.761L269.256 196.976L277.032 193.032Z" fill="#DBB178"/>
<path d="M215.945 244.169L176.928 246.728C176.928 246.728 176.649 236.257 175.287 226.611C174.864 223.254 174.195 219.933 173.285 216.675C172.272 213.347 170.957 209.612 169.444 205.272C169.246 204.737 169.048 204.202 168.827 203.643C168.314 202.294 167.791 200.886 167.197 199.42V199.35C166.67 197.917 166.727 196.335 167.356 194.944C167.986 193.553 169.137 192.465 170.561 191.915C170.829 191.811 171.106 191.729 171.387 191.671C173.867 191.147 176.369 190.67 178.907 190.275L181.095 189.949C186.938 189.079 192.826 188.55 198.73 188.366C201.791 188.366 205.062 188.459 207.856 188.587L210.184 188.704C213.14 188.878 215.189 189.064 215.189 189.064C215.189 189.064 216.469 189.32 217.226 196.174C217.243 196.563 217.282 196.952 217.342 197.337C217.435 198.757 217.517 200.548 217.552 202.701C217.668 211.497 217.144 226.262 215.945 244.169Z" fill="#407BFF"/>
<path opacity="0.6" d="M215.945 244.169L176.928 246.728C176.928 246.728 176.649 236.257 175.287 226.611C174.864 223.254 174.195 219.933 173.285 216.675C172.272 213.347 170.957 209.612 169.444 205.272C169.246 204.737 169.048 204.202 168.827 203.643C168.314 202.294 167.791 200.886 167.197 199.42V199.35C166.67 197.917 166.727 196.335 167.356 194.944C167.986 193.553 169.137 192.465 170.561 191.915C170.829 191.811 171.106 191.729 171.387 191.671C173.867 191.147 176.369 190.67 178.907 190.275L181.095 189.949C186.938 189.079 192.826 188.55 198.73 188.366C201.791 188.366 205.062 188.459 207.856 188.587L210.184 188.704C213.14 188.878 215.189 189.064 215.189 189.064C215.189 189.064 216.469 189.32 217.226 196.174C217.243 196.563 217.282 196.952 217.342 197.337C217.435 198.757 217.517 200.548 217.552 202.701C217.668 211.497 217.144 226.262 215.945 244.169Z" fill="white"/>
<path d="M182.457 189.762L192.188 202.724L199.172 196.744L208.251 201.118L203.339 188.424C201.826 188.424 200.266 188.424 198.765 188.424C193.308 188.572 187.864 189.019 182.457 189.762Z" fill="#407BFF"/>
<path opacity="0.9" d="M182.457 189.762L192.188 202.724L199.172 196.744L208.251 201.118L203.339 188.424C201.826 188.424 200.266 188.424 198.765 188.424C193.308 188.572 187.864 189.019 182.457 189.762Z" fill="white"/>
<path d="M268.581 400.58H260.282L264.065 337.959H279.593L268.581 400.58Z" fill="#DBB178"/>
<path d="M259.362 399.789C259.269 398.998 269.175 398.253 269.175 398.253C269.175 398.253 276.066 403.559 282.119 404.071C288.171 404.582 285.39 408.597 278.836 409.504L262.622 411.831C257.966 412.518 260.317 408.061 259.362 399.789Z" fill="#263238"/>
<path d="M274.145 400.126C272.882 400.052 271.634 399.813 270.432 399.417C270.384 399.405 270.34 399.381 270.304 399.347C270.28 399.267 270.28 399.182 270.304 399.102C270.304 398.998 270.851 396.543 272.12 395.821C272.31 395.706 272.523 395.632 272.744 395.606C272.965 395.58 273.189 395.602 273.4 395.67C274.017 395.856 274.18 396.205 274.192 396.45C274.192 396.95 273.715 397.508 273.028 398.02C273.69 397.834 274.391 397.834 275.053 398.02C275.197 398.075 275.329 398.157 275.441 398.263C275.553 398.369 275.643 398.496 275.705 398.637C275.802 398.82 275.844 399.028 275.825 399.234C275.807 399.441 275.729 399.637 275.6 399.8C275.177 400.096 274.654 400.213 274.145 400.126ZM271.48 399.079C272.97 399.463 274.716 399.719 275.1 399.3C275.193 399.219 275.17 399.044 275.1 398.835C275.071 398.766 275.029 398.705 274.975 398.655C274.92 398.605 274.856 398.567 274.785 398.544C273.655 398.41 272.51 398.595 271.48 399.079ZM272.83 396.17C272.657 396.17 272.488 396.218 272.341 396.31C271.678 396.887 271.21 397.655 271.002 398.509C272.283 397.776 273.563 396.857 273.563 396.461C273.563 396.391 273.424 396.298 273.202 396.217C273.081 396.183 272.956 396.168 272.83 396.17Z" fill="#407BFF"/>
<path opacity="0.2" d="M263.402 348.908L277.591 349.339L279.593 337.959H264.065L263.402 348.908Z" fill="black"/>
<path d="M228.749 401.639L220.799 400.58L233.382 331.246L249.073 335.726L228.749 401.639Z" fill="#DBB178"/>
<path d="M219.763 399.475C219.763 398.66 229.681 399.475 229.681 399.475C229.681 399.475 235.698 405.746 241.6 407.154C247.501 408.562 244.161 412.134 237.549 412.041L221.16 411.843C216.423 411.796 219.449 407.829 219.763 399.475Z" fill="#263238"/>
<path d="M234.895 402.058C233.446 401.879 232.039 401.446 230.74 400.778L230.658 400.708C230.653 400.695 230.65 400.681 230.65 400.667C230.65 400.653 230.653 400.639 230.658 400.627C230.641 400.59 230.632 400.551 230.632 400.51C230.632 400.47 230.641 400.43 230.658 400.394C230.658 400.301 231.566 397.974 232.986 397.427C233.187 397.335 233.406 397.287 233.626 397.287C233.847 397.287 234.066 397.335 234.267 397.427C234.849 397.718 234.953 398.067 234.93 398.311C234.93 398.811 234.302 399.289 233.568 399.684C234.252 399.601 234.945 399.709 235.57 399.998C235.704 400.069 235.822 400.169 235.914 400.289C236.006 400.41 236.072 400.548 236.106 400.696C236.18 400.886 236.195 401.094 236.147 401.291C236.099 401.489 235.991 401.667 235.838 401.802C235.565 401.998 235.23 402.089 234.895 402.058ZM231.787 400.568C233.207 401.173 234.895 401.732 235.279 401.336C235.372 401.267 235.396 401.104 235.279 400.871C235.262 400.802 235.23 400.737 235.186 400.681C235.142 400.625 235.086 400.579 235.023 400.545C233.961 400.27 232.845 400.278 231.787 400.568ZM233.417 397.892C233.289 397.897 233.163 397.925 233.044 397.974C232.311 398.438 231.738 399.116 231.403 399.917C232.823 399.393 234.162 398.637 234.185 398.265C234.185 398.195 234.069 398.078 233.871 397.985C233.747 397.923 233.613 397.884 233.475 397.869L233.417 397.892Z" fill="#407BFF"/>
<path opacity="0.2" d="M249.073 335.726L233.382 331.246L230.903 344.917L245.429 347.535L249.073 335.726Z" fill="black"/>
<path d="M259.956 343.335L279.919 344.382C285.029 320.856 290.127 294.921 289.114 289.231C287.194 278.329 272.376 267.229 214.851 257.817L188.079 298.028C188.079 298.028 227.236 296.201 262.924 296.201C262.913 296.224 260.922 318.61 259.956 343.335Z" fill="#407BFF"/>
<path opacity="0.1" d="M259.956 343.335L279.919 344.382C285.029 320.856 290.127 294.921 289.114 289.231C287.194 278.329 272.376 267.229 214.851 257.817L188.079 298.028C188.079 298.028 227.236 296.201 262.924 296.201C262.913 296.224 260.922 318.61 259.956 343.335Z" fill="black"/>
<path d="M258.617 340.205L259.211 345.429L281.083 346.174L282.154 341.369L258.617 340.205Z" fill="#407BFF"/>
<path d="M202.105 188.401H198.73C193.887 188.553 189.057 188.948 184.25 189.565C186.345 192.066 192.875 195.964 197.251 195.964C203.362 195.918 202.001 191.38 202.105 188.401Z" fill="#DBB178"/>
<path d="M228.924 339.286L249.329 342.602C257.616 319.413 265.904 294.735 265.764 289.173C265.485 278.097 263.052 272.349 222.976 263.413C222.976 263.413 220.846 260.307 215.992 244.215L176.928 246.775C176.928 246.775 159.107 279.586 172.901 293.595C175.95 296.713 181.945 298.109 188.033 298.051C188.033 298.051 202.117 298.121 236.921 296.492C236.932 296.492 232.8 316.341 228.924 339.286Z" fill="#407BFF"/>
<path d="M228.109 335.726L251.75 339.716L249.503 344.685L228.004 341.159L228.109 335.726Z" fill="#407BFF"/>
<path opacity="0.1" d="M258.617 340.205L259.211 345.429L281.083 346.174L282.154 341.369L258.617 340.205Z" fill="black"/>
<path d="M199.149 185.039C198.7 187.912 198.818 190.845 199.498 193.672L188.801 192.101C188.57 192.067 188.351 191.981 188.159 191.848C187.968 191.715 187.81 191.54 187.697 191.336C187.585 191.132 187.52 190.905 187.51 190.673C187.5 190.44 187.543 190.208 187.637 189.995C189.103 186.668 189.685 179.966 190.046 176.882C190.244 175.021 190.326 173.322 190.337 172.135C190.349 170.948 190.337 170.506 190.337 170.506L195.121 172.694L202.932 176.266C201.131 178.927 199.848 181.903 199.149 185.039Z" fill="#DBB178"/>
<path opacity="0.2" d="M202.955 176.266C201.137 178.924 199.834 181.9 199.114 185.039C195.211 183.491 191.987 180.604 190.023 176.894C190.233 175.032 190.314 173.334 190.326 172.147C192.025 172.321 193.608 172.496 195.121 172.705L202.955 176.266Z" fill="black"/>
<path d="M203.525 168.633C203.211 172.205 205.039 175.09 207.599 175.09C210.16 175.09 212.5 172.205 212.814 168.633C213.128 165.061 211.301 162.164 208.74 162.164C206.179 162.164 203.84 165.061 203.525 168.633Z" fill="#407BFF"/>
<path opacity="0.5" d="M203.071 168.633C202.757 172.205 204.585 175.09 207.145 175.09C209.706 175.09 212.034 172.205 212.349 168.633C212.663 165.061 210.835 162.164 208.275 162.164C205.714 162.164 203.374 165.061 203.071 168.633Z" fill="black"/>
<path d="M185.158 162.35C187.066 171.1 187.73 176.312 192.898 180.303C194.564 181.626 196.561 182.467 198.672 182.734C200.783 183.002 202.926 182.687 204.87 181.822C206.814 180.957 208.484 179.576 209.697 177.829C210.911 176.083 211.623 174.037 211.755 171.914C212.442 163.77 209.206 150.82 199.987 148.341C198.005 147.75 195.903 147.691 193.891 148.169C191.879 148.647 190.029 149.646 188.526 151.066C187.023 152.486 185.921 154.276 185.329 156.257C184.738 158.238 184.679 160.339 185.158 162.35Z" fill="#DBB178"/>
<path d="M183.132 171.484C184.55 173.194 186.515 174.361 188.696 174.788C191.455 175.253 192.083 172.705 190.675 170.227C189.418 168.005 186.45 165.084 183.982 165.736C181.514 166.387 181.351 169.331 183.132 171.484Z" fill="#DBB178"/>
<path d="M198.974 163.211C199.091 163.932 199.556 164.468 200.033 164.375C200.511 164.281 200.79 163.688 200.685 162.978C200.58 162.269 200.103 161.722 199.626 161.815C199.149 161.908 198.869 162.49 198.974 163.211Z" fill="#263238"/>
<path d="M207.192 162.245C207.297 162.967 207.774 163.502 208.24 163.409C208.705 163.316 209.008 162.722 208.903 162.001C208.798 161.28 208.309 160.756 207.844 160.837C207.378 160.919 207.017 161.524 207.192 162.245Z" fill="#263238"/>
<path d="M204.596 162.909C205.801 165.005 207.276 166.934 208.985 168.645C208.539 169.054 208.009 169.361 207.431 169.542C206.854 169.723 206.244 169.774 205.644 169.692L204.596 162.909Z" fill="#C0854B"/>
<path d="M196.053 160.896C195.984 160.911 195.912 160.911 195.843 160.896C195.793 160.869 195.749 160.833 195.714 160.789C195.679 160.745 195.653 160.694 195.638 160.64C195.622 160.585 195.618 160.528 195.626 160.472C195.633 160.416 195.651 160.363 195.68 160.314C195.993 159.72 196.448 159.213 197.004 158.838C197.561 158.462 198.202 158.23 198.869 158.161C198.925 158.157 198.981 158.163 199.033 158.181C199.086 158.198 199.135 158.227 199.176 158.264C199.218 158.301 199.251 158.346 199.274 158.396C199.298 158.447 199.31 158.501 199.312 158.557C199.316 158.613 199.31 158.669 199.292 158.723C199.275 158.776 199.247 158.825 199.21 158.868C199.173 158.91 199.128 158.945 199.078 158.969C199.027 158.994 198.972 159.008 198.916 159.011C198.391 159.07 197.889 159.258 197.454 159.559C197.019 159.859 196.666 160.263 196.425 160.733C196.381 160.788 196.324 160.833 196.259 160.861C196.194 160.889 196.123 160.901 196.053 160.896Z" fill="#263238"/>
<path d="M210.207 159.069C210.137 159.071 210.069 159.055 210.007 159.023C209.946 158.99 209.894 158.942 209.858 158.883C209.562 158.423 209.165 158.037 208.697 157.754C208.229 157.472 207.702 157.301 207.157 157.254C207.056 157.237 206.965 157.185 206.899 157.108C206.833 157.03 206.797 156.931 206.797 156.829C206.797 156.727 206.833 156.629 206.899 156.551C206.965 156.473 207.056 156.421 207.157 156.405C207.841 156.45 208.504 156.654 209.094 157.002C209.684 157.349 210.185 157.83 210.556 158.406C210.62 158.499 210.644 158.613 210.625 158.724C210.605 158.835 210.543 158.934 210.451 158.999C210.377 159.044 210.293 159.068 210.207 159.069Z" fill="#263238"/>
<path d="M186.869 173.857C186.869 173.857 192.432 168.168 189.709 154.205C189.709 154.205 194.19 158.01 204.596 155.194C204.596 155.194 198.439 155.799 195.622 152.867C195.622 152.867 201.36 155.532 210.637 152.867C210.637 152.867 208.985 143.478 198.997 143.001C198.997 143.001 202.222 140.29 205.33 140.813C205.33 140.813 202.152 138.079 194.085 143.396L190.896 144.699C190.896 144.699 181.91 141.465 176.928 149.074C172.959 155.09 174.949 174.032 186.869 173.857Z" fill="#263238"/>
<path d="M207.273 171.286C207.273 171.286 204.457 170.576 196.518 170.402C197.403 172.81 199.091 174.8 203.165 174.846C203.672 174.903 204.186 174.853 204.674 174.702C205.161 174.55 205.612 174.299 205.998 173.965C206.384 173.63 206.697 173.22 206.916 172.759C207.136 172.298 207.257 171.796 207.273 171.286Z" fill="#263238"/>
<path d="M201.372 172.927C202.937 172.869 204.48 173.305 205.784 174.172C205.022 174.659 204.125 174.892 203.223 174.835C201.664 174.901 200.126 174.464 198.834 173.59C199.589 173.107 200.477 172.875 201.372 172.927Z" fill="#A02724"/>
<path d="M206.913 171.216C206.83 171.509 206.667 171.773 206.443 171.978C206.219 172.184 205.942 172.323 205.644 172.38C203.299 172.326 200.963 172.077 198.66 171.635C198.292 171.603 197.937 171.479 197.629 171.276C197.32 171.073 197.066 170.797 196.891 170.471C200.246 170.461 203.596 170.71 206.913 171.216Z" fill="white"/>
<path d="M182.55 165.363V155.974C182.549 153.195 183.446 150.49 185.107 148.261C186.768 146.033 189.105 144.4 191.769 143.606L194.912 143.047C192.18 143.862 189.784 145.536 188.081 147.821C186.378 150.106 185.459 152.88 185.46 155.73V165.363H182.55Z" fill="#407BFF"/>
<path d="M189.848 169.913C190.163 173.485 188.335 176.371 185.774 176.371C183.214 176.371 180.874 173.485 180.571 169.913C180.269 166.341 182.085 163.444 184.645 163.444C187.206 163.444 189.534 166.341 189.848 169.913Z" fill="#407BFF"/>
<path opacity="0.5" d="M189.848 169.913C190.163 173.485 188.335 176.371 185.774 176.371C183.214 176.371 180.874 173.485 180.571 169.913C180.269 166.341 182.085 163.444 184.645 163.444C187.206 163.444 189.534 166.341 189.848 169.913Z" fill="black"/>
<path d="M188.3 169.913C188.603 173.485 186.787 176.371 184.215 176.371C181.642 176.371 179.326 173.485 179.012 169.913C178.697 166.341 180.525 163.444 183.086 163.444C185.646 163.444 187.986 166.341 188.3 169.913Z" fill="#407BFF"/>
<path opacity="0.3" d="M185.076 170.855L184.866 168.97H185.227C184.762 167.12 183.458 165.736 182.026 165.736C180.595 165.736 179.547 167.12 179.396 168.97H179.64L179.85 170.855H179.57C180.036 172.705 181.34 174.078 182.76 174.078C184.18 174.078 185.251 172.705 185.39 170.855H185.076Z" fill="white"/>
<path d="M168.349 170.704L173.436 160.698L177.545 170.402C177.545 170.402 173.424 175.637 169.176 174.881L168.349 170.704Z" fill="#DBB178"/>
<path d="M181.34 157.01L184.331 165.329L177.533 170.402L173.436 160.698L181.34 157.01Z" fill="#DBB178"/>
<path d="M169.688 181.478L174.577 173.252L174.065 169.901L169.758 168.377L163.623 177.918L169.688 181.478Z" fill="#DBB178"/>
<path d="M173.215 176.359L164.287 195.999C164.287 195.999 168.629 192.101 171.027 191.543C174.844 190.647 186.368 194.126 174.693 206.796C174.693 206.796 151.576 221.236 146.862 215.639C143.195 211.288 158.77 184.841 165.905 173.252L173.215 176.359Z" fill="#407BFF"/>
<path opacity="0.6" d="M173.215 176.359L164.287 195.999C164.287 195.999 168.629 192.101 171.027 191.543C174.844 190.647 186.368 194.126 174.693 206.796C174.693 206.796 151.576 221.236 146.862 215.639C143.195 211.288 158.77 184.841 165.905 173.252L173.215 176.359Z" fill="white"/>
<path opacity="0.2" d="M164.287 195.999L161.796 203.666L169.106 192.427C167.401 193.479 165.789 194.674 164.287 195.999Z" fill="black"/>
<path d="M197.729 178.581C196.751 178.606 195.773 178.544 194.807 178.395C192.316 177.5 189.906 176.394 187.602 175.091L188.068 174.253C190.305 175.507 192.64 176.577 195.052 177.452C197.53 177.658 200.022 177.658 202.501 177.452L202.571 178.418C202.385 178.418 199.94 178.581 197.729 178.581Z" fill="#407BFF"/>
<path d="M198.776 178.78L203.432 178.43C203.432 178.43 203.304 176.987 201.104 177.045C198.904 177.103 198.776 178.78 198.776 178.78Z" fill="#407BFF"/>
<g opacity="0.5">
<path d="M197.729 178.581C196.751 178.606 195.773 178.544 194.807 178.395C192.316 177.5 189.906 176.394 187.602 175.091L188.068 174.253C190.305 175.507 192.64 176.577 195.052 177.452C197.53 177.658 200.022 177.658 202.501 177.452L202.571 178.418C202.385 178.418 199.94 178.581 197.729 178.581Z" fill="black"/>
<path d="M198.776 178.78L203.432 178.43C203.432 178.43 203.304 176.987 201.104 177.045C198.904 177.103 198.776 178.78 198.776 178.78Z" fill="black"/>
</g>
<path d="M384.19 412.18C383.945 412.19 383.701 412.151 383.472 412.066C383.242 411.981 383.032 411.851 382.852 411.685C382.673 411.518 382.528 411.318 382.426 411.096C382.324 410.873 382.267 410.633 382.258 410.388L370.618 275.677C370.597 274.515 370.143 273.402 369.344 272.558C368.545 271.714 367.459 271.2 366.299 271.116H311.312C310.152 271.2 309.066 271.714 308.267 272.558C307.468 273.402 307.014 274.515 306.993 275.677L295.353 410.388C295.352 410.638 295.3 410.885 295.202 411.114C295.103 411.343 294.959 411.55 294.779 411.723C294.599 411.895 294.386 412.03 294.153 412.118C293.919 412.207 293.671 412.248 293.421 412.238C292.918 412.137 292.473 411.846 292.179 411.426C291.884 411.006 291.762 410.489 291.838 409.981L303.478 275.258C303.885 270.545 307.249 266.997 311.312 266.997H366.299C370.362 266.997 373.726 270.545 374.133 275.258L385.773 409.981C385.849 410.489 385.727 411.006 385.432 411.426C385.138 411.846 384.693 412.137 384.19 412.238V412.18Z" fill="#407BFF"/>
<g opacity="0.4">
<path d="M384.19 412.18C383.945 412.19 383.701 412.151 383.472 412.066C383.242 411.981 383.032 411.851 382.852 411.685C382.673 411.518 382.528 411.318 382.426 411.096C382.324 410.873 382.267 410.633 382.258 410.388L370.618 275.677C370.597 274.515 370.143 273.402 369.344 272.558C368.545 271.714 367.459 271.2 366.299 271.116H311.312C310.152 271.2 309.066 271.714 308.267 272.558C307.468 273.402 307.014 274.515 306.993 275.677L295.353 410.388C295.352 410.638 295.3 410.885 295.202 411.114C295.103 411.343 294.959 411.55 294.779 411.723C294.599 411.895 294.386 412.03 294.153 412.118C293.919 412.207 293.671 412.248 293.421 412.238C292.918 412.137 292.473 411.846 292.179 411.426C291.884 411.006 291.762 410.489 291.838 409.981L303.478 275.258C303.885 270.545 307.249 266.997 311.312 266.997H366.299C370.362 266.997 373.726 270.545 374.133 275.258L385.773 409.981C385.849 410.489 385.727 411.006 385.432 411.426C385.138 411.846 384.693 412.137 384.19 412.238V412.18Z" fill="black"/>
</g>
<path d="M383.422 261.167H233.952C232.647 261.167 231.589 262.225 231.589 263.529V271.185C231.589 272.49 232.647 273.547 233.952 273.547H383.422C384.727 273.547 385.785 272.49 385.785 271.185V263.529C385.785 262.225 384.727 261.167 383.422 261.167Z" fill="#263238"/>
<path opacity="0.2" d="M318.121 261.167H383.422C384.039 261.167 384.631 261.413 385.068 261.849C385.504 262.285 385.75 262.877 385.75 263.495V271.15C385.75 271.768 385.504 272.359 385.068 272.796C384.631 273.232 384.039 273.477 383.422 273.477H318.121V261.167Z" fill="white"/>
<path d="M323.964 412.18C323.714 412.191 323.464 412.151 323.229 412.064C322.995 411.976 322.78 411.841 322.599 411.669C322.417 411.496 322.272 411.288 322.173 411.058C322.074 410.828 322.022 410.581 322.021 410.33L310.381 275.618C310.36 274.456 309.906 273.344 309.107 272.5C308.308 271.656 307.222 271.141 306.062 271.057H251.075C249.917 271.144 248.834 271.66 248.037 272.504C247.241 273.348 246.788 274.458 246.768 275.618L235.128 410.388C235.127 410.638 235.075 410.885 234.976 411.114C234.878 411.343 234.734 411.55 234.554 411.722C234.374 411.895 234.161 412.03 233.927 412.118C233.694 412.207 233.445 412.248 233.196 412.238C232.685 412.132 232.237 411.83 231.945 411.397C231.654 410.965 231.543 410.436 231.636 409.923L243.276 275.199C243.683 270.487 247.059 266.938 251.11 266.938H306.097C310.159 266.938 313.523 270.487 313.931 275.199L325.571 409.923C325.647 410.429 325.527 410.944 325.234 411.364C324.942 411.784 324.5 412.076 323.999 412.18H323.964Z" fill="#407BFF"/>
<g opacity="0.4">
<path d="M323.964 412.18C323.714 412.191 323.464 412.151 323.229 412.064C322.995 411.976 322.78 411.841 322.599 411.669C322.417 411.496 322.272 411.288 322.173 411.058C322.074 410.828 322.022 410.581 322.021 410.33L310.381 275.618C310.36 274.456 309.906 273.344 309.107 272.5C308.308 271.656 307.222 271.141 306.062 271.057H251.075C249.917 271.144 248.834 271.66 248.037 272.504C247.241 273.348 246.788 274.458 246.768 275.618L235.128 410.388C235.127 410.638 235.075 410.885 234.976 411.114C234.878 411.343 234.734 411.55 234.554 411.722C234.374 411.895 234.161 412.03 233.927 412.118C233.694 412.207 233.445 412.248 233.196 412.238C232.685 412.132 232.237 411.83 231.945 411.397C231.654 410.965 231.543 410.436 231.636 409.923L243.276 275.199C243.683 270.487 247.059 266.938 251.11 266.938H306.097C310.159 266.938 313.523 270.487 313.931 275.199L325.571 409.923C325.647 410.429 325.527 410.944 325.234 411.364C324.942 411.784 324.5 412.076 323.999 412.18H323.964Z" fill="black"/>
</g>
<path d="M280.908 255.071H324.046V259.131C324.046 259.671 323.831 260.189 323.449 260.571C323.067 260.953 322.549 261.167 322.009 261.167H282.945C282.405 261.167 281.887 260.953 281.505 260.571C281.123 260.189 280.908 259.671 280.908 259.131V255.094V255.071Z" fill="#263238"/>
<path opacity="0.2" d="M280.908 255.071H324.046V259.131C324.046 259.671 323.831 260.189 323.449 260.571C323.067 260.953 322.549 261.167 322.009 261.167H282.945C282.405 261.167 281.887 260.953 281.505 260.571C281.123 260.189 280.908 259.671 280.908 259.131V255.094V255.071Z" fill="white"/>
<path d="M250.4 255.071H293.537V259.131C293.537 259.671 293.323 260.189 292.941 260.571C292.559 260.953 292.041 261.167 291.5 261.167H252.437C251.896 261.167 251.378 260.953 250.996 260.571C250.614 260.189 250.4 259.671 250.4 259.131V255.094V255.071Z" fill="#263238"/>
<path opacity="0.6" d="M250.4 255.071H293.537V259.131C293.537 259.671 293.323 260.189 292.941 260.571C292.559 260.953 292.041 261.167 291.5 261.167H252.437C251.896 261.167 251.378 260.953 250.996 260.571C250.614 260.189 250.4 259.671 250.4 259.131V255.094V255.071Z" fill="white"/>
<path d="M288.544 257.386H284.54V258.829H288.544V257.386Z" fill="#263238"/>
<path d="M282.13 257.386H278.126V258.829H282.13V257.386Z" fill="#263238"/>
<path d="M327.084 261.168H329.144C329.708 261.156 330.25 260.947 330.675 260.577C331.1 260.207 331.383 259.699 331.472 259.143L338.456 216.221C338.511 215.88 338.493 215.532 338.402 215.199C338.311 214.866 338.15 214.556 337.929 214.291C337.709 214.025 337.434 213.81 337.123 213.659C336.813 213.508 336.473 213.426 336.128 213.417L302.64 213.359L293.584 261.063H295.644L327.084 261.168Z" fill="#263238"/>
<path opacity="0.6" d="M327.084 261.168H329.144C329.708 261.156 330.25 260.947 330.675 260.577C331.1 260.207 331.383 259.699 331.472 259.143L338.456 216.221C338.511 215.88 338.493 215.532 338.402 215.199C338.311 214.866 338.15 214.556 337.929 214.291C337.709 214.025 337.434 213.81 337.123 213.659C336.813 213.508 336.473 213.426 336.128 213.417L302.64 213.359L293.584 261.063H295.644L327.084 261.168Z" fill="white"/>
<path opacity="0.2" d="M294.108 258.061L293.526 261.109H295.586L327.014 261.168H329.074C329.638 261.156 330.18 260.947 330.605 260.577C331.031 260.207 331.313 259.699 331.402 259.143L331.565 258.131L294.108 258.061Z" fill="black"/>
<path d="M293.572 261.144H295.656C296.22 261.132 296.761 260.923 297.187 260.553C297.612 260.184 297.894 259.676 297.984 259.12L304.968 216.174C305.023 215.834 305.004 215.486 304.913 215.154C304.822 214.822 304.661 214.513 304.44 214.248C304.22 213.983 303.945 213.769 303.634 213.62C303.324 213.47 302.985 213.389 302.64 213.382L293.572 261.144Z" fill="#263238"/>
<path opacity="0.3" d="M293.572 261.144H295.656C296.22 261.132 296.761 260.923 297.187 260.553C297.612 260.184 297.894 259.676 297.984 259.12L304.968 216.174C305.023 215.834 305.004 215.486 304.913 215.154C304.822 214.822 304.661 214.513 304.44 214.248C304.22 213.983 303.945 213.769 303.634 213.62C303.324 213.47 302.985 213.389 302.64 213.382L293.572 261.144Z" fill="white"/>
</svg>
