<svg width="70" height="51" viewBox="0 0 70 51" fill="none" xmlns="http://www.w3.org/2000/svg">
<rect x="0.25" y="0.25415" width="69.5" height="49.5" rx="1.75" fill="white" stroke="#F5F5F5" stroke-width="0.5"/>
<mask id="mask0_1020_15838" style="mask-type:alpha" maskUnits="userSpaceOnUse" x="0" y="0" width="70" height="51">
<rect x="0.25" y="0.25415" width="69.5" height="49.5" rx="1.75" fill="white" stroke="white" stroke-width="0.5"/>
</mask>
<g mask="url(#mask0_1020_15838)">
<rect x="50" y="0.00415039" width="20" height="50" fill="#FF3131"/>
<path fill-rule="evenodd" clip-rule="evenodd" d="M0 50.0042H20V0.00415039H0V50.0042Z" fill="#FF3131"/>
<path fill-rule="evenodd" clip-rule="evenodd" d="M39.1117 24.2256C38.8785 24.4588 38.4845 24.2479 38.5492 23.9245L39.9999 16.6707L36.6666 18.3374L34.9999 13.3374L33.3333 18.3374L29.9999 16.6707L31.4507 23.9245C31.5154 24.2479 31.1213 24.4588 30.8881 24.2256L28.569 21.9064C28.4388 21.7763 28.2277 21.7763 28.0976 21.9064L26.6666 23.3374L23.3333 21.6707L24.9999 25.0041L23.569 26.435C23.4388 26.5652 23.4388 26.7763 23.569 26.9064L28.3333 31.6707H33.3333L34.1666 36.6707H35.8333L36.6666 31.6707H41.6666L46.4309 26.9064C46.5611 26.7763 46.5611 26.5652 46.4309 26.435L44.9999 25.0041L46.6666 21.6707L43.3333 23.3374L41.9023 21.9064C41.7721 21.7763 41.5611 21.7763 41.4309 21.9064L39.1117 24.2256Z" fill="#FF3131"/>
</g>
</svg>
