<svg width="71" height="70" viewBox="0 0 71 70" fill="none" xmlns="http://www.w3.org/2000/svg">
<g clip-path="url(#clip0_262_9022)">
<rect x="0.5" y="10.0042" width="70" height="50" rx="2" fill="white"/>
<mask id="mask0_262_9022" style="mask-type:alpha" maskUnits="userSpaceOnUse" x="0" y="10" width="71" height="51">
<rect x="0.5" y="10.0042" width="70" height="50" rx="2" fill="white"/>
</mask>
<g mask="url(#mask0_262_9022)">
<rect x="0.5" y="10.0042" width="70" height="50" fill="#0A17A7"/>
<path fill-rule="evenodd" clip-rule="evenodd" d="M-2.70625 5.21307L27.1667 25.3626V6.6709H43.8334V25.3625L73.7061 5.2131L77.4341 10.74L53.8156 26.6709H70.5V43.3376H53.8156L77.434 59.2684L73.7061 64.7953L43.8334 44.6459V63.3376H27.1667V44.6458L-2.70624 64.7953L-6.43419 59.2684L17.1843 43.3376H0.500023V26.6709H17.1843L-6.4342 10.74L-2.70625 5.21307Z" fill="white"/>
<path fill-rule="evenodd" clip-rule="evenodd" d="M79.6455 4.46979C79.9406 4.91837 79.8162 5.52124 79.3676 5.81635L47.7042 26.6468C47.2557 26.9419 46.6528 26.8175 46.3577 26.3689C46.0626 25.9204 46.187 25.3175 46.6356 25.0224L78.299 4.19191C78.7476 3.8968 79.3504 4.02122 79.6455 4.46979Z" fill="#DB1F35"/>
<path fill-rule="evenodd" clip-rule="evenodd" d="M79.7228 63.9233C80.0229 63.4781 79.9053 62.8738 79.46 62.5737L51.0754 43.4416C50.6302 43.1415 50.0259 43.2592 49.7258 43.7044C49.4257 44.1497 49.5434 44.7539 49.9886 45.054L78.3732 64.1861C78.8185 64.4862 79.4227 64.3686 79.7228 63.9233Z" fill="#DB1F35"/>
<path fill-rule="evenodd" clip-rule="evenodd" d="M-9.89982 5.28335C-9.59974 4.83808 -8.99552 4.72039 -8.55025 5.02047L21.0573 24.9741C21.5026 25.2742 21.6203 25.8784 21.3202 26.3236C21.0201 26.7689 20.4159 26.8866 19.9706 26.5865L-9.63694 6.63291C-10.0822 6.33283 -10.1999 5.72861 -9.89982 5.28335Z" fill="#DB1F35"/>
<path fill-rule="evenodd" clip-rule="evenodd" d="M-9.90384 66.3176C-9.60709 66.7651 -9.00376 66.8873 -8.55627 66.5905L24.2625 44.8266C24.71 44.5299 24.8322 43.9265 24.5355 43.4791C24.2387 43.0316 23.6354 42.9094 23.1879 43.2061L-9.63091 64.97C-10.0784 65.2668 -10.2006 65.8701 -9.90384 66.3176Z" fill="#DB1F35"/>
<path fill-rule="evenodd" clip-rule="evenodd" d="M0.5 40.0041H30.5V60.0042H40.5V40.0041H70.5V30.0041H40.5V10.0042H30.5V30.0041H0.5V40.0041Z" fill="#E6273E"/>
</g>
</g>
<defs>
<clipPath id="clip0_262_9022">
<rect width="70" height="70" fill="white" transform="translate(0.5)"/>
</clipPath>
</defs>
</svg>
