<svg width="320" height="320" viewBox="0 0 320 320" fill="none" xmlns="http://www.w3.org/2000/svg">
<path d="M137.645 250.714H23.2578L38.0866 214.253L45.9202 209.958L58.253 181.446L68.2242 175.59L77.709 158.438H87.0658L107.866 193.555L118.451 199.021L137.645 250.714Z" fill="#EBEBEB"/>
<path d="M23.2578 250.714H72.5954V222.259L85.2546 202.342L79.2258 181.446L87.0658 158.438H77.709L68.2242 175.59L58.253 181.446L45.9202 209.958L38.0866 214.253L23.2578 250.714Z" fill="#DBDBDB"/>
<path d="M87.0625 250.714L91.8433 235.731L99.5745 228.115L103.031 219.136L105.437 221.088V229.677L99.5745 236.512V250.765L87.0625 250.714Z" fill="#DBDBDB"/>
<path d="M96.2539 204.576L97.5339 198.566L100.984 195.117L102.596 197.165L100.446 199.846L101.412 205.562L96.2539 204.576Z" fill="#DBDBDB"/>
<path d="M129.418 250.682H296.746L265.175 184.749L249.988 178.234L233.866 146.733L223.236 135.302L213.866 114.445L202.896 116.224L184.138 159.923L173.661 167.738L156.65 212.749L139.895 229.024L129.418 250.682Z" fill="#EBEBEB"/>
<path d="M213.866 114.445L215.152 147.302L202.8 164.563L208.592 177.766L197.124 206.886L207.12 230.976L201.2 250.682H129.418L139.895 229.024L156.65 212.749L173.661 167.738L184.138 159.923L202.896 116.224L213.866 114.445Z" fill="#DBDBDB"/>
<path d="M210.777 198.419L219.392 183.443L218.713 177.094L221.926 172.538L225.811 185.478L214.157 198.419H210.777Z" fill="#DBDBDB"/>
<path d="M204.021 88.3328L204.629 89.5744L205.998 89.7728L205.006 90.7328L205.243 92.096L204.021 91.456L202.798 92.096L203.029 90.7328L202.043 89.7728L203.406 89.5744L204.021 88.3328Z" fill="#DBDBDB"/>
<path d="M89.1339 150.278L89.7483 151.514L91.1115 151.712L90.1259 152.678L90.3562 154.042L89.1339 153.395L87.9115 154.042L88.1419 152.678L87.1562 151.712L88.5195 151.514L89.1339 150.278Z" fill="#DBDBDB"/>
<path d="M248.751 42.9312L249.365 44.1664L250.729 44.3648L249.743 45.3312L249.973 46.688L248.751 46.048L247.529 46.688L247.765 45.3312L246.773 44.3648L248.143 44.1664L248.751 42.9312Z" fill="#DBDBDB"/>
<path d="M111.474 44.8128L112.088 46.048L113.451 46.2464L112.466 47.2128L112.696 48.5696L111.474 47.9296L110.251 48.5696L110.488 47.2128L109.496 46.2464L110.866 46.048L111.474 44.8128Z" fill="#DBDBDB"/>
<path d="M285.536 146.515L286.151 147.75L287.52 147.949L286.528 148.915L286.759 150.278L285.536 149.632L284.314 150.278L284.551 148.915L283.559 147.949L284.928 147.75L285.536 146.515Z" fill="#DBDBDB"/>
<path d="M150.855 86.2016L151.463 87.4432L152.833 87.6416L151.841 88.6016L152.077 89.9648L150.855 89.3248L149.626 89.9648L149.863 88.6016L148.871 87.6416L150.241 87.4432L150.855 86.2016Z" fill="#DBDBDB"/>
<path d="M29.0817 60.6976L29.6897 61.9328L31.0529 62.1312L30.0673 63.0976L30.2977 64.4608L29.0817 63.8144L27.8529 64.4608L28.0897 63.0976L27.0977 62.1312L28.4673 61.9328L29.0817 60.6976Z" fill="#DBDBDB"/>
<path d="M55.4542 134.65L56.0622 135.885L57.4318 136.083L56.4398 137.05L56.6766 138.413L55.4542 137.766L54.2318 138.413L54.4622 137.05L53.4766 136.083L54.8398 135.885L55.4542 134.65Z" fill="#DBDBDB"/>
<path d="M29.0804 155.731L29.4516 156.499L30.2964 156.621L29.6884 157.216L29.8356 158.061L29.0804 157.658L28.3188 158.061L28.466 157.216L27.8516 156.621L28.6964 156.499L29.0804 155.731Z" fill="#DBDBDB"/>
<path d="M115.023 78.0288L115.401 78.7968L116.246 78.9184L115.638 79.5136L115.785 80.3584L115.023 79.9616L114.268 80.3584L114.415 79.5136L113.801 78.9184L114.646 78.7968L115.023 78.0288Z" fill="#DBDBDB"/>
<path d="M178.523 146.067L178.901 146.835L179.746 146.957L179.138 147.552L179.278 148.397L178.523 148L177.768 148.397L177.915 147.552L177.301 146.957L178.146 146.835L178.523 146.067Z" fill="#DBDBDB"/>
<path d="M35.7121 67.328L36.0961 68.096L36.9409 68.2176L36.3265 68.8128L36.4737 69.6576L35.7121 69.2608L34.9569 69.6576L35.1041 68.8128L34.4961 68.2176L35.3409 68.096L35.7121 67.328Z" fill="#DBDBDB"/>
<path d="M250.726 135.366L251.104 136.134L251.949 136.256L251.341 136.851L251.482 137.696L250.726 137.299L249.971 137.696L250.118 136.851L249.504 136.256L250.349 136.134L250.726 135.366Z" fill="#DBDBDB"/>
<path d="M60.5583 171.373L60.9359 172.141L61.7807 172.262L61.1727 172.858L61.3135 173.702L60.5583 173.306L59.8031 173.702L59.9503 172.858L59.3359 172.262L60.1807 172.141L60.5583 171.373Z" fill="#DBDBDB"/>
<path d="M45.8865 130.522L46.2641 131.283L47.1089 131.411L46.5009 132.006L46.6417 132.845L45.8865 132.448L45.1313 132.845L45.2785 132.006L44.6641 131.411L45.5089 131.283L45.8865 130.522Z" fill="#DBDBDB"/>
<path d="M169.908 72.1024L170.286 72.864L171.131 72.9856L170.516 73.5808L170.664 74.4256L169.908 74.0288L169.153 74.4256L169.294 73.5808L168.68 72.9856L169.524 72.864L169.908 72.1024Z" fill="#DBDBDB"/>
<path d="M253.722 171.373L254.1 172.141L254.945 172.262L254.33 172.858L254.478 173.702L253.722 173.306L252.967 173.702L253.114 172.858L252.5 172.262L253.345 172.141L253.722 171.373Z" fill="#DBDBDB"/>
<path d="M291.679 98.3168L292.057 99.0848L292.902 99.2064L292.287 99.8016L292.435 100.646L291.679 100.25L290.924 100.646L291.065 99.8016L290.457 99.2064L291.302 99.0848L291.679 98.3168Z" fill="#DBDBDB"/>
<path d="M258.316 97.1584L258.694 97.92L259.539 98.0416L258.924 98.6432L259.071 99.4816L258.316 99.0848L257.561 99.4816L257.702 98.6432L257.094 98.0416L257.939 97.92L258.316 97.1584Z" fill="#DBDBDB"/>
<path d="M233.823 63.616C232.43 66.0467 230.453 68.0919 228.071 69.5667C225.689 71.0415 222.977 71.8993 220.181 72.0627C217.384 72.2261 214.59 71.6899 212.053 70.5025C209.515 69.3151 207.314 67.514 205.647 65.2621C203.98 63.0101 202.901 60.3783 202.507 57.6045C202.113 54.8308 202.417 52.0026 203.39 49.3756C204.364 46.7486 205.977 44.4057 208.084 42.5587C210.19 40.7116 212.724 39.4187 215.455 38.7968C213.327 39.7777 211.444 41.2206 209.943 43.0207C208.442 44.8209 207.361 46.9329 206.779 49.2032C206.197 51.4734 206.129 53.8449 206.579 56.145C207.028 58.4451 207.985 60.6161 209.379 62.5C210.773 64.3839 212.57 65.9333 214.638 67.0356C216.707 68.1378 218.995 68.7652 221.336 68.8721C223.677 68.979 226.013 68.5627 228.173 67.6535C230.333 66.7443 232.263 65.365 233.823 63.616Z" fill="#DBDBDB"/>
<path d="M23.1328 250.707L57.3472 250.547L91.5616 250.496L159.997 250.387L228.432 250.49L262.646 250.547L296.861 250.707L262.646 250.861L228.432 250.918L159.997 251.027L91.5616 250.918L57.3472 250.861L23.1328 250.707Z" fill="#263238"/>
<path d="M300.391 256.442H19.5977C18.8372 256.442 18.108 256.14 17.5703 255.602C17.0326 255.064 16.7305 254.335 16.7305 253.574C16.7296 253.198 16.8032 252.824 16.947 252.476C17.0908 252.128 17.302 251.811 17.5684 251.545C17.8348 251.279 18.1512 251.068 18.4994 250.924C18.8477 250.78 19.2209 250.706 19.5977 250.707H300.391C301.152 250.707 301.881 251.009 302.419 251.547C302.956 252.085 303.258 252.814 303.258 253.574C303.257 254.334 302.954 255.063 302.417 255.6C301.879 256.137 301.151 256.44 300.391 256.442Z" fill="#455A64"/>
<path d="M243.29 262.112H66.2852C64.7017 262.112 63.418 263.396 63.418 264.979C63.418 266.563 64.7017 267.846 66.2852 267.846H243.29C244.873 267.846 246.157 266.563 246.157 264.979C246.157 263.396 244.873 262.112 243.29 262.112Z" fill="#455A64"/>
<path d="M227.391 279.187H98.4375C98.0608 279.188 97.6875 279.114 97.3393 278.971C96.991 278.827 96.6746 278.616 96.4082 278.349C96.1418 278.083 95.9306 277.766 95.7869 277.418C95.6431 277.07 95.5695 276.697 95.5703 276.32C95.5703 275.56 95.8724 274.83 96.4101 274.293C96.9478 273.755 97.6771 273.453 98.4375 273.453H227.391C227.768 273.453 228.14 273.527 228.488 273.671C228.836 273.815 229.152 274.026 229.419 274.293C229.685 274.559 229.896 274.875 230.04 275.223C230.184 275.571 230.258 275.943 230.258 276.32C230.259 276.697 230.186 277.07 230.042 277.418C229.898 277.766 229.687 278.083 229.42 278.349C229.154 278.616 228.838 278.827 228.489 278.971C228.141 279.114 227.768 279.188 227.391 279.187Z" fill="#455A64"/>
<path d="M54.3353 262.112H40.8633C39.2798 262.112 37.9961 263.396 37.9961 264.979C37.9961 266.563 39.2798 267.846 40.8633 267.846H54.3353C55.9188 267.846 57.2025 266.563 57.2025 264.979C57.2025 263.396 55.9188 262.112 54.3353 262.112Z" fill="#455A64"/>
<path d="M249.673 279.187H242.934C242.557 279.187 242.184 279.113 241.836 278.969C241.489 278.825 241.172 278.614 240.906 278.347C240.64 278.081 240.429 277.765 240.285 277.417C240.141 277.069 240.066 276.697 240.066 276.32C240.068 275.56 240.371 274.832 240.908 274.294C241.445 273.757 242.174 273.454 242.934 273.453H249.673C250.433 273.454 251.161 273.757 251.698 274.294C252.236 274.832 252.538 275.56 252.54 276.32C252.54 276.697 252.466 277.069 252.322 277.417C252.178 277.765 251.966 278.081 251.7 278.347C251.434 278.614 251.118 278.825 250.77 278.969C250.422 279.113 250.049 279.187 249.673 279.187Z" fill="#455A64"/>
<path d="M149.42 262.17H75.25C76.0138 262.17 76.7464 261.866 77.2865 261.326C77.8266 260.786 78.13 260.053 78.13 259.29C78.13 258.526 77.8266 257.793 77.2865 257.253C76.7464 256.713 76.0138 256.41 75.25 256.41H149.42C148.656 256.41 147.923 256.713 147.383 257.253C146.843 257.793 146.54 258.526 146.54 259.29C146.54 260.053 146.843 260.786 147.383 261.326C147.923 261.866 148.656 262.17 149.42 262.17Z" fill="#455A64"/>
<path d="M226.445 262.17H177.805C178.569 262.17 179.301 261.866 179.841 261.326C180.381 260.786 180.685 260.053 180.685 259.29C180.685 258.526 180.381 257.793 179.841 257.253C179.301 256.713 178.569 256.41 177.805 256.41H226.445C225.681 256.41 224.948 256.713 224.408 257.253C223.868 257.793 223.565 258.526 223.565 259.29C223.565 260.053 223.868 260.786 224.408 261.326C224.948 261.866 225.681 262.17 226.445 262.17Z" fill="#455A64"/>
<path d="M189.654 273.517H115.023C115.787 273.517 116.52 273.213 117.06 272.673C117.6 272.133 117.903 271.401 117.903 270.637C117.903 269.873 117.6 269.14 117.06 268.6C116.52 268.06 115.787 267.757 115.023 267.757H189.654C188.89 267.757 188.157 268.06 187.617 268.6C187.077 269.14 186.774 269.873 186.774 270.637C186.774 271.401 187.077 272.133 187.617 272.673C188.157 273.213 188.89 273.517 189.654 273.517Z" fill="#455A64"/>
<path d="M42.3203 250.656H220.887L188.292 170.298L172.611 162.362L155.972 123.974L144.989 110.042L135.319 84.6208L123.991 86.7904L104.624 140.045L93.8147 149.568L70.4355 204.422L53.1363 224.256L42.3203 250.656Z" fill="#455A64"/>
<path d="M135.319 84.6208L136.644 124.666L123.895 145.696L129.872 161.792L118.032 197.28L128.356 226.643L122.244 250.656H42.3203L53.1363 224.256L70.4355 204.422L93.8147 149.568L104.624 140.045L123.991 86.7904L135.319 84.6208Z" fill="#37474F"/>
<path d="M132.129 186.963L141.025 168.71L140.327 160.973L143.643 155.418L147.655 171.194L135.617 186.963H132.129Z" fill="#37474F"/>
<path d="M277.675 250.669H145.457L162.916 207.77L175.262 197.869L187.991 160.928L198.289 153.338L208.075 131.117H217.739L239.211 176.614L250.142 183.699L277.675 250.669Z" fill="#37474F"/>
<path d="M145.457 250.669H202.801V213.805L215.87 188L209.643 160.928L217.739 131.117H208.075L198.289 153.338L187.991 160.928L175.262 197.869L162.916 207.77L145.457 250.669Z" fill="#263238"/>
<path d="M217.738 250.669L222.673 231.264L230.66 221.395L234.218 209.76L236.708 212.288V223.418L230.66 232.275V250.739L217.738 250.669Z" fill="#263238"/>
<path d="M227.223 190.893L228.547 183.104L232.106 178.637L233.776 181.293L231.549 184.762L232.554 192.173L227.223 190.893Z" fill="#263238"/>
<path d="M219.025 248.102H218.078V250.771H219.025V248.102Z" fill="#263238"/>
<path d="M173.197 248.102H172.25V250.771H173.197V248.102Z" fill="#263238"/>
<path d="M172.25 250.765L185.626 230.88L199.354 250.765H172.25Z" fill="#0062FF"/>
<path opacity="0.1" d="M172.25 250.765L185.626 230.88L199.354 250.765H172.25Z" fill="black"/>
<path d="M185.625 230.88H205.235L218.86 250.765H199.353L185.625 230.88Z" fill="#0062FF"/>
<path d="M193.984 234.496H202.944L205.671 238.477H196.73L193.984 234.496Z" fill="white"/>
<path opacity="0.3" d="M181.23 250.765H189.666L185.627 230.88L181.23 250.765Z" fill="black"/>
<path d="M199.822 248.102H198.875V250.771H199.822V248.102Z" fill="#263238"/>
<path d="M185.6 230.88C182.362 237.338 178.605 244.442 175.098 250.765C178.342 244.301 182.086 237.197 185.6 230.88Z" fill="white"/>
<path d="M185.602 230.88C189.077 237.165 192.782 244.23 195.995 250.656C192.52 244.365 188.808 237.306 185.602 230.88Z" fill="white"/>
<path d="M181.227 250.765C180.618 248.682 179.39 246.834 177.707 245.466L185.598 230.88L181.227 250.765Z" fill="#0062FF"/>
<path d="M189.666 250.765L185.602 230.88L193.845 246.24C192.752 246.439 191.753 246.987 190.999 247.804C190.245 248.62 189.777 249.659 189.666 250.765Z" fill="#0062FF"/>
<path d="M50.3599 250.509C49.6303 251.245 41.0799 251.571 37.9695 251.571C34.8591 251.571 26.3087 251.245 25.6047 250.509C24.9007 249.773 35.2047 192.909 38.0015 192.909C40.7983 192.909 51.0959 249.773 50.3599 250.509Z" fill="#263238"/>
<path d="M50.5633 236.026C48.4513 236.832 40.6241 240.019 38.9345 240.947C38.9345 240.589 38.9345 240.237 38.9345 239.878C40.8225 238.765 42.7233 237.67 44.6113 236.563C46.6995 235.473 48.7271 234.27 50.6849 232.96C50.7745 232.89 50.7233 232.704 50.5953 232.755C48.5324 233.72 46.5374 234.823 44.6241 236.058C42.7041 237.184 40.7841 238.349 38.8961 239.52C38.8961 236.794 38.8854 234.069 38.8641 231.347C41.9496 230.067 44.9322 228.553 47.7857 226.816C47.8817 226.758 47.7857 226.579 47.7025 226.624C44.6483 227.851 41.6916 229.308 38.8577 230.982C38.8577 229.568 38.8577 228.147 38.8577 226.733C38.7745 219.437 38.7617 212.141 38.5761 204.845C40.4321 203.91 42.3457 203.085 44.2017 202.144C44.3233 202.08 44.2017 201.869 44.1057 201.92C42.2241 202.65 40.4129 203.526 38.5633 204.333C38.4609 200.57 38.3201 196.813 38.0897 193.05C38.0897 193.024 38.0796 193 38.0616 192.982C38.0436 192.964 38.0191 192.954 37.9937 192.954C37.9682 192.954 37.9438 192.964 37.9258 192.982C37.9078 193 37.8977 193.024 37.8977 193.05C37.6353 200.038 37.6545 207.034 37.7441 214.029C35.8241 212.493 33.7697 211.136 31.8177 209.645C31.7409 209.587 31.6641 209.715 31.7409 209.773C33.7889 211.328 35.7025 213.056 37.7505 214.605V215.789C35.6641 214.835 33.5457 213.952 31.4401 213.05C31.2737 212.979 31.1265 213.216 31.2993 213.293C33.4433 214.323 35.5809 215.373 37.7569 216.346C37.8017 219.808 37.8657 223.27 37.9105 226.733C37.9873 232.781 38.1217 238.829 38.2497 244.877C34.3158 242.889 30.3521 240.951 26.3585 239.066C26.2049 238.995 26.0705 239.206 26.2241 239.296C30.1226 241.526 34.1392 243.543 38.2561 245.338C38.3649 250.362 38.4673 245.792 38.5313 250.816C38.5406 250.873 38.5699 250.925 38.6138 250.962C38.6578 250.999 38.7136 251.02 38.7713 251.02C38.829 251.02 38.8848 250.999 38.9287 250.962C38.9727 250.925 39.002 250.873 39.0113 250.816C38.9409 244.416 38.9281 247.616 38.9089 241.216C40.9825 240.704 48.8225 237.344 50.6849 236.422C50.8705 236.282 50.7361 235.949 50.5633 236.026Z" fill="#37474F"/>
<path d="M114.352 250.464C113.712 251.104 106.384 251.373 103.715 251.373C101.047 251.373 93.7057 251.091 93.0785 250.464C92.4513 249.837 101.335 201.056 103.715 201.056C106.096 201.056 114.979 249.83 114.352 250.464Z" fill="#263238"/>
<path d="M114.499 238.035C112.688 238.726 105.968 241.459 104.522 242.259C104.522 241.952 104.522 241.619 104.522 241.338C106.141 240.384 107.766 239.418 109.392 238.496C111.194 237.553 112.944 236.513 114.634 235.379C114.717 235.322 114.672 235.162 114.563 235.206C112.794 236.034 111.084 236.982 109.443 238.042C107.792 239.008 106.16 240.006 104.534 241.011C104.534 238.675 104.534 236.333 104.502 233.971C107.159 232.875 109.727 231.574 112.182 230.08C112.266 230.035 112.182 229.875 112.112 229.92C109.494 230.974 106.959 232.223 104.528 233.658C104.528 232.442 104.528 231.226 104.528 230.01C104.458 223.75 104.445 217.485 104.285 211.226C105.878 210.426 107.523 209.715 109.11 208.909C109.219 208.858 109.11 208.672 109.034 208.717C107.414 209.357 105.834 210.093 104.272 210.79C104.189 207.59 104.067 204.333 103.869 201.107C103.869 201.085 103.86 201.064 103.844 201.048C103.829 201.033 103.808 201.024 103.786 201.024C103.763 201.024 103.742 201.033 103.727 201.048C103.711 201.064 103.702 201.085 103.702 201.107C103.478 207.104 103.498 213.107 103.574 219.104C101.923 217.792 100.163 216.627 98.4863 215.347C98.4223 215.296 98.3583 215.411 98.4223 215.456C100.176 216.794 101.821 218.272 103.581 219.603C103.581 219.942 103.581 220.282 103.581 220.621C101.789 219.802 99.9775 219.04 98.1663 218.266C98.0255 218.208 97.8975 218.413 98.0447 218.477C99.8879 219.366 101.718 220.262 103.587 221.094C103.626 224.07 103.677 227.04 103.715 230.01C103.786 235.2 103.901 240.39 104.01 245.581C100.63 243.874 97.2298 242.212 93.8079 240.595C93.6735 240.538 93.5583 240.717 93.6927 240.794C97.0361 242.71 100.482 244.44 104.016 245.978C104.112 250.291 104.202 247.034 104.253 251.347C104.253 251.402 104.274 251.454 104.313 251.492C104.351 251.53 104.403 251.552 104.458 251.552C104.512 251.552 104.564 251.53 104.602 251.492C104.641 251.454 104.662 251.402 104.662 251.347C104.598 245.85 104.592 247.917 104.579 242.419C106.358 241.978 113.085 239.098 114.685 238.304C114.787 238.253 114.672 237.965 114.499 238.035Z" fill="#37474F"/>
<path d="M45.0347 250.72C45.5659 251.251 51.7419 251.488 53.9947 251.488C56.2475 251.488 62.4235 251.251 62.9547 250.72C63.4859 250.189 56.0043 209.12 53.9947 209.12C51.9851 209.12 44.5035 250.189 45.0347 250.72Z" fill="#263238"/>
<path d="M44.9056 240.25C46.4352 240.832 52.0928 243.136 53.3152 243.808V243.04C51.952 242.234 50.5824 241.44 49.2128 240.646C47.6969 239.848 46.223 238.972 44.7968 238.022C44.7328 237.971 44.7968 237.83 44.8608 237.869C46.3518 238.568 47.795 239.366 49.1808 240.256C50.5696 241.075 51.9456 241.914 53.3152 242.758C53.3152 240.794 53.3152 238.822 53.3152 236.858C51.0969 235.934 48.9511 234.845 46.896 233.6C46.8256 233.555 46.896 233.427 46.9536 233.459C49.163 234.346 51.3024 235.399 53.3536 236.608C53.3536 235.584 53.3536 234.56 53.3536 233.536C53.4112 228.269 53.4176 222.989 53.552 217.722C52.2144 217.043 50.832 216.442 49.4944 215.77C49.4048 215.725 49.4944 215.571 49.5584 215.603C50.9216 216.134 52.2272 216.768 53.5648 217.35C53.6373 214.633 53.7504 211.915 53.904 209.197C53.904 209.178 53.9114 209.16 53.9246 209.147C53.9378 209.134 53.9557 209.126 53.9744 209.126C53.993 209.126 54.0109 209.134 54.0242 209.147C54.0374 209.16 54.0448 209.178 54.0448 209.197C54.2368 214.246 54.2176 219.302 54.1536 224.358C55.5424 223.245 57.0272 222.266 58.4416 221.19C58.4928 221.146 58.5504 221.242 58.4928 221.28C57.0144 222.406 55.632 223.654 54.1536 224.774C54.1536 225.062 54.1536 225.344 54.1536 225.632C55.6576 224.941 57.1872 224.301 58.7104 223.648C58.832 223.597 58.9344 223.77 58.8128 223.827C57.264 224.57 55.7152 225.331 54.1472 226.029C54.1088 228.531 54.0704 231.04 54.0384 233.536C53.9808 237.907 53.8848 242.278 53.7888 246.65C56.6304 245.21 59.504 243.808 62.384 242.451C62.4928 242.4 62.5888 242.554 62.48 242.618C59.6565 244.225 56.7465 245.676 53.7632 246.963C53.6864 250.598 53.6096 247.77 53.5648 251.405C53.5571 251.444 53.536 251.48 53.505 251.505C53.4741 251.531 53.4353 251.544 53.3952 251.544C53.3551 251.544 53.3162 251.531 53.2853 251.505C53.2544 251.48 53.2333 251.444 53.2256 251.405C53.2704 246.771 53.2832 248.595 53.296 243.968C50.4045 242.968 47.5694 241.812 44.8032 240.506C44.6624 240.435 44.7584 240.198 44.9056 240.25Z" fill="#455A64"/>
<path d="M271.856 250.381C271.177 251.059 263.286 251.36 260.419 251.36C257.552 251.36 249.654 251.059 248.976 250.381C248.297 249.702 257.859 197.261 260.419 197.261C262.979 197.261 272.534 249.702 271.856 250.381Z" fill="#263238"/>
<path d="M272.003 237.011C270.083 237.754 262.832 240.698 261.271 241.555C261.271 241.229 261.271 240.915 261.271 240.57L266.512 237.51C268.451 236.497 270.333 235.38 272.151 234.163C272.234 234.099 272.189 233.926 272.067 233.971C270.164 234.865 268.321 235.883 266.551 237.018C264.778 238.061 263.024 239.136 261.271 240.218C261.271 237.702 261.271 235.187 261.239 232.672C264.088 231.489 266.842 230.088 269.475 228.48C269.565 228.422 269.507 228.256 269.405 228.301C266.588 229.433 263.86 230.777 261.245 232.32C261.245 231.04 261.245 229.709 261.213 228.403C261.143 221.67 261.13 214.963 260.957 208.198C262.672 207.334 264.439 206.573 266.147 205.709C266.256 205.651 266.147 205.453 266.058 205.498C264.323 206.176 262.653 206.982 260.938 207.731C260.848 204.256 260.714 200.787 260.503 197.318C260.503 197.295 260.493 197.272 260.476 197.255C260.46 197.238 260.437 197.229 260.413 197.229C260.389 197.229 260.366 197.238 260.35 197.255C260.333 197.272 260.323 197.295 260.323 197.318C260.08 203.77 260.106 210.221 260.183 216.672C258.41 215.258 256.515 214.003 254.711 212.634C254.64 212.576 254.576 212.698 254.647 212.749C256.528 214.189 258.295 215.776 260.189 217.229C260.189 217.594 260.189 217.958 260.189 218.323C258.269 217.446 256.317 216.627 254.371 215.795C254.218 215.725 254.083 215.942 254.237 216.019C256.221 216.966 258.192 217.939 260.202 218.835C260.249 222.031 260.296 225.231 260.343 228.435C260.413 234.016 260.535 239.597 260.656 245.178C257.021 243.339 253.362 241.551 249.68 239.814C249.539 239.75 249.418 239.949 249.559 240.026C253.157 242.084 256.864 243.947 260.663 245.606C260.765 250.24 260.861 246.739 260.919 251.366C260.919 251.424 260.942 251.479 260.982 251.52C261.023 251.561 261.079 251.584 261.136 251.584C261.194 251.584 261.249 251.561 261.29 251.52C261.331 251.479 261.354 251.424 261.354 251.366C261.29 245.453 261.283 247.674 261.264 241.766C263.184 241.293 270.416 238.195 272.144 237.35C272.33 237.248 272.202 236.941 272.003 237.011Z" fill="#455A64"/>
<path d="M239.219 250.381C238.541 251.059 230.649 251.36 227.776 251.36C224.902 251.36 217.017 251.059 216.339 250.381C215.661 249.702 225.216 197.261 227.776 197.261C230.336 197.261 239.891 249.702 239.219 250.381Z" fill="#263238"/>
<path d="M239.363 237.011C237.443 237.754 230.192 240.698 228.63 241.555V240.57C230.371 239.546 232.116 238.526 233.866 237.51C235.804 236.497 237.686 235.38 239.504 234.163C239.587 234.099 239.542 233.926 239.427 233.971C237.523 234.864 235.68 235.882 233.91 237.018C232.131 238.061 230.378 239.136 228.624 240.218C228.624 237.702 228.624 235.187 228.592 232.672C231.443 231.488 234.199 230.086 236.835 228.48C236.925 228.422 236.835 228.256 236.758 228.301C233.942 229.434 231.214 230.778 228.598 232.32C228.598 231.014 228.598 229.709 228.598 228.403C228.522 221.67 228.509 214.963 228.342 208.198C230.051 207.334 231.818 206.573 233.526 205.709C233.642 205.651 233.565 205.453 233.443 205.498C231.702 206.176 230.032 206.982 228.323 207.731C228.227 204.256 228.093 200.787 227.882 197.318C227.882 197.295 227.872 197.272 227.855 197.255C227.838 197.238 227.816 197.229 227.792 197.229C227.768 197.229 227.745 197.238 227.729 197.255C227.712 197.272 227.702 197.295 227.702 197.318C227.466 203.77 227.485 210.221 227.568 216.672C225.789 215.258 223.901 214.003 222.096 212.634C222.026 212.576 221.955 212.698 222.026 212.749C223.914 214.189 225.68 215.776 227.574 217.229C227.574 217.594 227.574 217.958 227.574 218.323C225.654 217.446 223.696 216.627 221.75 215.795C221.603 215.725 221.462 215.942 221.622 216.019C223.6 216.966 225.578 217.939 227.581 218.835C227.626 222.035 227.683 225.235 227.722 228.435C227.792 234.016 227.92 239.597 228.035 245.178C224.404 243.339 220.746 241.551 217.059 239.814C216.918 239.75 216.797 239.949 216.938 240.026C220.538 242.084 224.247 243.947 228.048 245.606C228.144 250.24 228.24 246.739 228.298 251.366C228.306 251.419 228.334 251.466 228.374 251.5C228.414 251.534 228.465 251.553 228.518 251.553C228.571 251.553 228.622 251.534 228.663 251.5C228.703 251.466 228.73 251.419 228.739 251.366C228.675 245.453 228.662 247.674 228.643 241.766C230.563 241.293 237.795 238.195 239.523 237.35C239.683 237.248 239.562 236.941 239.363 237.011Z" fill="#455A64"/>
<path d="M235.008 250.88C235.482 251.354 240.999 251.565 243.002 251.565C245.005 251.565 250.528 251.354 251.002 250.88C251.476 250.406 244.794 213.76 243.002 213.76C241.21 213.76 234.535 250.413 235.008 250.88Z" fill="#263238"/>
<path d="M234.888 241.542C236.251 242.061 241.288 244.102 242.389 244.742V244.051C241.173 243.334 239.95 242.63 238.728 241.92C237.377 241.208 236.063 240.426 234.792 239.578C234.728 239.533 234.792 239.411 234.843 239.443C236.169 240.068 237.452 240.78 238.683 241.574C239.925 242.304 241.147 243.053 242.376 243.808C242.376 242.048 242.376 240.294 242.376 238.534C240.384 237.709 238.458 236.731 236.616 235.61C236.552 235.578 236.616 235.456 236.667 235.488C238.636 236.281 240.542 237.22 242.37 238.298V235.558C242.421 230.854 242.434 226.144 242.549 221.44C241.352 220.838 240.123 220.307 238.926 219.699C238.85 219.661 238.926 219.52 238.984 219.552C240.2 220.026 241.371 220.589 242.562 221.114C242.626 218.688 242.715 216.262 242.869 213.837C242.873 213.824 242.881 213.813 242.892 213.805C242.903 213.797 242.916 213.793 242.93 213.793C242.943 213.793 242.956 213.797 242.967 213.805C242.978 213.813 242.986 213.824 242.99 213.837C243.157 218.317 243.144 222.854 243.086 227.366C244.328 226.374 245.646 225.498 246.926 224.538C246.971 224.499 247.022 224.582 246.971 224.621C245.653 225.626 244.411 226.739 243.099 227.738C243.099 227.994 243.099 228.25 243.099 228.499C244.443 227.859 245.806 227.315 247.17 226.733C247.272 226.688 247.368 226.842 247.259 226.893C245.877 227.533 244.494 228.23 243.093 228.858C243.093 231.091 243.022 233.338 242.997 235.558C242.946 239.462 242.862 243.36 242.773 247.258C245.333 245.978 247.893 244.698 250.453 243.514C250.549 243.469 250.638 243.61 250.536 243.661C248.024 245.102 245.435 246.403 242.779 247.558C242.709 250.803 242.638 248.198 242.6 251.45C242.6 251.49 242.584 251.529 242.555 251.558C242.526 251.587 242.487 251.603 242.446 251.603C242.406 251.603 242.367 251.587 242.338 251.558C242.309 251.529 242.293 251.49 242.293 251.45C242.338 247.315 242.344 249.018 242.357 244.883C239.771 243.99 237.235 242.958 234.76 241.792C234.683 241.709 234.766 241.491 234.888 241.542Z" fill="#37474F"/>
<path d="M81.6138 250.81C82.0874 251.283 87.6042 251.494 89.6138 251.494C91.6234 251.494 97.1338 251.283 97.6074 250.81C98.081 250.336 91.3994 213.69 89.6138 213.69C87.8282 213.69 81.1402 250.336 81.6138 250.81Z" fill="#263238"/>
<path d="M81.5084 241.472C82.8716 241.99 87.9085 244.032 89.0093 244.672C89.0093 244.442 89.0093 244.211 89.0093 243.981L85.3485 241.843C83.9927 241.135 82.6766 240.353 81.406 239.501C81.3484 239.456 81.406 239.334 81.4636 239.373C82.7904 239.993 84.0733 240.703 85.3036 241.498C86.5452 242.227 87.774 242.976 88.9964 243.731C88.9964 241.978 88.9964 240.218 88.9964 238.464C87.0052 237.636 85.0797 236.659 83.2364 235.539C83.1724 235.501 83.2365 235.386 83.2877 235.418C85.256 236.21 87.1621 237.149 88.99 238.227C88.99 237.312 88.99 236.397 88.99 235.488C89.0348 230.784 89.0477 226.074 89.1693 221.37C87.9725 220.73 86.7372 220.23 85.5404 219.622C85.4636 219.584 85.5405 219.45 85.5981 219.482C86.8141 219.955 87.9852 220.518 89.1756 221.043C89.2396 218.611 89.3356 216.186 89.4828 213.766C89.4797 213.757 89.4789 213.747 89.4804 213.737C89.482 213.727 89.4859 213.717 89.4918 213.709C89.4977 213.701 89.5055 213.694 89.5145 213.689C89.5236 213.685 89.5335 213.682 89.5436 213.682C89.5538 213.682 89.5637 213.685 89.5727 213.689C89.5818 213.694 89.5896 213.701 89.5955 213.709C89.6014 213.717 89.6053 213.727 89.6069 213.737C89.6084 213.747 89.6076 213.757 89.6044 213.766C89.7772 218.246 89.758 222.778 89.7068 227.29C90.942 226.298 92.2668 225.427 93.5468 224.467C93.598 224.429 93.6428 224.512 93.5916 224.544C92.2732 225.549 91.0316 226.662 89.7196 227.667C89.7196 227.917 89.7196 228.173 89.7196 228.429C91.0636 227.789 92.4268 227.245 93.79 226.662C93.8924 226.611 93.9884 226.765 93.8796 226.816C92.4972 227.456 91.1148 228.16 89.7132 228.787L89.6172 235.488C89.566 239.386 89.4828 243.283 89.3996 247.187C91.934 245.907 94.494 244.659 97.0796 243.443C97.1756 243.392 97.2653 243.533 97.1693 243.59C94.652 245.026 92.0607 246.327 89.406 247.488C89.3356 250.726 89.2652 248.205 89.2268 251.45C89.2268 251.49 89.2107 251.529 89.1819 251.558C89.1531 251.587 89.114 251.603 89.0732 251.603C89.0325 251.603 88.9934 251.587 88.9646 251.558C88.9358 251.529 88.9196 251.49 88.9196 251.45C88.9644 247.315 88.9708 248.941 88.9836 244.806C86.398 243.915 83.862 242.885 81.3868 241.722C81.2844 241.632 81.3804 241.421 81.5084 241.472Z" fill="#37474F"/>
<path d="M129.109 250.739C129.582 251.213 135.099 251.424 137.102 251.424C139.106 251.424 144.629 251.213 145.102 250.739C145.576 250.266 138.894 213.619 137.102 213.619C135.31 213.619 128.648 250.24 129.109 250.739Z" fill="#263238"/>
<path d="M128.997 241.395C130.36 241.914 135.397 243.955 136.498 244.595V243.904C135.282 243.187 134.059 242.483 132.837 241.773C131.615 241.062 130.123 240.326 128.901 239.43C128.837 239.386 128.901 239.264 128.952 239.296C130.278 239.921 131.56 240.633 132.792 241.427C134.034 242.157 135.256 242.906 136.485 243.661C136.485 241.901 136.485 240.147 136.485 238.387C134.493 237.562 132.567 236.584 130.725 235.462C130.661 235.424 130.725 235.309 130.776 235.341C132.745 236.134 134.651 237.073 136.479 238.15V235.411C136.53 230.707 136.543 225.997 136.658 221.293C135.461 220.691 134.232 220.16 133.035 219.552C132.959 219.514 133.035 219.373 133.093 219.405C134.309 219.878 135.48 220.442 136.671 220.966C136.735 218.541 136.831 216.115 136.978 213.69C136.982 213.677 136.99 213.666 137.001 213.658C137.012 213.65 137.025 213.646 137.039 213.646C137.052 213.646 137.065 213.65 137.076 213.658C137.087 213.666 137.095 213.677 137.099 213.69C137.266 218.17 137.253 222.707 137.195 227.219C138.437 226.227 139.755 225.35 141.035 224.39C141.087 224.352 141.131 224.435 141.08 224.474C139.762 225.478 138.52 226.592 137.24 227.59C137.24 227.846 137.24 228.102 137.24 228.352C138.584 227.712 139.947 227.168 141.311 226.586C141.413 226.541 141.509 226.694 141.4 226.746C140.018 227.386 138.635 228.083 137.234 228.71C137.202 230.944 137.163 233.19 137.138 235.411C137.087 239.315 137.003 243.213 136.92 247.11C139.48 245.83 142.04 244.55 144.6 243.366C144.696 243.322 144.786 243.456 144.683 243.514C142.17 244.953 139.581 246.254 136.927 247.411C136.856 250.656 136.786 248.205 136.747 251.45C136.747 251.49 136.731 251.529 136.702 251.558C136.674 251.587 136.635 251.603 136.594 251.603C136.553 251.603 136.514 251.587 136.485 251.558C136.456 251.529 136.44 251.49 136.44 251.45C136.485 247.315 136.491 248.89 136.504 244.736C133.918 243.842 131.382 242.81 128.907 241.645C128.779 241.562 128.863 241.344 128.997 241.395Z" fill="#37474F"/>
<path d="M278.461 250.739C278.935 251.213 284.452 251.424 286.455 251.424C288.458 251.424 293.975 251.213 294.449 250.739C294.922 250.266 288.241 213.619 286.455 213.619C284.669 213.619 277.988 250.24 278.461 250.739Z" fill="#263238"/>
<path d="M278.352 241.395C279.709 241.914 284.752 243.955 285.853 244.595V243.904C284.637 243.187 283.414 242.483 282.192 241.773C280.839 241.059 279.523 240.278 278.249 239.43C278.192 239.386 278.249 239.264 278.307 239.296C279.633 239.92 280.916 240.632 282.147 241.427C283.389 242.157 284.617 242.906 285.84 243.661C285.84 241.901 285.84 240.147 285.84 238.387C283.846 237.565 281.92 236.587 280.08 235.462C280.016 235.424 280.08 235.309 280.131 235.341C282.099 236.134 284.005 237.073 285.833 238.15C285.833 237.242 285.833 236.326 285.833 235.411C285.885 230.707 285.891 225.997 286.013 221.293C284.816 220.691 283.581 220.16 282.384 219.552C282.307 219.514 282.384 219.373 282.448 219.405C283.664 219.878 284.829 220.442 286.019 220.966C286.089 218.541 286.179 216.115 286.326 213.69C286.326 213.673 286.333 213.656 286.345 213.644C286.357 213.632 286.373 213.626 286.39 213.626C286.407 213.626 286.423 213.632 286.435 213.644C286.447 213.656 286.454 213.673 286.454 213.69C286.621 218.17 286.608 222.707 286.55 227.219C287.792 226.227 289.11 225.35 290.39 224.39C290.441 224.352 290.486 224.435 290.441 224.474C289.123 225.478 287.881 226.592 286.563 227.59C286.563 227.846 286.563 228.102 286.563 228.352C287.907 227.712 289.27 227.168 290.627 226.586C290.736 226.541 290.832 226.694 290.723 226.746C289.334 227.386 287.958 228.083 286.557 228.71C286.525 230.944 286.486 233.19 286.454 235.411C286.409 239.315 286.32 243.213 286.237 247.11C288.797 245.83 291.357 244.55 293.917 243.366C293.936 243.355 293.959 243.353 293.981 243.359C294.002 243.365 294.021 243.379 294.032 243.398C294.043 243.418 294.046 243.441 294.04 243.463C294.034 243.484 294.019 243.503 294 243.514C291.485 244.953 288.893 246.254 286.237 247.411C286.166 250.656 286.102 248.205 286.057 251.45C286.057 251.642 285.75 251.642 285.757 251.45C285.801 247.315 285.808 248.89 285.821 244.736C283.234 243.845 280.698 242.813 278.224 241.645C278.128 241.562 278.217 241.344 278.352 241.395Z" fill="#37474F"/>
<path d="M118.157 290.81H116.909V293.011C116.894 293.149 116.829 293.277 116.726 293.37C116.622 293.463 116.488 293.514 116.349 293.514C116.21 293.514 116.076 293.463 115.973 293.37C115.869 293.277 115.804 293.149 115.789 293.011V287.034C115.788 286.96 115.802 286.887 115.83 286.82C115.857 286.752 115.898 286.69 115.95 286.638C116.002 286.586 116.064 286.545 116.132 286.517C116.2 286.49 116.273 286.476 116.346 286.477H118.157C118.452 286.461 118.746 286.505 119.023 286.607C119.3 286.708 119.553 286.865 119.767 287.068C119.981 287.271 120.151 287.515 120.268 287.786C120.384 288.057 120.445 288.348 120.445 288.643C120.445 288.938 120.384 289.23 120.268 289.501C120.151 289.771 119.981 290.016 119.767 290.218C119.553 290.421 119.3 290.578 119.023 290.68C118.746 290.781 118.452 290.826 118.157 290.81ZM116.909 289.69H118.157C118.434 289.69 118.699 289.58 118.895 289.384C119.09 289.188 119.2 288.923 119.2 288.646C119.2 288.37 119.09 288.104 118.895 287.909C118.699 287.713 118.434 287.603 118.157 287.603H116.909V289.69Z" fill="#263238"/>
<path d="M124.603 291.898H122.139L121.639 293.21C121.598 293.315 121.526 293.406 121.432 293.47C121.339 293.534 121.228 293.568 121.115 293.568C121.049 293.567 120.985 293.556 120.923 293.536C120.782 293.483 120.668 293.376 120.606 293.24C120.544 293.103 120.538 292.947 120.59 292.806L122.83 286.842C122.872 286.735 122.946 286.643 123.043 286.58C123.139 286.517 123.252 286.486 123.367 286.49C123.482 286.485 123.595 286.517 123.69 286.58C123.785 286.643 123.858 286.735 123.899 286.842L126.139 292.806C126.172 292.891 126.184 292.983 126.174 293.074C126.164 293.165 126.131 293.252 126.079 293.327C126.027 293.402 125.958 293.464 125.877 293.506C125.795 293.548 125.705 293.569 125.614 293.568C125.501 293.569 125.391 293.534 125.298 293.47C125.206 293.406 125.135 293.315 125.095 293.21L124.603 291.898ZM124.187 290.784L123.367 288.602L122.542 290.784H124.187Z" fill="#263238"/>
<path d="M126.887 289.92C126.902 289.226 127.11 288.549 127.488 287.967C127.866 287.384 128.398 286.918 129.026 286.62C129.654 286.323 130.351 286.206 131.042 286.282C131.732 286.358 132.387 286.625 132.935 287.053C132.994 287.099 133.044 287.157 133.082 287.223C133.119 287.289 133.143 287.362 133.152 287.437C133.161 287.512 133.156 287.588 133.135 287.661C133.115 287.734 133.081 287.803 133.034 287.862C132.987 287.922 132.929 287.972 132.863 288.009C132.797 288.047 132.725 288.07 132.65 288.08C132.574 288.089 132.498 288.083 132.425 288.063C132.352 288.043 132.284 288.008 132.224 287.962C131.765 287.61 131.203 287.418 130.624 287.418C130.286 287.411 129.95 287.472 129.637 287.599C129.323 287.725 129.039 287.914 128.8 288.154C128.561 288.382 128.371 288.656 128.241 288.959C128.112 289.263 128.045 289.59 128.045 289.92C128.047 290.246 128.115 290.569 128.244 290.868C128.374 291.167 128.563 291.437 128.8 291.661C129.039 291.9 129.323 292.089 129.637 292.216C129.95 292.342 130.286 292.404 130.624 292.397C131.113 292.394 131.592 292.262 132.013 292.013V290.624H130.554C130.401 290.622 130.255 290.561 130.146 290.454C130.037 290.346 129.975 290.201 129.972 290.048C129.972 289.973 129.988 289.898 130.018 289.829C130.048 289.76 130.091 289.697 130.145 289.645C130.199 289.592 130.263 289.551 130.333 289.524C130.404 289.496 130.479 289.483 130.554 289.485H132.57C132.645 289.483 132.72 289.496 132.79 289.524C132.861 289.551 132.925 289.592 132.979 289.645C133.033 289.697 133.076 289.76 133.106 289.829C133.136 289.898 133.151 289.973 133.152 290.048V292.288C133.156 292.346 133.156 292.403 133.152 292.461C133.15 292.478 133.15 292.495 133.152 292.512C133.116 292.613 133.046 292.699 132.954 292.755C132.409 293.18 131.757 293.446 131.07 293.523C130.383 293.6 129.688 293.484 129.063 293.19C128.437 292.895 127.906 292.433 127.527 291.855C127.149 291.277 126.938 290.605 126.919 289.914L126.887 289.92Z" fill="#263238"/>
<path d="M135.445 293.011V287.034C135.444 286.96 135.458 286.887 135.486 286.82C135.514 286.752 135.555 286.69 135.607 286.638C135.658 286.586 135.72 286.545 135.788 286.517C135.856 286.49 135.929 286.476 136.002 286.477H139.317C139.465 286.478 139.605 286.538 139.709 286.642C139.813 286.746 139.872 286.886 139.874 287.034C139.874 287.182 139.816 287.325 139.712 287.432C139.608 287.538 139.466 287.6 139.317 287.603H136.572V289.453H138.933C139.083 289.453 139.226 289.512 139.332 289.618C139.437 289.723 139.497 289.867 139.497 290.016C139.497 290.165 139.437 290.309 139.332 290.414C139.226 290.52 139.083 290.579 138.933 290.579H136.572V292.442H139.317C139.467 292.442 139.61 292.501 139.716 292.607C139.821 292.712 139.881 292.855 139.881 293.005C139.881 293.154 139.821 293.297 139.716 293.403C139.61 293.509 139.467 293.568 139.317 293.568H136.034C135.958 293.572 135.883 293.561 135.811 293.535C135.74 293.509 135.675 293.469 135.62 293.417C135.564 293.365 135.521 293.302 135.491 293.232C135.461 293.162 135.445 293.087 135.445 293.011Z" fill="#263238"/>
<path d="M145.598 293.011C145.598 293.157 145.54 293.297 145.437 293.4C145.333 293.504 145.193 293.562 145.047 293.562C144.901 293.562 144.761 293.504 144.658 293.4C144.555 293.297 144.497 293.157 144.497 293.011V287.123C144.492 287.033 144.51 286.943 144.549 286.861C144.588 286.779 144.647 286.709 144.721 286.656C144.84 286.572 144.986 286.538 145.13 286.561C145.273 286.583 145.402 286.661 145.489 286.778L148.759 291.302V287.13C148.761 286.985 148.82 286.846 148.923 286.745C149.026 286.643 149.165 286.586 149.31 286.586C149.455 286.586 149.595 286.642 149.699 286.744C149.803 286.846 149.863 286.984 149.867 287.13V293.018C149.865 293.165 149.806 293.305 149.702 293.409C149.598 293.514 149.457 293.573 149.31 293.574C149.23 293.573 149.151 293.553 149.079 293.518C149.007 293.483 148.944 293.432 148.894 293.37C148.894 293.37 148.849 293.331 148.843 293.312L145.598 288.832V293.011Z" fill="#263238"/>
<path d="M157.382 287.36C158.037 288.051 158.403 288.967 158.403 289.92C158.403 290.873 158.037 291.789 157.382 292.48C157.073 292.816 156.7 293.084 156.284 293.27C155.868 293.456 155.418 293.556 154.962 293.562C154.497 293.559 154.037 293.462 153.61 293.276C153.183 293.09 152.798 292.819 152.479 292.48C151.835 291.783 151.477 290.869 151.477 289.92C151.477 288.971 151.835 288.057 152.479 287.36C152.795 287.016 153.179 286.742 153.606 286.555C154.034 286.368 154.496 286.271 154.962 286.272C155.419 286.275 155.87 286.374 156.287 286.561C156.703 286.748 157.076 287.02 157.382 287.36ZM157.247 289.92C157.249 289.264 157.005 288.632 156.562 288.147C156.359 287.924 156.113 287.745 155.837 287.622C155.562 287.498 155.264 287.433 154.962 287.43C154.653 287.429 154.347 287.491 154.064 287.615C153.781 287.738 153.527 287.92 153.318 288.147C152.87 288.628 152.625 289.263 152.633 289.92C152.628 290.573 152.873 291.202 153.318 291.68C153.525 291.911 153.779 292.095 154.062 292.221C154.345 292.346 154.652 292.411 154.962 292.41C155.265 292.406 155.564 292.339 155.839 292.213C156.115 292.088 156.361 291.906 156.562 291.68C157.007 291.202 157.252 290.573 157.247 289.92Z" fill="#263238"/>
<path d="M164.181 287.603H162.556V293.011C162.556 293.159 162.497 293.301 162.393 293.405C162.288 293.509 162.146 293.568 161.999 293.568C161.851 293.568 161.709 293.509 161.605 293.405C161.501 293.301 161.442 293.159 161.442 293.011V287.603H159.842C159.693 287.6 159.552 287.538 159.447 287.432C159.343 287.325 159.285 287.182 159.285 287.034C159.284 286.96 159.298 286.887 159.326 286.82C159.354 286.752 159.394 286.69 159.446 286.638C159.498 286.586 159.56 286.545 159.628 286.517C159.696 286.49 159.769 286.476 159.842 286.477H164.168C164.316 286.477 164.458 286.535 164.562 286.64C164.667 286.744 164.725 286.886 164.725 287.034C164.724 287.18 164.667 287.32 164.566 287.426C164.465 287.532 164.327 287.595 164.181 287.603Z" fill="#263238"/>
<path d="M169.438 293.011V287.034C169.438 286.886 169.496 286.744 169.601 286.64C169.705 286.536 169.847 286.477 169.994 286.477H173.309C173.459 286.477 173.602 286.536 173.708 286.642C173.813 286.747 173.873 286.891 173.873 287.04C173.873 287.189 173.813 287.333 173.708 287.438C173.602 287.544 173.459 287.603 173.309 287.603H170.564V289.453H172.925C173.075 289.453 173.218 289.512 173.324 289.618C173.429 289.723 173.489 289.867 173.489 290.016C173.489 290.165 173.429 290.309 173.324 290.414C173.218 290.52 173.075 290.579 172.925 290.579H170.564V293.011C170.561 293.16 170.499 293.302 170.393 293.406C170.286 293.51 170.143 293.568 169.994 293.568C169.847 293.568 169.705 293.509 169.601 293.405C169.496 293.301 169.438 293.159 169.438 293.011Z" fill="#263238"/>
<path d="M180.96 287.36C181.616 288.051 181.981 288.967 181.981 289.92C181.981 290.873 181.616 291.789 180.96 292.48C180.653 292.815 180.282 293.084 179.868 293.271C179.455 293.458 179.007 293.559 178.553 293.568C178.085 293.567 177.622 293.47 177.192 293.283C176.763 293.096 176.377 292.822 176.057 292.48C175.413 291.783 175.055 290.869 175.055 289.92C175.055 288.971 175.413 288.057 176.057 287.36C176.372 287.017 176.755 286.743 177.181 286.555C177.608 286.368 178.068 286.271 178.534 286.272C178.992 286.274 179.444 286.372 179.862 286.56C180.28 286.747 180.654 287.02 180.96 287.36ZM180.825 289.92C180.825 289.263 180.578 288.631 180.134 288.147C179.929 287.922 179.679 287.742 179.4 287.618C179.121 287.495 178.82 287.431 178.515 287.431C178.21 287.431 177.908 287.495 177.63 287.618C177.351 287.742 177.101 287.922 176.896 288.147C176.446 288.627 176.199 289.262 176.204 289.92C176.197 290.574 176.445 291.206 176.896 291.68C177.099 291.909 177.348 292.093 177.627 292.218C177.906 292.344 178.209 292.409 178.515 292.409C178.821 292.409 179.124 292.344 179.403 292.218C179.682 292.093 179.931 291.909 180.134 291.68C180.581 291.203 180.828 290.573 180.825 289.92Z" fill="#263238"/>
<path d="M186.455 293.568C186.07 293.569 185.688 293.494 185.332 293.347C184.976 293.2 184.652 292.984 184.38 292.711C184.108 292.439 183.892 292.116 183.745 291.76C183.598 291.404 183.523 291.022 183.523 290.637V287.034C183.523 286.96 183.536 286.887 183.564 286.82C183.592 286.752 183.633 286.69 183.685 286.638C183.737 286.586 183.798 286.545 183.866 286.517C183.934 286.49 184.007 286.476 184.08 286.477C184.154 286.476 184.228 286.49 184.296 286.517C184.365 286.545 184.428 286.586 184.48 286.637C184.533 286.689 184.575 286.751 184.605 286.819C184.634 286.887 184.649 286.96 184.65 287.034V290.637C184.65 290.874 184.697 291.109 184.787 291.327C184.878 291.546 185.011 291.745 185.178 291.913C185.346 292.081 185.545 292.214 185.764 292.304C185.983 292.395 186.218 292.442 186.455 292.442C186.692 292.442 186.926 292.395 187.145 292.304C187.364 292.214 187.563 292.081 187.731 291.913C187.898 291.745 188.031 291.546 188.122 291.327C188.213 291.109 188.259 290.874 188.259 290.637V287.034C188.274 286.895 188.34 286.768 188.443 286.675C188.546 286.582 188.681 286.53 188.819 286.53C188.958 286.53 189.093 286.582 189.196 286.675C189.299 286.768 189.365 286.895 189.379 287.034V290.637C189.379 291.413 189.072 292.158 188.523 292.707C187.975 293.257 187.231 293.566 186.455 293.568Z" fill="#263238"/>
<path d="M192.723 293.011C192.723 293.157 192.665 293.297 192.562 293.4C192.458 293.504 192.318 293.562 192.172 293.562C192.026 293.562 191.886 293.504 191.783 293.4C191.68 293.297 191.622 293.157 191.622 293.011V287.123C191.617 287.033 191.635 286.943 191.674 286.861C191.713 286.779 191.772 286.709 191.846 286.656C191.964 286.572 192.111 286.538 192.255 286.561C192.398 286.583 192.527 286.661 192.614 286.778L195.884 291.302V287.13C195.886 286.985 195.945 286.846 196.048 286.745C196.151 286.643 196.29 286.586 196.435 286.586C196.58 286.586 196.72 286.642 196.824 286.744C196.928 286.846 196.988 286.984 196.992 287.13V293.018C196.99 293.165 196.931 293.305 196.827 293.409C196.723 293.514 196.582 293.573 196.435 293.574C196.354 293.573 196.275 293.555 196.204 293.519C196.132 293.484 196.068 293.433 196.019 293.37C195.997 293.356 195.979 293.336 195.968 293.312L192.723 288.832V293.011Z" fill="#263238"/>
<path d="M198.91 293.011V287.034C198.909 286.96 198.923 286.887 198.951 286.82C198.979 286.752 199.019 286.69 199.071 286.638C199.123 286.586 199.185 286.545 199.253 286.517C199.321 286.49 199.394 286.476 199.467 286.477H200.664C201.604 286.477 202.506 286.85 203.171 287.515C203.836 288.18 204.209 289.082 204.209 290.022C204.209 290.963 203.836 291.865 203.171 292.53C202.506 293.194 201.604 293.568 200.664 293.568H199.467C199.319 293.568 199.178 293.509 199.073 293.405C198.969 293.301 198.91 293.159 198.91 293.011ZM200.037 292.442H200.677C201.318 292.442 201.934 292.187 202.387 291.733C202.841 291.279 203.096 290.664 203.096 290.022C203.096 289.381 202.841 288.765 202.387 288.312C201.934 287.858 201.318 287.603 200.677 287.603H200.037V292.442Z" fill="#263238"/>
<path d="M113.321 110.912C113.162 110.734 112.993 110.565 112.815 110.406C112.658 110.231 112.492 110.064 112.316 109.907C112.159 109.728 111.99 109.559 111.81 109.402C111.653 109.222 111.484 109.053 111.305 108.896C111.148 108.72 110.981 108.553 110.805 108.397C110.647 108.219 110.478 108.05 110.3 107.891C110.143 107.715 109.976 107.549 109.801 107.392C109.642 107.214 109.473 107.045 109.295 106.886C109.138 106.711 108.972 106.544 108.796 106.387C108.28 105.818 107.677 105.335 107.01 104.954V54.5856C107.01 54.3232 106.876 54.1888 106.876 53.9456C106.909 53.6716 106.862 53.3938 106.741 53.1456C106.741 53.0112 106.613 52.7424 106.613 52.608C106.544 52.3348 106.455 52.0674 106.345 51.808C106.2 51.6617 106.106 51.4735 106.076 51.2704C105.924 51.0352 105.744 50.8202 105.538 50.6304C105.404 50.496 105.276 50.2336 105.141 50.0928L104.604 49.5616C104.604 49.4784 104.501 49.3952 104.386 49.344L104.124 49.0752H104.092C104.092 48.992 103.989 48.9152 103.874 48.8576L103.612 48.5952C103.612 48.512 103.509 48.4288 103.394 48.3776L103.042 48C103.042 47.9168 102.94 47.8336 102.825 47.7824L102.562 47.52C102.562 47.4432 102.46 47.36 102.345 47.3024L102.076 47.04C102.076 46.9568 101.973 46.8736 101.858 46.8224L101.596 46.5536C101.596 46.4768 101.493 46.3936 101.378 46.336L101.109 46.0736C101.109 45.9904 101.007 45.9072 100.892 45.856L100.482 45.44C100.482 45.3568 100.38 45.28 100.265 45.2224L100.002 44.96C100.002 44.8768 99.8997 44.7936 99.7845 44.7424L99.4901 44.448C99.4901 44.32 99.2277 44.1856 99.0933 44.1856C99.0951 44.1677 99.0931 44.1497 99.0875 44.1327C99.0819 44.1156 99.0728 44.1 99.0607 44.0867C99.0486 44.0734 99.0339 44.0628 99.0175 44.0556C99.001 44.0484 98.9833 44.0447 98.9653 44.0448C98.6901 43.9168 98.5557 43.7824 98.2869 43.648C98.1525 43.5136 97.8901 43.3792 97.6469 43.1104C97.5061 43.1104 97.2437 42.9824 97.1093 42.9824C96.8405 42.848 96.4693 42.848 96.3093 42.7072C96.0757 42.7275 95.8411 42.6832 95.6309 42.5792H93.3653C93.2059 42.6819 93.0163 42.727 92.8277 42.7072C92.4309 42.848 92.1877 42.848 92.0277 42.9824C91.7653 42.9824 91.6309 43.1104 91.4901 43.3792C91.2027 43.3877 90.9243 43.4812 90.6901 43.648C90.5621 43.7824 90.2933 43.9168 90.1525 44.0448C89.9847 44.2406 89.7616 44.3811 89.5125 44.448C89.4162 44.6511 89.2815 44.8337 89.1157 44.9856C88.9813 45.12 88.9813 45.248 88.8469 45.248L39.3173 106.694C38.1416 108.102 37.5522 109.908 37.6714 111.738C37.7905 113.568 38.609 115.282 39.9573 116.525C40.1111 116.709 40.2802 116.881 40.4629 117.037C40.6206 117.218 40.7918 117.387 40.9749 117.542C41.1303 117.726 41.2994 117.897 41.4805 118.054C41.6382 118.236 41.8094 118.405 41.9925 118.56C42.1463 118.745 42.3154 118.916 42.4981 119.072C42.6557 119.255 42.8269 119.426 43.0101 119.584C43.1662 119.767 43.3375 119.936 43.5221 120.09C43.6759 120.274 43.845 120.446 44.0277 120.602C44.1854 120.783 44.3566 120.952 44.5397 121.107C44.8546 121.463 45.2041 121.787 45.5829 122.074C46.8392 123.165 48.464 123.737 50.1269 123.674H87.1317V128.742C87.1195 129.773 87.3259 130.795 87.7374 131.741C88.1489 132.686 88.7561 133.534 89.5189 134.227C89.6725 134.4 89.8325 134.56 90.0053 134.72C90.1653 134.893 90.3317 135.059 90.5045 135.213C90.6581 135.386 90.8245 135.546 90.9909 135.706C91.1509 135.878 91.3173 136.045 91.4901 136.198C91.6437 136.371 91.8101 136.531 91.9765 136.691C92.1332 136.865 92.2999 137.03 92.4757 137.184C92.6293 137.35 92.7957 137.517 92.9621 137.67C93.1166 137.846 93.2811 138.013 93.4549 138.17C93.6149 138.336 93.7749 138.502 93.9477 138.656C94.9554 139.742 96.2666 140.5 97.7107 140.832C99.1549 141.163 100.665 141.052 102.046 140.514C103.426 139.975 104.613 139.034 105.451 137.813C106.29 136.591 106.742 135.146 106.748 133.664V123.674H108.085C109.581 123.709 111.051 123.284 112.298 122.458C113.544 121.631 114.507 120.441 115.056 119.05C115.605 117.659 115.714 116.132 115.368 114.677C115.023 113.222 114.239 111.908 113.122 110.912H113.321ZM87.1573 82.2912V103.891H69.7621L87.1573 82.2912Z" fill="#0062FF"/>
<path opacity="0.1" d="M113.321 110.912C113.162 110.734 112.993 110.565 112.815 110.406C112.658 110.231 112.492 110.064 112.316 109.907C112.159 109.728 111.99 109.559 111.81 109.402C111.653 109.222 111.484 109.053 111.305 108.896C111.148 108.72 110.981 108.553 110.805 108.397C110.647 108.219 110.478 108.05 110.3 107.891C110.143 107.715 109.976 107.549 109.801 107.392C109.642 107.214 109.473 107.045 109.295 106.886C109.138 106.711 108.972 106.544 108.796 106.387C108.28 105.818 107.677 105.335 107.01 104.954V54.5856C107.01 54.3232 106.876 54.1888 106.876 53.9456C106.909 53.6716 106.862 53.3938 106.741 53.1456C106.741 53.0112 106.613 52.7424 106.613 52.608C106.544 52.3348 106.455 52.0674 106.345 51.808C106.2 51.6617 106.106 51.4735 106.076 51.2704C105.924 51.0352 105.744 50.8202 105.538 50.6304C105.404 50.496 105.276 50.2336 105.141 50.0928L104.604 49.5616C104.604 49.4784 104.501 49.3952 104.386 49.344L104.124 49.0752H104.092C104.092 48.992 103.989 48.9152 103.874 48.8576L103.612 48.5952C103.612 48.512 103.509 48.4288 103.394 48.3776L103.042 48C103.042 47.9168 102.94 47.8336 102.825 47.7824L102.562 47.52C102.562 47.4432 102.46 47.36 102.345 47.3024L102.076 47.04C102.076 46.9568 101.973 46.8736 101.858 46.8224L101.596 46.5536C101.596 46.4768 101.493 46.3936 101.378 46.336L101.109 46.0736C101.109 45.9904 101.007 45.9072 100.892 45.856L100.482 45.44C100.482 45.3568 100.38 45.28 100.265 45.2224L100.002 44.96C100.002 44.8768 99.8997 44.7936 99.7845 44.7424L99.4901 44.448C99.4901 44.32 99.2277 44.1856 99.0933 44.1856C99.0951 44.1677 99.0931 44.1497 99.0875 44.1327C99.0819 44.1156 99.0728 44.1 99.0607 44.0867C99.0486 44.0734 99.0339 44.0628 99.0175 44.0556C99.001 44.0484 98.9833 44.0447 98.9653 44.0448C98.6901 43.9168 98.5557 43.7824 98.2869 43.648C98.1525 43.5136 97.8901 43.3792 97.6469 43.1104C97.5061 43.1104 97.2437 42.9824 97.1093 42.9824C96.8405 42.848 96.4693 42.848 96.3093 42.7072C96.0757 42.7275 95.8411 42.6832 95.6309 42.5792H93.3653C93.2059 42.6819 93.0163 42.727 92.8277 42.7072C92.4309 42.848 92.1877 42.848 92.0277 42.9824C91.7653 42.9824 91.6309 43.1104 91.4901 43.3792C91.2027 43.3877 90.9243 43.4812 90.6901 43.648C90.5621 43.7824 90.2933 43.9168 90.1525 44.0448C89.9847 44.2406 89.7616 44.3811 89.5125 44.448C89.4162 44.6511 89.2815 44.8337 89.1157 44.9856C88.9813 45.12 88.9813 45.248 88.8469 45.248L39.3173 106.694C38.1416 108.102 37.5522 109.908 37.6714 111.738C37.7905 113.568 38.609 115.282 39.9573 116.525C40.1111 116.709 40.2802 116.881 40.4629 117.037C40.6206 117.218 40.7918 117.387 40.9749 117.542C41.1303 117.726 41.2994 117.897 41.4805 118.054C41.6382 118.236 41.8094 118.405 41.9925 118.56C42.1463 118.745 42.3154 118.916 42.4981 119.072C42.6557 119.255 42.8269 119.426 43.0101 119.584C43.1662 119.767 43.3375 119.936 43.5221 120.09C43.6759 120.274 43.845 120.446 44.0277 120.602C44.1854 120.783 44.3566 120.952 44.5397 121.107C44.8546 121.463 45.2041 121.787 45.5829 122.074C46.8392 123.165 48.464 123.737 50.1269 123.674H87.1317V128.742C87.1195 129.773 87.3259 130.795 87.7374 131.741C88.1489 132.686 88.7561 133.534 89.5189 134.227C89.6725 134.4 89.8325 134.56 90.0053 134.72C90.1653 134.893 90.3317 135.059 90.5045 135.213C90.6581 135.386 90.8245 135.546 90.9909 135.706C91.1509 135.878 91.3173 136.045 91.4901 136.198C91.6437 136.371 91.8101 136.531 91.9765 136.691C92.1332 136.865 92.2999 137.03 92.4757 137.184C92.6293 137.35 92.7957 137.517 92.9621 137.67C93.1166 137.846 93.2811 138.013 93.4549 138.17C93.6149 138.336 93.7749 138.502 93.9477 138.656C94.9554 139.742 96.2666 140.5 97.7107 140.832C99.1549 141.163 100.665 141.052 102.046 140.514C103.426 139.975 104.613 139.034 105.451 137.813C106.29 136.591 106.742 135.146 106.748 133.664V123.674H108.085C109.581 123.709 111.051 123.284 112.298 122.458C113.544 121.631 114.507 120.441 115.056 119.05C115.605 117.659 115.714 116.132 115.368 114.677C115.023 113.222 114.239 111.908 113.122 110.912H113.321ZM87.1573 82.2912V103.891H69.7621L87.1573 82.2912Z" fill="black"/>
<path d="M110.671 111.238C110.67 112.214 110.474 113.18 110.096 114.079C109.718 114.979 109.164 115.794 108.468 116.478C107.772 117.162 106.947 117.7 106.041 118.062C105.134 118.424 104.165 118.602 103.19 118.586H101.852V128.742C101.852 130.694 101.077 132.566 99.6964 133.947C98.3162 135.327 96.4441 136.102 94.4921 136.102C92.5401 136.102 90.6681 135.327 89.2878 133.947C87.9076 132.566 87.1321 130.694 87.1321 128.742V118.586H45.0585C43.3948 118.647 41.7702 118.072 40.5145 116.979C39.7404 116.398 39.0925 115.665 38.6102 114.825C38.1278 113.985 37.8211 113.056 37.7086 112.095C37.5961 111.133 37.6801 110.158 37.9556 109.23C38.2311 108.302 38.6924 107.439 39.3113 106.694L88.7577 45.216C88.8921 45.216 88.8921 45.088 89.0265 44.9536C89.1925 44.8004 89.3292 44.6182 89.4297 44.416C89.6744 44.3426 89.8952 44.2057 90.0697 44.0192C90.2041 43.8848 90.4729 43.7504 90.6009 43.616C90.8366 43.4473 91.1176 43.3536 91.4073 43.3472C91.5353 43.0784 91.6697 42.9504 91.9385 42.9504C92.0729 42.816 92.3417 42.816 92.7449 42.6816C92.9323 42.7007 93.1204 42.6531 93.2761 42.5472H95.5481C95.745 42.6502 95.9665 42.6967 96.1881 42.6816C96.3225 42.816 96.7257 42.816 96.9945 42.9504C97.1289 42.9504 97.3913 43.0784 97.5257 43.0784C97.7945 43.3472 98.0633 43.4816 98.1657 43.616C98.4345 43.7504 98.5689 43.8848 98.8377 44.0192C98.8734 44.0192 98.9076 44.0334 98.9328 44.0586C98.958 44.0838 98.9721 44.118 98.9721 44.1536C99.1065 44.1536 99.3753 44.2816 99.3753 44.416L99.9065 44.9536C100.041 45.088 100.175 45.3504 100.31 45.4848C100.512 45.6877 100.69 45.9132 100.841 46.1568C100.875 46.357 100.969 46.5422 101.11 46.688C101.22 46.9496 101.309 47.2192 101.379 47.4944C101.379 47.6224 101.507 47.8912 101.507 48.0256C101.627 48.2739 101.674 48.5516 101.641 48.8256C101.641 49.0944 101.775 49.2288 101.775 49.4656V103.866H103.113C104.094 103.85 105.069 104.029 105.98 104.392C106.892 104.755 107.723 105.295 108.426 105.98C109.128 106.665 109.688 107.482 110.074 108.385C110.459 109.287 110.662 110.257 110.671 111.238ZM87.1577 70.88L60.5593 103.885H87.1577V70.88Z" fill="#0062FF"/>
<path d="M188.851 62.4704C187.345 60.1656 185.591 58.0324 183.622 56.1088C183.551 56.0278 183.474 55.9529 183.391 55.8848C183.371 55.8582 183.348 55.8345 183.321 55.8144C183.262 55.7473 183.2 55.6832 183.135 55.6224C182.963 55.4368 182.783 55.264 182.604 55.0912L182.559 55.0464L182.374 54.8672C182.354 54.8406 182.33 54.8169 182.303 54.7968L182.118 54.5984C181.945 54.4192 181.759 54.2464 181.587 54.0736C181.574 54.0539 181.557 54.0382 181.535 54.0288L181.356 53.8496C181.336 53.823 181.312 53.7993 181.286 53.7792C181.227 53.7084 181.163 53.6421 181.094 53.5808C180.927 53.4016 180.742 53.2288 180.569 53.0496L180.518 53.0112L180.339 52.8256L180.268 52.7616C180.204 52.6912 180.147 52.6272 180.076 52.5632C179.91 52.3776 179.724 52.2112 179.551 52.032L179.5 51.9936C179.445 51.9255 179.383 51.8633 179.315 51.808C179.295 51.7851 179.273 51.7637 179.251 51.744C173.887 46.208 166.886 42.5472 159.033 42.5472C148.479 42.5472 139.795 48.832 134.175 57.376C128.3 65.9328 125.215 77.0304 125.094 89.3184C125.228 101.478 128.294 112.704 134.175 121.261C135.682 123.523 137.417 125.625 139.353 127.533L139.615 127.789C139.623 127.793 139.63 127.798 139.635 127.805C139.641 127.811 139.645 127.819 139.647 127.827L140.127 128.301C140.204 128.39 140.287 128.467 140.371 128.55L140.633 128.806L140.671 128.845L141.145 129.318L141.388 129.568C141.478 129.658 141.567 129.741 141.651 129.83C141.663 129.826 141.676 129.826 141.689 129.83L142.163 130.304C142.246 130.394 142.323 130.477 142.406 130.554L142.675 130.816C142.688 130.823 142.699 130.834 142.707 130.848L143.18 131.322L143.423 131.571L143.692 131.834C143.706 131.841 143.717 131.852 143.724 131.866C143.878 132.032 144.044 132.186 144.198 132.339C149.484 137.619 156.294 141.152 164.127 141.152C174.412 141.152 183.238 134.752 188.851 126.317C194.611 117.766 197.811 106.541 197.811 94.3808C197.804 82.1184 194.598 71.04 188.851 62.4704ZM171.462 112.973C167.583 118.733 163.18 121.261 159.033 121.261C156.492 121.202 154.031 120.354 151.993 118.835C151.807 118.592 151.622 118.33 151.436 118.067C147.699 112.454 145.036 103.904 145.036 94.3872C145.036 84.7872 147.711 76.3456 151.436 70.5984C155.449 64.9856 159.993 62.3168 164.134 62.4448C166.546 62.4328 168.897 63.203 170.835 64.64C171.046 64.9216 171.257 65.2096 171.475 65.504C175.219 71.264 177.875 79.6736 177.875 89.2928C177.881 98.8096 175.206 107.36 171.462 112.973Z" fill="#0062FF"/>
<path opacity="0.1" d="M188.851 62.4704C187.345 60.1656 185.591 58.0324 183.622 56.1088C183.551 56.0278 183.474 55.9529 183.391 55.8848C183.371 55.8582 183.348 55.8345 183.321 55.8144C183.262 55.7473 183.2 55.6832 183.135 55.6224C182.963 55.4368 182.783 55.264 182.604 55.0912L182.559 55.0464L182.374 54.8672C182.354 54.8406 182.33 54.8169 182.303 54.7968L182.118 54.5984C181.945 54.4192 181.759 54.2464 181.587 54.0736C181.574 54.0539 181.557 54.0382 181.535 54.0288L181.356 53.8496C181.336 53.823 181.312 53.7993 181.286 53.7792C181.227 53.7084 181.163 53.6421 181.094 53.5808C180.927 53.4016 180.742 53.2288 180.569 53.0496L180.518 53.0112L180.339 52.8256L180.268 52.7616C180.204 52.6912 180.147 52.6272 180.076 52.5632C179.91 52.3776 179.724 52.2112 179.551 52.032L179.5 51.9936C179.445 51.9255 179.383 51.8633 179.315 51.808C179.295 51.7851 179.273 51.7637 179.251 51.744C173.887 46.208 166.886 42.5472 159.033 42.5472C148.479 42.5472 139.795 48.832 134.175 57.376C128.3 65.9328 125.215 77.0304 125.094 89.3184C125.228 101.478 128.294 112.704 134.175 121.261C135.682 123.523 137.417 125.625 139.353 127.533L139.615 127.789C139.623 127.793 139.63 127.798 139.635 127.805C139.641 127.811 139.645 127.819 139.647 127.827L140.127 128.301C140.204 128.39 140.287 128.467 140.371 128.55L140.633 128.806L140.671 128.845L141.145 129.318L141.388 129.568C141.478 129.658 141.567 129.741 141.651 129.83C141.663 129.826 141.676 129.826 141.689 129.83L142.163 130.304C142.246 130.394 142.323 130.477 142.406 130.554L142.675 130.816C142.688 130.823 142.699 130.834 142.707 130.848L143.18 131.322L143.423 131.571L143.692 131.834C143.706 131.841 143.717 131.852 143.724 131.866C143.878 132.032 144.044 132.186 144.198 132.339C149.484 137.619 156.294 141.152 164.127 141.152C174.412 141.152 183.238 134.752 188.851 126.317C194.611 117.766 197.811 106.541 197.811 94.3808C197.804 82.1184 194.598 71.04 188.851 62.4704ZM171.462 112.973C167.583 118.733 163.18 121.261 159.033 121.261C156.492 121.202 154.031 120.354 151.993 118.835C151.807 118.592 151.622 118.33 151.436 118.067C147.699 112.454 145.036 103.904 145.036 94.3872C145.036 84.7872 147.711 76.3456 151.436 70.5984C155.449 64.9856 159.993 62.3168 164.134 62.4448C166.546 62.4328 168.897 63.203 170.835 64.64C171.046 64.9216 171.257 65.2096 171.475 65.504C175.219 71.264 177.875 79.6736 177.875 89.2928C177.881 98.8096 175.206 107.36 171.462 112.973Z" fill="black"/>
<path d="M125.094 89.3184C125.228 77.024 128.294 65.9328 134.182 57.3824C139.788 48.8256 148.479 42.5472 159.033 42.5472C169.324 42.5472 178.143 48.8256 183.763 57.3824C189.523 65.9328 192.723 77.024 192.723 89.3184C192.723 101.478 189.523 112.704 183.763 121.261C178.143 129.677 169.324 136.09 159.033 136.09C148.479 136.09 139.788 129.69 134.182 121.261C128.3 112.704 125.228 101.478 125.094 89.3184ZM177.875 89.3184C177.875 79.7184 175.206 71.2768 171.475 65.5296C167.635 59.9168 163.193 57.248 159.046 57.3824C154.905 57.248 150.361 59.9424 146.355 65.5296C142.611 71.2896 139.955 79.6992 139.955 89.3184C139.955 98.8096 142.63 107.36 146.355 112.998C150.361 118.758 154.905 121.286 159.046 121.286C163.187 121.286 167.603 118.726 171.475 112.998C175.206 107.36 177.875 98.8096 177.875 89.3184Z" fill="#0062FF"/>
<path d="M279.891 110.912C279.724 110.733 279.558 110.566 279.385 110.406C279.225 110.234 279.052 110.061 278.886 109.907C278.72 109.728 278.553 109.555 278.38 109.402C278.22 109.222 278.048 109.056 277.881 108.896C277.715 108.723 277.548 108.55 277.376 108.397C277.209 108.218 277.043 108.051 276.87 107.891C276.71 107.718 276.537 107.546 276.371 107.392C276.204 107.213 276.038 107.046 275.865 106.886C275.705 106.714 275.532 106.541 275.366 106.387C274.849 105.816 274.244 105.332 273.574 104.954V54.5856C273.574 54.3232 273.44 54.1888 273.44 53.9456C273.473 53.6716 273.426 53.3938 273.305 53.1456C273.305 53.0112 273.177 52.7424 273.177 52.608C273.108 52.3348 273.018 52.0674 272.908 51.808C272.767 51.6599 272.673 51.4726 272.64 51.2704C272.49 51.0337 272.309 50.8184 272.102 50.6304C271.968 50.496 271.84 50.2336 271.705 50.0928L271.168 49.5616C271.168 49.4784 271.065 49.3952 270.95 49.344L270.688 49.0752H270.656C270.656 48.992 270.56 48.9152 270.438 48.8576L270.176 48.5952C270.176 48.512 270.073 48.4288 269.958 48.3776L269.696 48.1088H269.664C269.664 48.0256 269.561 47.9424 269.446 47.8912L269.184 47.6288C269.184 47.552 269.081 47.4688 268.966 47.4112L268.697 47.1488C268.697 47.0656 268.595 46.9824 268.48 46.9312L268.217 46.6624C268.217 46.5856 268.115 46.5024 268 46.4448L267.731 46.1824C267.731 46.0992 267.628 46.016 267.513 45.9648L267.251 45.696C267.251 45.6128 267.155 45.536 267.033 45.4784L266.771 45.216C266.771 45.1328 266.668 45.0496 266.553 44.9984L266.259 44.704C266.259 44.576 265.996 44.4416 265.862 44.4416C265.862 44.4043 265.847 44.3684 265.821 44.342C265.794 44.3156 265.759 44.3008 265.721 44.3008C265.459 44.1728 265.324 44.0384 265.081 43.904C264.859 43.7354 264.646 43.556 264.441 43.3664C264.3 43.3664 264.038 43.2384 263.904 43.2384C263.635 43.104 263.264 43.104 263.104 42.9632C262.87 42.9835 262.635 42.9392 262.425 42.8352H259.84C259.68 42.9379 259.491 42.983 259.302 42.9632C258.905 43.104 258.662 43.104 258.502 43.2384C258.24 43.2384 258.105 43.3664 257.964 43.6352C257.677 43.6448 257.399 43.7382 257.164 43.904C257.036 44.0384 256.768 44.1728 256.633 44.3008C256.463 44.494 256.241 44.634 255.993 44.704C255.895 44.9058 255.76 45.088 255.596 45.2416C255.462 45.376 255.462 45.504 255.328 45.504L205.888 106.982C204.712 108.39 204.123 110.196 204.242 112.026C204.361 113.856 205.179 115.57 206.528 116.813C207.039 117.319 207.546 117.829 208.051 118.342C208.209 118.524 208.38 118.693 208.563 118.848C208.717 119.033 208.886 119.204 209.068 119.36C209.226 119.543 209.397 119.714 209.58 119.872C209.736 120.055 209.908 120.224 210.092 120.378C210.427 120.721 210.767 121.06 211.11 121.395C211.425 121.751 211.774 122.075 212.153 122.362C213.41 123.453 215.034 124.025 216.697 123.962H253.702V129.03C253.691 130.061 253.897 131.083 254.309 132.028C254.72 132.973 255.327 133.821 256.089 134.515C256.244 134.691 256.408 134.858 256.582 135.014C256.742 135.181 256.902 135.347 257.075 135.501C257.228 135.68 257.401 135.84 257.568 136C257.728 136.166 257.888 136.333 258.06 136.486C258.214 136.666 258.387 136.826 258.553 136.986C258.713 137.158 258.873 137.318 259.046 137.472C259.2 137.645 259.372 137.811 259.539 137.965C259.692 138.138 259.852 138.298 260.025 138.458C260.185 138.63 260.352 138.797 260.524 138.95C261.533 140.037 262.844 140.795 264.289 141.126C265.734 141.457 267.245 141.346 268.625 140.807C270.006 140.268 271.193 139.326 272.031 138.103C272.869 136.881 273.319 135.434 273.324 133.952V123.674H274.662C276.158 123.71 277.629 123.287 278.877 122.46C280.124 121.634 281.088 120.445 281.638 119.053C282.188 117.661 282.298 116.135 281.952 114.679C281.606 113.223 280.822 111.908 279.705 110.912H279.891ZM253.721 82.2912V103.891H236.32L253.721 82.2912Z" fill="#0062FF"/>
<path opacity="0.1" d="M279.891 110.912C279.724 110.733 279.558 110.566 279.385 110.406C279.225 110.234 279.052 110.061 278.886 109.907C278.72 109.728 278.553 109.555 278.38 109.402C278.22 109.222 278.048 109.056 277.881 108.896C277.715 108.723 277.548 108.55 277.376 108.397C277.209 108.218 277.043 108.051 276.87 107.891C276.71 107.718 276.537 107.546 276.371 107.392C276.204 107.213 276.038 107.046 275.865 106.886C275.705 106.714 275.532 106.541 275.366 106.387C274.849 105.816 274.244 105.332 273.574 104.954V54.5856C273.574 54.3232 273.44 54.1888 273.44 53.9456C273.473 53.6716 273.426 53.3938 273.305 53.1456C273.305 53.0112 273.177 52.7424 273.177 52.608C273.108 52.3348 273.018 52.0674 272.908 51.808C272.767 51.6599 272.673 51.4726 272.64 51.2704C272.49 51.0337 272.309 50.8184 272.102 50.6304C271.968 50.496 271.84 50.2336 271.705 50.0928L271.168 49.5616C271.168 49.4784 271.065 49.3952 270.95 49.344L270.688 49.0752H270.656C270.656 48.992 270.56 48.9152 270.438 48.8576L270.176 48.5952C270.176 48.512 270.073 48.4288 269.958 48.3776L269.696 48.1088H269.664C269.664 48.0256 269.561 47.9424 269.446 47.8912L269.184 47.6288C269.184 47.552 269.081 47.4688 268.966 47.4112L268.697 47.1488C268.697 47.0656 268.595 46.9824 268.48 46.9312L268.217 46.6624C268.217 46.5856 268.115 46.5024 268 46.4448L267.731 46.1824C267.731 46.0992 267.628 46.016 267.513 45.9648L267.251 45.696C267.251 45.6128 267.155 45.536 267.033 45.4784L266.771 45.216C266.771 45.1328 266.668 45.0496 266.553 44.9984L266.259 44.704C266.259 44.576 265.996 44.4416 265.862 44.4416C265.862 44.4043 265.847 44.3684 265.821 44.342C265.794 44.3156 265.759 44.3008 265.721 44.3008C265.459 44.1728 265.324 44.0384 265.081 43.904C264.859 43.7354 264.646 43.556 264.441 43.3664C264.3 43.3664 264.038 43.2384 263.904 43.2384C263.635 43.104 263.264 43.104 263.104 42.9632C262.87 42.9835 262.635 42.9392 262.425 42.8352H259.84C259.68 42.9379 259.491 42.983 259.302 42.9632C258.905 43.104 258.662 43.104 258.502 43.2384C258.24 43.2384 258.105 43.3664 257.964 43.6352C257.677 43.6448 257.399 43.7382 257.164 43.904C257.036 44.0384 256.768 44.1728 256.633 44.3008C256.463 44.494 256.241 44.634 255.993 44.704C255.895 44.9058 255.76 45.088 255.596 45.2416C255.462 45.376 255.462 45.504 255.328 45.504L205.888 106.982C204.712 108.39 204.123 110.196 204.242 112.026C204.361 113.856 205.179 115.57 206.528 116.813C207.039 117.319 207.546 117.829 208.051 118.342C208.209 118.524 208.38 118.693 208.563 118.848C208.717 119.033 208.886 119.204 209.068 119.36C209.226 119.543 209.397 119.714 209.58 119.872C209.736 120.055 209.908 120.224 210.092 120.378C210.427 120.721 210.767 121.06 211.11 121.395C211.425 121.751 211.774 122.075 212.153 122.362C213.41 123.453 215.034 124.025 216.697 123.962H253.702V129.03C253.691 130.061 253.897 131.083 254.309 132.028C254.72 132.973 255.327 133.821 256.089 134.515C256.244 134.691 256.408 134.858 256.582 135.014C256.742 135.181 256.902 135.347 257.075 135.501C257.228 135.68 257.401 135.84 257.568 136C257.728 136.166 257.888 136.333 258.06 136.486C258.214 136.666 258.387 136.826 258.553 136.986C258.713 137.158 258.873 137.318 259.046 137.472C259.2 137.645 259.372 137.811 259.539 137.965C259.692 138.138 259.852 138.298 260.025 138.458C260.185 138.63 260.352 138.797 260.524 138.95C261.533 140.037 262.844 140.795 264.289 141.126C265.734 141.457 267.245 141.346 268.625 140.807C270.006 140.268 271.193 139.326 272.031 138.103C272.869 136.881 273.319 135.434 273.324 133.952V123.674H274.662C276.158 123.71 277.629 123.287 278.877 122.46C280.124 121.634 281.088 120.445 281.638 119.053C282.188 117.661 282.298 116.135 281.952 114.679C281.606 113.223 280.822 111.908 279.705 110.912H279.891ZM253.721 82.2912V103.891H236.32L253.721 82.2912Z" fill="black"/>
<path d="M277.244 111.238C277.243 112.215 277.047 113.181 276.668 114.081C276.29 114.981 275.736 115.796 275.039 116.48C274.342 117.164 273.516 117.702 272.609 118.064C271.702 118.425 270.732 118.603 269.756 118.586H268.419V128.742C268.419 130.694 267.643 132.566 266.263 133.947C264.883 135.327 263.011 136.102 261.059 136.102C259.107 136.102 257.235 135.327 255.854 133.947C254.474 132.566 253.699 130.694 253.699 128.742V118.586H211.625C209.961 118.647 208.337 118.072 207.081 116.979C206.307 116.398 205.659 115.665 205.177 114.825C204.694 113.985 204.388 113.056 204.275 112.095C204.162 111.133 204.247 110.158 204.522 109.23C204.798 108.302 205.259 107.439 205.878 106.694L255.324 45.216C255.459 45.216 255.459 45.088 255.593 44.9536C255.759 44.8004 255.896 44.6182 255.996 44.416C256.241 44.3426 256.462 44.2057 256.636 44.0192C256.771 43.8848 257.039 43.7504 257.174 43.616C257.406 43.4463 257.686 43.3525 257.974 43.3472C258.102 43.0784 258.236 42.9504 258.505 42.9504C258.639 42.816 258.908 42.816 259.311 42.6816C259.499 42.7007 259.687 42.6531 259.843 42.5472H262.115C262.311 42.6502 262.533 42.6967 262.755 42.6816C262.889 42.816 263.292 42.816 263.561 42.9504C263.695 42.9504 263.964 43.0784 264.092 43.0784C264.361 43.3472 264.63 43.4816 264.732 43.616C265.001 43.7504 265.135 43.8848 265.404 44.0192C265.426 44.0066 265.452 44.0007 265.477 44.002C265.503 44.0033 265.527 44.0118 265.548 44.0266C265.569 44.0414 265.585 44.0618 265.595 44.0854C265.604 44.109 265.607 44.1349 265.603 44.16C265.737 44.16 266.006 44.288 266.006 44.4224L266.537 44.96C266.671 45.0944 266.806 45.3568 266.94 45.4912C267.144 45.6924 267.323 45.9181 267.471 46.1632C267.505 46.3634 267.599 46.5486 267.74 46.6944C267.85 46.956 267.94 47.2256 268.009 47.5008C268.009 47.6288 268.137 47.8976 268.137 48.032C268.257 48.2803 268.304 48.558 268.271 48.832C268.271 49.1008 268.406 49.2352 268.406 49.472V103.872H269.743C271.714 103.857 273.611 104.624 275.017 106.004C276.423 107.385 277.224 109.268 277.244 111.238ZM253.724 70.88L227.126 103.885H253.724V70.88Z" fill="#0062FF"/>
<path opacity="0.2" d="M164.249 249.677C168.006 249.677 171.052 246.631 171.052 242.874C171.052 239.116 168.006 236.07 164.249 236.07C160.491 236.07 157.445 239.116 157.445 242.874C157.445 246.631 160.491 249.677 164.249 249.677Z" fill="#0062FF"/>
<path opacity="0.2" d="M164.246 249.645C167.13 249.645 169.468 247.307 169.468 244.422C169.468 241.538 167.13 239.2 164.246 239.2C161.362 239.2 159.023 241.538 159.023 244.422C159.023 247.307 161.362 249.645 164.246 249.645Z" fill="#0062FF"/>
<path d="M164.714 249.632C164.714 249.632 160.56 249.024 160.317 249.184C160.074 249.344 159.837 250.554 160.317 250.848C160.797 251.142 164.618 250.611 164.618 250.611C164.746 250.485 164.826 250.318 164.843 250.139C164.861 249.96 164.815 249.781 164.714 249.632Z" fill="#0062FF"/>
<path opacity="0.49" d="M164.714 249.632C164.714 249.632 160.56 249.024 160.317 249.184C160.074 249.344 159.837 250.554 160.317 250.848C160.797 251.142 164.618 250.611 164.618 250.611C164.746 250.485 164.826 250.318 164.843 250.139C164.861 249.96 164.815 249.781 164.714 249.632Z" fill="black"/>
<path opacity="0.2" d="M160.337 249.235C160.459 249.203 160.663 249.619 160.619 250.08C160.574 250.541 160.407 250.816 160.337 250.81C160.267 250.803 160.036 250.541 160.075 249.971C160.107 249.562 160.228 249.254 160.337 249.235Z" fill="white"/>
<g opacity="0.2">
<path d="M160.777 249.35C161.016 249.334 161.255 249.334 161.494 249.35L161.853 249.382L162.032 249.414C162.088 249.433 162.146 249.446 162.205 249.453C162.435 249.491 162.668 249.517 162.902 249.53L163.619 249.594C163.38 249.606 163.141 249.606 162.902 249.594C162.66 249.596 162.418 249.579 162.179 249.542C162.12 249.534 162.062 249.519 162.006 249.498L161.833 249.466L161.488 249.414L160.777 249.35Z" fill="black"/>
<path d="M161.242 249.6L161.748 249.683C161.914 249.715 162.081 249.754 162.241 249.773C162.407 249.782 162.574 249.782 162.74 249.773H163.245C163.081 249.817 162.914 249.851 162.746 249.875C162.574 249.895 162.4 249.895 162.228 249.875C162.059 249.847 161.892 249.809 161.729 249.76C161.563 249.719 161.4 249.666 161.242 249.6Z" fill="black"/>
<path d="M163.289 249.958C163.507 249.797 163.767 249.702 164.038 249.683C164.176 249.675 164.314 249.699 164.441 249.754C164.511 249.779 164.575 249.821 164.627 249.875C164.654 249.905 164.676 249.94 164.691 249.978C164.694 249.992 164.694 250.008 164.691 250.022C164.681 250.042 164.668 250.059 164.652 250.074C164.551 250.179 164.419 250.248 164.275 250.272C164.203 250.291 164.128 250.291 164.057 250.272L163.852 250.24C163.795 250.195 163.731 250.163 163.699 250.08C163.692 250.068 163.689 250.055 163.689 250.042C163.689 250.028 163.692 250.015 163.699 250.003C163.704 249.993 163.711 249.983 163.719 249.975C163.728 249.968 163.739 249.962 163.75 249.958H163.852C163.92 249.949 163.989 249.949 164.057 249.958C164.123 249.963 164.188 249.985 164.243 250.022C164.12 249.981 163.988 249.981 163.865 250.022H163.775C163.775 250.022 163.775 250.022 163.775 250.061C163.775 250.099 163.852 250.138 163.903 250.163C163.959 250.192 164.017 250.216 164.076 250.234C164.133 250.249 164.193 250.249 164.249 250.234C164.368 250.207 164.477 250.147 164.563 250.061C164.553 250.04 164.54 250.02 164.524 250.003C164.483 249.958 164.433 249.923 164.377 249.901C164.264 249.853 164.142 249.827 164.019 249.824C163.889 249.822 163.759 249.839 163.635 249.875C163.517 249.893 163.402 249.921 163.289 249.958Z" fill="black"/>
<path d="M164.665 250.362C164.503 250.446 164.328 250.503 164.147 250.528C164.055 250.538 163.963 250.538 163.872 250.528C163.778 250.514 163.685 250.491 163.596 250.458C163.43 250.393 163.269 250.314 163.116 250.221C162.959 250.14 162.791 250.082 162.617 250.048C162.8 250.035 162.982 250.068 163.148 250.144C163.321 250.208 163.475 250.291 163.635 250.349C163.796 250.41 163.968 250.439 164.14 250.432C164.317 250.427 164.493 250.403 164.665 250.362Z" fill="black"/>
<path d="M160.648 250.714H161.288C161.502 250.727 161.715 250.727 161.928 250.714C162.14 250.676 162.354 250.663 162.568 250.675C162.78 250.675 162.991 250.714 163.208 250.746H162.568C162.354 250.748 162.14 250.767 161.928 250.803C161.716 250.828 161.501 250.828 161.288 250.803C161.074 250.786 160.86 250.756 160.648 250.714Z" fill="black"/>
<path d="M163.503 250.579L162.972 250.451L162.703 250.4C162.618 250.384 162.532 250.384 162.447 250.4L161.909 250.509L161.634 250.541C161.539 250.556 161.442 250.556 161.346 250.541C161.255 250.521 161.165 250.495 161.077 250.464C160.982 250.431 160.895 250.379 160.821 250.31C160.805 250.285 160.792 250.257 160.783 250.227C160.77 250.194 160.77 250.158 160.783 250.125C160.813 250.074 160.861 250.038 160.917 250.022C161.008 249.99 161.103 249.973 161.199 249.971C161.293 249.965 161.387 249.965 161.481 249.971C161.576 249.983 161.668 250.015 161.749 250.067C161.763 250.074 161.774 250.085 161.783 250.097C161.792 250.109 161.798 250.123 161.801 250.138C161.801 250.182 161.756 250.195 161.737 250.208H161.602C161.511 250.218 161.419 250.218 161.327 250.208L161.596 250.176C161.673 250.176 161.813 250.118 161.717 250.08C161.641 250.039 161.555 250.017 161.468 250.016C161.381 250.006 161.293 250.006 161.205 250.016C161.118 250.023 161.032 250.04 160.949 250.067C160.917 250.067 160.885 250.106 160.879 250.125C160.871 250.135 160.867 250.147 160.867 250.16C160.867 250.173 160.871 250.185 160.879 250.195C160.94 250.248 161.012 250.288 161.09 250.31C161.174 250.342 161.259 250.368 161.346 250.387C161.52 250.412 161.697 250.412 161.871 250.387C162.05 250.387 162.223 250.323 162.409 250.304H162.549C162.596 250.3 162.643 250.3 162.69 250.304L162.959 250.374C163.157 250.451 163.33 250.509 163.503 250.579Z" fill="black"/>
<path d="M162.335 250.067C162.085 250.022 161.855 249.958 161.618 249.894L161.272 249.805C161.156 249.768 161.036 249.746 160.914 249.741C161.036 249.712 161.163 249.712 161.285 249.741C161.409 249.754 161.531 249.778 161.65 249.811C161.888 249.869 162.118 249.955 162.335 250.067Z" fill="black"/>
</g>
<path d="M164.141 249.6C164.141 249.6 168.301 249.037 168.551 249.203C168.801 249.37 169.005 250.579 168.506 250.867C168.007 251.155 164.199 250.579 164.199 250.579C164.077 250.448 164.004 250.279 163.994 250.1C163.983 249.921 164.035 249.744 164.141 249.6Z" fill="#0062FF"/>
<path opacity="0.49" d="M164.141 249.6C164.141 249.6 168.301 249.037 168.551 249.203C168.801 249.37 169.005 250.579 168.506 250.867C168.007 251.155 164.199 250.579 164.199 250.579C164.077 250.448 164.004 250.279 163.994 250.1C163.983 249.921 164.035 249.744 164.141 249.6Z" fill="black"/>
<path opacity="0.2" d="M168.525 249.254C168.403 249.254 168.192 249.638 168.237 250.099C168.281 250.56 168.435 250.835 168.505 250.829C168.576 250.822 168.806 250.566 168.774 249.997C168.755 249.6 168.633 249.28 168.525 249.254Z" fill="white"/>
<g opacity="0.2">
<path d="M164.293 250.464L165.003 250.502C165.121 250.509 165.238 250.509 165.355 250.502H165.528H165.714C165.954 250.507 166.194 250.53 166.431 250.573C166.666 250.609 166.899 250.658 167.128 250.72L166.418 250.662C166.181 250.662 165.944 250.618 165.714 250.618H165.541C165.479 250.624 165.417 250.624 165.355 250.618C165.236 250.624 165.116 250.624 164.997 250.618C164.76 250.56 164.523 250.515 164.293 250.464Z" fill="black"/>
<path d="M164.727 250.451C164.887 250.394 165.052 250.35 165.219 250.317C165.388 250.278 165.559 250.253 165.731 250.24C165.904 250.239 166.075 250.259 166.243 250.298C166.41 250.335 166.575 250.382 166.736 250.438L166.231 250.387C166.067 250.367 165.903 250.356 165.738 250.355L165.239 250.406L164.727 250.451Z" fill="black"/>
<path d="M166.781 250.24C166.896 250.305 167.016 250.36 167.14 250.406C167.262 250.448 167.389 250.474 167.517 250.483C167.641 250.492 167.765 250.475 167.882 250.432C167.94 250.415 167.992 250.384 168.036 250.342C168.056 250.328 168.071 250.308 168.08 250.285V250.253C168 250.162 167.896 250.095 167.78 250.061C167.725 250.048 167.668 250.048 167.613 250.061L167.428 250.112C167.375 250.131 167.329 250.165 167.293 250.208C167.293 250.208 167.293 250.208 167.293 250.246H167.376C167.5 250.291 167.636 250.291 167.76 250.246C167.703 250.284 167.637 250.304 167.568 250.304C167.501 250.314 167.432 250.314 167.364 250.304L167.261 250.272C167.261 250.272 167.223 250.272 167.21 250.221C167.204 250.21 167.201 250.198 167.201 250.186C167.201 250.173 167.204 250.161 167.21 250.15C167.245 250.081 167.304 250.026 167.376 249.997L167.568 249.926C167.642 249.907 167.719 249.907 167.792 249.926C167.931 249.964 168.056 250.042 168.151 250.15V250.208C168.155 250.223 168.155 250.238 168.151 250.253C168.134 250.289 168.11 250.322 168.08 250.349C168.025 250.398 167.959 250.435 167.888 250.458C167.757 250.502 167.617 250.515 167.479 250.496C167.229 250.471 166.989 250.383 166.781 250.24Z" fill="black"/>
<path d="M168.19 249.926C168.024 249.869 167.852 249.83 167.678 249.811C167.508 249.789 167.336 249.802 167.172 249.85C167.006 249.894 166.846 249.965 166.667 250.022C166.494 250.081 166.31 250.098 166.129 250.074C166.305 250.055 166.478 250.01 166.641 249.939C166.801 249.859 166.968 249.792 167.14 249.741C167.229 249.713 167.322 249.698 167.415 249.696C167.507 249.686 167.599 249.686 167.691 249.696C167.87 249.741 168.039 249.819 168.19 249.926Z" fill="black"/>
<path d="M165.711 249.53C165.922 249.485 166.136 249.453 166.351 249.434C166.564 249.409 166.778 249.409 166.991 249.434C167.202 249.47 167.416 249.489 167.631 249.491H168.271C168.059 249.529 167.846 249.555 167.631 249.568C167.418 249.593 167.204 249.593 166.991 249.568C166.778 249.551 166.564 249.551 166.351 249.568L165.711 249.53Z" fill="black"/>
<path d="M167.047 249.6L166.516 249.741L166.247 249.786C166.199 249.792 166.149 249.792 166.1 249.786H165.959L165.428 249.658C165.259 249.614 165.084 249.594 164.91 249.6L164.654 249.651C164.573 249.67 164.497 249.705 164.43 249.754C164.424 249.764 164.421 249.777 164.421 249.789C164.421 249.801 164.424 249.813 164.43 249.824C164.446 249.851 164.471 249.871 164.5 249.882C164.58 249.918 164.664 249.943 164.75 249.958C164.837 249.965 164.925 249.965 165.012 249.958C165.098 249.963 165.183 249.948 165.262 249.914C165.358 249.914 165.223 249.837 165.147 249.811C165.061 249.785 164.973 249.766 164.884 249.754H165.153C165.202 249.763 165.249 249.778 165.294 249.798C165.309 249.803 165.322 249.812 165.332 249.825C165.341 249.837 165.346 249.853 165.345 249.869C165.342 249.884 165.336 249.897 165.327 249.91C165.318 249.922 165.307 249.932 165.294 249.939C165.206 249.981 165.11 250.005 165.012 250.01C164.921 250.019 164.828 250.019 164.737 250.01C164.64 250.004 164.545 249.982 164.455 249.946C164.4 249.921 164.354 249.878 164.327 249.824C164.318 249.793 164.318 249.759 164.327 249.728C164.336 249.697 164.351 249.669 164.372 249.645C164.451 249.581 164.543 249.535 164.641 249.51C164.731 249.484 164.823 249.465 164.916 249.453C165.012 249.44 165.109 249.44 165.204 249.453C165.295 249.466 165.385 249.485 165.473 249.51L165.998 249.658C166.084 249.674 166.173 249.674 166.26 249.658H166.529C166.695 249.683 166.875 249.651 167.047 249.6Z" fill="black"/>
<path d="M165.842 250.042C165.618 250.145 165.381 250.22 165.138 250.266C165.018 250.287 164.896 250.302 164.774 250.31C164.647 250.32 164.52 250.3 164.402 250.253C164.521 250.266 164.642 250.266 164.761 250.253L165.119 250.182C165.357 250.122 165.599 250.075 165.842 250.042Z" fill="black"/>
<path d="M166.949 250.49C167.141 250.554 167.314 250.611 167.5 250.656L167.775 250.707H168.063C167.973 250.75 167.875 250.774 167.775 250.778C167.674 250.78 167.572 250.769 167.474 250.746C167.377 250.721 167.283 250.687 167.192 250.643C167.104 250.605 167.022 250.553 166.949 250.49Z" fill="black"/>
</g>
<path d="M167.602 240.8C167.602 240.817 167.605 240.835 167.612 240.85C167.619 240.866 167.629 240.881 167.641 240.893C167.654 240.905 167.669 240.914 167.685 240.92C167.701 240.926 167.719 240.929 167.736 240.928C167.77 240.928 167.802 240.914 167.826 240.89C167.85 240.866 167.864 240.834 167.864 240.8C167.865 240.783 167.862 240.765 167.856 240.749C167.85 240.733 167.841 240.718 167.829 240.705C167.817 240.693 167.802 240.683 167.786 240.676C167.771 240.669 167.753 240.666 167.736 240.666C167.7 240.666 167.666 240.68 167.641 240.705C167.616 240.73 167.602 240.764 167.602 240.8Z" fill="#0062FF"/>
<path d="M166.223 235.264C166.223 235.289 166.23 235.314 166.244 235.335C166.258 235.356 166.278 235.373 166.302 235.382C166.325 235.392 166.351 235.394 166.376 235.39C166.4 235.385 166.423 235.372 166.441 235.355C166.459 235.337 166.471 235.314 166.476 235.289C166.481 235.264 166.479 235.238 166.469 235.215C166.459 235.192 166.443 235.172 166.422 235.158C166.401 235.144 166.376 235.136 166.351 235.136C166.317 235.136 166.284 235.15 166.26 235.174C166.236 235.198 166.223 235.23 166.223 235.264Z" fill="#0062FF"/>
<path d="M161.285 239.955C161.309 239.979 161.341 239.992 161.375 239.992C161.408 239.992 161.44 239.979 161.464 239.955C161.488 239.93 161.502 239.897 161.502 239.862C161.502 239.828 161.488 239.795 161.464 239.77C161.44 239.746 161.408 239.733 161.375 239.733C161.341 239.733 161.309 239.746 161.285 239.77C161.272 239.781 161.261 239.795 161.253 239.811C161.246 239.827 161.242 239.845 161.242 239.862C161.242 239.88 161.246 239.898 161.253 239.914C161.261 239.93 161.272 239.944 161.285 239.955Z" fill="#0062FF"/>
<path d="M160.145 247.827C160.145 247.861 160.158 247.894 160.182 247.918C160.206 247.942 160.239 247.955 160.273 247.955C160.306 247.955 160.339 247.942 160.363 247.918C160.387 247.894 160.401 247.861 160.401 247.827C160.401 247.793 160.387 247.761 160.363 247.737C160.339 247.713 160.306 247.699 160.273 247.699C160.239 247.699 160.206 247.713 160.182 247.737C160.158 247.761 160.145 247.793 160.145 247.827Z" fill="#0062FF"/>
<path d="M168.199 246.95C168.199 246.976 168.207 247 168.221 247.022C168.235 247.043 168.255 247.059 168.278 247.069C168.302 247.078 168.327 247.081 168.352 247.076C168.377 247.071 168.4 247.059 168.418 247.041C168.436 247.023 168.448 247 168.453 246.975C168.458 246.951 168.455 246.925 168.445 246.901C168.436 246.878 168.419 246.858 168.398 246.844C168.377 246.83 168.353 246.822 168.327 246.822C168.293 246.822 168.261 246.836 168.237 246.86C168.213 246.884 168.199 246.916 168.199 246.95Z" fill="#0062FF"/>
<path d="M167.43 241.638C167.43 241.684 167.448 241.728 167.48 241.761C167.513 241.793 167.557 241.811 167.602 241.811C167.648 241.811 167.692 241.793 167.725 241.761C167.757 241.728 167.775 241.684 167.775 241.638C167.775 241.593 167.757 241.549 167.725 241.516C167.692 241.484 167.648 241.466 167.602 241.466C167.58 241.466 167.557 241.47 167.536 241.479C167.515 241.487 167.496 241.5 167.48 241.516C167.464 241.532 167.452 241.551 167.443 241.572C167.434 241.593 167.43 241.616 167.43 241.638Z" fill="#0062FF"/>
<path d="M162.001 238.515C162.028 238.535 162.061 238.546 162.095 238.548C162.128 238.55 162.162 238.541 162.191 238.524C162.22 238.507 162.243 238.481 162.258 238.451C162.273 238.421 162.278 238.387 162.274 238.353C162.27 238.32 162.256 238.288 162.234 238.263C162.212 238.237 162.183 238.219 162.15 238.209C162.118 238.2 162.083 238.2 162.051 238.21C162.019 238.22 161.99 238.24 161.969 238.266C161.954 238.284 161.943 238.305 161.936 238.328C161.93 238.35 161.928 238.374 161.931 238.397C161.934 238.421 161.942 238.443 161.954 238.463C161.966 238.484 161.982 238.501 162.001 238.515Z" fill="#0062FF"/>
<path d="M160.473 244.966C160.474 245.013 160.494 245.057 160.527 245.089C160.561 245.121 160.605 245.139 160.652 245.139C160.698 245.139 160.742 245.121 160.774 245.089C160.806 245.056 160.825 245.012 160.825 244.966C160.825 244.92 160.807 244.875 160.774 244.842C160.742 244.808 160.698 244.789 160.652 244.787C160.605 244.789 160.56 244.808 160.527 244.841C160.494 244.875 160.474 244.919 160.473 244.966Z" fill="#0062FF"/>
<path d="M167.152 241.388C167.152 241.398 167.154 241.408 167.158 241.418C167.162 241.427 167.168 241.435 167.175 241.442C167.182 241.449 167.19 241.455 167.199 241.459C167.209 241.463 167.219 241.465 167.229 241.465C167.239 241.465 167.249 241.463 167.258 241.459C167.267 241.455 167.276 241.449 167.283 241.442C167.29 241.435 167.295 241.427 167.299 241.418C167.303 241.408 167.305 241.398 167.305 241.388C167.304 241.369 167.295 241.35 167.281 241.336C167.267 241.322 167.248 241.313 167.229 241.312C167.208 241.312 167.189 241.32 167.175 241.334C167.16 241.349 167.152 241.368 167.152 241.388Z" fill="#0062FF"/>
<path d="M167.873 243.91C167.915 243.91 167.95 243.875 167.95 243.833C167.95 243.791 167.915 243.757 167.873 243.757C167.831 243.757 167.797 243.791 167.797 243.833C167.797 243.875 167.831 243.91 167.873 243.91Z" fill="#0062FF"/>
<path d="M168.777 246.259C168.777 246.279 168.785 246.298 168.8 246.313C168.814 246.327 168.833 246.335 168.854 246.335C168.874 246.335 168.893 246.327 168.908 246.313C168.922 246.298 168.93 246.279 168.93 246.259C168.93 246.239 168.922 246.219 168.908 246.205C168.893 246.19 168.874 246.182 168.854 246.182C168.834 246.184 168.815 246.192 168.801 246.206C168.787 246.22 168.779 246.239 168.777 246.259Z" fill="#0062FF"/>
<path d="M160.223 244.422C160.223 244.442 160.231 244.462 160.245 244.476C160.259 244.49 160.279 244.498 160.299 244.498C160.319 244.498 160.339 244.49 160.353 244.476C160.367 244.462 160.375 244.442 160.375 244.422C160.374 244.402 160.365 244.384 160.351 244.37C160.337 244.356 160.319 244.347 160.299 244.346C160.279 244.346 160.259 244.354 160.245 244.368C160.231 244.382 160.223 244.402 160.223 244.422Z" fill="#0062FF"/>
<path d="M168.18 239.001C168.18 239.02 168.187 239.038 168.2 239.051C168.214 239.064 168.231 239.071 168.25 239.071C168.26 239.072 168.269 239.071 168.279 239.068C168.288 239.065 168.296 239.06 168.304 239.053C168.311 239.047 168.317 239.038 168.32 239.03C168.324 239.021 168.326 239.011 168.326 239.001C168.326 238.981 168.318 238.962 168.304 238.947C168.29 238.933 168.27 238.925 168.25 238.925C168.24 238.925 168.231 238.927 168.222 238.931C168.213 238.935 168.205 238.94 168.198 238.948C168.192 238.955 168.186 238.963 168.183 238.972C168.18 238.982 168.179 238.991 168.18 239.001Z" fill="#0062FF"/>
<path d="M164.772 238.374C164.814 238.374 164.848 238.339 164.848 238.297C164.848 238.255 164.814 238.221 164.772 238.221C164.73 238.221 164.695 238.255 164.695 238.297C164.695 238.339 164.73 238.374 164.772 238.374Z" fill="#0062FF"/>
<path d="M164.205 237.234C164.247 237.234 164.282 237.2 164.282 237.158C164.282 237.116 164.247 237.082 164.205 237.082C164.163 237.082 164.129 237.116 164.129 237.158C164.129 237.2 164.163 237.234 164.205 237.234Z" fill="#0062FF"/>
<path d="M161.609 249.811C162.404 250.114 163.234 250.314 164.08 250.406H164.585C164.585 250.406 165.865 250.106 166.038 250.042C166.211 249.978 166.678 250.176 166.857 250.042C167.329 249.681 167.741 249.249 168.08 248.762C168.017 248.299 167.906 247.844 167.747 247.405C167.747 247.219 168.003 246.125 168.029 245.754C168.054 245.382 166.973 243.584 166.87 243.29C166.895 242.82 167.001 242.359 167.184 241.926C167.184 241.926 166.294 242.861 166.32 243.085C166.345 243.309 166.755 243.808 166.781 243.968C166.806 244.128 166.224 245.248 166.243 245.414C166.362 245.707 166.448 246.012 166.499 246.323C166.437 246.052 166.294 245.807 166.089 245.619C165.858 245.492 165.634 245.353 165.417 245.203C165.212 244.851 165.071 244.465 165.001 244.064C165.152 243.833 165.236 243.565 165.245 243.29C165.03 242.701 164.749 242.138 164.406 241.613C164.406 241.613 164.547 242.33 164.406 242.502C164.265 242.675 163.766 242.938 163.709 243.072C163.651 243.206 164.169 243.789 164.105 243.93C164.041 244.07 162.896 244.307 162.781 244.467C162.558 244.967 162.44 245.507 162.435 246.054C162.518 246.285 162.793 247.162 162.64 247.334C162.486 247.507 162.141 247.578 162.128 247.507C162.221 247.196 162.262 246.872 162.249 246.547C162.166 246.208 161.801 245.466 161.776 245.267C161.827 244.816 161.937 244.372 162.102 243.949C161.794 244.414 161.543 244.915 161.353 245.44C161.391 245.953 161.457 246.464 161.552 246.97C161.552 246.97 161.385 246.861 161.347 246.784C161.329 246.571 161.329 246.357 161.347 246.144C161.14 246.376 160.967 246.637 160.835 246.918C160.784 247.149 161.046 247.725 161.008 247.923C160.969 248.122 160.765 248.563 160.739 248.819C160.713 249.075 161.411 249.69 161.609 249.811ZM167.101 248.077C167.042 248.349 166.94 248.611 166.8 248.851C166.8 248.851 166.857 248.474 166.857 248.32C166.824 248.12 166.768 247.925 166.691 247.738C166.669 247.494 166.737 247.25 166.883 247.053C167.001 247.383 167.074 247.727 167.101 248.077ZM166.025 249.856L166.493 249.446C166.646 249.306 167.101 249.101 167.184 248.966C167.278 248.706 167.35 248.438 167.401 248.166C167.457 248.457 167.477 248.754 167.459 249.05C167.271 249.361 167.015 249.626 166.71 249.824C166.486 249.877 166.254 249.888 166.025 249.856ZM162.64 247.84C162.514 248.054 162.426 248.288 162.377 248.531C162.391 248.76 162.466 248.981 162.595 249.171C162.679 249.343 162.746 249.523 162.793 249.709C162.793 249.709 162.256 249.459 162.153 249.069C162.051 248.678 162.608 247.885 162.64 247.84Z" fill="#0062FF"/>
<path d="M166.28 242.182C166.28 242.182 166.836 241.786 166.849 241.491C166.862 241.197 166.504 240.563 166.542 240.326C166.573 240.162 166.626 240.002 166.702 239.853C166.702 239.853 166.113 240.256 166.113 240.589C166.113 240.922 166.465 241.446 166.433 241.613C166.401 241.779 166.28 242.182 166.28 242.182Z" fill="#0062FF"/>
<path d="M162.947 244.006C163.008 243.829 163.045 243.644 163.056 243.456C163.019 243.319 162.948 243.194 162.851 243.091C162.806 243.148 162.776 243.216 162.764 243.287C162.752 243.359 162.758 243.432 162.781 243.501C162.851 243.757 162.947 244.006 162.947 244.006Z" fill="#0062FF"/>
<path d="M161.572 243.936C161.735 243.679 161.844 243.392 161.892 243.091C161.896 242.749 161.817 242.411 161.662 242.106C161.559 241.986 161.436 241.886 161.297 241.811C161.39 241.952 161.46 242.108 161.502 242.272C161.502 242.413 161.399 242.854 161.386 243.027C161.425 243.334 161.487 243.638 161.572 243.936Z" fill="#0062FF"/>
<path d="M165.187 241.638C165.187 241.638 165.603 241.069 165.526 240.698C165.425 240.337 165.243 240.005 164.995 239.725C164.793 239.526 164.607 239.312 164.438 239.085C164.307 238.725 164.307 238.331 164.438 237.971C164.538 237.851 164.662 237.753 164.803 237.683C164.62 237.683 164.44 237.726 164.277 237.81C164.115 237.893 163.974 238.014 163.868 238.163C163.503 238.669 163.036 240.646 163.228 241.101C163.444 241.449 163.727 241.752 164.06 241.99C163.987 241.669 163.951 241.341 163.951 241.011C164.009 240.819 164.591 241.011 164.732 241.133C164.898 241.288 165.05 241.457 165.187 241.638Z" fill="#0062FF"/>
<path d="M166.153 244.435C166.153 244.435 166.409 244.166 166.358 243.936C166.307 243.706 165.974 243.36 165.955 243.251C165.963 243.066 165.989 242.881 166.032 242.701C166.032 242.701 165.699 243.341 165.776 243.52C165.852 243.699 165.916 244.006 165.916 244.006C165.916 244.006 165.769 243.91 165.737 243.827C165.713 243.758 165.693 243.688 165.68 243.616C165.68 243.616 165.43 243.93 165.507 244.147C165.645 244.385 165.817 244.6 166.019 244.787C166.014 244.721 166.014 244.655 166.019 244.589C166.019 244.512 166.064 244.55 166.153 244.435Z" fill="#0062FF"/>
<g opacity="0.4">
<path d="M164.369 250.406C164.369 250.406 165.886 249.856 166.225 249.082C166.437 248.595 165.867 247.597 165.816 247.443C165.765 247.29 165.816 246.675 165.752 246.432C165.688 246.189 164.6 245.555 164.472 245.389C164.344 245.222 164.657 244.557 164.657 244.557C164.657 244.557 163.845 245.197 163.723 245.587C163.601 245.978 164.081 246.688 164.081 246.822C164.012 247.013 163.915 247.192 163.793 247.354C163.673 247.2 163.595 247.016 163.569 246.822C163.569 246.566 163.691 246.438 163.665 246.259C163.579 246.066 163.458 245.89 163.307 245.741C163.399 245.897 163.43 246.081 163.397 246.259C163.307 246.47 162.897 246.899 162.955 247.213C163.013 247.526 163.505 248.294 163.461 248.493C163.432 248.619 163.38 248.738 163.307 248.845C163.234 248.68 163.177 248.508 163.134 248.333C163.089 248.128 163.045 247.853 163.045 247.853C163.045 247.853 162.795 249.203 163.045 249.581C163.43 249.937 163.879 250.218 164.369 250.406Z" fill="white"/>
<path d="M164.772 241.018C164.862 240.832 164.923 240.633 164.951 240.429C164.951 240.23 164.599 239.962 164.433 239.789C164.176 239.552 164.004 239.237 163.946 238.893C163.946 238.637 164.017 238.445 164.017 238.445C163.787 239.065 163.628 239.709 163.543 240.365C163.558 240.64 163.661 240.902 163.837 241.114C163.837 241.114 163.933 240.678 164.145 240.691C164.379 240.742 164.596 240.855 164.772 241.018Z" fill="white"/>
<path d="M166.402 241.984C166.402 241.984 166.729 241.683 166.722 241.478C166.653 241.211 166.545 240.954 166.402 240.717C166.402 240.717 166.543 241.357 166.562 241.504C166.541 241.673 166.487 241.836 166.402 241.984Z" fill="white"/>
<path d="M162.66 249.926C162.66 249.926 162.02 249.517 161.879 249.414C161.726 249.169 161.628 248.894 161.591 248.608C161.591 248.493 161.815 247.968 161.815 247.84C161.815 247.712 161.386 247.2 161.386 247.2C161.448 247.393 161.487 247.593 161.501 247.795C161.501 247.91 160.913 248.576 160.951 248.826C160.989 249.075 161.521 249.523 161.674 249.626C161.995 249.751 162.324 249.851 162.66 249.926Z" fill="white"/>
<path d="M167.31 247.277C167.5 246.817 167.633 246.335 167.707 245.843C167.555 245.354 167.371 244.875 167.157 244.41C167.157 244.41 167.195 245.376 167.233 245.53C167.243 245.746 167.217 245.962 167.157 246.17C167.087 246.021 167.025 245.87 166.971 245.715C166.974 245.515 167 245.315 167.048 245.12C166.895 245.488 166.813 245.88 166.805 246.278C166.938 246.628 167.107 246.963 167.31 247.277Z" fill="white"/>
</g>
</svg>
