<svg width="71" height="70" viewBox="0 0 71 70" fill="none" xmlns="http://www.w3.org/2000/svg">
<g clip-path="url(#clip0_262_9182)">
<path d="M0.5 15.8375C0.5 12.6158 3.11167 10.0042 6.33333 10.0042H64.6667C67.8883 10.0042 70.5 12.6158 70.5 15.8375V54.1708C70.5 57.3925 67.8883 60.0042 64.6667 60.0042H6.33333C3.11167 60.0042 0.5 57.3925 0.5 54.1708V15.8375Z" fill="white"/>
<mask id="mask0_262_9182" style="mask-type:alpha" maskUnits="userSpaceOnUse" x="0" y="10" width="71" height="51">
<path d="M0.5 15.8375C0.5 12.6158 3.11167 10.0042 6.33333 10.0042H64.6667C67.8883 10.0042 70.5 12.6158 70.5 15.8375V54.1708C70.5 57.3925 67.8883 60.0042 64.6667 60.0042H6.33333C3.11167 60.0042 0.5 57.3925 0.5 54.1708V15.8375Z" fill="white"/>
</mask>
<g mask="url(#mask0_262_9182)">
<path d="M0.5 10.0042H70.5V60.0042H0.5V10.0042Z" fill="#0A17A7"/>
<path fill-rule="evenodd" clip-rule="evenodd" d="M12.1667 20.0042L0.5 10.0042H2.16667L13.8333 18.3375H17.1667L30.5 10.0042V11.1705C30.5 11.4845 30.3484 11.7791 30.0929 11.9616L18.8333 20.0042V23.3375L29.3687 32.3678C29.7572 32.7008 29.5217 33.3375 29.01 33.3375C28.8951 33.3375 28.7831 33.3016 28.6896 33.2348L17.1667 25.0041H13.8333L0.5 33.3375V31.6708L12.1667 23.3375V20.0042Z" fill="#FF2E3B"/>
<path fill-rule="evenodd" clip-rule="evenodd" d="M12.1667 20.0042V23.3375L0.500002 31.6708V33.3375L13.8333 25.0042H17.1667L28.6896 33.2348C28.7831 33.3016 28.8951 33.3375 29.01 33.3375C29.5217 33.3375 29.7572 32.7008 29.3687 32.3678L18.8333 23.3375V20.0042L30.0929 11.9616C30.3484 11.7791 30.5 11.4845 30.5 11.1705V10.0042L17.1667 18.3375H13.8333L2.16667 10.0042H0.500002L12.1667 20.0042ZM14.4565 16.3931L2.78979 8.05973H-4.75633L10.2222 20.8985V22.3369L-1.44444 30.6702V36.8458L14.391 26.9486H16.5435L27.5594 34.8171C27.9827 35.1194 28.4898 35.2819 29.01 35.2819C31.3269 35.2819 32.3933 32.3993 30.6341 30.8915L20.7778 22.4432V21.0048L31.2231 13.5439C31.9895 12.9964 32.4444 12.1125 32.4444 11.1705V6.49591L16.609 16.3931H14.4565Z" fill="white"/>
<path fill-rule="evenodd" clip-rule="evenodd" d="M0.5 18.3375V25.0041H12.1667V33.0597C12.1667 34.1336 13.0372 35.0042 14.1111 35.0042H16.8889C17.9628 35.0042 18.8333 34.1336 18.8333 33.0597V25.0041H30.2222C31.2961 25.0041 32.1667 24.1336 32.1667 23.0597V20.2819C32.1667 19.208 31.2961 18.3375 30.2222 18.3375H18.8333V10.0042H12.1667V18.3375H0.5Z" fill="url(#paint0_linear_262_9182)"/>
<path fill-rule="evenodd" clip-rule="evenodd" d="M0.5 20.0042H13.8333V18.3375V10.0042H17.1667V18.3375V20.0042H30.5V23.3375H17.1667V25.0041V33.3375H13.8333V25.0041V23.3375H0.5V20.0042Z" fill="url(#paint1_linear_262_9182)"/>
<path fill-rule="evenodd" clip-rule="evenodd" d="M15.5 50.8379L12.5611 52.383L13.1224 49.1104L10.7447 46.7928L14.0305 46.3153L15.5 43.3379L16.9695 46.3153L20.2553 46.7928L17.8776 49.1104L18.4389 52.383L15.5 50.8379Z" fill="white"/>
<path fill-rule="evenodd" clip-rule="evenodd" d="M50.5001 53.3379L48.1431 54.0283L48.8334 51.6712L48.1431 49.3142L50.5001 50.0046L52.8571 49.3142L52.1668 51.6712L52.8571 54.0283L50.5001 53.3379Z" fill="white"/>
<path fill-rule="evenodd" clip-rule="evenodd" d="M50.5001 21.6704L48.1431 22.3608L48.8334 20.0038L48.1431 17.6467L50.5001 18.3371L52.8571 17.6467L52.1668 20.0038L52.8571 22.3608L50.5001 21.6704Z" fill="white"/>
<path fill-rule="evenodd" clip-rule="evenodd" d="M60.5001 31.6704L58.1431 32.3608L58.8334 30.0038L58.1431 27.6467L60.5001 28.3371L62.8571 27.6467L62.1668 30.0038L62.8571 32.3608L60.5001 31.6704Z" fill="white"/>
<path fill-rule="evenodd" clip-rule="evenodd" d="M40.5001 35.0042L38.1431 35.6945L38.8334 33.3375L38.1431 30.9805L40.5001 31.6708L42.8571 30.9805L42.1668 33.3375L42.8571 35.6945L40.5001 35.0042Z" fill="white"/>
<path fill-rule="evenodd" clip-rule="evenodd" d="M55.4999 39.1704L54.3214 39.5156L54.6666 38.3371L54.3214 37.1586L55.4999 37.5037L56.6784 37.1586L56.3332 38.3371L56.6784 39.5156L55.4999 39.1704Z" fill="white"/>
</g>
</g>
<defs>
<linearGradient id="paint0_linear_262_9182" x1="0.5" y1="10.0042" x2="0.5" y2="35.0042" gradientUnits="userSpaceOnUse">
<stop stop-color="white"/>
<stop offset="1" stop-color="#F0F0F0"/>
</linearGradient>
<linearGradient id="paint1_linear_262_9182" x1="0.5" y1="10.0042" x2="0.5" y2="33.3375" gradientUnits="userSpaceOnUse">
<stop stop-color="#FF2E3B"/>
<stop offset="1" stop-color="#FC0D1B"/>
</linearGradient>
<clipPath id="clip0_262_9182">
<rect width="70" height="70" fill="white" transform="translate(0.5)"/>
</clipPath>
</defs>
</svg>
