<svg width="24" height="25" viewBox="0 0 24 25" fill="none" xmlns="http://www.w3.org/2000/svg">
<rect y="3.92969" width="24" height="17.1429" rx="2" fill="white"/>
<mask id="mask0_1003_3209" style="mask-type:alpha" maskUnits="userSpaceOnUse" x="0" y="3" width="24" height="19">
<rect y="3.92969" width="24" height="17.1429" rx="2" fill="white"/>
</mask>
<g mask="url(#mask0_1003_3209)">
<rect y="3.92969" width="24" height="17.1429" fill="#00368C"/>
<path fill-rule="evenodd" clip-rule="evenodd" d="M-1.09977 2.28711L9.14238 9.19553V2.78694H14.8567V9.19549L25.0987 2.28712L26.3769 4.18206L18.2791 9.64408H23.9995V15.3584H18.2792L26.3769 20.8204L25.0987 22.7153L14.8567 15.8069V22.2155H9.14238V15.8069L-1.09977 22.7153L-2.37793 20.8204L5.71983 15.3584H-0.000480652V9.64408H5.71986L-2.37793 4.18205L-1.09977 2.28711Z" fill="white"/>
<path fill-rule="evenodd" clip-rule="evenodd" d="M27.1358 2.03298C27.237 2.18678 27.1944 2.39348 27.0406 2.49466L16.1845 9.63654C16.0307 9.73772 15.824 9.69506 15.7229 9.54126C15.6217 9.38747 15.6643 9.18077 15.8181 9.07959L26.6742 1.93771C26.828 1.83653 27.0347 1.87918 27.1358 2.03298Z" fill="#DB1F35"/>
<path fill-rule="evenodd" clip-rule="evenodd" d="M27.162 22.4154C27.2648 22.2628 27.2245 22.0556 27.0718 21.9527L17.34 15.3932C17.1873 15.2903 16.9802 15.3306 16.8773 15.4833C16.7744 15.6359 16.8147 15.8431 16.9674 15.946L26.6992 22.5055C26.8519 22.6084 27.0591 22.5681 27.162 22.4154Z" fill="#DB1F35"/>
<path fill-rule="evenodd" clip-rule="evenodd" d="M-3.5661 2.31114C-3.46321 2.15848 -3.25605 2.11813 -3.10339 2.22101L7.04777 9.06225C7.20043 9.16513 7.24078 9.3723 7.1379 9.52496C7.03501 9.67762 6.82785 9.71797 6.67519 9.61509L-3.47597 2.77385C-3.62863 2.67096 -3.66898 2.4638 -3.5661 2.31114Z" fill="#DB1F35"/>
<path fill-rule="evenodd" clip-rule="evenodd" d="M-3.56748 23.2376C-3.46573 23.391 -3.25888 23.4329 -3.10545 23.3311L8.14671 15.8692C8.30013 15.7675 8.34203 15.5606 8.24028 15.4072C8.13854 15.2538 7.93169 15.2119 7.77826 15.3136L-3.4739 22.7755C-3.62733 22.8773 -3.66922 23.0841 -3.56748 23.2376Z" fill="#DB1F35"/>
<path fill-rule="evenodd" clip-rule="evenodd" d="M0 14.2154H10.2857V21.0725H13.7143V14.2154H24V10.7868H13.7143V3.92969H10.2857V10.7868H0V14.2154Z" fill="#E6273E"/>
</g>
</svg>
