<svg
      width="120"
      height="41"
      viewBox="0 0 120 41"
      fill="none"
      xmlns="http://www.w3.org/2000/svg"
    >
      <g clip-path="url(#clip0_719_20117)">
        <path
          d="M110.128 0.9021H9.53438C9.16741 0.9021 8.80443 0.9021 8.43945 0.904099C8.13347 0.906099 7.82949 0.912099 7.52051 0.917099C6.84908 0.92443 6.17918 0.982929 5.51664 1.09209C4.85541 1.20429 4.2149 1.41565 3.61677 1.71905C3.01852 2.02538 2.47193 2.42351 1.99687 2.89897C1.52016 3.37226 1.12276 3.91923 0.819947 4.51887C0.516045 5.11767 0.3053 5.75935 0.194988 6.42174C0.083723 7.08341 0.0238812 7.7527 0.0159994 8.42361C0.00600008 8.73059 0.00600008 9.03857 0.0010004 9.34455V32.4601C0.00600008 32.77 0.00700002 33.07 0.0159994 33.381C0.0242077 34.0519 0.0843839 34.7212 0.195988 35.3829C0.305588 36.0459 0.51601 36.6883 0.819947 37.2877C1.12305 37.8851 1.52084 38.4294 1.99787 38.8996C2.47059 39.3767 3.01684 39.7747 3.61577 40.0786C4.21425 40.3826 4.85504 40.595 5.51664 40.7085C6.17925 40.8174 6.84908 40.8766 7.52051 40.8855C7.83049 40.8925 8.13347 40.8965 8.43945 40.8965C8.80543 40.8985 9.16741 40.8985 9.53438 40.8985H110.128C110.488 40.8985 110.852 40.8985 111.212 40.8965C111.516 40.8965 111.829 40.8925 112.134 40.8865C112.804 40.8777 113.472 40.8182 114.134 40.7085C114.797 40.5941 115.44 40.3818 116.041 40.0786C116.64 39.7746 117.186 39.3766 117.658 38.8996C118.135 38.427 118.533 37.8824 118.84 37.2857C119.142 36.686 119.351 36.0436 119.459 35.3809C119.571 34.7191 119.632 34.05 119.644 33.379C119.648 33.069 119.648 32.769 119.648 32.4581C119.656 32.0941 119.656 31.7331 119.656 31.3641V10.4375C119.656 10.0715 119.656 9.70753 119.648 9.34555C119.648 9.03957 119.648 8.73159 119.644 8.42561C119.632 7.75432 119.571 7.08484 119.459 6.42274C119.35 5.76069 119.141 5.11906 118.839 4.51987C118.222 3.31706 117.244 2.33789 116.041 1.72005C115.44 1.41734 114.797 1.20603 114.134 1.09309C113.472 0.983132 112.804 0.924295 112.134 0.917099C111.829 0.912099 111.516 0.906099 111.212 0.904099C110.852 0.9021 110.487 0.9021 110.128 0.9021V0.9021Z"
          fill="#A6A6A6"
        />
        <path
          d="M8.44451 40.0246C8.13953 40.0246 7.84255 40.0206 7.54057 40.0146C6.91408 40.0062 6.28908 39.9514 5.67069 39.8506C5.09457 39.7513 4.53647 39.5666 4.0148 39.3027C3.49772 39.0411 3.02606 38.6981 2.61789 38.2867C2.20398 37.8799 1.85945 37.408 1.59795 36.8898C1.33303 36.3686 1.14958 35.8098 1.05399 35.2329C0.951289 34.6131 0.8958 33.9863 0.887999 33.3581C0.881 33.1481 0.873 32.4451 0.873 32.4451V9.34661C0.873 9.34661 0.882 8.65465 0.887999 8.45167C0.895451 7.82443 0.950607 7.19866 1.05299 6.57979C1.14859 6.00135 1.33203 5.44092 1.59695 4.9179C1.85765 4.40023 2.20039 3.92816 2.61189 3.51999C3.02282 3.10779 3.49587 2.76262 4.0138 2.49705C4.5344 2.23396 5.09159 2.05059 5.66669 1.95309C6.28701 1.85166 6.91406 1.79684 7.54257 1.7891L8.44451 1.7771H111.207L112.12 1.7901C112.742 1.79732 113.363 1.85147 113.978 1.95209C114.559 2.0508 115.122 2.23548 115.649 2.50005C116.686 3.0349 117.531 3.88104 118.063 4.9199C118.324 5.43941 118.504 5.99533 118.598 6.56879C118.702 7.19268 118.76 7.82331 118.772 8.45567C118.775 8.73865 118.775 9.04363 118.775 9.34561C118.783 9.72058 118.783 10.0776 118.783 10.4375V31.3652C118.783 31.7282 118.783 32.0831 118.775 32.4401C118.775 32.7651 118.775 33.0631 118.771 33.3701C118.76 33.991 118.703 34.6103 118.601 35.2229C118.508 35.804 118.326 36.3672 118.061 36.8928C117.798 37.4053 117.455 37.8731 117.045 38.2787C116.637 38.6924 116.164 39.0374 115.646 39.3007C115.12 39.5667 114.558 39.7521 113.978 39.8506C113.36 39.9515 112.735 40.006 112.109 40.0136C111.816 40.0206 111.509 40.0246 111.212 40.0246L110.128 40.0266L8.44451 40.0246Z"
          fill="#131825"
        />
        <path
          d="M24.7674 21.2008C24.7783 20.3665 25 19.5484 25.4119 18.8227C25.8238 18.097 26.4125 17.4872 27.1232 17.0501C26.6717 16.4051 26.076 15.8742 25.3834 15.4997C24.6908 15.1251 23.9205 14.9171 23.1335 14.8922C21.4536 14.7163 19.8257 15.8972 18.9698 15.8972C18.0978 15.8972 16.7799 14.9092 15.362 14.9392C14.4444 14.9689 13.55 15.2357 12.7662 15.7137C11.9823 16.1918 11.3357 16.8648 10.8893 17.6671C8.95542 21.0148 10.3983 25.9355 12.2502 28.6423C13.1771 29.9673 14.2601 31.4472 15.678 31.3952C17.0649 31.3372 17.5829 30.5102 19.2578 30.5102C20.9156 30.5102 21.4016 31.3952 22.8475 31.3622C24.3364 31.3372 25.2734 30.0303 26.1673 28.6923C26.8337 27.7483 27.3467 26.7048 27.6872 25.6005C26.8223 25.2349 26.0842 24.6227 25.5649 23.8403C25.0457 23.0579 24.7683 22.1399 24.7674 21.2008ZM22.0356 13.1114C22.8471 12.1375 23.2471 10.8856 23.1505 9.62158C21.9105 9.75175 20.7652 10.3444 19.9427 11.2815C19.5407 11.7389 19.2328 12.2711 19.0365 12.8476C18.8402 13.424 18.7594 14.0335 18.7988 14.6413C19.4189 14.6477 20.0323 14.5133 20.593 14.2483C21.1537 13.9833 21.6469 13.5946 22.0356 13.1114V13.1114Z"
          fill="white"
        />
        <path
          d="M42.2993 28.0404H37.5676L36.4306 31.3962H34.4258L38.9095 18.979H40.9923L45.4751 31.3962H43.4362L42.2993 28.0404ZM38.0565 26.4905H41.8083L39.9584 21.0448H39.9074L38.0565 26.4905ZM55.1564 26.8704C55.1564 29.6833 53.6505 31.4901 51.3777 31.4901C50.8023 31.5202 50.23 31.3876 49.7264 31.1077C49.2228 30.8278 48.8082 30.4118 48.5299 29.9073H48.4869V34.391H46.627V22.3427H48.4269V23.8486H48.4599C48.7509 23.3463 49.1727 22.9323 49.6803 22.6506C50.1879 22.3688 50.7624 22.23 51.3427 22.2487C53.6405 22.2487 55.1554 24.0646 55.1554 26.8704H55.1564ZM53.2466 26.8704C53.2466 25.0376 52.2986 23.8326 50.8537 23.8326C49.4338 23.8326 48.4789 25.0626 48.4789 26.8704C48.4789 28.6943 49.4338 29.9163 50.8537 29.9163C52.2986 29.9163 53.2466 28.7193 53.2466 26.8704ZM65.1208 26.8704C65.1208 29.6833 63.6149 31.4901 61.342 31.4901C60.7666 31.5202 60.1944 31.3876 59.6908 31.1077C59.1872 30.8278 58.7725 30.4118 58.4942 29.9073H58.4512V34.391H56.5923V22.3427H58.3912V23.8486H58.4252C58.7163 23.3463 59.138 22.9323 59.6457 22.6506C60.1533 22.3688 60.7278 22.23 61.308 22.2487C63.6059 22.2487 65.1208 24.0646 65.1208 26.8704ZM63.2109 26.8704C63.2109 25.0376 62.263 23.8326 60.8181 23.8326C59.3982 23.8326 58.4432 25.0626 58.4432 26.8704C58.4432 28.6943 59.3982 29.9163 60.8181 29.9163C62.263 29.9163 63.2099 28.7193 63.2099 26.8704H63.2109ZM71.7054 27.9364C71.8433 29.1683 73.0393 29.9762 74.6752 29.9762C76.2411 29.9762 77.368 29.1683 77.368 28.0574C77.368 27.0934 76.688 26.5175 75.0781 26.1215L73.4692 25.7335C71.1894 25.1836 70.1305 24.1166 70.1305 22.3857C70.1305 20.2439 71.9973 18.772 74.6492 18.772C77.273 18.772 79.0719 20.2439 79.1319 22.3857H77.256C77.144 21.1468 76.1201 20.3989 74.6222 20.3989C73.1243 20.3989 72.1013 21.1558 72.1013 22.2567C72.1013 23.1347 72.7553 23.6517 74.3562 24.0466L75.7241 24.3826C78.2719 24.9856 79.3299 26.0085 79.3299 27.8254C79.3299 30.1482 77.48 31.6031 74.5372 31.6031C71.7833 31.6031 69.9235 30.1832 69.8035 27.9364H71.7054ZM83.3406 20.2009V22.3427H85.0625V23.8146H83.3406V28.8053C83.3406 29.5813 83.6856 29.9422 84.4425 29.9422C84.6468 29.9387 84.8507 29.9243 85.0535 29.8993V31.3622C84.7133 31.4257 84.3676 31.4545 84.0216 31.4482C82.1887 31.4482 81.4737 30.7592 81.4737 29.0033V23.8146H80.1578V22.3427H81.4737V20.2009H83.3406ZM86.0594 26.8704C86.0594 24.0216 87.7373 22.2317 90.3532 22.2317C92.978 22.2317 94.6479 24.0216 94.6479 26.8704C94.6479 29.7263 92.987 31.5081 90.3532 31.5081C87.7203 31.5081 86.0594 29.7263 86.0594 26.8704ZM92.754 26.8704C92.754 24.9166 91.8591 23.7626 90.3532 23.7626C88.8472 23.7626 87.9533 24.9246 87.9533 26.8704C87.9533 28.8323 88.8472 29.9762 90.3532 29.9762C91.8591 29.9762 92.754 28.8323 92.754 26.8704ZM96.1798 22.3427H97.9527V23.8836H97.9957C98.1158 23.4027 98.3977 22.9777 98.7941 22.68C99.1904 22.3824 99.6772 22.2301 100.173 22.2487C100.387 22.2479 100.6 22.271 100.809 22.3177V24.0556C100.539 23.9731 100.257 23.9353 99.9745 23.9436C99.7045 23.9327 99.4354 23.9803 99.1855 24.0831C98.9357 24.186 98.711 24.3417 98.527 24.5396C98.343 24.7375 98.204 24.9728 98.1195 25.2295C98.0351 25.4861 98.0071 25.758 98.0377 26.0265V31.3962H96.1798V22.3427ZM109.377 28.7373C109.127 30.3802 107.527 31.5081 105.479 31.5081C102.845 31.5081 101.21 29.7443 101.21 26.9134C101.21 24.0736 102.854 22.2317 105.4 22.2317C107.906 22.2317 109.48 23.9516 109.48 26.6975V27.3344H103.086V27.4464C103.057 27.7796 103.099 28.1152 103.209 28.431C103.319 28.7468 103.495 29.0356 103.726 29.278C103.956 29.5205 104.235 29.7112 104.545 29.8375C104.855 29.9637 105.188 30.0226 105.522 30.0102C105.961 30.0513 106.402 29.9496 106.778 29.7203C107.155 29.4909 107.447 29.1462 107.612 28.7373H109.377ZM103.095 26.0355H107.621C107.638 25.736 107.592 25.4362 107.488 25.155C107.383 24.8738 107.222 24.6173 107.013 24.4015C106.805 24.1858 106.554 24.0154 106.277 23.9012C105.999 23.7869 105.701 23.7313 105.401 23.7377C105.099 23.7358 104.799 23.7939 104.518 23.9086C104.238 24.0234 103.984 24.1924 103.769 24.4061C103.555 24.6197 103.385 24.8737 103.269 25.1534C103.154 25.433 103.095 25.7328 103.095 26.0355Z"
          fill="white"
        />
        <path
          d="M37.8235 9.6326C38.2132 9.60465 38.6041 9.66351 38.9683 9.80494C39.3324 9.94637 39.6606 10.1668 39.9292 10.4505C40.1978 10.7341 40.4001 11.0738 40.5215 11.445C40.6429 11.8163 40.6805 12.2099 40.6314 12.5974C40.6314 14.5033 39.6014 15.5992 37.8235 15.5992H35.6687V9.6316L37.8235 9.6326ZM36.5956 14.7553H37.7206C37.9989 14.7718 38.2774 14.726 38.5358 14.6214C38.7942 14.5167 39.026 14.3557 39.2144 14.1502C39.4028 13.9447 39.543 13.6997 39.6248 13.4332C39.7067 13.1667 39.728 12.8852 39.6874 12.6094C39.7251 12.3346 39.7016 12.0549 39.6186 11.7903C39.5355 11.5257 39.395 11.2827 39.207 11.0788C39.0191 10.8749 38.7883 10.7151 38.5313 10.6108C38.2743 10.5065 37.9975 10.4603 37.7206 10.4755H36.5956V14.7553ZM41.6773 13.3454C41.6501 13.05 41.6848 12.7523 41.7791 12.4711C41.8735 12.1899 42.0255 11.9315 42.2253 11.7123C42.4252 11.4932 42.6686 11.3182 42.9399 11.1984C43.2112 11.0786 43.5046 11.0168 43.8012 11.0168C44.0978 11.0168 44.3911 11.0786 44.6624 11.1984C44.9338 11.3182 45.1771 11.4932 45.377 11.7123C45.5769 11.9315 45.7288 12.1899 45.8232 12.4711C45.9176 12.7523 45.9522 13.05 45.925 13.3454C45.9546 13.6419 45.9216 13.9414 45.8284 14.2245C45.7351 14.5076 45.5836 14.768 45.3835 14.989C45.1835 15.2099 44.9394 15.3865 44.6669 15.5073C44.3945 15.6282 44.0997 15.6906 43.8017 15.6906C43.5036 15.6906 43.2089 15.6282 42.9364 15.5073C42.664 15.3865 42.4199 15.2099 42.2198 14.989C42.0198 14.768 41.8682 14.5076 41.775 14.2245C41.6817 13.9414 41.6488 13.6419 41.6783 13.3454H41.6773ZM45.0111 13.3454C45.0111 12.3694 44.5721 11.7985 43.8032 11.7985C43.0302 11.7985 42.5962 12.3694 42.5962 13.3454C42.5962 14.3293 43.0302 14.8953 43.8032 14.8953C44.5731 14.8953 45.0111 14.3253 45.0111 13.3454ZM51.5697 15.5992H50.6477L49.7178 12.2824H49.6478L48.7208 15.5992H47.8079L46.566 11.0965H47.4679L48.2739 14.5323H48.3409L49.2668 11.0965H50.1188L51.0447 14.5323H51.1147L51.9176 11.0965H52.8066L51.5697 15.5992ZM53.8505 11.0965H54.7055V11.8115H54.7715C54.8842 11.5546 55.0742 11.3392 55.3151 11.1955C55.556 11.0517 55.8358 10.9867 56.1154 11.0095C56.3345 10.9931 56.5545 11.0261 56.7591 11.1062C56.9637 11.1863 57.1477 11.3114 57.2974 11.4723C57.4471 11.6331 57.5587 11.8256 57.6239 12.0354C57.6892 12.2452 57.7064 12.467 57.6743 12.6844V15.5992H56.7853V12.9074C56.7853 12.1834 56.4713 11.8235 55.8134 11.8235C55.6647 11.8166 55.5162 11.8419 55.3782 11.8978C55.2402 11.9536 55.1159 12.0386 55.0138 12.147C54.9117 12.2553 54.8342 12.3845 54.7867 12.5256C54.7392 12.6666 54.7227 12.8163 54.7385 12.9644V15.5992H53.8505V11.0965ZM59.0902 9.33862H59.9781V15.5982H59.0902V9.33862ZM61.214 13.3454C61.186 13.0496 61.2201 12.7513 61.3141 12.4695C61.4081 12.1878 61.5598 11.9287 61.7597 11.709C61.9596 11.4893 62.2032 11.3137 62.4749 11.1936C62.7466 11.0735 63.0403 11.0114 63.3374 11.0114C63.6344 11.0114 63.9282 11.0735 64.1999 11.1936C64.4716 11.3137 64.7151 11.4893 64.915 11.709C65.1149 11.9287 65.2667 12.1878 65.3607 12.4695C65.4547 12.7513 65.4888 13.0496 65.4608 13.3454C65.4903 13.6419 65.4574 13.9414 65.3641 14.2245C65.2708 14.5076 65.1193 14.768 64.9192 14.989C64.7192 15.2099 64.4751 15.3865 64.2026 15.5073C63.9302 15.6282 63.6354 15.6906 63.3374 15.6906C63.0393 15.6906 62.7446 15.6282 62.4721 15.5073C62.1997 15.3865 61.9556 15.2099 61.7555 14.989C61.5555 14.768 61.404 14.5076 61.3107 14.2245C61.2174 13.9414 61.1845 13.6419 61.214 13.3454ZM64.5468 13.3454C64.5468 12.3694 64.1078 11.7985 63.3389 11.7985C62.5659 11.7985 62.132 12.3694 62.132 13.3454C62.132 14.3293 62.5659 14.8953 63.3389 14.8953C64.1088 14.8953 64.5468 14.3253 64.5468 13.3454ZM66.3957 14.3253C66.3957 13.5154 66.9997 13.0474 68.0716 12.9814L69.2915 12.9114V12.5224C69.2915 12.0474 68.9765 11.7785 68.3696 11.7785C67.8726 11.7785 67.5296 11.9605 67.4306 12.2784H66.5707C66.6607 11.5055 67.3886 11.0085 68.4106 11.0085C69.5385 11.0085 70.1755 11.5715 70.1755 12.5224V15.5992H69.3205V14.9663H69.2505C69.1078 15.1933 68.9073 15.3784 68.6696 15.5026C68.4319 15.6268 68.1655 15.6857 67.8976 15.6732C67.7085 15.6929 67.5174 15.6728 67.3366 15.6141C67.1559 15.5554 66.9894 15.4594 66.8479 15.3324C66.7065 15.2054 66.5933 15.0502 66.5156 14.8767C66.4378 14.7032 66.3974 14.5154 66.3967 14.3253H66.3957ZM69.2905 13.9413V13.5643L68.1906 13.6343C67.5706 13.6763 67.2906 13.8873 67.2906 14.2843C67.2906 14.6893 67.6416 14.9243 68.1246 14.9243C68.2661 14.9385 68.409 14.9242 68.5449 14.8822C68.6808 14.8402 68.8069 14.7713 68.9156 14.6796C69.0244 14.5879 69.1136 14.4753 69.178 14.3485C69.2424 14.2217 69.2806 14.0832 69.2905 13.9413ZM71.3434 13.3454C71.3434 11.9225 72.0753 11.0215 73.2133 11.0215C73.4945 11.0087 73.7736 11.0762 74.0179 11.2161C74.2623 11.3559 74.4618 11.5624 74.5932 11.8115H74.6602V9.33862H75.5481V15.5982H74.6972V14.8883H74.6272C74.4854 15.1358 74.2786 15.3397 74.0292 15.4781C73.7798 15.6165 73.4973 15.6839 73.2123 15.6732C72.0673 15.6732 71.3434 14.7723 71.3434 13.3454ZM72.2613 13.3454C72.2613 14.3003 72.7113 14.8753 73.4642 14.8753C74.2142 14.8753 74.6762 14.2923 74.6762 13.3494C74.6762 12.4114 74.2082 11.8195 73.4642 11.8195C72.7163 11.8195 72.2613 12.3994 72.2613 13.3454ZM79.2249 13.3454C79.1969 13.0496 79.2309 12.7513 79.3249 12.4695C79.4189 12.1878 79.5707 11.9287 79.7706 11.709C79.9705 11.4893 80.2141 11.3137 80.4857 11.1936C80.7574 11.0735 81.0512 11.0114 81.3482 11.0114C81.6453 11.0114 81.939 11.0735 82.2107 11.1936C82.4824 11.3137 82.726 11.4893 82.9259 11.709C83.1258 11.9287 83.2776 12.1878 83.3715 12.4695C83.4655 12.7513 83.4996 13.0496 83.4716 13.3454C83.5011 13.6419 83.4682 13.9414 83.3749 14.2245C83.2817 14.5076 83.1301 14.768 82.9301 14.989C82.73 15.2099 82.4859 15.3865 82.2135 15.5073C81.941 15.6282 81.6463 15.6906 81.3482 15.6906C81.0502 15.6906 80.7554 15.6282 80.483 15.5073C80.2105 15.3865 79.9664 15.2099 79.7664 14.989C79.5663 14.768 79.4148 14.5076 79.3215 14.2245C79.2283 13.9414 79.1953 13.6419 79.2249 13.3454ZM82.5577 13.3454C82.5577 12.3694 82.1197 11.7985 81.3497 11.7985C80.5778 11.7985 80.1428 12.3694 80.1428 13.3454C80.1428 14.3293 80.5778 14.8953 81.3497 14.8953C82.1197 14.8953 82.5577 14.3253 82.5577 13.3454ZM84.6645 11.0965H85.5195V11.8115H85.5855C85.6982 11.5546 85.8882 11.3392 86.1291 11.1955C86.37 11.0517 86.6498 10.9867 86.9294 11.0095C87.1485 10.9931 87.3685 11.0261 87.5731 11.1062C87.7777 11.1863 87.9617 11.3114 88.1114 11.4723C88.2611 11.6331 88.3727 11.8256 88.438 12.0354C88.5032 12.2452 88.5204 12.467 88.4883 12.6844V15.5992H87.5993V12.9074C87.5993 12.1834 87.2853 11.8235 86.6274 11.8235C86.4787 11.8166 86.3302 11.8419 86.1922 11.8978C86.0542 11.9536 85.9299 12.0386 85.8278 12.147C85.7257 12.2553 85.6482 12.3845 85.6007 12.5256C85.5532 12.6666 85.5367 12.8163 85.5525 12.9644V15.5992H84.6635L84.6645 11.0965ZM93.5089 9.97558V11.1165H94.4849V11.8655H93.5089V14.1803C93.5089 14.6523 93.7029 14.8593 94.1459 14.8593C94.2592 14.8587 94.3724 14.8517 94.4849 14.8383V15.5782C94.3251 15.607 94.1632 15.6224 94.0009 15.6242C93.013 15.6242 92.62 15.2762 92.62 14.4083V11.8655H91.905V11.1165H92.62V9.97558H93.5089ZM95.6988 9.33862H96.5787V11.8195H96.6487C96.7671 11.5601 96.9625 11.3436 97.2083 11.1994C97.4542 11.0552 97.7386 10.9903 98.0226 11.0135C98.2406 11.0017 98.4584 11.0381 98.6607 11.1202C98.8629 11.2023 99.0445 11.328 99.1925 11.4884C99.3406 11.6487 99.4514 11.8398 99.5171 12.0479C99.5828 12.2561 99.6017 12.4761 99.5726 12.6924V15.5992H98.6836V12.9114C98.6836 12.1914 98.3486 11.8275 97.7207 11.8275C97.5679 11.8149 97.4142 11.8359 97.2704 11.889C97.1266 11.942 96.9961 12.0259 96.8881 12.1346C96.7801 12.2434 96.6971 12.3745 96.6451 12.5187C96.593 12.6629 96.5731 12.8167 96.5867 12.9694V15.5992H95.6988V9.33862ZM104.754 14.3833C104.634 14.7946 104.372 15.1505 104.016 15.3887C103.659 15.6268 103.231 15.7321 102.804 15.6862C102.508 15.6942 102.213 15.6376 101.94 15.5201C101.667 15.4026 101.423 15.2271 101.225 15.0059C101.027 14.7846 100.88 14.5229 100.793 14.2389C100.706 13.9549 100.683 13.6555 100.723 13.3614C100.684 13.0666 100.708 12.7667 100.795 12.4822C100.882 12.1976 101.028 11.9349 101.225 11.7119C101.422 11.489 101.664 11.3108 101.936 11.1897C102.207 11.0685 102.502 11.007 102.799 11.0095C104.052 11.0095 104.808 11.8655 104.808 13.2794V13.5893H101.628V13.6393C101.614 13.8047 101.635 13.9711 101.689 14.1279C101.744 14.2847 101.83 14.4284 101.943 14.5499C102.056 14.6714 102.193 14.7678 102.346 14.8332C102.498 14.8985 102.662 14.9312 102.828 14.9293C103.041 14.9544 103.256 14.916 103.446 14.8188C103.637 14.7216 103.794 14.57 103.898 14.3833H104.754ZM101.628 12.9324H103.903C103.915 12.7812 103.894 12.6292 103.843 12.4864C103.792 12.3435 103.712 12.213 103.608 12.103C103.503 11.9931 103.377 11.9063 103.237 11.8481C103.097 11.79 102.946 11.7618 102.794 11.7655C102.641 11.7636 102.488 11.7925 102.346 11.8505C102.203 11.9085 102.074 11.9944 101.965 12.1031C101.857 12.2119 101.771 12.3413 101.713 12.4837C101.655 12.6261 101.626 12.7787 101.628 12.9324Z"
          fill="white"
        />
      </g>
      <defs>
        <clipPath id="clip0_719_20117">
          <rect
            width="119.656"
            height="39.9974"
            fill="white"
            transform="translate(0 0.9021)"
          />
        </clipPath>
      </defs>
    </svg>