<svg
      width="50"
      height="50"
      viewBox="0 0 50 50"
      fill="none"
      xmlns="http://www.w3.org/2000/svg"
    >
      <path
        d="M19.0833 22.6458C18.875 22.625 18.625 22.625 18.3958 22.6458C13.4375 22.4791 9.5 18.4166 9.5 13.4166C9.5 8.31246 13.625 4.16663 18.75 4.16663C23.8542 4.16663 28 8.31246 28 13.4166C27.9792 18.4166 24.0417 22.4791 19.0833 22.6458Z"
        stroke="#0064F1"
        stroke-width="1.5"
        stroke-linecap="round"
        stroke-linejoin="round"
      />
      <path
        d="M34.1875 8.33337C38.2292 8.33337 41.4792 11.6042 41.4792 15.625C41.4792 19.5625 38.3542 22.7709 34.4583 22.9167C34.2917 22.8959 34.1042 22.8959 33.9167 22.9167"
        stroke="#0064F1"
        stroke-width="1.5"
        stroke-linecap="round"
        stroke-linejoin="round"
      />
      <path
        d="M8.66666 30.3334C3.62499 33.7084 3.62499 39.2084 8.66666 42.5625C14.3958 46.3959 23.7917 46.3959 29.5208 42.5625C34.5625 39.1875 34.5625 33.6875 29.5208 30.3334C23.8125 26.5209 14.4167 26.5209 8.66666 30.3334Z"
        stroke="#0064F1"
        stroke-width="1.5"
        stroke-linecap="round"
        stroke-linejoin="round"
      />
      <path
        d="M38.2083 41.6666C39.7083 41.3541 41.125 40.75 42.2917 39.8541C45.5417 37.4166 45.5417 33.3958 42.2917 30.9583C41.1458 30.0833 39.75 29.5 38.2708 29.1666"
        stroke="#0064F1"
        stroke-width="1.5"
        stroke-linecap="round"
        stroke-linejoin="round"
      />
    </svg>