<svg
      width="50"
      height="50"
      viewBox="0 0 50 50"
      fill="none"
      xmlns="http://www.w3.org/2000/svg"
    >
      <path
        d="M25 38.5417C32.4789 38.5417 38.5417 32.4789 38.5417 25C38.5417 17.5212 32.4789 11.4584 25 11.4584C17.5211 11.4584 11.4583 17.5212 11.4583 25C11.4583 32.4789 17.5211 38.5417 25 38.5417Z"
        stroke="#0064F1"
        stroke-width="1.5"
        stroke-linecap="round"
        stroke-linejoin="round"
      />
      <path
        d="M39.875 39.875L39.6042 39.6041M39.6042 10.3958L39.875 10.125L39.6042 10.3958ZM10.125 39.875L10.3958 39.6041L10.125 39.875ZM25 4.33329V4.16663V4.33329ZM25 45.8333V45.6666V45.8333ZM4.33334 25H4.16667H4.33334ZM45.8333 25H45.6667H45.8333ZM10.3958 10.3958L10.125 10.125L10.3958 10.3958Z"
        stroke="#0064F1"
        stroke-width="2"
        stroke-linecap="round"
        stroke-linejoin="round"
      />
    </svg>