<svg
      width="50"
      height="50"
      viewBox="0 0 50 50"
      fill="none"
      xmlns="http://www.w3.org/2000/svg"
    >
      <path
        d="M19.7917 28.6458C19.7917 30.6667 21.3542 32.2917 23.2709 32.2917H27.1875C28.8541 32.2917 30.2083 30.875 30.2083 29.1042C30.2083 27.2083 29.375 26.5208 28.1458 26.0833L21.875 23.8958C20.6458 23.4583 19.8125 22.7917 19.8125 20.875C19.8125 19.125 21.1666 17.6875 22.8333 17.6875H26.75C28.6666 17.6875 30.2292 19.3125 30.2292 21.3333"
        stroke="#0064F1"
        stroke-width="1.5"
        stroke-linecap="round"
        stroke-linejoin="round"
      />
      <path
        d="M25 15.625V34.375"
        stroke="#0064F1"
        stroke-width="1.5"
        stroke-linecap="round"
        stroke-linejoin="round"
      />
      <path
        d="M45.8333 25C45.8333 36.5 36.5 45.8333 25 45.8333C13.5 45.8333 4.16666 36.5 4.16666 25C4.16666 13.5 13.5 4.16663 25 4.16663"
        stroke="#0064F1"
        stroke-width="1.5"
        stroke-linecap="round"
        stroke-linejoin="round"
      />
      <path
        d="M35.4167 6.25V14.5833H43.75"
        stroke="#0064F1"
        stroke-width="1.5"
        stroke-linecap="round"
        stroke-linejoin="round"
      />
      <path
        d="M45.8333 4.16663L35.4167 14.5833"
        stroke="#0064F1"
        stroke-width="1.5"
        stroke-linecap="round"
        stroke-linejoin="round"
      />
    </svg>