<svg
      width="136"
      height="41"
      viewBox="0 0 136 41"
      fill="none"
      xmlns="http://www.w3.org/2000/svg"
    >
      <g clip-path="url(#clip0_719_20129)">
        <path
          d="M130.656 0.900879H5.65625C2.89483 0.900879 0.65625 3.13946 0.65625 5.90088V35.9009C0.65625 38.6623 2.89483 40.9009 5.65625 40.9009H130.656C133.418 40.9009 135.656 38.6623 135.656 35.9009V5.90088C135.656 3.13946 133.418 0.900879 130.656 0.900879Z"
          fill="#131825"
        />
        <path
          d="M130.656 1.70088C131.77 1.70088 132.838 2.14338 133.626 2.93103C134.414 3.71868 134.856 4.78697 134.856 5.90088V35.9009C134.856 37.0148 134.414 38.0831 133.626 38.8707C132.838 39.6584 131.77 40.1009 130.656 40.1009H5.65625C4.54234 40.1009 3.47405 39.6584 2.6864 38.8707C1.89875 38.0831 1.45625 37.0148 1.45625 35.9009V5.90088C1.45625 4.78697 1.89875 3.71868 2.6864 2.93103C3.47405 2.14338 4.54234 1.70088 5.65625 1.70088H130.656ZM130.656 0.900879H5.65625C4.33017 0.900879 3.0584 1.42766 2.12072 2.36535C1.18303 3.30303 0.65625 4.5748 0.65625 5.90088V35.9009C0.65625 37.227 1.18303 38.4987 2.12072 39.4364C3.0584 40.3741 4.33017 40.9009 5.65625 40.9009H130.656C131.982 40.9009 133.254 40.3741 134.192 39.4364C135.129 38.4987 135.656 37.227 135.656 35.9009V5.90088C135.656 4.5748 135.129 3.30303 134.192 2.36535C133.254 1.42766 131.982 0.900879 130.656 0.900879Z"
          fill="#A6A6A6"
        />
        <path
          d="M48.0762 11.1409C48.0932 11.5076 48.0355 11.8741 47.9066 12.2179C47.7777 12.5617 47.5802 12.8757 47.3262 13.1409C47.0427 13.4354 46.7002 13.667 46.3211 13.8203C45.942 13.9737 45.5349 14.0454 45.1262 14.0308C44.5062 14.026 43.9014 13.8383 43.3876 13.4912C42.8739 13.1441 42.4739 12.6531 42.2379 12.0798C42.002 11.5064 41.9405 10.8761 42.0611 10.2679C42.1818 9.65976 42.4793 9.10071 42.9162 8.66085C43.2035 8.36763 43.5478 8.13647 43.9279 7.98167C44.308 7.82686 44.7159 7.75171 45.1262 7.76085C45.549 7.75944 45.9676 7.84452 46.3562 8.01085C46.7181 8.1568 47.0402 8.38641 47.2962 8.68085L46.7662 9.21085C46.5667 8.97344 46.3146 8.78571 46.03 8.66249C45.7453 8.53926 45.4359 8.48393 45.1262 8.50085C44.8139 8.49932 44.5044 8.56088 44.2165 8.68184C43.9285 8.8028 43.6679 8.98067 43.4503 9.20479C43.2327 9.42891 43.0626 9.69465 42.9502 9.9861C42.8378 10.2775 42.7855 10.5887 42.7962 10.9009C42.7897 11.367 42.9213 11.8246 43.1746 12.216C43.4278 12.6074 43.7913 12.9151 44.2192 13.1001C44.6471 13.2852 45.1202 13.3394 45.5788 13.2558C46.0374 13.1723 46.4611 12.9549 46.7962 12.6308C47.104 12.2974 47.2814 11.8644 47.2962 11.4109H45.1262V10.6909H48.0362C48.0629 10.8394 48.0763 10.99 48.0762 11.1409ZM52.6562 8.64085H49.9562V10.5408H52.4162V11.2609H49.9562V13.1609H52.6562V13.9009H49.1562V7.90085H52.6562V8.64085ZM55.9362 13.9009H55.1663V8.64085H53.4862V7.90085H57.6562V8.64085H55.9362V13.9009ZM60.5963 13.9009V7.90085H61.3662V13.9009H60.5963ZM64.7862 13.9009H64.0162V8.64085H62.3362V7.90085H66.4563V8.64085H64.7862V13.9009ZM74.2663 13.1208C73.6816 13.7022 72.8907 14.0285 72.0663 14.0285C71.2418 14.0285 70.4509 13.7022 69.8662 13.1208C69.298 12.5194 68.9815 11.7233 68.9815 10.8959C68.9815 10.0684 69.298 9.27233 69.8662 8.67085C70.1544 8.38059 70.4971 8.15023 70.8747 7.99302C71.2523 7.83582 71.6573 7.75488 72.0663 7.75488C72.4753 7.75488 72.8802 7.83582 73.2578 7.99302C73.6354 8.15023 73.9781 8.38059 74.2663 8.67085C74.8367 9.27118 75.1548 10.0677 75.1548 10.8959C75.1548 11.724 74.8367 12.5205 74.2663 13.1208ZM70.4362 12.6208C70.8692 13.052 71.4553 13.294 72.0663 13.294C72.6772 13.294 73.2633 13.052 73.6962 12.6208C74.1235 12.1499 74.3601 11.5367 74.3601 10.9009C74.3601 10.265 74.1235 9.65183 73.6962 9.18085C73.2633 8.74973 72.6772 8.50768 72.0663 8.50768C71.4553 8.50768 70.8692 8.74973 70.4362 9.18085C70.009 9.65183 69.7724 10.265 69.7724 10.9009C69.7724 11.5367 70.009 12.1499 70.4362 12.6208ZM76.2363 13.9009V7.90085H77.1762L80.0963 12.5709V7.90085H80.8662V13.9009H80.0663L77.0163 9.01085V13.9009H76.2363Z"
          fill="white"
          stroke="white"
          stroke-width="0.2"
          stroke-miterlimit="10"
        />
        <path
          d="M68.7963 22.651C67.9565 22.6549 67.1368 22.9076 66.4406 23.377C65.7443 23.8463 65.2027 24.5115 64.8841 25.2884C64.5654 26.0653 64.4841 26.9192 64.6504 27.7423C64.8166 28.5654 65.223 29.3208 65.8181 29.9132C66.4133 30.5056 67.1706 30.9084 67.9945 31.0707C68.8183 31.2331 69.6718 31.1478 70.4473 30.8255C71.2227 30.5033 71.8853 29.9585 72.3514 29.2601C72.8175 28.5616 73.0663 27.7407 73.0663 26.901C73.0744 26.3389 72.9694 25.781 72.7574 25.2603C72.5455 24.7397 72.2309 24.267 71.8325 23.8705C71.4341 23.474 70.96 23.1616 70.4383 22.9521C69.9167 22.7426 69.3583 22.6402 68.7963 22.651ZM68.7963 29.481C68.2798 29.5171 67.7645 29.397 67.3172 29.1364C66.8699 28.8757 66.5114 28.4865 66.2883 28.0194C66.0651 27.5523 65.9877 27.0289 66.0659 26.5171C66.1442 26.0054 66.3746 25.5291 66.7272 25.15C67.0798 24.771 67.5383 24.5068 68.043 24.3918C68.5478 24.2768 69.0754 24.3162 69.5574 24.5051C70.0394 24.6939 70.4535 25.0234 70.7458 25.4507C71.038 25.878 71.195 26.3833 71.1963 26.901C71.2124 27.229 71.1626 27.5569 71.05 27.8654C70.9373 28.1739 70.7641 28.4567 70.5404 28.6972C70.3167 28.9376 70.0472 29.1309 69.7476 29.2655C69.4481 29.4001 69.1246 29.4734 68.7963 29.481ZM59.4863 22.651C58.6461 22.653 57.8254 22.9039 57.1278 23.3721C56.4302 23.8403 55.887 24.5048 55.5669 25.2815C55.2468 26.0583 55.164 26.9125 55.3291 27.7362C55.4943 28.56 55.8998 29.3163 56.4946 29.9097C57.0894 30.5031 57.8466 30.9069 58.6708 31.0701C59.4949 31.2332 60.349 31.1485 61.125 30.8265C61.901 30.5046 62.5641 29.9598 63.0307 29.2611C63.4972 28.5624 63.7463 27.7411 63.7463 26.901C63.7544 26.3389 63.6494 25.781 63.4374 25.2603C63.2255 24.7397 62.9109 24.267 62.5125 23.8705C62.1141 23.474 61.64 23.1616 61.1183 22.9521C60.5967 22.7426 60.0383 22.6402 59.4763 22.651H59.4863ZM59.4863 29.481C58.9696 29.5191 58.4534 29.4009 58.0049 29.1416C57.5564 28.8822 57.1963 28.4939 56.9716 28.0271C56.7469 27.5603 56.6679 27.0366 56.745 26.5243C56.822 26.012 57.0515 25.5348 57.4036 25.1547C57.7556 24.7746 58.214 24.5094 58.7189 24.3934C59.2239 24.2775 59.752 24.3163 60.2346 24.5047C60.7172 24.6931 61.1319 25.0225 61.4247 25.4499C61.7175 25.8773 61.8749 26.3829 61.8763 26.901C61.8924 27.229 61.8426 27.5569 61.73 27.8654C61.6173 28.1739 61.4441 28.4567 61.2204 28.6972C60.9967 28.9376 60.7272 29.1309 60.4276 29.2655C60.1281 29.4001 59.8046 29.4734 59.4763 29.481H59.4863ZM48.3963 23.961V25.761H52.7163C52.6485 26.6088 52.2961 27.4088 51.7163 28.031C51.2841 28.4712 50.7645 28.8161 50.191 29.0435C49.6175 29.2708 49.0027 29.3756 48.3863 29.351C47.1132 29.351 45.8923 28.8453 44.9921 27.9451C44.092 27.0449 43.5863 25.824 43.5863 24.551C43.5863 23.278 44.092 22.0571 44.9921 21.1569C45.8923 20.2567 47.1132 19.751 48.3863 19.751C49.6041 19.7311 50.78 20.195 51.6563 21.041L52.9263 19.771C52.3347 19.172 51.629 18.6979 50.8509 18.3767C50.0727 18.0554 49.2381 17.8937 48.3963 17.901C47.5073 17.8664 46.6204 18.0116 45.7889 18.328C44.9573 18.6443 44.1982 19.1253 43.557 19.742C42.9158 20.3587 42.4057 21.0986 42.0573 21.9172C41.7088 22.7358 41.5292 23.6163 41.5292 24.506C41.5292 25.3957 41.7088 26.2762 42.0573 27.0948C42.4057 27.9134 42.9158 28.6532 43.557 29.27C44.1982 29.8867 44.9573 30.3677 45.7889 30.684C46.6204 31.0004 47.5073 31.1456 48.3963 31.111C49.2522 31.1497 50.1065 31.0046 50.9017 30.6855C51.6969 30.3664 52.4145 29.8806 53.0063 29.261C54.0539 28.1099 54.6133 26.5968 54.5663 25.041C54.5695 24.662 54.536 24.2835 54.4663 23.911L48.3963 23.961ZM93.7063 25.361C93.4455 24.5937 92.9578 23.9238 92.3078 23.4398C91.6578 22.9559 90.8761 22.6808 90.0663 22.651C89.5193 22.6499 88.9778 22.7611 88.4755 22.9775C87.9731 23.194 87.5205 23.5112 87.1456 23.9095C86.7707 24.3079 86.4815 24.7788 86.2959 25.2934C86.1102 25.8079 86.0321 26.3551 86.0663 26.901C86.0541 27.4599 86.1547 28.0155 86.3621 28.5347C86.5695 29.0538 86.8794 29.5259 87.2733 29.9226C87.6672 30.3193 88.137 30.6325 88.6547 30.8436C89.1724 31.0546 89.7273 31.1592 90.2863 31.151C90.9858 31.1548 91.6753 30.985 92.2931 30.6569C92.9109 30.3288 93.4376 29.8526 93.8263 29.271L92.3763 28.271C92.1598 28.6318 91.8535 28.9302 91.4871 29.137C91.1208 29.3439 90.707 29.4521 90.2863 29.451C89.8531 29.4675 89.425 29.3533 89.0576 29.1232C88.6902 28.8932 88.4005 28.5579 88.2263 28.161L93.9163 25.811L93.7063 25.361ZM87.9063 26.781C87.886 26.4717 87.9276 26.1614 88.0288 25.8684C88.1299 25.5754 88.2885 25.3055 88.4952 25.0746C88.702 24.8436 88.9527 24.6563 89.2328 24.5234C89.5128 24.3906 89.8166 24.315 90.1263 24.301C90.4488 24.2797 90.7705 24.3537 91.0514 24.5137C91.3323 24.6737 91.56 24.9127 91.7063 25.201L87.9063 26.781ZM83.2863 30.901H85.1563V18.401H83.2863V30.901ZM80.2263 23.601H80.1563C79.8744 23.2859 79.5292 23.0339 79.1431 22.8616C78.7571 22.6892 78.339 22.6004 77.9163 22.601C76.8234 22.654 75.7929 23.1254 75.0382 23.9176C74.2836 24.7097 73.8626 25.7619 73.8626 26.856C73.8626 27.9501 74.2836 29.0023 75.0382 29.7944C75.7929 30.5866 76.8234 31.058 77.9163 31.111C78.34 31.1181 78.7602 31.0323 79.1472 30.8595C79.5342 30.6867 79.8786 30.4312 80.1563 30.111H80.2163V30.721C80.2163 32.351 79.3463 33.221 77.9463 33.221C77.48 33.2101 77.0275 33.0607 76.6464 32.7918C76.2653 32.5229 75.9728 32.1466 75.8063 31.711L74.1763 32.391C74.4831 33.1374 75.0059 33.775 75.6776 34.2222C76.3493 34.6695 77.1393 34.9058 77.9463 34.901C80.1363 34.901 81.9463 33.611 81.9463 30.471V22.901H80.2263V23.601ZM78.0863 29.481C77.4412 29.4241 76.8409 29.1277 76.4035 28.6502C75.9662 28.1726 75.7236 27.5485 75.7236 26.901C75.7236 26.2534 75.9662 25.6294 76.4035 25.1518C76.8409 24.6743 77.4412 24.3778 78.0863 24.321C78.4061 24.3374 78.7194 24.4177 79.0077 24.557C79.296 24.6964 79.5536 24.8921 79.7651 25.1325C79.9766 25.3729 80.1379 25.6533 80.2395 25.957C80.341 26.2607 80.3807 26.5817 80.3563 26.901C80.3835 27.2217 80.3455 27.5446 80.2444 27.8502C80.1434 28.1557 79.9814 28.4376 79.7682 28.6788C79.5551 28.92 79.2953 29.1154 79.0044 29.2533C78.7136 29.3912 78.3979 29.4686 78.0763 29.481H78.0863ZM102.466 18.401H97.9963V30.901H99.8663V26.161H102.476C103.009 26.1993 103.544 26.1274 104.048 25.9497C104.552 25.7721 105.014 25.4925 105.405 25.1285C105.796 24.7645 106.108 24.3237 106.322 23.8338C106.535 23.3439 106.645 22.8153 106.645 22.281C106.645 21.7467 106.535 21.2181 106.322 20.7282C106.108 20.2383 105.796 19.7975 105.405 19.4335C105.014 19.0695 104.552 18.7899 104.048 18.6123C103.544 18.4346 103.009 18.3627 102.476 18.401H102.466ZM102.466 24.401H99.8563V20.141H102.506C103.075 20.141 103.621 20.367 104.023 20.7693C104.425 21.1715 104.651 21.7171 104.651 22.286C104.651 22.8549 104.425 23.4005 104.023 23.8027C103.621 24.205 103.075 24.431 102.506 24.431L102.466 24.401ZM113.996 22.601C113.315 22.5603 112.638 22.7194 112.046 23.0587C111.454 23.398 110.975 23.9028 110.666 24.511L112.326 25.201C112.49 24.8993 112.738 24.6518 113.04 24.4884C113.341 24.3251 113.684 24.253 114.026 24.281C114.264 24.2533 114.504 24.2731 114.734 24.3393C114.963 24.4055 115.178 24.5168 115.364 24.6667C115.55 24.8166 115.704 25.002 115.818 25.2122C115.932 25.4224 116.003 25.6532 116.026 25.891V26.021C115.426 25.703 114.756 25.5381 114.076 25.541C112.286 25.541 110.476 26.541 110.476 28.351C110.494 28.7369 110.589 29.1154 110.755 29.464C110.922 29.8127 111.156 30.1244 111.445 30.3808C111.734 30.6372 112.072 30.833 112.438 30.9567C112.804 31.0804 113.191 31.1295 113.576 31.101C114.047 31.1348 114.519 31.0412 114.941 30.8301C115.363 30.619 115.721 30.298 115.976 29.901H116.036V30.901H117.836V26.091C117.836 23.901 116.176 22.631 114.046 22.631L113.996 22.601ZM113.766 29.451C113.156 29.451 112.306 29.141 112.306 28.391C112.306 27.391 113.366 27.061 114.306 27.061C114.9 27.0463 115.487 27.1914 116.006 27.481C115.944 28.0224 115.688 28.523 115.285 28.8905C114.883 29.258 114.361 29.4677 113.816 29.481L113.766 29.451ZM124.396 22.901L122.256 28.321H122.196L119.976 22.901H117.976L121.306 30.481L119.406 34.691H121.356L126.476 22.901H124.396ZM107.586 30.901H109.456V18.401H107.586V30.901Z"
          fill="white"
        />
        <path
          d="M11.0962 8.44085C10.7703 8.83196 10.6058 9.33265 10.6362 9.84085V31.9609C10.6058 32.4691 10.7703 32.9697 11.0962 33.3608L11.1662 33.4308L23.5562 21.0508V20.7609L11.1662 8.37085L11.0962 8.44085Z"
          fill="url(#paint0_linear_719_20129)"
        />
        <path
          d="M27.6562 25.1808L23.5562 21.0508V20.7609L27.6562 16.6208L27.7462 16.6709L32.6562 19.4608C34.0562 20.2508 34.0562 21.5509 32.6562 22.3509L27.7662 25.1308L27.6562 25.1808Z"
          fill="url(#paint1_linear_719_20129)"
        />
        <path
          d="M27.7763 25.1209L23.5563 20.9009L11.0963 33.3609C11.3816 33.6117 11.7456 33.755 12.1254 33.766C12.5052 33.7769 12.8769 33.6549 13.1763 33.4209L27.7863 25.1209"
          fill="url(#paint2_linear_719_20129)"
        />
        <path
          d="M27.7762 16.6809L13.1662 8.38093C12.8669 8.14694 12.4952 8.02488 12.1154 8.03583C11.7356 8.04679 11.3716 8.19008 11.0862 8.44093L23.5562 20.9009L27.7762 16.6809Z"
          fill="url(#paint3_linear_719_20129)"
        />
        <path
          opacity="0.2"
          d="M27.6563 25.0308L13.1663 33.2808C12.8775 33.4966 12.5267 33.6133 12.1663 33.6133C11.8058 33.6133 11.455 33.4966 11.1663 33.2808L11.0963 33.3508L11.1663 33.4208C11.4543 33.6382 11.8054 33.7558 12.1663 33.7558C12.5271 33.7558 12.8782 33.6382 13.1663 33.4208L27.7763 25.1208L27.6563 25.0308Z"
          fill="#131825"
        />
        <path
          opacity="0.12"
          d="M11.0962 33.2209C10.7703 32.8298 10.6058 32.3291 10.6362 31.8209V31.9709C10.6058 32.4791 10.7703 32.9798 11.0962 33.3709L11.1662 33.3009L11.0962 33.2209ZM32.6562 22.2009L27.6562 25.0309L27.7462 25.1209L32.6562 22.3409C32.9348 22.21 33.174 22.008 33.3496 21.7551C33.5251 21.5023 33.6309 21.2076 33.6562 20.9009C33.6 21.1796 33.4806 21.4417 33.3073 21.6671C33.1339 21.8924 32.9112 22.075 32.6562 22.2009Z"
          fill="#131825"
        />
        <path
          opacity="0.25"
          d="M13.1663 8.52082L32.6563 19.6008C32.9112 19.7267 33.1339 19.9093 33.3073 20.1346C33.4806 20.36 33.6 20.6221 33.6563 20.9008C33.6309 20.5941 33.5252 20.2994 33.3496 20.0466C33.174 19.7937 32.9349 19.5917 32.6563 19.4608L13.1663 8.38082C11.7663 7.59082 10.6263 8.25082 10.6263 9.85082V10.0008C10.6563 8.39082 11.7763 7.73082 13.1663 8.52082Z"
          fill="white"
        />
      </g>
      <defs>
        <linearGradient
          id="paint0_linear_719_20129"
          x1="22.4562"
          y1="9.61085"
          x2="5.67624"
          y2="26.3909"
          gradientUnits="userSpaceOnUse"
        >
          <stop stop-color="#00A0FF" />
          <stop offset="0.01" stop-color="#00A1FF" />
          <stop offset="0.26" stop-color="#00BEFF" />
          <stop offset="0.51" stop-color="#00D2FF" />
          <stop offset="0.76" stop-color="#00DFFF" />
          <stop offset="1" stop-color="#00E3FF" />
        </linearGradient>
        <linearGradient
          id="paint1_linear_719_20129"
          x1="34.4862"
          y1="20.9008"
          x2="10.2962"
          y2="20.9008"
          gradientUnits="userSpaceOnUse"
        >
          <stop stop-color="#FFE000" />
          <stop offset="0.41" stop-color="#FFBD00" />
          <stop offset="0.78" stop-color="#FFA500" />
          <stop offset="1" stop-color="#FF9C00" />
        </linearGradient>
        <linearGradient
          id="paint2_linear_719_20129"
          x1="25.4863"
          y1="23.2009"
          x2="2.72625"
          y2="45.9509"
          gradientUnits="userSpaceOnUse"
        >
          <stop stop-color="#FF3A44" />
          <stop offset="1" stop-color="#C31162" />
        </linearGradient>
        <linearGradient
          id="paint3_linear_719_20129"
          x1="7.95624"
          y1="1.08093"
          x2="18.1162"
          y2="11.2409"
          gradientUnits="userSpaceOnUse"
        >
          <stop stop-color="#32A071" />
          <stop offset="0.07" stop-color="#2DA771" />
          <stop offset="0.48" stop-color="#15CF74" />
          <stop offset="0.8" stop-color="#06E775" />
          <stop offset="1" stop-color="#00F076" />
        </linearGradient>
        <clipPath id="clip0_719_20129">
          <rect
            width="135"
            height="40"
            fill="white"
            transform="translate(0.65625 0.900879)"
          />
        </clipPath>
      </defs>
    </svg>