<svg width="34" height="34" viewBox="0 0 34 34" fill="none" xmlns="http://www.w3.org/2000/svg">
<rect x="0.25" y="5.10913" width="33.5" height="23.7857" rx="1.75" fill="white" stroke="#F5F5F5" stroke-width="0.5"/>
<mask id="mask0_331_14144" style="mask-type:alpha" maskUnits="userSpaceOnUse" x="0" y="4" width="34" height="26">
<rect x="0.25" y="5.10913" width="33.5" height="23.7857" rx="1.75" fill="white" stroke="white" stroke-width="0.5"/>
</mask>
<g mask="url(#mask0_331_14144)">
<rect x="24.2858" y="4.85913" width="9.71429" height="24.2857" fill="#FF3131"/>
<path fill-rule="evenodd" clip-rule="evenodd" d="M0 29.1448H9.71429V4.85913H0V29.1448Z" fill="#FF3131"/>
<path fill-rule="evenodd" clip-rule="evenodd" d="M19.3974 16.2234C19.1642 16.4566 18.7702 16.2457 18.8349 15.9223L19.4285 12.9543L17.8094 13.7638L16.9999 11.3352L16.1904 13.7638L14.5713 12.9543L15.165 15.9223C15.2296 16.2457 14.8356 16.4566 14.6024 16.2234L13.9975 15.6185C13.8674 15.4884 13.6563 15.4884 13.5261 15.6185L12.9523 16.1923L11.3333 15.3828L12.1428 17.0019L11.569 17.5757C11.4388 17.7059 11.4388 17.9169 11.569 18.0471L13.7618 20.24H16.1904L16.5952 22.6685H17.4047L17.8094 20.24H20.238L22.4309 18.0471C22.5611 17.9169 22.5611 17.7059 22.4309 17.5757L21.8571 17.0019L22.6666 15.3828L21.0475 16.1923L20.4737 15.6185C20.3435 15.4884 20.1325 15.4884 20.0023 15.6185L19.3974 16.2234Z" fill="#FF3131"/>
</g>
</svg>
