<svg width="70" height="51" viewBox="0 0 70 51" fill="none" xmlns="http://www.w3.org/2000/svg">
<rect y="0.00415039" width="70" height="50" rx="2" fill="white"/>
<mask id="mask0_1020_15821" style="mask-type:alpha" maskUnits="userSpaceOnUse" x="0" y="0" width="70" height="51">
<rect y="0.00415039" width="70" height="50" rx="2" fill="white"/>
</mask>
<g mask="url(#mask0_1020_15821)">
<rect y="0.00415039" width="70" height="50" fill="#043CAE"/>
<path fill-rule="evenodd" clip-rule="evenodd" d="M32.643 10.6948L35 10.0044L37.357 10.6948L36.6667 8.33774L37.357 5.98071L35 6.67107L32.643 5.98071L33.3333 8.33774L32.643 10.6948ZM32.643 44.0285L35 43.3381L37.357 44.0285L36.6667 41.6715L37.357 39.3145L35 40.0048L32.643 39.3145L33.3333 41.6715L32.643 44.0285ZM51.6667 26.6713L49.3096 27.3616L50 25.0046L49.3096 22.6476L51.6667 23.3379L54.0237 22.6476L53.3333 25.0046L54.0237 27.3616L51.6667 26.6713ZM15.9763 27.3616L18.3333 26.6713L20.6904 27.3616L20 25.0046L20.6904 22.6476L18.3333 23.3379L15.9763 22.6476L16.6667 25.0046L15.9763 27.3616ZM49.4338 18.3381L47.0767 19.0285L47.7671 16.6715L47.0767 14.3145L49.4338 15.0048L51.7908 14.3145L51.1004 16.6715L51.7908 19.0285L49.4338 18.3381ZM18.2092 35.6948L20.5662 35.0044L22.9233 35.6948L22.2329 33.3377L22.9233 30.9807L20.5662 31.6711L18.2092 30.9807L18.8996 33.3377L18.2092 35.6948ZM43.3333 12.2377L40.9763 12.928L41.6667 10.571L40.9763 8.21399L43.3333 8.90435L45.6904 8.21399L45 10.571L45.6904 12.928L43.3333 12.2377ZM24.3096 41.7952L26.6667 41.1049L29.0237 41.7952L28.3333 39.4382L29.0237 37.0812L26.6667 37.7715L24.3096 37.0812L25 39.4382L24.3096 41.7952ZM49.4338 35.0044L47.0767 35.6948L47.7671 33.3377L47.0767 30.9807L49.4338 31.6711L51.7908 30.9807L51.1004 33.3377L51.7908 35.6948L49.4338 35.0044ZM18.2092 19.0285L20.5662 18.3381L22.9233 19.0285L22.2329 16.6715L22.9233 14.3145L20.5662 15.0048L18.2092 14.3145L18.8996 16.6715L18.2092 19.0285ZM43.3333 41.1049L40.9763 41.7952L41.6667 39.4382L40.9763 37.0812L43.3333 37.7715L45.6904 37.0812L45 39.4382L45.6904 41.7952L43.3333 41.1049ZM24.3096 12.928L26.6667 12.2377L29.0237 12.928L28.3333 10.571L29.0237 8.21399L26.6667 8.90435L24.3096 8.21399L25 10.571L24.3096 12.928Z" fill="#FFD429"/>
</g>
</svg>
