<svg width="70" height="70" viewBox="0 0 70 70" fill="none" xmlns="http://www.w3.org/2000/svg">
<rect y="10.0042" width="70" height="50" rx="2" fill="white"/>
<mask id="mask0_262_9162" style="mask-type:alpha" maskUnits="userSpaceOnUse" x="0" y="10" width="70" height="51">
<rect y="10.0042" width="70" height="50" rx="2" fill="white"/>
</mask>
<g mask="url(#mask0_262_9162)">
<path fill-rule="evenodd" clip-rule="evenodd" d="M70 10.0042H0V13.3375H70V10.0042ZM70 16.6708H0V20.0042H70V16.6708ZM0 23.3375H70V26.6708H0V23.3375ZM70 30.0042H0V33.3375H70V30.0042ZM0 36.6708H70V40.0042H0V36.6708ZM70 43.3375H0V46.6708H70V43.3375ZM0 50.0042H70V53.3375H0V50.0042ZM70 56.6708H0V60.0042H70V56.6708Z" fill="#D02F44"/>
<rect y="10.0042" width="30" height="23.3333" fill="#46467F"/>
<g filter="url(#filter0_d_262_9162)">
<path fill-rule="evenodd" clip-rule="evenodd" d="M6.66668 15.0041C6.66668 15.9246 5.92048 16.6708 5.00001 16.6708C4.07954 16.6708 3.33334 15.9246 3.33334 15.0041C3.33334 14.0837 4.07954 13.3375 5.00001 13.3375C5.92048 13.3375 6.66668 14.0837 6.66668 15.0041ZM13.3333 15.0041C13.3333 15.9246 12.5872 16.6708 11.6667 16.6708C10.7462 16.6708 10 15.9246 10 15.0041C10 14.0837 10.7462 13.3375 11.6667 13.3375C12.5872 13.3375 13.3333 14.0837 13.3333 15.0041ZM18.3333 16.6708C19.2538 16.6708 20 15.9246 20 15.0041C20 14.0837 19.2538 13.3375 18.3333 13.3375C17.4129 13.3375 16.6667 14.0837 16.6667 15.0041C16.6667 15.9246 17.4129 16.6708 18.3333 16.6708ZM26.6667 15.0041C26.6667 15.9246 25.9205 16.6708 25 16.6708C24.0795 16.6708 23.3333 15.9246 23.3333 15.0041C23.3333 14.0837 24.0795 13.3375 25 13.3375C25.9205 13.3375 26.6667 14.0837 26.6667 15.0041ZM8.33334 20.0041C9.25382 20.0041 10 19.2579 10 18.3375C10 17.417 9.25382 16.6708 8.33334 16.6708C7.41287 16.6708 6.66668 17.417 6.66668 18.3375C6.66668 19.2579 7.41287 20.0041 8.33334 20.0041ZM16.6667 18.3375C16.6667 19.2579 15.9205 20.0041 15 20.0041C14.0795 20.0041 13.3333 19.2579 13.3333 18.3375C13.3333 17.417 14.0795 16.6708 15 16.6708C15.9205 16.6708 16.6667 17.417 16.6667 18.3375ZM21.6667 20.0041C22.5871 20.0041 23.3333 19.2579 23.3333 18.3375C23.3333 17.417 22.5871 16.6708 21.6667 16.6708C20.7462 16.6708 20 17.417 20 18.3375C20 19.2579 20.7462 20.0041 21.6667 20.0041ZM26.6667 21.6708C26.6667 22.5913 25.9205 23.3375 25 23.3375C24.0795 23.3375 23.3333 22.5913 23.3333 21.6708C23.3333 20.7503 24.0795 20.0041 25 20.0041C25.9205 20.0041 26.6667 20.7503 26.6667 21.6708ZM18.3333 23.3375C19.2538 23.3375 20 22.5913 20 21.6708C20 20.7503 19.2538 20.0041 18.3333 20.0041C17.4129 20.0041 16.6667 20.7503 16.6667 21.6708C16.6667 22.5913 17.4129 23.3375 18.3333 23.3375ZM13.3333 21.6708C13.3333 22.5913 12.5872 23.3375 11.6667 23.3375C10.7462 23.3375 10 22.5913 10 21.6708C10 20.7503 10.7462 20.0041 11.6667 20.0041C12.5872 20.0041 13.3333 20.7503 13.3333 21.6708ZM5.00001 23.3375C5.92048 23.3375 6.66668 22.5913 6.66668 21.6708C6.66668 20.7503 5.92048 20.0041 5.00001 20.0041C4.07954 20.0041 3.33334 20.7503 3.33334 21.6708C3.33334 22.5913 4.07954 23.3375 5.00001 23.3375ZM10 25.0041C10 25.9246 9.25382 26.6708 8.33334 26.6708C7.41287 26.6708 6.66668 25.9246 6.66668 25.0041C6.66668 24.0837 7.41287 23.3375 8.33334 23.3375C9.25382 23.3375 10 24.0837 10 25.0041ZM15 26.6708C15.9205 26.6708 16.6667 25.9246 16.6667 25.0041C16.6667 24.0837 15.9205 23.3375 15 23.3375C14.0795 23.3375 13.3333 24.0837 13.3333 25.0041C13.3333 25.9246 14.0795 26.6708 15 26.6708ZM23.3333 25.0041C23.3333 25.9246 22.5871 26.6708 21.6667 26.6708C20.7462 26.6708 20 25.9246 20 25.0041C20 24.0837 20.7462 23.3375 21.6667 23.3375C22.5871 23.3375 23.3333 24.0837 23.3333 25.0041ZM25 30.0041C25.9205 30.0041 26.6667 29.2579 26.6667 28.3375C26.6667 27.417 25.9205 26.6708 25 26.6708C24.0795 26.6708 23.3333 27.417 23.3333 28.3375C23.3333 29.2579 24.0795 30.0041 25 30.0041ZM20 28.3375C20 29.2579 19.2538 30.0041 18.3333 30.0041C17.4129 30.0041 16.6667 29.2579 16.6667 28.3375C16.6667 27.417 17.4129 26.6708 18.3333 26.6708C19.2538 26.6708 20 27.417 20 28.3375ZM11.6667 30.0041C12.5872 30.0041 13.3333 29.2579 13.3333 28.3375C13.3333 27.417 12.5872 26.6708 11.6667 26.6708C10.7462 26.6708 10 27.417 10 28.3375C10 29.2579 10.7462 30.0041 11.6667 30.0041ZM6.66668 28.3375C6.66668 29.2579 5.92048 30.0041 5.00001 30.0041C4.07954 30.0041 3.33334 29.2579 3.33334 28.3375C3.33334 27.417 4.07954 26.6708 5.00001 26.6708C5.92048 26.6708 6.66668 27.417 6.66668 28.3375Z" fill="url(#paint0_linear_262_9162)"/>
</g>
</g>
<defs>
<filter id="filter0_d_262_9162" x="3.33334" y="13.3375" width="23.3333" height="17.6667" filterUnits="userSpaceOnUse" color-interpolation-filters="sRGB">
<feFlood flood-opacity="0" result="BackgroundImageFix"/>
<feColorMatrix in="SourceAlpha" type="matrix" values="0 0 0 0 0 0 0 0 0 0 0 0 0 0 0 0 0 0 127 0" result="hardAlpha"/>
<feOffset dy="1"/>
<feColorMatrix type="matrix" values="0 0 0 0 0 0 0 0 0 0 0 0 0 0 0 0 0 0 0.06 0"/>
<feBlend mode="normal" in2="BackgroundImageFix" result="effect1_dropShadow_262_9162"/>
<feBlend mode="normal" in="SourceGraphic" in2="effect1_dropShadow_262_9162" result="shape"/>
</filter>
<linearGradient id="paint0_linear_262_9162" x1="3.33334" y1="13.3375" x2="3.33334" y2="30.0041" gradientUnits="userSpaceOnUse">
<stop stop-color="white"/>
<stop offset="1" stop-color="#F0F0F0"/>
</linearGradient>
</defs>
</svg>
