<svg width="8" height="9" viewBox="0 0 8 9" fill="none" xmlns="http://www.w3.org/2000/svg">
<circle cx="3.83922" cy="4.50981" r="3.83928" fill="#10B981"/>
<path d="M4.70114 4.10074L4.59812 4.20376C4.04686 4.75502 3.49554 5.30634 2.94417 5.85771C2.83263 5.96925 2.70084 5.99368 2.56921 5.93277C2.44241 5.87314 2.37282 5.76401 2.3913 5.63206C2.4079 5.53673 2.45288 5.44862 2.52036 5.37925C3.05346 4.83651 3.59347 4.30067 4.1314 3.76275L4.23329 3.66085C4.20041 3.65523 4.16726 3.65137 4.13397 3.64928C3.91828 3.64832 3.70244 3.65041 3.48691 3.64767C3.31623 3.64575 3.19843 3.52826 3.19618 3.36497C3.19393 3.18689 3.3008 3.06748 3.47936 3.06636C3.97544 3.06314 4.47126 3.06277 4.96681 3.06523C5.16722 3.06636 5.28005 3.17468 5.28374 3.37285C5.29285 3.86475 5.29826 4.35671 5.29998 4.84872C5.30062 5.02905 5.1833 5.13512 5.0041 5.13368C4.83502 5.13207 4.7238 5.02342 4.71866 4.84824C4.7132 4.64027 4.71271 4.43214 4.70966 4.22401C4.70902 4.19122 4.70484 4.15908 4.70114 4.10074Z" fill="white"/>
</svg>
