<svg width="18" height="18" viewBox="0 0 18 18" fill="none" xmlns="http://www.w3.org/2000/svg">
<path d="M12.5001 11H11.7101L11.4301 10.73C12.4101 9.59 13.0001 8.11 13.0001 6.5C13.0001 2.91 10.0901 0 6.50012 0C2.91012 0 0.00012207 2.91 0.00012207 6.5C0.00012207 10.09 2.91012 13 6.50012 13C8.11012 13 9.59012 12.41 10.7301 11.43L11.0001 11.71V12.5L16.0001 17.49L17.4901 16L12.5001 11ZM6.50012 11C4.01012 11 2.00012 8.99 2.00012 6.5C2.00012 4.01 4.01012 2 6.50012 2C8.99012 2 11.0001 4.01 11.0001 6.5C11.0001 8.99 8.99012 11 6.50012 11Z" fill="#555962"/>
</svg>
