<svg width="17" height="17" viewBox="0 0 17 17" fill="none" xmlns="http://www.w3.org/2000/svg">
<g clip-path="url(#clip0_97_11493)">
<path d="M8.5 0.725098C4.08214 0.725098 0.5 4.30724 0.5 8.7251C0.5 13.143 4.08214 16.7251 8.5 16.7251C12.9179 16.7251 16.5 13.143 16.5 8.7251C16.5 4.30724 12.9179 0.725098 8.5 0.725098ZM8.5 15.368C4.83214 15.368 1.85714 12.393 1.85714 8.7251C1.85714 5.05724 4.83214 2.08224 8.5 2.08224C12.1679 2.08224 15.1429 5.05724 15.1429 8.7251C15.1429 12.393 12.1679 15.368 8.5 15.368ZM12.0429 4.86617C11.9729 4.83884 11.8983 4.82556 11.8232 4.8271C11.7481 4.82863 11.6741 4.84494 11.6054 4.8751L6.76607 6.99296L4.65 11.8322C4.58571 11.9787 4.58571 12.1447 4.65 12.2912C4.71071 12.4305 4.82321 12.5394 4.96607 12.5947C5.03393 12.6215 5.10357 12.634 5.175 12.634C5.25357 12.634 5.33036 12.618 5.40357 12.5858L10.2429 10.468L12.3589 5.62867C12.3898 5.55804 12.4061 5.48191 12.4068 5.40484C12.4076 5.32776 12.3927 5.25133 12.3632 5.18013C12.3337 5.10893 12.2901 5.04442 12.2351 4.99047C12.18 4.93652 12.1146 4.89424 12.0429 4.86617ZM9.65714 9.1251L10.125 9.59295L9.36786 10.3501L8.9 9.88224L6.14286 11.0894L7.34821 8.33224L6.89286 7.8751L7.65 7.11796L8.10536 7.57331L10.8643 6.36796L9.65714 9.1251ZM7.65 7.11796L6.89286 7.8751L7.34821 8.33224L8.9 9.88224L9.36786 10.3501L10.125 9.59295L9.65714 9.1251L8.10714 7.57331L7.65 7.11796Z" fill="#0062FF"/>
</g>
<defs>
<clipPath id="clip0_97_11493">
<rect width="16" height="16" fill="white" transform="translate(0.5 0.725098)"/>
</clipPath>
</defs>
</svg>
