<svg width="20" height="20" viewBox="0 0 20 20" fill="none" xmlns="http://www.w3.org/2000/svg">
<path d="M14.6166 6.9252C15.7488 6.9252 16.6666 6.00738 16.6666 4.8752C16.6666 3.74301 15.7488 2.8252 14.6166 2.8252C13.4845 2.8252 12.5667 3.74301 12.5667 4.8752C12.5667 6.00738 13.4845 6.9252 14.6166 6.9252Z" stroke="#64748B" stroke-width="1.5" stroke-miterlimit="10" stroke-linecap="round" stroke-linejoin="round"/>
<path d="M5.38326 6.9252C6.51544 6.9252 7.43325 6.00738 7.43325 4.8752C7.43325 3.74301 6.51544 2.8252 5.38326 2.8252C4.25107 2.8252 3.33325 3.74301 3.33325 4.8752C3.33325 6.00738 4.25107 6.9252 5.38326 6.9252Z" stroke="#64748B" stroke-width="1.5" stroke-miterlimit="10" stroke-linecap="round" stroke-linejoin="round"/>
<path d="M14.6166 17.1752C15.7488 17.1752 16.6666 16.2574 16.6666 15.1252C16.6666 13.993 15.7488 13.0752 14.6166 13.0752C13.4845 13.0752 12.5667 13.993 12.5667 15.1252C12.5667 16.2574 13.4845 17.1752 14.6166 17.1752Z" stroke="#64748B" stroke-width="1.5" stroke-miterlimit="10" stroke-linecap="round" stroke-linejoin="round"/>
<path d="M5.38326 17.1752C6.51544 17.1752 7.43325 16.2574 7.43325 15.1252C7.43325 13.993 6.51544 13.0752 5.38326 13.0752C4.25107 13.0752 3.33325 13.993 3.33325 15.1252C3.33325 16.2574 4.25107 17.1752 5.38326 17.1752Z" stroke="#64748B" stroke-width="1.5" stroke-miterlimit="10" stroke-linecap="round" stroke-linejoin="round"/>
</svg>
