<svg width="118" height="80" viewBox="0 0 118 80" fill="none" xmlns="http://www.w3.org/2000/svg">
<path d="M46 48C42.134 48 39 44.866 39 41V0C46.732 0 53 6.26801 53 14V41C53 44.866 49.866 48 46 48Z" fill="#0062FF"/>
<path d="M72 48C68.134 48 65 44.866 65 41V0C72.732 0 79 6.26801 79 14V41C79 44.866 75.866 48 72 48Z" fill="#0062FF"/>
<path d="M11.242 69.644C11.242 70.568 11.0147 71.3747 10.56 72.064C10.1053 72.7533 9.44533 73.2887 8.58 73.67C7.72933 74.0367 6.688 74.22 5.456 74.22C4.91333 74.22 4.378 74.1833 3.85 74.11C3.33667 74.0367 2.838 73.934 2.354 73.802C1.88467 73.6553 1.43733 73.4793 1.012 73.274V70.172C1.76 70.4947 2.53 70.7953 3.322 71.074C4.12867 71.338 4.928 71.47 5.72 71.47C6.26267 71.47 6.69533 71.3967 7.018 71.25C7.35533 71.1033 7.59733 70.9053 7.744 70.656C7.90533 70.4067 7.986 70.1207 7.986 69.798C7.986 69.402 7.84667 69.0647 7.568 68.786C7.304 68.5073 6.94467 68.2507 6.49 68.016C6.03533 67.7667 5.51467 67.5027 4.928 67.224C4.56133 67.048 4.16533 66.8427 3.74 66.608C3.31467 66.3587 2.904 66.058 2.508 65.706C2.12667 65.3393 1.81133 64.8993 1.562 64.386C1.31267 63.8727 1.188 63.2567 1.188 62.538C1.188 61.5993 1.40067 60.8 1.826 60.14C2.266 59.4653 2.882 58.952 3.674 58.6C4.48067 58.248 5.42667 58.072 6.512 58.072C7.33333 58.072 8.11067 58.1673 8.844 58.358C9.592 58.5487 10.3693 58.82 11.176 59.172L10.098 61.768C9.37933 61.4747 8.734 61.2473 8.162 61.086C7.59 60.9247 7.00333 60.844 6.402 60.844C5.99133 60.844 5.63933 60.91 5.346 61.042C5.05267 61.174 4.82533 61.3573 4.664 61.592C4.51733 61.8267 4.444 62.1053 4.444 62.428C4.444 62.7947 4.554 63.11 4.774 63.374C4.994 63.6233 5.324 63.8653 5.764 64.1C6.204 64.3347 6.754 64.6133 7.414 64.936C8.22067 65.3173 8.90267 65.7133 9.46 66.124C10.032 66.5347 10.472 67.0187 10.78 67.576C11.088 68.1333 11.242 68.8227 11.242 69.644ZM18.8932 71.602C19.2599 71.602 19.6119 71.5653 19.9492 71.492C20.2865 71.4187 20.6239 71.3307 20.9612 71.228V73.67C20.6092 73.8167 20.1692 73.9413 19.6412 74.044C19.1279 74.1613 18.5632 74.22 17.9472 74.22C17.2285 74.22 16.5832 74.1027 16.0112 73.868C15.4539 73.6333 15.0065 73.23 14.6692 72.658C14.3465 72.0713 14.1852 71.2647 14.1852 70.238V64.452H12.6232V63.066L14.4272 61.966L15.3732 59.436H17.4632V61.988H20.8292V64.452H17.4632V70.238C17.4632 70.6927 17.5952 71.0373 17.8592 71.272C18.1232 71.492 18.4679 71.602 18.8932 71.602ZM30.0823 61.768C30.2436 61.768 30.4343 61.7753 30.6543 61.79C30.8743 61.8047 31.0503 61.8267 31.1823 61.856L30.9403 64.936C30.8376 64.9067 30.6836 64.8847 30.4783 64.87C30.2876 64.8407 30.1189 64.826 29.9723 64.826C29.5469 64.826 29.1363 64.8847 28.7403 65.002C28.3443 65.1047 27.9849 65.2733 27.6623 65.508C27.3543 65.7427 27.1049 66.058 26.9143 66.454C26.7383 66.8353 26.6503 67.312 26.6503 67.884V74H23.3723V61.988H25.8583L26.3423 64.012H26.4963C26.7309 63.6013 27.0243 63.2273 27.3763 62.89C27.7283 62.5527 28.1316 62.2813 28.5863 62.076C29.0556 61.8707 29.5543 61.768 30.0823 61.768ZM37.8828 61.768C38.9975 61.768 39.9508 61.9807 40.7428 62.406C41.5495 62.8313 42.1728 63.4473 42.6128 64.254C43.0528 65.0607 43.2728 66.0507 43.2728 67.224V68.808H35.5288C35.5581 69.732 35.8295 70.458 36.3428 70.986C36.8708 71.514 37.5968 71.778 38.5208 71.778C39.2981 71.778 40.0021 71.7047 40.6328 71.558C41.2635 71.3967 41.9161 71.1547 42.5908 70.832V73.362C42.0041 73.6553 41.3808 73.868 40.7208 74C40.0755 74.1467 39.2908 74.22 38.3668 74.22C37.1641 74.22 36.1008 74 35.1768 73.56C34.2528 73.1053 33.5268 72.4233 32.9988 71.514C32.4708 70.6047 32.2068 69.4607 32.2068 68.082C32.2068 66.674 32.4415 65.508 32.9108 64.584C33.3948 63.6453 34.0621 62.9413 34.9128 62.472C35.7635 62.0027 36.7535 61.768 37.8828 61.768ZM37.9048 64.1C37.2741 64.1 36.7461 64.3053 36.3208 64.716C35.9101 65.1267 35.6681 65.7647 35.5948 66.63H40.1928C40.1928 66.146 40.1048 65.7133 39.9288 65.332C39.7675 64.9507 39.5181 64.65 39.1808 64.43C38.8435 64.21 38.4181 64.1 37.9048 64.1ZM50.8808 61.768C51.9955 61.768 52.9488 61.9807 53.7408 62.406C54.5475 62.8313 55.1708 63.4473 55.6108 64.254C56.0508 65.0607 56.2708 66.0507 56.2708 67.224V68.808H48.5268C48.5562 69.732 48.8275 70.458 49.3408 70.986C49.8688 71.514 50.5948 71.778 51.5188 71.778C52.2962 71.778 53.0002 71.7047 53.6308 71.558C54.2615 71.3967 54.9142 71.1547 55.5888 70.832V73.362C55.0022 73.6553 54.3788 73.868 53.7188 74C53.0735 74.1467 52.2888 74.22 51.3648 74.22C50.1622 74.22 49.0988 74 48.1748 73.56C47.2508 73.1053 46.5248 72.4233 45.9968 71.514C45.4688 70.6047 45.2048 69.4607 45.2048 68.082C45.2048 66.674 45.4395 65.508 45.9088 64.584C46.3928 63.6453 47.0602 62.9413 47.9108 62.472C48.7615 62.0027 49.7515 61.768 50.8808 61.768ZM50.9028 64.1C50.2722 64.1 49.7442 64.3053 49.3188 64.716C48.9082 65.1267 48.6662 65.7647 48.5928 66.63H53.1908C53.1908 66.146 53.1028 65.7133 52.9268 65.332C52.7655 64.9507 52.5162 64.65 52.1788 64.43C51.8415 64.21 51.4162 64.1 50.9028 64.1ZM63.9889 71.602C64.3556 71.602 64.7076 71.5653 65.0449 71.492C65.3822 71.4187 65.7196 71.3307 66.0569 71.228V73.67C65.7049 73.8167 65.2649 73.9413 64.7369 74.044C64.2236 74.1613 63.6589 74.22 63.0429 74.22C62.3242 74.22 61.6789 74.1027 61.1069 73.868C60.5496 73.6333 60.1022 73.23 59.7649 72.658C59.4422 72.0713 59.2809 71.2647 59.2809 70.238V64.452H57.7189V63.066L59.5229 61.966L60.4689 59.436H62.5589V61.988H65.9249V64.452H62.5589V70.238C62.5589 70.6927 62.6909 71.0373 62.9549 71.272C63.2189 71.492 63.5636 71.602 63.9889 71.602Z" fill="#0062FF"/>
<path d="M73.556 58.292C74.9787 58.292 76.152 58.468 77.076 58.82C78 59.1573 78.6893 59.678 79.144 60.382C79.5987 61.0713 79.826 61.944 79.826 63C79.826 63.7187 79.6867 64.3493 79.408 64.892C79.144 65.42 78.7847 65.8747 78.33 66.256C77.89 66.6227 77.4133 66.9233 76.9 67.158L81.52 74H77.824L74.084 67.972H72.302V74H68.98V58.292H73.556ZM73.314 61.02H72.302V65.266H73.38C74.1133 65.266 74.7073 65.1853 75.162 65.024C75.6167 64.8627 75.9467 64.6207 76.152 64.298C76.3573 63.9607 76.46 63.5573 76.46 63.088C76.46 62.5893 76.3427 62.1933 76.108 61.9C75.888 61.592 75.5433 61.372 75.074 61.24C74.6193 61.0933 74.0327 61.02 73.314 61.02ZM88.1674 61.746C89.7808 61.746 91.0128 62.098 91.8634 62.802C92.7288 63.4913 93.1614 64.5547 93.1614 65.992V74H90.8734L90.2354 72.372H90.1474C89.8101 72.7973 89.4581 73.1493 89.0914 73.428C88.7394 73.7067 88.3288 73.9047 87.8594 74.022C87.4048 74.154 86.8401 74.22 86.1654 74.22C85.4614 74.22 84.8234 74.088 84.2514 73.824C83.6941 73.5453 83.2541 73.1273 82.9314 72.57C82.6088 71.998 82.4474 71.2793 82.4474 70.414C82.4474 69.138 82.8948 68.1993 83.7894 67.598C84.6841 66.982 86.0261 66.6447 87.8154 66.586L89.9054 66.52V65.992C89.9054 65.3613 89.7368 64.8993 89.3994 64.606C89.0768 64.3127 88.6221 64.166 88.0354 64.166C87.4488 64.166 86.8768 64.254 86.3194 64.43C85.7621 64.5913 85.2048 64.7967 84.6474 65.046L83.5694 62.824C84.2148 62.4867 84.9261 62.2227 85.7034 62.032C86.4954 61.8413 87.3168 61.746 88.1674 61.746ZM88.6294 68.478C87.5734 68.5073 86.8401 68.698 86.4294 69.05C86.0188 69.402 85.8134 69.864 85.8134 70.436C85.8134 70.9347 85.9601 71.294 86.2534 71.514C86.5468 71.7193 86.9281 71.822 87.3974 71.822C88.1014 71.822 88.6954 71.6167 89.1794 71.206C89.6634 70.7807 89.9054 70.1867 89.9054 69.424V68.434L88.6294 68.478ZM101.577 71.602C101.943 71.602 102.295 71.5653 102.633 71.492C102.97 71.4187 103.307 71.3307 103.645 71.228V73.67C103.293 73.8167 102.853 73.9413 102.325 74.044C101.811 74.1613 101.247 74.22 100.631 74.22C99.9121 74.22 99.2668 74.1027 98.6948 73.868C98.1374 73.6333 97.6901 73.23 97.3528 72.658C97.0301 72.0713 96.8688 71.2647 96.8688 70.238V64.452H95.3068V63.066L97.1108 61.966L98.0568 59.436H100.147V61.988H103.513V64.452H100.147V70.238C100.147 70.6927 100.279 71.0373 100.543 71.272C100.807 71.492 101.151 71.602 101.577 71.602ZM111.006 61.768C112.121 61.768 113.074 61.9807 113.866 62.406C114.673 62.8313 115.296 63.4473 115.736 64.254C116.176 65.0607 116.396 66.0507 116.396 67.224V68.808H108.652C108.681 69.732 108.953 70.458 109.466 70.986C109.994 71.514 110.72 71.778 111.644 71.778C112.421 71.778 113.125 71.7047 113.756 71.558C114.387 71.3967 115.039 71.1547 115.714 70.832V73.362C115.127 73.6553 114.504 73.868 113.844 74C113.199 74.1467 112.414 74.22 111.49 74.22C110.287 74.22 109.224 74 108.3 73.56C107.376 73.1053 106.65 72.4233 106.122 71.514C105.594 70.6047 105.33 69.4607 105.33 68.082C105.33 66.674 105.565 65.508 106.034 64.584C106.518 63.6453 107.185 62.9413 108.036 62.472C108.887 62.0027 109.877 61.768 111.006 61.768ZM111.028 64.1C110.397 64.1 109.869 64.3053 109.444 64.716C109.033 65.1267 108.791 65.7647 108.718 66.63H113.316C113.316 66.146 113.228 65.7133 113.052 65.332C112.891 64.9507 112.641 64.65 112.304 64.43C111.967 64.21 111.541 64.1 111.028 64.1Z" fill="#0062FF"/>
</svg>
