<svg width="22" height="20" viewBox="0 0 22 20" fill="none" xmlns="http://www.w3.org/2000/svg">
<path d="M20.2701 9.71768L20.3761 9.49865L20.2691 9.28013C18.5355 5.7395 14.9818 3.5 11 3.5C10.371 3.5 9.76397 3.57235 9.1763 3.67919L8.31666 2.81955C9.17764 2.61073 10.0748 2.5 11 2.5C15.7173 2.5 19.7581 5.39115 21.4609 9.50044C20.8581 10.9612 19.9573 12.2595 18.8342 13.3371L18.1352 12.6381C18.9997 11.8145 19.7302 10.8342 20.2701 9.71768ZM14.99 9.48798V9.49C14.99 9.49096 14.99 9.49193 14.99 9.49289L13.6969 8.19981C13.403 7.58586 12.9041 7.08703 12.2902 6.79308L10.9971 5.5C10.9981 5.5 10.999 5.5 11 5.5C13.2057 5.5 14.9989 7.28754 14.99 9.48798ZM2.42115 1.15846L19.443 18.1899L18.74 18.8929L15.6736 15.8264L15.4414 15.5943L15.1361 15.715C13.8538 16.2222 12.4561 16.5 11 16.5C6.28261 16.5 2.24178 13.6087 0.538996 9.4993C1.28272 7.6924 2.48758 6.12997 3.9988 4.94324L4.44218 4.59507L4.04355 4.19645L1.71586 1.86875L2.42115 1.15846ZM8.86355 9.01645L8.01 8.16289V9.36357C8.00977 9.36558 8.00941 9.36863 8.00886 9.37298L8.00849 9.37595C8.00579 9.39736 8 9.44337 8 9.5C8 11.1561 9.34386 12.5 11 12.5C11.1046 12.5 11.1991 12.4758 11.2344 12.4668C11.237 12.4661 11.2393 12.4656 11.2413 12.4651L12.098 12.2509L11.4736 11.6264L8.86355 9.01645ZM5.46355 5.61645L5.15487 5.30777L4.80737 5.57198C3.54084 6.53496 2.4681 7.77421 1.73092 9.28017L1.6233 9.50002L1.73094 9.71987C3.46448 13.2605 7.01821 15.5 11 15.5C11.9994 15.5 12.9638 15.3527 13.8816 15.1024L14.7128 14.8757L14.1036 14.2664L13.1236 13.2864L12.8848 13.0477L12.5741 13.18C12.0944 13.3843 11.5609 13.5 11 13.5C8.79614 13.5 7 11.7039 7 9.5C7 8.93959 7.11551 8.40498 7.32129 7.9129L7.45066 7.60355L7.21355 7.36645L5.46355 5.61645Z" fill="#323232" stroke="#475569"/>
</svg>
