<svg width="118" height="24" viewBox="0 0 118 24" fill="none" xmlns="http://www.w3.org/2000/svg">
<path d="M11.242 13.644C11.242 14.568 11.0147 15.3747 10.56 16.064C10.1053 16.7533 9.44533 17.2887 8.58 17.67C7.72933 18.0367 6.688 18.22 5.456 18.22C4.91333 18.22 4.378 18.1833 3.85 18.11C3.33667 18.0367 2.838 17.934 2.354 17.802C1.88467 17.6553 1.43733 17.4793 1.012 17.274V14.172C1.76 14.4947 2.53 14.7953 3.322 15.074C4.12867 15.338 4.928 15.47 5.72 15.47C6.26267 15.47 6.69533 15.3967 7.018 15.25C7.35533 15.1033 7.59733 14.9053 7.744 14.656C7.90533 14.4067 7.986 14.1207 7.986 13.798C7.986 13.402 7.84667 13.0647 7.568 12.786C7.304 12.5073 6.94467 12.2507 6.49 12.016C6.03533 11.7667 5.51467 11.5027 4.928 11.224C4.56133 11.048 4.16533 10.8427 3.74 10.608C3.31467 10.3587 2.904 10.058 2.508 9.706C2.12667 9.33933 1.81133 8.89933 1.562 8.386C1.31267 7.87267 1.188 7.25667 1.188 6.538C1.188 5.59933 1.40067 4.8 1.826 4.14C2.266 3.46533 2.882 2.952 3.674 2.6C4.48067 2.248 5.42667 2.072 6.512 2.072C7.33333 2.072 8.11067 2.16733 8.844 2.358C9.592 2.54867 10.3693 2.82 11.176 3.172L10.098 5.768C9.37933 5.47467 8.734 5.24733 8.162 5.086C7.59 4.92467 7.00333 4.844 6.402 4.844C5.99133 4.844 5.63933 4.91 5.346 5.042C5.05267 5.174 4.82533 5.35733 4.664 5.592C4.51733 5.82667 4.444 6.10533 4.444 6.428C4.444 6.79467 4.554 7.11 4.774 7.374C4.994 7.62333 5.324 7.86533 5.764 8.1C6.204 8.33467 6.754 8.61333 7.414 8.936C8.22067 9.31733 8.90267 9.71333 9.46 10.124C10.032 10.5347 10.472 11.0187 10.78 11.576C11.088 12.1333 11.242 12.8227 11.242 13.644ZM18.8932 15.602C19.2599 15.602 19.6119 15.5653 19.9492 15.492C20.2865 15.4187 20.6239 15.3307 20.9612 15.228V17.67C20.6092 17.8167 20.1692 17.9413 19.6412 18.044C19.1279 18.1613 18.5632 18.22 17.9472 18.22C17.2285 18.22 16.5832 18.1027 16.0112 17.868C15.4539 17.6333 15.0065 17.23 14.6692 16.658C14.3465 16.0713 14.1852 15.2647 14.1852 14.238V8.452H12.6232V7.066L14.4272 5.966L15.3732 3.436H17.4632V5.988H20.8292V8.452H17.4632V14.238C17.4632 14.6927 17.5952 15.0373 17.8592 15.272C18.1232 15.492 18.4679 15.602 18.8932 15.602ZM30.0823 5.768C30.2436 5.768 30.4343 5.77533 30.6543 5.79C30.8743 5.80467 31.0503 5.82667 31.1823 5.856L30.9403 8.936C30.8376 8.90667 30.6836 8.88467 30.4783 8.87C30.2876 8.84067 30.1189 8.826 29.9723 8.826C29.5469 8.826 29.1363 8.88467 28.7403 9.002C28.3443 9.10467 27.9849 9.27333 27.6623 9.508C27.3543 9.74267 27.1049 10.058 26.9143 10.454C26.7383 10.8353 26.6503 11.312 26.6503 11.884V18H23.3723V5.988H25.8583L26.3423 8.012H26.4963C26.7309 7.60133 27.0243 7.22733 27.3763 6.89C27.7283 6.55267 28.1316 6.28133 28.5863 6.076C29.0556 5.87067 29.5543 5.768 30.0823 5.768ZM37.8828 5.768C38.9975 5.768 39.9508 5.98067 40.7428 6.406C41.5495 6.83133 42.1728 7.44733 42.6128 8.254C43.0528 9.06067 43.2728 10.0507 43.2728 11.224V12.808H35.5288C35.5581 13.732 35.8295 14.458 36.3428 14.986C36.8708 15.514 37.5968 15.778 38.5208 15.778C39.2981 15.778 40.0021 15.7047 40.6328 15.558C41.2635 15.3967 41.9161 15.1547 42.5908 14.832V17.362C42.0041 17.6553 41.3808 17.868 40.7208 18C40.0755 18.1467 39.2908 18.22 38.3668 18.22C37.1641 18.22 36.1008 18 35.1768 17.56C34.2528 17.1053 33.5268 16.4233 32.9988 15.514C32.4708 14.6047 32.2068 13.4607 32.2068 12.082C32.2068 10.674 32.4415 9.508 32.9108 8.584C33.3948 7.64533 34.0621 6.94133 34.9128 6.472C35.7635 6.00267 36.7535 5.768 37.8828 5.768ZM37.9048 8.1C37.2741 8.1 36.7461 8.30533 36.3208 8.716C35.9101 9.12667 35.6681 9.76467 35.5948 10.63H40.1928C40.1928 10.146 40.1048 9.71333 39.9288 9.332C39.7675 8.95067 39.5181 8.65 39.1808 8.43C38.8435 8.21 38.4181 8.1 37.9048 8.1ZM50.8808 5.768C51.9955 5.768 52.9488 5.98067 53.7408 6.406C54.5475 6.83133 55.1708 7.44733 55.6108 8.254C56.0508 9.06067 56.2708 10.0507 56.2708 11.224V12.808H48.5268C48.5562 13.732 48.8275 14.458 49.3408 14.986C49.8688 15.514 50.5948 15.778 51.5188 15.778C52.2962 15.778 53.0002 15.7047 53.6308 15.558C54.2615 15.3967 54.9142 15.1547 55.5888 14.832V17.362C55.0022 17.6553 54.3788 17.868 53.7188 18C53.0735 18.1467 52.2888 18.22 51.3648 18.22C50.1622 18.22 49.0988 18 48.1748 17.56C47.2508 17.1053 46.5248 16.4233 45.9968 15.514C45.4688 14.6047 45.2048 13.4607 45.2048 12.082C45.2048 10.674 45.4395 9.508 45.9088 8.584C46.3928 7.64533 47.0602 6.94133 47.9108 6.472C48.7615 6.00267 49.7515 5.768 50.8808 5.768ZM50.9028 8.1C50.2722 8.1 49.7442 8.30533 49.3188 8.716C48.9082 9.12667 48.6662 9.76467 48.5928 10.63H53.1908C53.1908 10.146 53.1028 9.71333 52.9268 9.332C52.7655 8.95067 52.5162 8.65 52.1788 8.43C51.8415 8.21 51.4162 8.1 50.9028 8.1ZM63.9889 15.602C64.3556 15.602 64.7076 15.5653 65.0449 15.492C65.3822 15.4187 65.7196 15.3307 66.0569 15.228V17.67C65.7049 17.8167 65.2649 17.9413 64.7369 18.044C64.2236 18.1613 63.6589 18.22 63.0429 18.22C62.3242 18.22 61.6789 18.1027 61.1069 17.868C60.5496 17.6333 60.1022 17.23 59.7649 16.658C59.4422 16.0713 59.2809 15.2647 59.2809 14.238V8.452H57.7189V7.066L59.5229 5.966L60.4689 3.436H62.5589V5.988H65.9249V8.452H62.5589V14.238C62.5589 14.6927 62.6909 15.0373 62.9549 15.272C63.2189 15.492 63.5636 15.602 63.9889 15.602Z" fill="#0062FF"/>
<path d="M73.556 2.292C74.9787 2.292 76.152 2.468 77.076 2.82C78 3.15733 78.6893 3.678 79.144 4.382C79.5987 5.07133 79.826 5.944 79.826 7C79.826 7.71867 79.6867 8.34933 79.408 8.892C79.144 9.42 78.7847 9.87467 78.33 10.256C77.89 10.6227 77.4133 10.9233 76.9 11.158L81.52 18H77.824L74.084 11.972H72.302V18H68.98V2.292H73.556ZM73.314 5.02H72.302V9.266H73.38C74.1133 9.266 74.7073 9.18533 75.162 9.024C75.6167 8.86267 75.9467 8.62067 76.152 8.298C76.3573 7.96067 76.46 7.55733 76.46 7.088C76.46 6.58933 76.3427 6.19333 76.108 5.9C75.888 5.592 75.5433 5.372 75.074 5.24C74.6193 5.09333 74.0327 5.02 73.314 5.02ZM88.1674 5.746C89.7808 5.746 91.0128 6.098 91.8634 6.802C92.7288 7.49133 93.1614 8.55467 93.1614 9.992V18H90.8734L90.2354 16.372H90.1474C89.8101 16.7973 89.4581 17.1493 89.0914 17.428C88.7394 17.7067 88.3288 17.9047 87.8594 18.022C87.4048 18.154 86.8401 18.22 86.1654 18.22C85.4614 18.22 84.8234 18.088 84.2514 17.824C83.6941 17.5453 83.2541 17.1273 82.9314 16.57C82.6088 15.998 82.4474 15.2793 82.4474 14.414C82.4474 13.138 82.8948 12.1993 83.7894 11.598C84.6841 10.982 86.0261 10.6447 87.8154 10.586L89.9054 10.52V9.992C89.9054 9.36133 89.7368 8.89933 89.3994 8.606C89.0768 8.31267 88.6221 8.166 88.0354 8.166C87.4488 8.166 86.8768 8.254 86.3194 8.43C85.7621 8.59133 85.2048 8.79667 84.6474 9.046L83.5694 6.824C84.2148 6.48667 84.9261 6.22267 85.7034 6.032C86.4954 5.84133 87.3168 5.746 88.1674 5.746ZM88.6294 12.478C87.5734 12.5073 86.8401 12.698 86.4294 13.05C86.0188 13.402 85.8134 13.864 85.8134 14.436C85.8134 14.9347 85.9601 15.294 86.2534 15.514C86.5468 15.7193 86.9281 15.822 87.3974 15.822C88.1014 15.822 88.6954 15.6167 89.1794 15.206C89.6634 14.7807 89.9054 14.1867 89.9054 13.424V12.434L88.6294 12.478ZM101.577 15.602C101.943 15.602 102.295 15.5653 102.633 15.492C102.97 15.4187 103.307 15.3307 103.645 15.228V17.67C103.293 17.8167 102.853 17.9413 102.325 18.044C101.811 18.1613 101.247 18.22 100.631 18.22C99.9121 18.22 99.2668 18.1027 98.6948 17.868C98.1374 17.6333 97.6901 17.23 97.3528 16.658C97.0301 16.0713 96.8688 15.2647 96.8688 14.238V8.452H95.3068V7.066L97.1108 5.966L98.0568 3.436H100.147V5.988H103.513V8.452H100.147V14.238C100.147 14.6927 100.279 15.0373 100.543 15.272C100.807 15.492 101.151 15.602 101.577 15.602ZM111.006 5.768C112.121 5.768 113.074 5.98067 113.866 6.406C114.673 6.83133 115.296 7.44733 115.736 8.254C116.176 9.06067 116.396 10.0507 116.396 11.224V12.808H108.652C108.681 13.732 108.953 14.458 109.466 14.986C109.994 15.514 110.72 15.778 111.644 15.778C112.421 15.778 113.125 15.7047 113.756 15.558C114.387 15.3967 115.039 15.1547 115.714 14.832V17.362C115.127 17.6553 114.504 17.868 113.844 18C113.199 18.1467 112.414 18.22 111.49 18.22C110.287 18.22 109.224 18 108.3 17.56C107.376 17.1053 106.65 16.4233 106.122 15.514C105.594 14.6047 105.33 13.4607 105.33 12.082C105.33 10.674 105.565 9.508 106.034 8.584C106.518 7.64533 107.185 6.94133 108.036 6.472C108.887 6.00267 109.877 5.768 111.006 5.768ZM111.028 8.1C110.397 8.1 109.869 8.30533 109.444 8.716C109.033 9.12667 108.791 9.76467 108.718 10.63H113.316C113.316 10.146 113.228 9.71333 113.052 9.332C112.891 8.95067 112.641 8.65 112.304 8.43C111.967 8.21 111.541 8.1 111.028 8.1Z" fill="#0062FF"/>
</svg>
