<svg width="24" height="25" viewBox="0 0 24 25" fill="none" xmlns="http://www.w3.org/2000/svg">
<path d="M17.4046 10.68V13.31C17.4046 13.48 17.395 13.64 17.3759 13.8C17.2325 15.57 16.2289 16.45 14.3938 16.45H14.1453C13.9923 16.45 13.8394 16.53 13.7439 16.66L12.9888 17.71C12.6542 18.18 12.119 18.18 11.7844 17.71L11.0294 16.66C10.9433 16.55 10.7617 16.45 10.6279 16.45H10.3794C8.37224 16.45 7.36865 15.93 7.36865 13.3V10.67C7.36865 8.75004 8.21931 7.70002 9.90152 7.55002C10.0544 7.53002 10.2074 7.52002 10.3699 7.52002H14.3842C16.401 7.54002 17.4046 8.59002 17.4046 10.68Z" fill="#EF4444" stroke="#EF4444" stroke-width="1.5" stroke-miterlimit="10" stroke-linecap="round" stroke-linejoin="round"/>
<path d="M12.3866 22.5C17.6654 22.5 21.9446 18.0228 21.9446 12.5C21.9446 6.97715 17.6654 2.5 12.3866 2.5C7.10788 2.5 2.82861 6.97715 2.82861 12.5C2.82861 18.0228 7.10788 22.5 12.3866 22.5Z" stroke="white" stroke-width="1.5" stroke-miterlimit="10" stroke-linecap="round" stroke-linejoin="round"/>
</svg>
