<svg width="14" height="16" viewBox="0 0 14 16" fill="none" xmlns="http://www.w3.org/2000/svg">
<path d="M4 9.5C3.7875 9.5 3.60925 9.428 3.46525 9.284C3.32175 9.1405 3.25 8.9625 3.25 8.75C3.25 8.5375 3.32175 8.35925 3.46525 8.21525C3.60925 8.07175 3.7875 8 4 8C4.2125 8 4.39075 8.07175 4.53475 8.21525C4.67825 8.35925 4.75 8.5375 4.75 8.75C4.75 8.9625 4.67825 9.1405 4.53475 9.284C4.39075 9.428 4.2125 9.5 4 9.5ZM7 9.5C6.7875 9.5 6.6095 9.428 6.466 9.284C6.322 9.1405 6.25 8.9625 6.25 8.75C6.25 8.5375 6.322 8.35925 6.466 8.21525C6.6095 8.07175 6.7875 8 7 8C7.2125 8 7.39075 8.07175 7.53475 8.21525C7.67825 8.35925 7.75 8.5375 7.75 8.75C7.75 8.9625 7.67825 9.1405 7.53475 9.284C7.39075 9.428 7.2125 9.5 7 9.5ZM10 9.5C9.7875 9.5 9.6095 9.428 9.466 9.284C9.322 9.1405 9.25 8.9625 9.25 8.75C9.25 8.5375 9.322 8.35925 9.466 8.21525C9.6095 8.07175 9.7875 8 10 8C10.2125 8 10.3905 8.07175 10.534 8.21525C10.678 8.35925 10.75 8.5375 10.75 8.75C10.75 8.9625 10.678 9.1405 10.534 9.284C10.3905 9.428 10.2125 9.5 10 9.5ZM1.75 15.5C1.3375 15.5 0.98425 15.3533 0.69025 15.0597C0.39675 14.7657 0.25 14.4125 0.25 14V3.5C0.25 3.0875 0.39675 2.7345 0.69025 2.441C0.98425 2.147 1.3375 2 1.75 2H2.5V0.5H4V2H10V0.5H11.5V2H12.25C12.6625 2 13.0157 2.147 13.3097 2.441C13.6033 2.7345 13.75 3.0875 13.75 3.5V14C13.75 14.4125 13.6033 14.7657 13.3097 15.0597C13.0157 15.3533 12.6625 15.5 12.25 15.5H1.75ZM1.75 14H12.25V6.5H1.75V14ZM1.75 5H12.25V3.5H1.75V5ZM1.75 5V3.5V5Z" fill="#333333"/>
</svg>
