<svg width="28" height="28" viewBox="0 0 28 28" fill="none" xmlns="http://www.w3.org/2000/svg">
<g clip-path="url(#clip0_89_2470)">
<path d="M6.2223 17.3333V14H9.55564V11.7778H6.2223V8.44444H4.00008V11.7778H0.666748V14H4.00008V17.3333H6.2223ZM14.0001 15.9444C11.4001 15.9444 6.2223 17.2444 6.2223 19.8333V21.7778H21.7779V19.8333C21.7779 17.2444 16.6001 15.9444 14.0001 15.9444ZM8.8223 19.5555C9.75564 18.9111 12.0112 18.1667 14.0001 18.1667C15.989 18.1667 18.2445 18.9111 19.1779 19.5555H8.8223ZM14.0001 14C16.1445 14 17.889 12.2555 17.889 10.1111C17.889 7.96666 16.1445 6.22221 14.0001 6.22221C11.8556 6.22221 10.1112 7.96666 10.1112 10.1111C10.1112 12.2555 11.8556 14 14.0001 14ZM14.0001 8.44444C14.9223 8.44444 15.6667 9.18888 15.6667 10.1111C15.6667 11.0333 14.9223 11.7778 14.0001 11.7778C13.0779 11.7778 12.3334 11.0333 12.3334 10.1111C12.3334 9.18888 13.0779 8.44444 14.0001 8.44444ZM19.5556 14C21.7001 14 23.4445 12.2555 23.4445 10.1111C23.4445 7.96666 21.7001 6.22221 19.5556 6.22221C19.289 6.22221 19.0223 6.24444 18.7668 6.29999C19.6112 7.34444 20.1112 8.66666 20.1112 10.1111C20.1112 11.5555 19.589 12.8667 18.7445 13.9111C19.0112 13.9667 19.2779 14 19.5556 14ZM22.1334 16.2444C23.2445 17.1444 24.0001 18.3222 24.0001 19.8333V21.7778H27.3334V19.8333C27.3334 17.9555 24.6223 16.7667 22.1334 16.2444Z" fill="#64748B"/>
</g>
<defs>
<clipPath id="clip0_89_2470">
<rect width="26.6667" height="26.6667" fill="white" transform="translate(0.666748 0.666656)"/>
</clipPath>
</defs>
</svg>
