<svg width="24" height="24" viewBox="0 0 24 24" fill="none" xmlns="http://www.w3.org/2000/svg">
<rect y="3.42999" width="24" height="17.1429" rx="2" fill="white"/>
<mask id="mask0_47_2984" style="mask-type:alpha" maskUnits="userSpaceOnUse" x="0" y="3" width="24" height="18">
<rect y="3.42999" width="24" height="17.1429" rx="2" fill="white"/>
</mask>
<g mask="url(#mask0_47_2984)">
<rect y="3.42999" width="24" height="17.1429" fill="#0A17A7"/>
<path fill-rule="evenodd" clip-rule="evenodd" d="M-1.09929 1.78732L9.14286 8.69574V2.28715H14.8571V8.6957L25.0992 1.78733L26.3774 3.68227L18.2796 9.14429H24V14.8586H18.2796L26.3774 20.3206L25.0992 22.2155L14.8571 15.3071V21.7157H9.14286V15.3071L-1.09929 22.2155L-2.37744 20.3206L5.72031 14.8586H3.8147e-06V9.14429H5.72034L-2.37745 3.68227L-1.09929 1.78732Z" fill="white"/>
<path fill-rule="evenodd" clip-rule="evenodd" d="M27.1356 1.53249C27.2368 1.68629 27.1941 1.89299 27.0403 1.99417L16.1843 9.13605C16.0305 9.23723 15.8238 9.19457 15.7226 9.04078C15.6215 8.88698 15.6641 8.68028 15.8179 8.5791L26.6739 1.43722C26.8277 1.33604 27.0344 1.3787 27.1356 1.53249Z" fill="#DB1F35"/>
<path fill-rule="evenodd" clip-rule="evenodd" d="M27.1621 21.9166C27.265 21.7639 27.2246 21.5567 27.072 21.4539L17.3401 14.8943C17.1875 14.7914 16.9803 14.8317 16.8774 14.9844C16.7745 15.137 16.8149 15.3442 16.9675 15.4471L26.6994 22.0067C26.852 22.1096 27.0592 22.0692 27.1621 21.9166Z" fill="#DB1F35"/>
<path fill-rule="evenodd" clip-rule="evenodd" d="M-3.56563 1.81142C-3.46275 1.65875 -3.25559 1.6184 -3.10293 1.72129L7.04823 8.56252C7.2009 8.66541 7.24125 8.87257 7.13836 9.02523C7.03548 9.17789 6.82832 9.21825 6.67566 9.11536L-3.4755 2.27412C-3.62817 2.17124 -3.66852 1.96408 -3.56563 1.81142Z" fill="#DB1F35"/>
<path fill-rule="evenodd" clip-rule="evenodd" d="M-3.56701 22.7375C-3.46527 22.8909 -3.25841 22.9328 -3.10499 22.831L8.14717 15.3691C8.3006 15.2674 8.34249 15.0605 8.24075 14.9071C8.139 14.7537 7.93215 14.7118 7.77872 14.8135L-3.47344 22.2754C-3.62686 22.3772 -3.66876 22.584 -3.56701 22.7375Z" fill="#DB1F35"/>
<path fill-rule="evenodd" clip-rule="evenodd" d="M0 13.7157H10.2857V20.5728H13.7143V13.7157H24V10.2871H13.7143V3.42999H10.2857V10.2871H0V13.7157Z" fill="#E6273E"/>
</g>
</svg>
