<svg width="124" height="76" viewBox="0 0 124 76" fill="none" xmlns="http://www.w3.org/2000/svg">
<path d="M50.9443 45.2097C47.6565 45.2097 44.9912 42.5444 44.9912 39.2566V0.98671C51.5668 0.98671 56.8974 6.31729 56.8974 12.8929V39.2566C56.8974 42.5444 54.2321 45.2097 50.9443 45.2097Z" fill="#0062FF"/>
<path d="M73.0559 45.2097C69.7681 45.2097 67.1028 42.5444 67.1028 39.2566V0.98671C73.6784 0.98671 79.009 6.31729 79.009 12.8929V39.2566C79.009 42.5444 76.3437 45.2097 73.0559 45.2097Z" fill="#0062FF"/>
<path d="M12.9298 64.972C12.9298 65.8292 12.7189 66.5776 12.2971 67.2172C11.8753 67.8567 11.263 68.3534 10.4601 68.7071C9.67093 69.0473 8.70483 69.2174 7.56183 69.2174C7.05837 69.2174 6.56171 69.1834 6.07186 69.1154C5.59561 69.0473 5.13297 68.9521 4.68394 68.8296C4.24851 68.6935 3.83349 68.5303 3.43889 68.3398V65.4619C4.13285 65.7612 4.84722 66.0402 5.582 66.2987C6.33039 66.5436 7.07198 66.6661 7.80676 66.6661C8.31022 66.6661 8.71163 66.598 9.01099 66.462C9.32395 66.3259 9.54847 66.1422 9.68454 65.9109C9.83422 65.6796 9.90906 65.4142 9.90906 65.1149C9.90906 64.7475 9.77979 64.4345 9.52125 64.176C9.27633 63.9175 8.94295 63.6793 8.52113 63.4616C8.09931 63.2303 7.61626 62.9854 7.07198 62.7268C6.7318 62.5635 6.36441 62.3731 5.96981 62.1553C5.5752 61.924 5.1942 61.6451 4.82681 61.3185C4.47303 60.9783 4.18047 60.5701 3.94915 60.0939C3.71783 59.6176 3.60217 59.0461 3.60217 58.3794C3.60217 57.5085 3.79948 56.7669 4.19408 56.1546C4.60229 55.5287 5.17379 55.0524 5.90857 54.7259C6.65696 54.3993 7.53462 54.236 8.54154 54.236C9.30354 54.236 10.0247 54.3245 10.7051 54.5014C11.399 54.6782 12.1202 54.93 12.8686 55.2565L11.8685 57.665C11.2017 57.3929 10.603 57.1819 10.0723 57.0323C9.54166 56.8826 8.99738 56.8078 8.43949 56.8078C8.05849 56.8078 7.73192 56.869 7.45978 56.9914C7.18764 57.1139 6.97673 57.284 6.82705 57.5017C6.69098 57.7194 6.62295 57.978 6.62295 58.2773C6.62295 58.6175 6.725 58.91 6.9291 59.155C7.13321 59.3863 7.43937 59.6108 7.84758 59.8285C8.2558 60.0462 8.76606 60.3048 9.37838 60.6041C10.1268 60.9579 10.7595 61.3253 11.2766 61.7063C11.8072 62.0873 12.2155 62.5363 12.5012 63.0534C12.787 63.5705 12.9298 64.21 12.9298 64.972ZM20.0283 66.7885C20.3684 66.7885 20.695 66.7545 21.008 66.6865C21.3209 66.6185 21.6339 66.5368 21.9469 66.4416V68.7071C21.6203 68.8432 21.2121 68.9589 20.7222 69.0541C20.246 69.163 19.7221 69.2174 19.1506 69.2174C18.4839 69.2174 17.8851 69.1086 17.3545 68.8908C16.8374 68.6731 16.4224 68.2989 16.1094 67.7683C15.8101 67.224 15.6604 66.4756 15.6604 65.5231V60.1551H14.2112V58.8692L15.8849 57.8487L16.7626 55.5015H18.7016V57.8691H21.8244V60.1551H18.7016V65.5231C18.7016 65.9449 18.824 66.2647 19.069 66.4824C19.3139 66.6865 19.6337 66.7885 20.0283 66.7885ZM30.409 57.665C30.5587 57.665 30.7355 57.6718 30.9396 57.6854C31.1438 57.699 31.307 57.7194 31.4295 57.7466L31.205 60.6041C31.1097 60.5769 30.9669 60.5565 30.7764 60.5429C30.5995 60.5157 30.443 60.5021 30.3069 60.5021C29.9123 60.5021 29.5313 60.5565 29.1639 60.6654C28.7965 60.7606 28.4632 60.9171 28.1638 61.1348C27.8781 61.3525 27.6467 61.6451 27.4698 62.0125C27.3066 62.3662 27.2249 62.8085 27.2249 63.3392V69.0133H24.1837V57.8691H26.4901L26.9392 59.7469H27.082C27.2998 59.3659 27.5719 59.0189 27.8985 58.7059C28.225 58.393 28.5992 58.1412 29.0211 57.9507C29.4565 57.7602 29.9191 57.665 30.409 57.665ZM37.646 57.665C38.6801 57.665 39.5646 57.8623 40.2994 58.2569C41.0477 58.6515 41.626 59.223 42.0343 59.9714C42.4425 60.7198 42.6466 61.6383 42.6466 62.7268V64.1964H35.462C35.4892 65.0536 35.741 65.7272 36.2172 66.2171C36.7071 66.7069 37.3806 66.9518 38.2379 66.9518C38.9591 66.9518 39.6122 66.8838 40.1973 66.7477C40.7824 66.598 41.3879 66.3735 42.0138 66.0742V68.4214C41.4696 68.6935 40.8913 68.8908 40.2789 69.0133C39.6802 69.1494 38.9523 69.2174 38.095 69.2174C36.9792 69.2174 35.9927 69.0133 35.1355 68.6051C34.2782 68.1833 33.6047 67.5505 33.1148 66.7069C32.625 65.8633 32.38 64.8019 32.38 63.5228C32.38 62.2166 32.5977 61.1348 33.0332 60.2776C33.4822 59.4067 34.1013 58.7536 34.8905 58.3181C35.6797 57.8827 36.5982 57.665 37.646 57.665ZM37.6664 59.8285C37.0813 59.8285 36.5914 60.019 36.1968 60.4C35.8158 60.781 35.5913 61.3729 35.5233 62.1757H39.7891C39.7891 61.7267 39.7074 61.3253 39.5442 60.9715C39.3945 60.6177 39.1632 60.3388 38.8502 60.1347C38.5372 59.9306 38.1426 59.8285 37.6664 59.8285ZM49.705 57.665C50.7391 57.665 51.6236 57.8623 52.3584 58.2569C53.1067 58.6515 53.6851 59.223 54.0933 59.9714C54.5015 60.7198 54.7056 61.6383 54.7056 62.7268V64.1964H47.521C47.5483 65.0536 47.8 65.7272 48.2762 66.2171C48.7661 66.7069 49.4396 66.9518 50.2969 66.9518C51.0181 66.9518 51.6712 66.8838 52.2563 66.7477C52.8414 66.598 53.4469 66.3735 54.0729 66.0742V68.4214C53.5286 68.6935 52.9503 68.8908 52.3379 69.0133C51.7392 69.1494 51.0113 69.2174 50.154 69.2174C49.0382 69.2174 48.0517 69.0133 47.1945 68.6051C46.3372 68.1833 45.6637 67.5505 45.1738 66.7069C44.684 65.8633 44.439 64.8019 44.439 63.5228C44.439 62.2166 44.6568 61.1348 45.0922 60.2776C45.5412 59.4067 46.1603 58.7536 46.9495 58.3181C47.7388 57.8827 48.6572 57.665 49.705 57.665ZM49.7254 59.8285C49.1403 59.8285 48.6504 60.019 48.2558 60.4C47.8748 60.781 47.6503 61.3729 47.5823 62.1757H51.8481C51.8481 61.7267 51.7665 61.3253 51.6032 60.9715C51.4535 60.6177 51.2222 60.3388 50.9092 60.1347C50.5962 59.9306 50.2016 59.8285 49.7254 59.8285ZM61.866 66.7885C62.2062 66.7885 62.5328 66.7545 62.8458 66.6865C63.1587 66.6185 63.4717 66.5368 63.7846 66.4416V68.7071C63.4581 68.8432 63.0499 68.9589 62.56 69.0541C62.0838 69.163 61.5599 69.2174 60.9884 69.2174C60.3216 69.2174 59.7229 69.1086 59.1923 68.8908C58.6752 68.6731 58.2602 68.2989 57.9472 67.7683C57.6478 67.224 57.4982 66.4756 57.4982 65.5231V60.1551H56.049V58.8692L57.7227 57.8487L58.6003 55.5015H60.5394V57.8691H63.6622V60.1551H60.5394V65.5231C60.5394 65.9449 60.6618 66.2647 60.9067 66.4824C61.1517 66.6865 61.4714 66.7885 61.866 66.7885Z" fill="#0062FF"/>
<path d="M70.5824 54.4401C71.9023 54.4401 72.9908 54.6034 73.8481 54.93C74.7053 55.2429 75.3448 55.726 75.7667 56.3791C76.1885 57.0187 76.3994 57.8283 76.3994 58.808C76.3994 59.4747 76.2701 60.0598 76.0116 60.5633C75.7667 61.0532 75.4333 61.475 75.0115 61.8288C74.6033 62.1689 74.161 62.4479 73.6848 62.6656L77.971 69.0133H74.542L71.0722 63.4208H69.419V69.0133H66.337V54.4401H70.5824ZM70.3578 56.971H69.419V60.9103H70.4191C71.0994 60.9103 71.6505 60.8355 72.0723 60.6858C72.4942 60.5361 72.8003 60.3116 72.9908 60.0122C73.1813 59.6993 73.2766 59.3251 73.2766 58.8896C73.2766 58.427 73.1677 58.0596 72.95 57.7875C72.7459 57.5017 72.4261 57.2976 71.9907 57.1751C71.5689 57.0391 71.0246 56.971 70.3578 56.971ZM84.1382 57.6446C85.635 57.6446 86.778 57.9712 87.5672 58.6243C88.37 59.2638 88.7714 60.2503 88.7714 61.5838V69.0133H86.6487L86.0568 67.5029H85.9752C85.6622 67.8975 85.3356 68.2241 84.9955 68.4826C84.6689 68.7412 84.2879 68.9249 83.8525 69.0337C83.4306 69.1562 82.9068 69.2174 82.2808 69.2174C81.6277 69.2174 81.0358 69.0949 80.5051 68.85C79.988 68.5915 79.5798 68.2037 79.2805 67.6866C78.9811 67.1559 78.8314 66.4892 78.8314 65.6864C78.8314 64.5026 79.2465 63.6317 80.0765 63.0738C80.9065 62.5023 82.1516 62.1894 83.8116 62.1349L85.7506 62.0737V61.5838C85.7506 60.9987 85.5942 60.5701 85.2812 60.298C84.9818 60.0258 84.56 59.8898 84.0157 59.8898C83.4715 59.8898 82.9408 59.9714 82.4237 60.1347C81.9066 60.2844 81.3896 60.4749 80.8725 60.7062L79.8724 58.6447C80.4711 58.3317 81.131 58.0868 81.8522 57.9099C82.587 57.733 83.349 57.6446 84.1382 57.6446ZM84.5668 63.8902C83.5871 63.9175 82.9068 64.0943 82.5258 64.4209C82.1448 64.7475 81.9543 65.1761 81.9543 65.7068C81.9543 66.1694 82.0903 66.5028 82.3625 66.7069C82.6346 66.8974 82.9884 66.9927 83.4238 66.9927C84.077 66.9927 84.6281 66.8022 85.0771 66.4212C85.5261 66.0266 85.7506 65.4755 85.7506 64.7679V63.8494L84.5668 63.8902ZM96.5788 66.7885C96.919 66.7885 97.2455 66.7545 97.5585 66.6865C97.8715 66.6185 98.1844 66.5368 98.4974 66.4416V68.7071C98.1708 68.8432 97.7626 68.9589 97.2728 69.0541C96.7965 69.163 96.2726 69.2174 95.7011 69.2174C95.0344 69.2174 94.4357 69.1086 93.905 68.8908C93.3879 68.6731 92.9729 68.2989 92.66 67.7683C92.3606 67.224 92.2109 66.4756 92.2109 65.5231V60.1551H90.7618V58.8692L92.4354 57.8487L93.3131 55.5015H95.2521V57.8691H98.3749V60.1551H95.2521V65.5231C95.2521 65.9449 95.3746 66.2647 95.6195 66.4824C95.8644 66.6865 96.1842 66.7885 96.5788 66.7885ZM105.327 57.665C106.361 57.665 107.245 57.8623 107.98 58.2569C108.728 58.6515 109.307 59.223 109.715 59.9714C110.123 60.7198 110.327 61.6383 110.327 62.7268V64.1964H103.143C103.17 65.0536 103.422 65.7272 103.898 66.2171C104.388 66.7069 105.061 66.9518 105.919 66.9518C106.64 66.9518 107.293 66.8838 107.878 66.7477C108.463 66.598 109.069 66.3735 109.695 66.0742V68.4214C109.15 68.6935 108.572 68.8908 107.96 69.0133C107.361 69.1494 106.633 69.2174 105.776 69.2174C104.66 69.2174 103.673 69.0133 102.816 68.6051C101.959 68.1833 101.285 67.5505 100.796 66.7069C100.306 65.8633 100.061 64.8019 100.061 63.5228C100.061 62.2166 100.278 61.1348 100.714 60.2776C101.163 59.4067 101.782 58.7536 102.571 58.3181C103.36 57.8827 104.279 57.665 105.327 57.665ZM105.347 59.8285C104.762 59.8285 104.272 60.019 103.878 60.4C103.497 60.781 103.272 61.3729 103.204 62.1757H107.47C107.47 61.7267 107.388 61.3253 107.225 60.9715C107.075 60.6177 106.844 60.3388 106.531 60.1347C106.218 59.9306 105.823 59.8285 105.347 59.8285ZM120.57 65.7068C120.57 66.4552 120.393 67.0947 120.039 67.6254C119.685 68.1425 119.155 68.5371 118.447 68.8092C117.739 69.0813 116.862 69.2174 115.814 69.2174C115.038 69.2174 114.372 69.163 113.814 69.0541C113.256 68.9589 112.698 68.7956 112.14 68.5643V66.0538C112.739 66.3259 113.385 66.5504 114.079 66.7273C114.773 66.9042 115.385 66.9927 115.916 66.9927C116.515 66.9927 116.937 66.9042 117.182 66.7273C117.44 66.5504 117.569 66.3191 117.569 66.0334C117.569 65.8429 117.515 65.6728 117.406 65.5231C117.311 65.3734 117.093 65.2033 116.753 65.0128C116.413 64.8223 115.882 64.5774 115.161 64.278C114.467 63.9787 113.895 63.6861 113.446 63.4004C112.997 63.101 112.664 62.7472 112.446 62.339C112.229 61.9172 112.12 61.3933 112.12 60.7674C112.12 59.7333 112.521 58.9577 113.324 58.4406C114.127 57.9235 115.195 57.665 116.528 57.665C117.222 57.665 117.882 57.733 118.508 57.8691C119.134 58.0052 119.781 58.2297 120.447 58.5427L119.529 60.7266C119.161 60.5633 118.808 60.4204 118.467 60.298C118.127 60.1755 117.794 60.0803 117.467 60.0122C117.154 59.9442 116.828 59.9102 116.488 59.9102C116.039 59.9102 115.698 59.9714 115.467 60.0939C115.249 60.2163 115.141 60.4 115.141 60.645C115.141 60.8218 115.195 60.9851 115.304 61.1348C115.426 61.2709 115.651 61.4206 115.977 61.5838C116.318 61.7471 116.814 61.9648 117.467 62.237C118.107 62.4955 118.658 62.7677 119.121 63.0534C119.583 63.3255 119.937 63.6725 120.182 64.0943C120.44 64.5026 120.57 65.04 120.57 65.7068Z" fill="#0062FF"/>
</svg>
